%TF.GenerationSoftware,KiCad,Pcbnew,8.0.2-1*%
%TF.CreationDate,2024-05-28T09:05:20+02:00*%
%TF.ProjectId,Antenna Rotator,416e7465-6e6e-4612-9052-6f7461746f72,rev?*%
%TF.SameCoordinates,Original*%
%TF.FileFunction,Copper,L2,Bot*%
%TF.FilePolarity,Positive*%
%FSLAX46Y46*%
G04 Gerber Fmt 4.6, Leading zero omitted, Abs format (unit mm)*
G04 Created by KiCad (PCBNEW 8.0.2-1) date 2024-05-28 09:05:20*
%MOMM*%
%LPD*%
G01*
G04 APERTURE LIST*
%TA.AperFunction,ComponentPad*%
%ADD10R,1.700000X1.700000*%
%TD*%
%TA.AperFunction,ComponentPad*%
%ADD11O,1.700000X1.700000*%
%TD*%
%TA.AperFunction,ComponentPad*%
%ADD12R,2.300000X2.300000*%
%TD*%
%TA.AperFunction,ComponentPad*%
%ADD13C,2.300000*%
%TD*%
%TA.AperFunction,ComponentPad*%
%ADD14C,6.400000*%
%TD*%
%TA.AperFunction,ComponentPad*%
%ADD15C,1.600000*%
%TD*%
%TA.AperFunction,ComponentPad*%
%ADD16R,3.000000X3.000000*%
%TD*%
%TA.AperFunction,ComponentPad*%
%ADD17C,3.000000*%
%TD*%
%TA.AperFunction,ComponentPad*%
%ADD18C,2.340000*%
%TD*%
%TA.AperFunction,ComponentPad*%
%ADD19R,1.600000X1.600000*%
%TD*%
%TA.AperFunction,ComponentPad*%
%ADD20O,1.600000X1.600000*%
%TD*%
%TA.AperFunction,ViaPad*%
%ADD21C,0.600000*%
%TD*%
%TA.AperFunction,Conductor*%
%ADD22C,0.200000*%
%TD*%
%TA.AperFunction,Conductor*%
%ADD23C,0.500000*%
%TD*%
%TA.AperFunction,Conductor*%
%ADD24C,2.000000*%
%TD*%
G04 APERTURE END LIST*
D10*
%TO.P,J4,1,Pin_1*%
%TO.N,/D0*%
X172720000Y-87700000D03*
D11*
%TO.P,J4,2,Pin_2*%
%TO.N,/D1*%
X172720000Y-85160000D03*
%TD*%
D10*
%TO.P,J5,1,Pin_1*%
%TO.N,/BUTTON_STOP*%
X207645000Y-116840000D03*
D11*
%TO.P,J5,2,Pin_2*%
%TO.N,GND*%
X210185000Y-116840000D03*
%TO.P,J5,3,Pin_3*%
%TO.N,/BUTTON_CCW*%
X207645000Y-114300000D03*
%TO.P,J5,4,Pin_4*%
%TO.N,GND*%
X210185000Y-114300000D03*
%TO.P,J5,5,Pin_5*%
%TO.N,/BUTTON_CW*%
X207645000Y-111760000D03*
%TO.P,J5,6,Pin_6*%
%TO.N,GND*%
X210185000Y-111760000D03*
%TO.P,J5,7,Pin_7*%
%TO.N,/BUTTON_UP*%
X207645000Y-109220000D03*
%TO.P,J5,8,Pin_8*%
%TO.N,GND*%
X210185000Y-109220000D03*
%TO.P,J5,9,Pin_9*%
%TO.N,/BUTTON_DOWN*%
X207645000Y-106680000D03*
%TO.P,J5,10,Pin_10*%
%TO.N,GND*%
X210185000Y-106680000D03*
%TD*%
D12*
%TO.P,K4,1*%
%TO.N,Net-(Q4-D)*%
X207770000Y-65740000D03*
D13*
%TO.P,K4,2*%
%TO.N,/MOTOR_EL_2*%
X207770000Y-55580000D03*
%TO.P,K4,3*%
%TO.N,+12V*%
X207770000Y-47960000D03*
%TO.P,K4,4*%
%TO.N,GND*%
X200150000Y-50500000D03*
%TO.P,K4,5*%
%TO.N,+5V*%
X200150000Y-65740000D03*
%TD*%
D14*
%TO.P,H2,1,1*%
%TO.N,GND*%
X215000000Y-37500000D03*
%TD*%
D12*
%TO.P,K1,1*%
%TO.N,Net-(Q1-D)*%
X170120000Y-65740000D03*
D13*
%TO.P,K1,2*%
%TO.N,/MOTOR_AZ_1*%
X170120000Y-55580000D03*
%TO.P,K1,3*%
%TO.N,+12V*%
X170120000Y-47960000D03*
%TO.P,K1,4*%
%TO.N,GND*%
X162500000Y-50500000D03*
%TO.P,K1,5*%
%TO.N,+5V*%
X162500000Y-65740000D03*
%TD*%
D14*
%TO.P,H3,1,1*%
%TO.N,GND*%
X150000000Y-125000000D03*
%TD*%
D15*
%TO.P,RV2,1*%
%TO.N,/PULSE_AZ_IN*%
X172000000Y-94800000D03*
%TO.P,RV2,2*%
%TO.N,GND*%
X167000000Y-93500000D03*
%TD*%
D10*
%TO.P,J3,1,Pin_1*%
%TO.N,/A0*%
X200025000Y-113240000D03*
D11*
%TO.P,J3,2,Pin_2*%
%TO.N,/A1*%
X200025000Y-110700000D03*
%TO.P,J3,3,Pin_3*%
%TO.N,/A2*%
X200025000Y-108160000D03*
%TD*%
D12*
%TO.P,K3,1*%
%TO.N,Net-(Q3-D)*%
X195220000Y-65740000D03*
D13*
%TO.P,K3,2*%
%TO.N,/MOTOR_EL_1*%
X195220000Y-55580000D03*
%TO.P,K3,3*%
%TO.N,+12V*%
X195220000Y-47960000D03*
%TO.P,K3,4*%
%TO.N,GND*%
X187600000Y-50500000D03*
%TO.P,K3,5*%
%TO.N,+5V*%
X187600000Y-65740000D03*
%TD*%
D16*
%TO.P,J1,1,Pin_1*%
%TO.N,GND*%
X165100000Y-40000000D03*
D17*
%TO.P,J1,2,Pin_2*%
%TO.N,/DC_IN*%
X160020000Y-40000000D03*
%TD*%
D14*
%TO.P,H4,1,1*%
%TO.N,GND*%
X215000000Y-125000000D03*
%TD*%
D16*
%TO.P,J2,1,Pin_1*%
%TO.N,/MOTOR_AZ_1*%
X171440000Y-40000000D03*
D17*
%TO.P,J2,2,Pin_2*%
%TO.N,/MOTOR_AZ_2*%
X176520000Y-40000000D03*
%TO.P,J2,3,Pin_3*%
%TO.N,/MOTOR_EL_1*%
X181600000Y-40000000D03*
%TO.P,J2,4,Pin_4*%
%TO.N,/MOTOR_EL_2*%
X186680000Y-40000000D03*
%TO.P,J2,5,Pin_5*%
%TO.N,/PULSE_AZ_IN*%
X191760000Y-40000000D03*
%TO.P,J2,6,Pin_6*%
%TO.N,GND*%
X196840000Y-40000000D03*
%TO.P,J2,7,Pin_7*%
%TO.N,/PULSE_EL_IN*%
X201920000Y-40000000D03*
%TO.P,J2,8,Pin_8*%
%TO.N,GND*%
X207000000Y-40000000D03*
%TD*%
D14*
%TO.P,H1,1,1*%
%TO.N,GND*%
X150000000Y-37500000D03*
%TD*%
D18*
%TO.P,RV1,1,1*%
%TO.N,GND*%
X157480000Y-117975000D03*
%TO.P,RV1,2,2*%
%TO.N,Net-(J7-Pin_6)*%
X162480000Y-115475000D03*
%TO.P,RV1,3,3*%
%TO.N,+5V*%
X157480000Y-112975000D03*
%TD*%
D19*
%TO.P,A1,1,D1/TX*%
%TO.N,/D1*%
X178500000Y-85200000D03*
D20*
%TO.P,A1,2,D0/RX*%
%TO.N,/D0*%
X178500000Y-87740000D03*
%TO.P,A1,3,~{RESET}*%
%TO.N,unconnected-(A1-~{RESET}-Pad3)*%
X178500000Y-90280000D03*
%TO.P,A1,4,GND*%
%TO.N,GND*%
X178500000Y-92820000D03*
%TO.P,A1,5,D2*%
%TO.N,/PULSE_AZ*%
X178500000Y-95360000D03*
%TO.P,A1,6,D3*%
%TO.N,/PULSE_EL*%
X178500000Y-97900000D03*
%TO.P,A1,7,D4*%
%TO.N,/LCD_D4*%
X178500000Y-100440000D03*
%TO.P,A1,8,D5*%
%TO.N,/LCD_D5*%
X178500000Y-102980000D03*
%TO.P,A1,9,D6*%
%TO.N,/LCD_D6*%
X178500000Y-105520000D03*
%TO.P,A1,10,D7*%
%TO.N,/LCD_D7*%
X178500000Y-108060000D03*
%TO.P,A1,11,D8*%
%TO.N,/CW*%
X178500000Y-110600000D03*
%TO.P,A1,12,D9*%
%TO.N,/CCW*%
X178500000Y-113140000D03*
%TO.P,A1,13,D10*%
%TO.N,/UP*%
X178500000Y-115680000D03*
%TO.P,A1,14,D11*%
%TO.N,/DOWN*%
X178500000Y-118220000D03*
%TO.P,A1,15,D12*%
%TO.N,/LCD_RS*%
X178500000Y-120760000D03*
%TO.P,A1,16,D13*%
%TO.N,/LCD_ENABLE*%
X193740000Y-120760000D03*
%TO.P,A1,17,3V3*%
%TO.N,unconnected-(A1-3V3-Pad17)*%
X193740000Y-118220000D03*
%TO.P,A1,18,AREF*%
%TO.N,unconnected-(A1-AREF-Pad18)*%
X193740000Y-115680000D03*
%TO.P,A1,19,A0*%
%TO.N,/A0*%
X193740000Y-113140000D03*
%TO.P,A1,20,A1*%
%TO.N,/A1*%
X193740000Y-110600000D03*
%TO.P,A1,21,A2*%
%TO.N,/A2*%
X193740000Y-108060000D03*
%TO.P,A1,22,A3*%
%TO.N,/BUTTON_STOP*%
X193740000Y-105520000D03*
%TO.P,A1,23,A4*%
%TO.N,/BUTTON_CCW*%
X193740000Y-102980000D03*
%TO.P,A1,24,A5*%
%TO.N,/BUTTON_CW*%
X193740000Y-100440000D03*
%TO.P,A1,25,A6*%
%TO.N,/BUTTON_UP*%
X193740000Y-97900000D03*
%TO.P,A1,26,A7*%
%TO.N,/BUTTON_DOWN*%
X193740000Y-95360000D03*
%TO.P,A1,27,+5V*%
%TO.N,+5V*%
X193740000Y-92820000D03*
%TO.P,A1,28,~{RESET}*%
%TO.N,unconnected-(A1-~{RESET}-Pad28)*%
X193740000Y-90280000D03*
%TO.P,A1,29,GND*%
%TO.N,GND*%
X193740000Y-87740000D03*
%TO.P,A1,30,VIN*%
%TO.N,unconnected-(A1-VIN-Pad30)*%
X193740000Y-85200000D03*
%TD*%
D12*
%TO.P,K2,1*%
%TO.N,Net-(Q2-D)*%
X182670000Y-65740000D03*
D13*
%TO.P,K2,2*%
%TO.N,/MOTOR_AZ_2*%
X182670000Y-55580000D03*
%TO.P,K2,3*%
%TO.N,+12V*%
X182670000Y-47960000D03*
%TO.P,K2,4*%
%TO.N,GND*%
X175050000Y-50500000D03*
%TO.P,K2,5*%
%TO.N,+5V*%
X175050000Y-65740000D03*
%TD*%
D15*
%TO.P,RV3,1*%
%TO.N,/PULSE_EL_IN*%
X204875000Y-85200000D03*
%TO.P,RV3,2*%
%TO.N,GND*%
X199875000Y-83900000D03*
%TD*%
D10*
%TO.P,J7,1,Pin_1*%
%TO.N,/LCD_D4*%
X172085000Y-110490000D03*
D11*
%TO.P,J7,2,Pin_2*%
%TO.N,+5V*%
X169545000Y-110490000D03*
%TO.P,J7,3,Pin_3*%
%TO.N,/LCD_D5*%
X172085000Y-113030000D03*
%TO.P,J7,4,Pin_4*%
%TO.N,+5V*%
X169545000Y-113030000D03*
%TO.P,J7,5,Pin_5*%
%TO.N,/LCD_D6*%
X172085000Y-115570000D03*
%TO.P,J7,6,Pin_6*%
%TO.N,Net-(J7-Pin_6)*%
X169545000Y-115570000D03*
%TO.P,J7,7,Pin_7*%
%TO.N,/LCD_D7*%
X172085000Y-118110000D03*
%TO.P,J7,8,Pin_8*%
%TO.N,GND*%
X169545000Y-118110000D03*
%TO.P,J7,9,Pin_9*%
%TO.N,/LCD_RS*%
X172085000Y-120650000D03*
%TO.P,J7,10,Pin_10*%
%TO.N,GND*%
X169545000Y-120650000D03*
%TO.P,J7,11,Pin_11*%
%TO.N,/LCD_ENABLE*%
X172085000Y-123190000D03*
%TO.P,J7,12,Pin_12*%
%TO.N,GND*%
X169545000Y-123190000D03*
%TD*%
D21*
%TO.N,/UP*%
X195500000Y-74000000D03*
%TO.N,+5V*%
X163500000Y-90754000D03*
X198000000Y-71000000D03*
X185000000Y-71000000D03*
X198500000Y-92500000D03*
X172500000Y-71000000D03*
X163500000Y-70500000D03*
%TO.N,GND*%
X165100000Y-78994000D03*
X182499000Y-100330000D03*
%TO.N,/DOWN*%
X208500000Y-74000000D03*
%TO.N,/CCW*%
X183500000Y-74000000D03*
%TO.N,/CW*%
X171200684Y-73799316D03*
%TO.N,/PULSE_EL*%
X206500000Y-99187000D03*
X182000000Y-98000000D03*
%TD*%
D22*
%TO.N,/UP*%
X180800000Y-113380000D02*
X180800000Y-78200000D01*
X182500000Y-76500000D02*
X193000000Y-76500000D01*
X193000000Y-76500000D02*
X195500000Y-74000000D01*
X180800000Y-78200000D02*
X182500000Y-76500000D01*
X178500000Y-115680000D02*
X180800000Y-113380000D01*
D23*
%TO.N,+5V*%
X198000000Y-67890000D02*
X200150000Y-65740000D01*
D22*
X198180000Y-92820000D02*
X198500000Y-92500000D01*
D23*
X186000000Y-64140000D02*
X187600000Y-65740000D01*
X162500000Y-69000000D02*
X162500000Y-69500000D01*
X198550000Y-64140000D02*
X200150000Y-65740000D01*
X187600000Y-65740000D02*
X189200000Y-64140000D01*
X164100000Y-64140000D02*
X173450000Y-64140000D01*
X173450000Y-64140000D02*
X175050000Y-65740000D01*
X189200000Y-64140000D02*
X198550000Y-64140000D01*
X185000000Y-68340000D02*
X187600000Y-65740000D01*
X176650000Y-64140000D02*
X186000000Y-64140000D01*
X175050000Y-65740000D02*
X176650000Y-64140000D01*
D22*
X193740000Y-92820000D02*
X198180000Y-92820000D01*
D23*
X172500000Y-68290000D02*
X175050000Y-65740000D01*
X162500000Y-65740000D02*
X164100000Y-64140000D01*
X162500000Y-65740000D02*
X162500000Y-69000000D01*
X163500000Y-90754000D02*
X163500000Y-70500000D01*
X198000000Y-71000000D02*
X198000000Y-67890000D01*
X172500000Y-71000000D02*
X172500000Y-68290000D01*
X162500000Y-69500000D02*
X163500000Y-70500000D01*
X185000000Y-71000000D02*
X185000000Y-68340000D01*
%TO.N,GND*%
X167000000Y-80894000D02*
X165100000Y-78994000D01*
D24*
X162500000Y-43621000D02*
X162500000Y-50500000D01*
D22*
X204000000Y-37000000D02*
X207000000Y-40000000D01*
X194340000Y-37000000D02*
X196840000Y-39500000D01*
X196840000Y-40000000D02*
X199840000Y-37000000D01*
D23*
X167680000Y-92820000D02*
X167000000Y-93500000D01*
X178500000Y-92820000D02*
X167680000Y-92820000D01*
D22*
X165100000Y-40000000D02*
X168100000Y-37000000D01*
D23*
X167000000Y-93500000D02*
X167000000Y-80894000D01*
D22*
X199840000Y-37000000D02*
X204000000Y-37000000D01*
X168100000Y-37000000D02*
X194340000Y-37000000D01*
X196840000Y-39500000D02*
X196840000Y-40000000D01*
D24*
X165100000Y-40000000D02*
X165100000Y-41021000D01*
X165100000Y-41021000D02*
X162500000Y-43621000D01*
D22*
%TO.N,/DOWN*%
X205467157Y-77032843D02*
X208500000Y-74000000D01*
X182532843Y-77032843D02*
X205467157Y-77032843D01*
X181200000Y-111500000D02*
X181200000Y-78365686D01*
X178500000Y-118220000D02*
X181200000Y-115520000D01*
X181200000Y-78365686D02*
X182532843Y-77032843D01*
X181200000Y-115520000D02*
X181200000Y-111500000D01*
%TO.N,/CCW*%
X180400000Y-77100000D02*
X180500000Y-77000000D01*
X180500000Y-77000000D02*
X183500000Y-74000000D01*
X180400000Y-111240000D02*
X180400000Y-77100000D01*
X178500000Y-113140000D02*
X180400000Y-111240000D01*
%TO.N,/CW*%
X180000000Y-109100000D02*
X178500000Y-110600000D01*
X171200684Y-73799316D02*
X173901368Y-76500000D01*
X173901368Y-76500000D02*
X178000000Y-76500000D01*
X178000000Y-76500000D02*
X180000000Y-78500000D01*
X180000000Y-78500000D02*
X180000000Y-109100000D01*
%TO.N,/PULSE_EL*%
X206500000Y-99187000D02*
X183187000Y-99187000D01*
X183187000Y-99187000D02*
X182000000Y-98000000D01*
D24*
%TO.N,/MOTOR_AZ_1*%
X172470000Y-53230000D02*
X170120000Y-55580000D01*
X171440000Y-40000000D02*
X172470000Y-41030000D01*
X172470000Y-41030000D02*
X172470000Y-53230000D01*
%TO.N,/MOTOR_EL_1*%
X186033402Y-45610000D02*
X195220000Y-54796598D01*
X195220000Y-54796598D02*
X195220000Y-55580000D01*
X183110000Y-45610000D02*
X186033402Y-45610000D01*
X181600000Y-44100000D02*
X183110000Y-45610000D01*
X181600000Y-40000000D02*
X181600000Y-44100000D01*
%TO.N,/MOTOR_EL_2*%
X207770000Y-53953655D02*
X207770000Y-55580000D01*
X190000000Y-45000000D02*
X198816345Y-45000000D01*
X198816345Y-45000000D02*
X207770000Y-53953655D01*
X186680000Y-41680000D02*
X190000000Y-45000000D01*
X186680000Y-40000000D02*
X186680000Y-41680000D01*
%TO.N,/MOTOR_AZ_2*%
X178020000Y-50930000D02*
X182670000Y-55580000D01*
X176520000Y-40000000D02*
X178020000Y-41500000D01*
X178020000Y-41500000D02*
X178020000Y-50930000D01*
%TD*%
%TA.AperFunction,Conductor*%
%TO.N,GND*%
G36*
X169795000Y-122756988D02*
G01*
X169737993Y-122724075D01*
X169610826Y-122690000D01*
X169479174Y-122690000D01*
X169352007Y-122724075D01*
X169295000Y-122756988D01*
X169295000Y-121083012D01*
X169352007Y-121115925D01*
X169479174Y-121150000D01*
X169610826Y-121150000D01*
X169737993Y-121115925D01*
X169795000Y-121083012D01*
X169795000Y-122756988D01*
G37*
%TD.AperFunction*%
%TA.AperFunction,Conductor*%
G36*
X169795000Y-120216988D02*
G01*
X169737993Y-120184075D01*
X169610826Y-120150000D01*
X169479174Y-120150000D01*
X169352007Y-120184075D01*
X169295000Y-120216988D01*
X169295000Y-118543012D01*
X169352007Y-118575925D01*
X169479174Y-118610000D01*
X169610826Y-118610000D01*
X169737993Y-118575925D01*
X169795000Y-118543012D01*
X169795000Y-120216988D01*
G37*
%TD.AperFunction*%
%TA.AperFunction,Conductor*%
G36*
X210435000Y-116406988D02*
G01*
X210377993Y-116374075D01*
X210250826Y-116340000D01*
X210119174Y-116340000D01*
X209992007Y-116374075D01*
X209935000Y-116406988D01*
X209935000Y-114733012D01*
X209992007Y-114765925D01*
X210119174Y-114800000D01*
X210250826Y-114800000D01*
X210377993Y-114765925D01*
X210435000Y-114733012D01*
X210435000Y-116406988D01*
G37*
%TD.AperFunction*%
%TA.AperFunction,Conductor*%
G36*
X210435000Y-113866988D02*
G01*
X210377993Y-113834075D01*
X210250826Y-113800000D01*
X210119174Y-113800000D01*
X209992007Y-113834075D01*
X209935000Y-113866988D01*
X209935000Y-112193012D01*
X209992007Y-112225925D01*
X210119174Y-112260000D01*
X210250826Y-112260000D01*
X210377993Y-112225925D01*
X210435000Y-112193012D01*
X210435000Y-113866988D01*
G37*
%TD.AperFunction*%
%TA.AperFunction,Conductor*%
G36*
X210435000Y-111326988D02*
G01*
X210377993Y-111294075D01*
X210250826Y-111260000D01*
X210119174Y-111260000D01*
X209992007Y-111294075D01*
X209935000Y-111326988D01*
X209935000Y-109653012D01*
X209992007Y-109685925D01*
X210119174Y-109720000D01*
X210250826Y-109720000D01*
X210377993Y-109685925D01*
X210435000Y-109653012D01*
X210435000Y-111326988D01*
G37*
%TD.AperFunction*%
%TA.AperFunction,Conductor*%
G36*
X210435000Y-108786988D02*
G01*
X210377993Y-108754075D01*
X210250826Y-108720000D01*
X210119174Y-108720000D01*
X209992007Y-108754075D01*
X209935000Y-108786988D01*
X209935000Y-107113012D01*
X209992007Y-107145925D01*
X210119174Y-107180000D01*
X210250826Y-107180000D01*
X210377993Y-107145925D01*
X210435000Y-107113012D01*
X210435000Y-108786988D01*
G37*
%TD.AperFunction*%
%TA.AperFunction,Conductor*%
G36*
X219442539Y-33515185D02*
G01*
X219488294Y-33567989D01*
X219499500Y-33619500D01*
X219499500Y-129375500D01*
X219479815Y-129442539D01*
X219427011Y-129488294D01*
X219375500Y-129499500D01*
X145624500Y-129499500D01*
X145557461Y-129479815D01*
X145511706Y-129427011D01*
X145500500Y-129375500D01*
X145500500Y-124999999D01*
X146294922Y-124999999D01*
X146294922Y-125000000D01*
X146315219Y-125387287D01*
X146375886Y-125770323D01*
X146375887Y-125770330D01*
X146476262Y-126144936D01*
X146615244Y-126506994D01*
X146791310Y-126852543D01*
X147002531Y-127177793D01*
X147211095Y-127435350D01*
X147211096Y-127435350D01*
X148705748Y-125940698D01*
X148779588Y-126042330D01*
X148957670Y-126220412D01*
X149059300Y-126294251D01*
X147564648Y-127788903D01*
X147564649Y-127788904D01*
X147822206Y-127997468D01*
X148147456Y-128208689D01*
X148493005Y-128384755D01*
X148855063Y-128523737D01*
X149229669Y-128624112D01*
X149229676Y-128624113D01*
X149612712Y-128684780D01*
X149999999Y-128705078D01*
X150000001Y-128705078D01*
X150387287Y-128684780D01*
X150770323Y-128624113D01*
X150770330Y-128624112D01*
X151144936Y-128523737D01*
X151506994Y-128384755D01*
X151852543Y-128208689D01*
X152177783Y-127997476D01*
X152177785Y-127997475D01*
X152435349Y-127788902D01*
X150940698Y-126294251D01*
X151042330Y-126220412D01*
X151220412Y-126042330D01*
X151294251Y-125940698D01*
X152788902Y-127435349D01*
X152997475Y-127177785D01*
X152997476Y-127177783D01*
X153208689Y-126852543D01*
X153384755Y-126506994D01*
X153523737Y-126144936D01*
X153624112Y-125770330D01*
X153624113Y-125770323D01*
X153684780Y-125387287D01*
X153705078Y-125000000D01*
X153705078Y-124999999D01*
X211294922Y-124999999D01*
X211294922Y-125000000D01*
X211315219Y-125387287D01*
X211375886Y-125770323D01*
X211375887Y-125770330D01*
X211476262Y-126144936D01*
X211615244Y-126506994D01*
X211791310Y-126852543D01*
X212002531Y-127177793D01*
X212211095Y-127435350D01*
X212211096Y-127435350D01*
X213705748Y-125940698D01*
X213779588Y-126042330D01*
X213957670Y-126220412D01*
X214059300Y-126294251D01*
X212564648Y-127788903D01*
X212564649Y-127788904D01*
X212822206Y-127997468D01*
X213147456Y-128208689D01*
X213493005Y-128384755D01*
X213855063Y-128523737D01*
X214229669Y-128624112D01*
X214229676Y-128624113D01*
X214612712Y-128684780D01*
X214999999Y-128705078D01*
X215000001Y-128705078D01*
X215387287Y-128684780D01*
X215770323Y-128624113D01*
X215770330Y-128624112D01*
X216144936Y-128523737D01*
X216506994Y-128384755D01*
X216852543Y-128208689D01*
X217177783Y-127997476D01*
X217177785Y-127997475D01*
X217435349Y-127788902D01*
X215940698Y-126294251D01*
X216042330Y-126220412D01*
X216220412Y-126042330D01*
X216294251Y-125940698D01*
X217788902Y-127435349D01*
X217997475Y-127177785D01*
X217997476Y-127177783D01*
X218208689Y-126852543D01*
X218384755Y-126506994D01*
X218523737Y-126144936D01*
X218624112Y-125770330D01*
X218624113Y-125770323D01*
X218684780Y-125387287D01*
X218705078Y-125000000D01*
X218705078Y-124999999D01*
X218684780Y-124612712D01*
X218624113Y-124229676D01*
X218624112Y-124229669D01*
X218523737Y-123855063D01*
X218384755Y-123493005D01*
X218208689Y-123147456D01*
X217997468Y-122822206D01*
X217788904Y-122564649D01*
X217788903Y-122564648D01*
X216294251Y-124059300D01*
X216220412Y-123957670D01*
X216042330Y-123779588D01*
X215940698Y-123705748D01*
X217435350Y-122211096D01*
X217435350Y-122211095D01*
X217177793Y-122002531D01*
X216852543Y-121791310D01*
X216506994Y-121615244D01*
X216144936Y-121476262D01*
X215770330Y-121375887D01*
X215770323Y-121375886D01*
X215387287Y-121315219D01*
X215000001Y-121294922D01*
X214999999Y-121294922D01*
X214612712Y-121315219D01*
X214229676Y-121375886D01*
X214229669Y-121375887D01*
X213855063Y-121476262D01*
X213493005Y-121615244D01*
X213147456Y-121791310D01*
X212822206Y-122002531D01*
X212564648Y-122211095D01*
X212564648Y-122211096D01*
X214059301Y-123705748D01*
X213957670Y-123779588D01*
X213779588Y-123957670D01*
X213705748Y-124059300D01*
X212211096Y-122564648D01*
X212211095Y-122564648D01*
X212002531Y-122822206D01*
X211791310Y-123147456D01*
X211615244Y-123493005D01*
X211476262Y-123855063D01*
X211375887Y-124229669D01*
X211375886Y-124229676D01*
X211315219Y-124612712D01*
X211294922Y-124999999D01*
X153705078Y-124999999D01*
X153684780Y-124612712D01*
X153624113Y-124229676D01*
X153624112Y-124229669D01*
X153523737Y-123855063D01*
X153384755Y-123493005D01*
X153208689Y-123147456D01*
X152997468Y-122822206D01*
X152788904Y-122564649D01*
X152788903Y-122564648D01*
X151294251Y-124059300D01*
X151220412Y-123957670D01*
X151042330Y-123779588D01*
X150940698Y-123705748D01*
X152435350Y-122211096D01*
X152435350Y-122211095D01*
X152177793Y-122002531D01*
X151852543Y-121791310D01*
X151506994Y-121615244D01*
X151144936Y-121476262D01*
X150770330Y-121375887D01*
X150770323Y-121375886D01*
X150387287Y-121315219D01*
X150000001Y-121294922D01*
X149999999Y-121294922D01*
X149612712Y-121315219D01*
X149229676Y-121375886D01*
X149229669Y-121375887D01*
X148855063Y-121476262D01*
X148493005Y-121615244D01*
X148147456Y-121791310D01*
X147822206Y-122002531D01*
X147564648Y-122211095D01*
X147564648Y-122211096D01*
X149059301Y-123705748D01*
X148957670Y-123779588D01*
X148779588Y-123957670D01*
X148705748Y-124059300D01*
X147211096Y-122564648D01*
X147211095Y-122564648D01*
X147002531Y-122822206D01*
X146791310Y-123147456D01*
X146615244Y-123493005D01*
X146476262Y-123855063D01*
X146375887Y-124229669D01*
X146375886Y-124229676D01*
X146315219Y-124612712D01*
X146294922Y-124999999D01*
X145500500Y-124999999D01*
X145500500Y-117974995D01*
X155805317Y-117974995D01*
X155805317Y-117975004D01*
X155824021Y-118224597D01*
X155824021Y-118224599D01*
X155879714Y-118468607D01*
X155879720Y-118468626D01*
X155971163Y-118701618D01*
X156096311Y-118918381D01*
X156096318Y-118918392D01*
X156134799Y-118966645D01*
X156134800Y-118966645D01*
X156878958Y-118222487D01*
X156903978Y-118282890D01*
X156975112Y-118389351D01*
X157065649Y-118479888D01*
X157172110Y-118551022D01*
X157232511Y-118576041D01*
X156488403Y-119320148D01*
X156642658Y-119425317D01*
X156642666Y-119425322D01*
X156868167Y-119533916D01*
X156868165Y-119533916D01*
X157107346Y-119607694D01*
X157107352Y-119607696D01*
X157354843Y-119644999D01*
X157354852Y-119645000D01*
X157605148Y-119645000D01*
X157605156Y-119644999D01*
X157852647Y-119607696D01*
X157852653Y-119607694D01*
X158091833Y-119533916D01*
X158317334Y-119425322D01*
X158317344Y-119425315D01*
X158471595Y-119320148D01*
X157727489Y-118576041D01*
X157787890Y-118551022D01*
X157894351Y-118479888D01*
X157984888Y-118389351D01*
X158056022Y-118282890D01*
X158081041Y-118222488D01*
X158825197Y-118966645D01*
X158825198Y-118966644D01*
X158863690Y-118918379D01*
X158988836Y-118701618D01*
X159080279Y-118468626D01*
X159080285Y-118468607D01*
X159135978Y-118224599D01*
X159135978Y-118224597D01*
X159154683Y-117975004D01*
X159154683Y-117974995D01*
X159135978Y-117725402D01*
X159135978Y-117725400D01*
X159080285Y-117481392D01*
X159080279Y-117481373D01*
X158988836Y-117248381D01*
X158863688Y-117031618D01*
X158863681Y-117031607D01*
X158825199Y-116983354D01*
X158825198Y-116983353D01*
X158081041Y-117727510D01*
X158056022Y-117667110D01*
X157984888Y-117560649D01*
X157894351Y-117470112D01*
X157787890Y-117398978D01*
X157727488Y-117373958D01*
X158471595Y-116629850D01*
X158317335Y-116524678D01*
X158317334Y-116524677D01*
X158091832Y-116416083D01*
X158091834Y-116416083D01*
X157852653Y-116342305D01*
X157852647Y-116342303D01*
X157605156Y-116305000D01*
X157354843Y-116305000D01*
X157107352Y-116342303D01*
X157107346Y-116342305D01*
X156868166Y-116416083D01*
X156642664Y-116524679D01*
X156642651Y-116524686D01*
X156488403Y-116629849D01*
X157232512Y-117373958D01*
X157172110Y-117398978D01*
X157065649Y-117470112D01*
X156975112Y-117560649D01*
X156903978Y-117667110D01*
X156878958Y-117727511D01*
X156134800Y-116983354D01*
X156096311Y-117031617D01*
X155971163Y-117248381D01*
X155879720Y-117481373D01*
X155879714Y-117481392D01*
X155824021Y-117725400D01*
X155824021Y-117725402D01*
X155805317Y-117974995D01*
X145500500Y-117974995D01*
X145500500Y-115474995D01*
X160804816Y-115474995D01*
X160804816Y-115475004D01*
X160823524Y-115724663D01*
X160823525Y-115724668D01*
X160879236Y-115968755D01*
X160879238Y-115968764D01*
X160879240Y-115968769D01*
X160970711Y-116201835D01*
X161095898Y-116418665D01*
X161176024Y-116519139D01*
X161252006Y-116614418D01*
X161385983Y-116738730D01*
X161435540Y-116784712D01*
X161642408Y-116925752D01*
X161642413Y-116925754D01*
X161642414Y-116925755D01*
X161642415Y-116925756D01*
X161752316Y-116978681D01*
X161867983Y-117034383D01*
X161867984Y-117034383D01*
X161867987Y-117034385D01*
X162107236Y-117108184D01*
X162107237Y-117108184D01*
X162107240Y-117108185D01*
X162354805Y-117145499D01*
X162354810Y-117145499D01*
X162354813Y-117145500D01*
X162354814Y-117145500D01*
X162605186Y-117145500D01*
X162605187Y-117145500D01*
X162605194Y-117145499D01*
X162852759Y-117108185D01*
X162852760Y-117108184D01*
X162852764Y-117108184D01*
X163092013Y-117034385D01*
X163284735Y-116941575D01*
X163317584Y-116925756D01*
X163317584Y-116925755D01*
X163317592Y-116925752D01*
X163524460Y-116784712D01*
X163707997Y-116614414D01*
X163864102Y-116418665D01*
X163989289Y-116201835D01*
X164080760Y-115968769D01*
X164136474Y-115724673D01*
X164144543Y-115616998D01*
X164155184Y-115475004D01*
X164155184Y-115474995D01*
X164136475Y-115225336D01*
X164136474Y-115225331D01*
X164136474Y-115225327D01*
X164080760Y-114981231D01*
X163989289Y-114748165D01*
X163864102Y-114531335D01*
X163707997Y-114335586D01*
X163707996Y-114335585D01*
X163707993Y-114335581D01*
X163524460Y-114165288D01*
X163484254Y-114137876D01*
X163317592Y-114024248D01*
X163317588Y-114024246D01*
X163317585Y-114024244D01*
X163317584Y-114024243D01*
X163092015Y-113915616D01*
X163092017Y-113915616D01*
X162852765Y-113841816D01*
X162852759Y-113841814D01*
X162605194Y-113804500D01*
X162605187Y-113804500D01*
X162354813Y-113804500D01*
X162354805Y-113804500D01*
X162107240Y-113841814D01*
X162107234Y-113841816D01*
X161867983Y-113915616D01*
X161642415Y-114024243D01*
X161642414Y-114024244D01*
X161435539Y-114165288D01*
X161252006Y-114335581D01*
X161095898Y-114531335D01*
X160970711Y-114748164D01*
X160879242Y-114981225D01*
X160879236Y-114981244D01*
X160823525Y-115225331D01*
X160823524Y-115225336D01*
X160804816Y-115474995D01*
X145500500Y-115474995D01*
X145500500Y-112974995D01*
X155804816Y-112974995D01*
X155804816Y-112975004D01*
X155823524Y-113224663D01*
X155823525Y-113224668D01*
X155879236Y-113468755D01*
X155879238Y-113468764D01*
X155879240Y-113468769D01*
X155970711Y-113701835D01*
X156095898Y-113918665D01*
X156212266Y-114064586D01*
X156252006Y-114114418D01*
X156381073Y-114234174D01*
X156435540Y-114284712D01*
X156642408Y-114425752D01*
X156642413Y-114425754D01*
X156642414Y-114425755D01*
X156642415Y-114425756D01*
X156747185Y-114476210D01*
X156867983Y-114534383D01*
X156867984Y-114534383D01*
X156867987Y-114534385D01*
X157107236Y-114608184D01*
X157107237Y-114608184D01*
X157107240Y-114608185D01*
X157354805Y-114645499D01*
X157354810Y-114645499D01*
X157354813Y-114645500D01*
X157354814Y-114645500D01*
X157605186Y-114645500D01*
X157605187Y-114645500D01*
X157605194Y-114645499D01*
X157852759Y-114608185D01*
X157852760Y-114608184D01*
X157852764Y-114608184D01*
X158092013Y-114534385D01*
X158317592Y-114425752D01*
X158524460Y-114284712D01*
X158680371Y-114140047D01*
X158707993Y-114114418D01*
X158707993Y-114114416D01*
X158707997Y-114114414D01*
X158864102Y-113918665D01*
X158989289Y-113701835D01*
X159080760Y-113468769D01*
X159136474Y-113224673D01*
X159142819Y-113140000D01*
X159155184Y-112975004D01*
X159155184Y-112974995D01*
X159136475Y-112725336D01*
X159136474Y-112725331D01*
X159136474Y-112725327D01*
X159080760Y-112481231D01*
X158989289Y-112248165D01*
X158864102Y-112031335D01*
X158707997Y-111835586D01*
X158707996Y-111835585D01*
X158707993Y-111835581D01*
X158524460Y-111665288D01*
X158514394Y-111658425D01*
X158317592Y-111524248D01*
X158317588Y-111524246D01*
X158317585Y-111524244D01*
X158317584Y-111524243D01*
X158092015Y-111415616D01*
X158092017Y-111415616D01*
X157852765Y-111341816D01*
X157852759Y-111341814D01*
X157605194Y-111304500D01*
X157605187Y-111304500D01*
X157354813Y-111304500D01*
X157354805Y-111304500D01*
X157107240Y-111341814D01*
X157107234Y-111341816D01*
X156867983Y-111415616D01*
X156642415Y-111524243D01*
X156642414Y-111524244D01*
X156642408Y-111524247D01*
X156642408Y-111524248D01*
X156641898Y-111524596D01*
X156435539Y-111665288D01*
X156252006Y-111835581D01*
X156095898Y-112031335D01*
X155970711Y-112248164D01*
X155879242Y-112481225D01*
X155879236Y-112481244D01*
X155823525Y-112725331D01*
X155823524Y-112725336D01*
X155804816Y-112974995D01*
X145500500Y-112974995D01*
X145500500Y-110489999D01*
X168189341Y-110489999D01*
X168189341Y-110490000D01*
X168209936Y-110725403D01*
X168209938Y-110725413D01*
X168271094Y-110953655D01*
X168271096Y-110953659D01*
X168271097Y-110953663D01*
X168336486Y-111093890D01*
X168370965Y-111167830D01*
X168370967Y-111167834D01*
X168461066Y-111296507D01*
X168492791Y-111341816D01*
X168506501Y-111361395D01*
X168506506Y-111361402D01*
X168673597Y-111528493D01*
X168673603Y-111528498D01*
X168859158Y-111658425D01*
X168902783Y-111713002D01*
X168909977Y-111782500D01*
X168878454Y-111844855D01*
X168859158Y-111861575D01*
X168673597Y-111991505D01*
X168506505Y-112158597D01*
X168370965Y-112352169D01*
X168370964Y-112352171D01*
X168271098Y-112566335D01*
X168271094Y-112566344D01*
X168209938Y-112794586D01*
X168209936Y-112794596D01*
X168189341Y-113029999D01*
X168189341Y-113030000D01*
X168209936Y-113265403D01*
X168209938Y-113265413D01*
X168271094Y-113493655D01*
X168271096Y-113493659D01*
X168271097Y-113493663D01*
X168336486Y-113633890D01*
X168370965Y-113707830D01*
X168370967Y-113707834D01*
X168461066Y-113836507D01*
X168506501Y-113901396D01*
X168506506Y-113901402D01*
X168673597Y-114068493D01*
X168673603Y-114068498D01*
X168859158Y-114198425D01*
X168902783Y-114253002D01*
X168909977Y-114322500D01*
X168878454Y-114384855D01*
X168859158Y-114401575D01*
X168673597Y-114531505D01*
X168506505Y-114698597D01*
X168370965Y-114892169D01*
X168370964Y-114892171D01*
X168271098Y-115106335D01*
X168271094Y-115106344D01*
X168209938Y-115334586D01*
X168209936Y-115334596D01*
X168189341Y-115569999D01*
X168189341Y-115570000D01*
X168209936Y-115805403D01*
X168209938Y-115805413D01*
X168271094Y-116033655D01*
X168271096Y-116033659D01*
X168271097Y-116033663D01*
X168349517Y-116201835D01*
X168370965Y-116247830D01*
X168370967Y-116247834D01*
X168437117Y-116342305D01*
X168506501Y-116441396D01*
X168506506Y-116441402D01*
X168673597Y-116608493D01*
X168673603Y-116608498D01*
X168859594Y-116738730D01*
X168903219Y-116793307D01*
X168910413Y-116862805D01*
X168878890Y-116925160D01*
X168859595Y-116941880D01*
X168673922Y-117071890D01*
X168673920Y-117071891D01*
X168506891Y-117238920D01*
X168506886Y-117238926D01*
X168371400Y-117432420D01*
X168371399Y-117432422D01*
X168271570Y-117646507D01*
X168271567Y-117646513D01*
X168214364Y-117859999D01*
X168214364Y-117860000D01*
X169111988Y-117860000D01*
X169079075Y-117917007D01*
X169045000Y-118044174D01*
X169045000Y-118175826D01*
X169079075Y-118302993D01*
X169111988Y-118360000D01*
X168214364Y-118360000D01*
X168271567Y-118573486D01*
X168271570Y-118573492D01*
X168371399Y-118787578D01*
X168506894Y-118981082D01*
X168673917Y-119148105D01*
X168860031Y-119278425D01*
X168903656Y-119333003D01*
X168910848Y-119402501D01*
X168879326Y-119464856D01*
X168860031Y-119481575D01*
X168673922Y-119611890D01*
X168673920Y-119611891D01*
X168506891Y-119778920D01*
X168506886Y-119778926D01*
X168371400Y-119972420D01*
X168371399Y-119972422D01*
X168271570Y-120186507D01*
X168271567Y-120186513D01*
X168214364Y-120399999D01*
X168214364Y-120400000D01*
X169111988Y-120400000D01*
X169079075Y-120457007D01*
X169045000Y-120584174D01*
X169045000Y-120715826D01*
X169079075Y-120842993D01*
X169111988Y-120900000D01*
X168214364Y-120900000D01*
X168271567Y-121113486D01*
X168271570Y-121113492D01*
X168371399Y-121327578D01*
X168506894Y-121521082D01*
X168673917Y-121688105D01*
X168860031Y-121818425D01*
X168903656Y-121873003D01*
X168910848Y-121942501D01*
X168879326Y-122004856D01*
X168860031Y-122021575D01*
X168673922Y-122151890D01*
X168673920Y-122151891D01*
X168506891Y-122318920D01*
X168506886Y-122318926D01*
X168371400Y-122512420D01*
X168371399Y-122512422D01*
X168271570Y-122726507D01*
X168271567Y-122726513D01*
X168214364Y-122939999D01*
X168214364Y-122940000D01*
X169111988Y-122940000D01*
X169079075Y-122997007D01*
X169045000Y-123124174D01*
X169045000Y-123255826D01*
X169079075Y-123382993D01*
X169111988Y-123440000D01*
X168214364Y-123440000D01*
X168271567Y-123653486D01*
X168271570Y-123653492D01*
X168371399Y-123867578D01*
X168506894Y-124061082D01*
X168673917Y-124228105D01*
X168867421Y-124363600D01*
X169081507Y-124463429D01*
X169081516Y-124463433D01*
X169295000Y-124520634D01*
X169295000Y-123623012D01*
X169352007Y-123655925D01*
X169479174Y-123690000D01*
X169610826Y-123690000D01*
X169737993Y-123655925D01*
X169795000Y-123623012D01*
X169795000Y-124520633D01*
X170008483Y-124463433D01*
X170008492Y-124463429D01*
X170222578Y-124363600D01*
X170416082Y-124228105D01*
X170583105Y-124061082D01*
X170713119Y-123875405D01*
X170767696Y-123831781D01*
X170837195Y-123824588D01*
X170899549Y-123856110D01*
X170916269Y-123875405D01*
X171046505Y-124061401D01*
X171213599Y-124228495D01*
X171215276Y-124229669D01*
X171407165Y-124364032D01*
X171407167Y-124364033D01*
X171407170Y-124364035D01*
X171621337Y-124463903D01*
X171849592Y-124525063D01*
X172037918Y-124541539D01*
X172084999Y-124545659D01*
X172085000Y-124545659D01*
X172085001Y-124545659D01*
X172124234Y-124542226D01*
X172320408Y-124525063D01*
X172548663Y-124463903D01*
X172762830Y-124364035D01*
X172956401Y-124228495D01*
X173123495Y-124061401D01*
X173259035Y-123867830D01*
X173358903Y-123653663D01*
X173420063Y-123425408D01*
X173440659Y-123190000D01*
X173420063Y-122954592D01*
X173358903Y-122726337D01*
X173259035Y-122512171D01*
X173253731Y-122504595D01*
X173123494Y-122318597D01*
X172956402Y-122151506D01*
X172956396Y-122151501D01*
X172770842Y-122021575D01*
X172727217Y-121966998D01*
X172720023Y-121897500D01*
X172751546Y-121835145D01*
X172770842Y-121818425D01*
X172854217Y-121760045D01*
X172956401Y-121688495D01*
X173123495Y-121521401D01*
X173259035Y-121327830D01*
X173358903Y-121113663D01*
X173420063Y-120885408D01*
X173440659Y-120650000D01*
X173420063Y-120414592D01*
X173358903Y-120186337D01*
X173259035Y-119972171D01*
X173253731Y-119964595D01*
X173123494Y-119778597D01*
X172956402Y-119611506D01*
X172956396Y-119611501D01*
X172770842Y-119481575D01*
X172727217Y-119426998D01*
X172720023Y-119357500D01*
X172751546Y-119295145D01*
X172770842Y-119278425D01*
X172854217Y-119220045D01*
X172956401Y-119148495D01*
X173123495Y-118981401D01*
X173259035Y-118787830D01*
X173358903Y-118573663D01*
X173420063Y-118345408D01*
X173440659Y-118110000D01*
X173420063Y-117874592D01*
X173358903Y-117646337D01*
X173259035Y-117432171D01*
X173253731Y-117424595D01*
X173123494Y-117238597D01*
X172956402Y-117071506D01*
X172956396Y-117071501D01*
X172770842Y-116941575D01*
X172727217Y-116886998D01*
X172720023Y-116817500D01*
X172751546Y-116755145D01*
X172770842Y-116738425D01*
X172901400Y-116647007D01*
X172956401Y-116608495D01*
X173123495Y-116441401D01*
X173259035Y-116247830D01*
X173358903Y-116033663D01*
X173420063Y-115805408D01*
X173440659Y-115570000D01*
X173420063Y-115334592D01*
X173358903Y-115106337D01*
X173259035Y-114892171D01*
X173253425Y-114884158D01*
X173123494Y-114698597D01*
X172956402Y-114531506D01*
X172956396Y-114531501D01*
X172770842Y-114401575D01*
X172727217Y-114346998D01*
X172720023Y-114277500D01*
X172751546Y-114215145D01*
X172770842Y-114198425D01*
X172854217Y-114140045D01*
X172956401Y-114068495D01*
X173123495Y-113901401D01*
X173259035Y-113707830D01*
X173358903Y-113493663D01*
X173420063Y-113265408D01*
X173440659Y-113030000D01*
X173438690Y-113007500D01*
X173430450Y-112913313D01*
X173420063Y-112794592D01*
X173358903Y-112566337D01*
X173259035Y-112352171D01*
X173253424Y-112344158D01*
X173123496Y-112158600D01*
X173104849Y-112139953D01*
X173001567Y-112036671D01*
X172968084Y-111975351D01*
X172973068Y-111905659D01*
X173014939Y-111849725D01*
X173045915Y-111832810D01*
X173177331Y-111783796D01*
X173292546Y-111697546D01*
X173378796Y-111582331D01*
X173429091Y-111447483D01*
X173435500Y-111387873D01*
X173435499Y-109592128D01*
X173429091Y-109532517D01*
X173427810Y-109529083D01*
X173378797Y-109397671D01*
X173378793Y-109397664D01*
X173292547Y-109282455D01*
X173292544Y-109282452D01*
X173177335Y-109196206D01*
X173177328Y-109196202D01*
X173042482Y-109145908D01*
X173042483Y-109145908D01*
X172982883Y-109139501D01*
X172982881Y-109139500D01*
X172982873Y-109139500D01*
X172982864Y-109139500D01*
X171187129Y-109139500D01*
X171187123Y-109139501D01*
X171127516Y-109145908D01*
X170992671Y-109196202D01*
X170992664Y-109196206D01*
X170877455Y-109282452D01*
X170877452Y-109282455D01*
X170791206Y-109397664D01*
X170791203Y-109397669D01*
X170742189Y-109529083D01*
X170700317Y-109585016D01*
X170634853Y-109609433D01*
X170566580Y-109594581D01*
X170538326Y-109573430D01*
X170416402Y-109451506D01*
X170416395Y-109451501D01*
X170222834Y-109315967D01*
X170222830Y-109315965D01*
X170222828Y-109315964D01*
X170008663Y-109216097D01*
X170008659Y-109216096D01*
X170008655Y-109216094D01*
X169780413Y-109154938D01*
X169780403Y-109154936D01*
X169545001Y-109134341D01*
X169544999Y-109134341D01*
X169309596Y-109154936D01*
X169309586Y-109154938D01*
X169081344Y-109216094D01*
X169081335Y-109216098D01*
X168867171Y-109315964D01*
X168867169Y-109315965D01*
X168673597Y-109451505D01*
X168506505Y-109618597D01*
X168370965Y-109812169D01*
X168370964Y-109812171D01*
X168271098Y-110026335D01*
X168271094Y-110026344D01*
X168209938Y-110254586D01*
X168209936Y-110254596D01*
X168189341Y-110489999D01*
X145500500Y-110489999D01*
X145500500Y-94579025D01*
X166274526Y-94579025D01*
X166347513Y-94630132D01*
X166347521Y-94630136D01*
X166553668Y-94726264D01*
X166553682Y-94726269D01*
X166773389Y-94785139D01*
X166773400Y-94785141D01*
X166999998Y-94804966D01*
X167000002Y-94804966D01*
X167056786Y-94799998D01*
X170694532Y-94799998D01*
X170694532Y-94800001D01*
X170714364Y-95026686D01*
X170714366Y-95026697D01*
X170773258Y-95246488D01*
X170773261Y-95246497D01*
X170869431Y-95452732D01*
X170869432Y-95452734D01*
X170999954Y-95639141D01*
X171160858Y-95800045D01*
X171160861Y-95800047D01*
X171347266Y-95930568D01*
X171553504Y-96026739D01*
X171773308Y-96085635D01*
X171935230Y-96099801D01*
X171999998Y-96105468D01*
X172000000Y-96105468D01*
X172000002Y-96105468D01*
X172056673Y-96100509D01*
X172226692Y-96085635D01*
X172446496Y-96026739D01*
X172652734Y-95930568D01*
X172839139Y-95800047D01*
X173000047Y-95639139D01*
X173130568Y-95452734D01*
X173226739Y-95246496D01*
X173285635Y-95026692D01*
X173305468Y-94800000D01*
X173285635Y-94573308D01*
X173226739Y-94353504D01*
X173130568Y-94147266D01*
X173000047Y-93960861D01*
X173000045Y-93960858D01*
X172839141Y-93799954D01*
X172652734Y-93669432D01*
X172652732Y-93669431D01*
X172446497Y-93573261D01*
X172446488Y-93573258D01*
X172226697Y-93514366D01*
X172226693Y-93514365D01*
X172226692Y-93514365D01*
X172226691Y-93514364D01*
X172226686Y-93514364D01*
X172000002Y-93494532D01*
X171999998Y-93494532D01*
X171773313Y-93514364D01*
X171773302Y-93514366D01*
X171553511Y-93573258D01*
X171553502Y-93573261D01*
X171347267Y-93669431D01*
X171347265Y-93669432D01*
X171160858Y-93799954D01*
X170999954Y-93960858D01*
X170869432Y-94147265D01*
X170869431Y-94147267D01*
X170773261Y-94353502D01*
X170773258Y-94353511D01*
X170714366Y-94573302D01*
X170714364Y-94573313D01*
X170694532Y-94799998D01*
X167056786Y-94799998D01*
X167226599Y-94785141D01*
X167226610Y-94785139D01*
X167446317Y-94726269D01*
X167446331Y-94726264D01*
X167652478Y-94630136D01*
X167725471Y-94579024D01*
X167000000Y-93853553D01*
X166274526Y-94579025D01*
X145500500Y-94579025D01*
X145500500Y-93499997D01*
X165695034Y-93499997D01*
X165695034Y-93500002D01*
X165714858Y-93726599D01*
X165714860Y-93726610D01*
X165773730Y-93946317D01*
X165773735Y-93946331D01*
X165869863Y-94152478D01*
X165920974Y-94225472D01*
X166646447Y-93500000D01*
X166646447Y-93499999D01*
X166606952Y-93460504D01*
X166700000Y-93460504D01*
X166700000Y-93539496D01*
X166720444Y-93615796D01*
X166759940Y-93684205D01*
X166815795Y-93740060D01*
X166884204Y-93779556D01*
X166960504Y-93800000D01*
X167039496Y-93800000D01*
X167115796Y-93779556D01*
X167184205Y-93740060D01*
X167240060Y-93684205D01*
X167279556Y-93615796D01*
X167300000Y-93539496D01*
X167300000Y-93499999D01*
X167353553Y-93499999D01*
X167353553Y-93500000D01*
X168079024Y-94225471D01*
X168130136Y-94152478D01*
X168226264Y-93946331D01*
X168226269Y-93946317D01*
X168285139Y-93726610D01*
X168285141Y-93726599D01*
X168304966Y-93500002D01*
X168304966Y-93499997D01*
X168285141Y-93273400D01*
X168285139Y-93273389D01*
X168226269Y-93053682D01*
X168226264Y-93053668D01*
X168130136Y-92847521D01*
X168130132Y-92847513D01*
X168079025Y-92774526D01*
X167353553Y-93499999D01*
X167300000Y-93499999D01*
X167300000Y-93460504D01*
X167279556Y-93384204D01*
X167240060Y-93315795D01*
X167184205Y-93259940D01*
X167115796Y-93220444D01*
X167039496Y-93200000D01*
X166960504Y-93200000D01*
X166884204Y-93220444D01*
X166815795Y-93259940D01*
X166759940Y-93315795D01*
X166720444Y-93384204D01*
X166700000Y-93460504D01*
X166606952Y-93460504D01*
X165920974Y-92774526D01*
X165920973Y-92774526D01*
X165869868Y-92847512D01*
X165869866Y-92847516D01*
X165773734Y-93053673D01*
X165773730Y-93053682D01*
X165714860Y-93273389D01*
X165714858Y-93273400D01*
X165695034Y-93499997D01*
X145500500Y-93499997D01*
X145500500Y-92420973D01*
X166274526Y-92420973D01*
X166274526Y-92420974D01*
X167000000Y-93146447D01*
X167000001Y-93146447D01*
X167725472Y-92420974D01*
X167652478Y-92369863D01*
X167446331Y-92273735D01*
X167446317Y-92273730D01*
X167226610Y-92214860D01*
X167226599Y-92214858D01*
X167000002Y-92195034D01*
X166999998Y-92195034D01*
X166773400Y-92214858D01*
X166773389Y-92214860D01*
X166553682Y-92273730D01*
X166553673Y-92273734D01*
X166347516Y-92369866D01*
X166347512Y-92369868D01*
X166274526Y-92420973D01*
X145500500Y-92420973D01*
X145500500Y-65740000D01*
X160844396Y-65740000D01*
X160864778Y-65998990D01*
X160925427Y-66251610D01*
X161024843Y-66491623D01*
X161024845Y-66491627D01*
X161024846Y-66491628D01*
X161160588Y-66713140D01*
X161329311Y-66910689D01*
X161526860Y-67079412D01*
X161690290Y-67179561D01*
X161737165Y-67231372D01*
X161749500Y-67285288D01*
X161749500Y-68926082D01*
X161749500Y-69573918D01*
X161749500Y-69573920D01*
X161749499Y-69573920D01*
X161778340Y-69718907D01*
X161778343Y-69718917D01*
X161834913Y-69855490D01*
X161834914Y-69855491D01*
X161834916Y-69855495D01*
X161844730Y-69870182D01*
X161844731Y-69870185D01*
X161917046Y-69978414D01*
X161917052Y-69978421D01*
X162713181Y-70774548D01*
X162746666Y-70835871D01*
X162749500Y-70862229D01*
X162749500Y-90454028D01*
X162742542Y-90494982D01*
X162714631Y-90574747D01*
X162694435Y-90753996D01*
X162694435Y-90754003D01*
X162714630Y-90933249D01*
X162714631Y-90933254D01*
X162774211Y-91103523D01*
X162784025Y-91119141D01*
X162870184Y-91256262D01*
X162997738Y-91383816D01*
X163150478Y-91479789D01*
X163227497Y-91506739D01*
X163320745Y-91539368D01*
X163320750Y-91539369D01*
X163499996Y-91559565D01*
X163500000Y-91559565D01*
X163500004Y-91559565D01*
X163679249Y-91539369D01*
X163679252Y-91539368D01*
X163679255Y-91539368D01*
X163849522Y-91479789D01*
X164002262Y-91383816D01*
X164129816Y-91256262D01*
X164225789Y-91103522D01*
X164285368Y-90933255D01*
X164305565Y-90754000D01*
X164302466Y-90726497D01*
X164285368Y-90574747D01*
X164285368Y-90574745D01*
X164257458Y-90494982D01*
X164250500Y-90454028D01*
X164250500Y-85159999D01*
X171364341Y-85159999D01*
X171364341Y-85160000D01*
X171384936Y-85395403D01*
X171384938Y-85395413D01*
X171446094Y-85623655D01*
X171446096Y-85623659D01*
X171446097Y-85623663D01*
X171456745Y-85646497D01*
X171545965Y-85837830D01*
X171545967Y-85837834D01*
X171654281Y-85992521D01*
X171681501Y-86031396D01*
X171681506Y-86031402D01*
X171803430Y-86153326D01*
X171836915Y-86214649D01*
X171831931Y-86284341D01*
X171790059Y-86340274D01*
X171759083Y-86357189D01*
X171627669Y-86406203D01*
X171627664Y-86406206D01*
X171512455Y-86492452D01*
X171512452Y-86492455D01*
X171426206Y-86607664D01*
X171426202Y-86607671D01*
X171375908Y-86742517D01*
X171369695Y-86800314D01*
X171369501Y-86802123D01*
X171369500Y-86802135D01*
X171369500Y-88597870D01*
X171369501Y-88597876D01*
X171375908Y-88657483D01*
X171426202Y-88792328D01*
X171426206Y-88792335D01*
X171512452Y-88907544D01*
X171512455Y-88907547D01*
X171627664Y-88993793D01*
X171627671Y-88993797D01*
X171762517Y-89044091D01*
X171762516Y-89044091D01*
X171769444Y-89044835D01*
X171822127Y-89050500D01*
X173617872Y-89050499D01*
X173677483Y-89044091D01*
X173812331Y-88993796D01*
X173927546Y-88907546D01*
X174013796Y-88792331D01*
X174064091Y-88657483D01*
X174070500Y-88597873D01*
X174070499Y-86802128D01*
X174064091Y-86742517D01*
X174052673Y-86711905D01*
X174013797Y-86607671D01*
X174013793Y-86607664D01*
X173927547Y-86492455D01*
X173927544Y-86492452D01*
X173812335Y-86406206D01*
X173812328Y-86406202D01*
X173680917Y-86357189D01*
X173624983Y-86315318D01*
X173600566Y-86249853D01*
X173615418Y-86181580D01*
X173636563Y-86153332D01*
X173758495Y-86031401D01*
X173894035Y-85837830D01*
X173993903Y-85623663D01*
X174055063Y-85395408D01*
X174075659Y-85160000D01*
X174055063Y-84924592D01*
X173993903Y-84696337D01*
X173894035Y-84482171D01*
X173809094Y-84360861D01*
X173758494Y-84288597D01*
X173591402Y-84121506D01*
X173591395Y-84121501D01*
X173397834Y-83985967D01*
X173397830Y-83985965D01*
X173370580Y-83973258D01*
X173183663Y-83886097D01*
X173183659Y-83886096D01*
X173183655Y-83886094D01*
X172955413Y-83824938D01*
X172955403Y-83824936D01*
X172720001Y-83804341D01*
X172719999Y-83804341D01*
X172484596Y-83824936D01*
X172484586Y-83824938D01*
X172256344Y-83886094D01*
X172256335Y-83886098D01*
X172042171Y-83985964D01*
X172042169Y-83985965D01*
X171848597Y-84121505D01*
X171681505Y-84288597D01*
X171545965Y-84482169D01*
X171545964Y-84482171D01*
X171446098Y-84696335D01*
X171446094Y-84696344D01*
X171384938Y-84924586D01*
X171384936Y-84924596D01*
X171364341Y-85159999D01*
X164250500Y-85159999D01*
X164250500Y-73799312D01*
X170395119Y-73799312D01*
X170395119Y-73799319D01*
X170415314Y-73978565D01*
X170415315Y-73978570D01*
X170474895Y-74148839D01*
X170494007Y-74179255D01*
X170570868Y-74301578D01*
X170698422Y-74429132D01*
X170851162Y-74525105D01*
X171021429Y-74584684D01*
X171108353Y-74594477D01*
X171172764Y-74621542D01*
X171182149Y-74630016D01*
X173416507Y-76864374D01*
X173416517Y-76864385D01*
X173420847Y-76868715D01*
X173420848Y-76868716D01*
X173532652Y-76980520D01*
X173602669Y-77020943D01*
X173619463Y-77030639D01*
X173619465Y-77030641D01*
X173657519Y-77052611D01*
X173669583Y-77059577D01*
X173822311Y-77100501D01*
X173822314Y-77100501D01*
X173988021Y-77100501D01*
X173988037Y-77100500D01*
X177699903Y-77100500D01*
X177766942Y-77120185D01*
X177787584Y-77136819D01*
X179363181Y-78712416D01*
X179396666Y-78773739D01*
X179399500Y-78800097D01*
X179399500Y-83775500D01*
X179379815Y-83842539D01*
X179327011Y-83888294D01*
X179275500Y-83899500D01*
X177652129Y-83899500D01*
X177652123Y-83899501D01*
X177592516Y-83905908D01*
X177457671Y-83956202D01*
X177457664Y-83956206D01*
X177342455Y-84042452D01*
X177342452Y-84042455D01*
X177256206Y-84157664D01*
X177256202Y-84157671D01*
X177205908Y-84292517D01*
X177199501Y-84352116D01*
X177199500Y-84352135D01*
X177199500Y-86047870D01*
X177199501Y-86047876D01*
X177205908Y-86107483D01*
X177256202Y-86242328D01*
X177256206Y-86242335D01*
X177342452Y-86357544D01*
X177342455Y-86357547D01*
X177457664Y-86443793D01*
X177457671Y-86443797D01*
X177502618Y-86460561D01*
X177592517Y-86494091D01*
X177627596Y-86497862D01*
X177692144Y-86524599D01*
X177731993Y-86581991D01*
X177734488Y-86651816D01*
X177698836Y-86711905D01*
X177685464Y-86722725D01*
X177660858Y-86739954D01*
X177499954Y-86900858D01*
X177369432Y-87087265D01*
X177369431Y-87087267D01*
X177273261Y-87293502D01*
X177273258Y-87293511D01*
X177214366Y-87513302D01*
X177214364Y-87513313D01*
X177194532Y-87739998D01*
X177194532Y-87740001D01*
X177214364Y-87966686D01*
X177214366Y-87966697D01*
X177273258Y-88186488D01*
X177273261Y-88186497D01*
X177369431Y-88392732D01*
X177369432Y-88392734D01*
X177499954Y-88579141D01*
X177660858Y-88740045D01*
X177660861Y-88740047D01*
X177847266Y-88870568D01*
X177904681Y-88897341D01*
X177905275Y-88897618D01*
X177957714Y-88943791D01*
X177976866Y-89010984D01*
X177956650Y-89077865D01*
X177905275Y-89122382D01*
X177847267Y-89149431D01*
X177847265Y-89149432D01*
X177660858Y-89279954D01*
X177499954Y-89440858D01*
X177369432Y-89627265D01*
X177369431Y-89627267D01*
X177273261Y-89833502D01*
X177273258Y-89833511D01*
X177214366Y-90053302D01*
X177214364Y-90053313D01*
X177194532Y-90279998D01*
X177194532Y-90280001D01*
X177214364Y-90506686D01*
X177214366Y-90506697D01*
X177273258Y-90726488D01*
X177273261Y-90726497D01*
X177369431Y-90932732D01*
X177369432Y-90932734D01*
X177499954Y-91119141D01*
X177660858Y-91280045D01*
X177660861Y-91280047D01*
X177847266Y-91410568D01*
X177905865Y-91437893D01*
X177958305Y-91484065D01*
X177977457Y-91551258D01*
X177957242Y-91618139D01*
X177905867Y-91662657D01*
X177847515Y-91689867D01*
X177661179Y-91820342D01*
X177500342Y-91981179D01*
X177369865Y-92167517D01*
X177273734Y-92373673D01*
X177273730Y-92373682D01*
X177221127Y-92569999D01*
X177221128Y-92570000D01*
X178066988Y-92570000D01*
X178034075Y-92627007D01*
X178000000Y-92754174D01*
X178000000Y-92885826D01*
X178034075Y-93012993D01*
X178066988Y-93070000D01*
X177221128Y-93070000D01*
X177273730Y-93266317D01*
X177273734Y-93266326D01*
X177369865Y-93472482D01*
X177500342Y-93658820D01*
X177661179Y-93819657D01*
X177847518Y-93950134D01*
X177847520Y-93950135D01*
X177905865Y-93977342D01*
X177958305Y-94023514D01*
X177977457Y-94090707D01*
X177957242Y-94157589D01*
X177905867Y-94202105D01*
X177847268Y-94229431D01*
X177847264Y-94229433D01*
X177660858Y-94359954D01*
X177499954Y-94520858D01*
X177369432Y-94707265D01*
X177369431Y-94707267D01*
X177273261Y-94913502D01*
X177273258Y-94913511D01*
X177214366Y-95133302D01*
X177214364Y-95133313D01*
X177194532Y-95359998D01*
X177194532Y-95360001D01*
X177214364Y-95586686D01*
X177214366Y-95586697D01*
X177273258Y-95806488D01*
X177273261Y-95806497D01*
X177369431Y-96012732D01*
X177369432Y-96012734D01*
X177499954Y-96199141D01*
X177660858Y-96360045D01*
X177660861Y-96360047D01*
X177847266Y-96490568D01*
X177905275Y-96517618D01*
X177957714Y-96563791D01*
X177976866Y-96630984D01*
X177956650Y-96697865D01*
X177905275Y-96742382D01*
X177847267Y-96769431D01*
X177847265Y-96769432D01*
X177660858Y-96899954D01*
X177499954Y-97060858D01*
X177369432Y-97247265D01*
X177369431Y-97247267D01*
X177273261Y-97453502D01*
X177273258Y-97453511D01*
X177214366Y-97673302D01*
X177214364Y-97673313D01*
X177194532Y-97899998D01*
X177194532Y-97900001D01*
X177214364Y-98126686D01*
X177214366Y-98126697D01*
X177273258Y-98346488D01*
X177273261Y-98346497D01*
X177369431Y-98552732D01*
X177369432Y-98552734D01*
X177499954Y-98739141D01*
X177660858Y-98900045D01*
X177660861Y-98900047D01*
X177847266Y-99030568D01*
X177905275Y-99057618D01*
X177957714Y-99103791D01*
X177976866Y-99170984D01*
X177956650Y-99237865D01*
X177905275Y-99282382D01*
X177847267Y-99309431D01*
X177847265Y-99309432D01*
X177660858Y-99439954D01*
X177499954Y-99600858D01*
X177369432Y-99787265D01*
X177369431Y-99787267D01*
X177273261Y-99993502D01*
X177273258Y-99993511D01*
X177214366Y-100213302D01*
X177214364Y-100213313D01*
X177194532Y-100439998D01*
X177194532Y-100440001D01*
X177214364Y-100666686D01*
X177214366Y-100666697D01*
X177273258Y-100886488D01*
X177273261Y-100886497D01*
X177369431Y-101092732D01*
X177369432Y-101092734D01*
X177499954Y-101279141D01*
X177660858Y-101440045D01*
X177660861Y-101440047D01*
X177847266Y-101570568D01*
X177905275Y-101597618D01*
X177957714Y-101643791D01*
X177976866Y-101710984D01*
X177956650Y-101777865D01*
X177905275Y-101822382D01*
X177847267Y-101849431D01*
X177847265Y-101849432D01*
X177660858Y-101979954D01*
X177499954Y-102140858D01*
X177369432Y-102327265D01*
X177369431Y-102327267D01*
X177273261Y-102533502D01*
X177273258Y-102533511D01*
X177214366Y-102753302D01*
X177214364Y-102753313D01*
X177194532Y-102979998D01*
X177194532Y-102980001D01*
X177214364Y-103206686D01*
X177214366Y-103206697D01*
X177273258Y-103426488D01*
X177273261Y-103426497D01*
X177369431Y-103632732D01*
X177369432Y-103632734D01*
X177499954Y-103819141D01*
X177660858Y-103980045D01*
X177660861Y-103980047D01*
X177847266Y-104110568D01*
X177905275Y-104137618D01*
X177957714Y-104183791D01*
X177976866Y-104250984D01*
X177956650Y-104317865D01*
X177905275Y-104362382D01*
X177847267Y-104389431D01*
X177847265Y-104389432D01*
X177660858Y-104519954D01*
X177499954Y-104680858D01*
X177369432Y-104867265D01*
X177369431Y-104867267D01*
X177273261Y-105073502D01*
X177273258Y-105073511D01*
X177214366Y-105293302D01*
X177214364Y-105293313D01*
X177194532Y-105519998D01*
X177194532Y-105520001D01*
X177214364Y-105746686D01*
X177214366Y-105746697D01*
X177273258Y-105966488D01*
X177273261Y-105966497D01*
X177369431Y-106172732D01*
X177369432Y-106172734D01*
X177499954Y-106359141D01*
X177660858Y-106520045D01*
X177660861Y-106520047D01*
X177847266Y-106650568D01*
X177905275Y-106677618D01*
X177957714Y-106723791D01*
X177976866Y-106790984D01*
X177956650Y-106857865D01*
X177905275Y-106902382D01*
X177847267Y-106929431D01*
X177847265Y-106929432D01*
X177660858Y-107059954D01*
X177499954Y-107220858D01*
X177369432Y-107407265D01*
X177369431Y-107407267D01*
X177273261Y-107613502D01*
X177273258Y-107613511D01*
X177214366Y-107833302D01*
X177214364Y-107833313D01*
X177194532Y-108059998D01*
X177194532Y-108060001D01*
X177214364Y-108286686D01*
X177214366Y-108286697D01*
X177273258Y-108506488D01*
X177273261Y-108506497D01*
X177369431Y-108712732D01*
X177369432Y-108712734D01*
X177499954Y-108899141D01*
X177660858Y-109060045D01*
X177660861Y-109060047D01*
X177847266Y-109190568D01*
X177902013Y-109216097D01*
X177905275Y-109217618D01*
X177957714Y-109263791D01*
X177976866Y-109330984D01*
X177956650Y-109397865D01*
X177905275Y-109442382D01*
X177847267Y-109469431D01*
X177847265Y-109469432D01*
X177660858Y-109599954D01*
X177499954Y-109760858D01*
X177369432Y-109947265D01*
X177369431Y-109947267D01*
X177273261Y-110153502D01*
X177273258Y-110153511D01*
X177214366Y-110373302D01*
X177214364Y-110373313D01*
X177194532Y-110599998D01*
X177194532Y-110600001D01*
X177214364Y-110826686D01*
X177214366Y-110826697D01*
X177273258Y-111046488D01*
X177273261Y-111046497D01*
X177369431Y-111252732D01*
X177369432Y-111252734D01*
X177499954Y-111439141D01*
X177660858Y-111600045D01*
X177660861Y-111600047D01*
X177847266Y-111730568D01*
X177898908Y-111754649D01*
X177905275Y-111757618D01*
X177957714Y-111803791D01*
X177976866Y-111870984D01*
X177956650Y-111937865D01*
X177905275Y-111982382D01*
X177847267Y-112009431D01*
X177847265Y-112009432D01*
X177660858Y-112139954D01*
X177499954Y-112300858D01*
X177369432Y-112487265D01*
X177369431Y-112487267D01*
X177273261Y-112693502D01*
X177273258Y-112693511D01*
X177214366Y-112913302D01*
X177214364Y-112913313D01*
X177194532Y-113139998D01*
X177194532Y-113140001D01*
X177214364Y-113366686D01*
X177214366Y-113366697D01*
X177273258Y-113586488D01*
X177273261Y-113586497D01*
X177369431Y-113792732D01*
X177369432Y-113792734D01*
X177499954Y-113979141D01*
X177660858Y-114140045D01*
X177660861Y-114140047D01*
X177847266Y-114270568D01*
X177862132Y-114277500D01*
X177905275Y-114297618D01*
X177957714Y-114343791D01*
X177976866Y-114410984D01*
X177956650Y-114477865D01*
X177905275Y-114522382D01*
X177847267Y-114549431D01*
X177847265Y-114549432D01*
X177660858Y-114679954D01*
X177499954Y-114840858D01*
X177369432Y-115027265D01*
X177369431Y-115027267D01*
X177273261Y-115233502D01*
X177273258Y-115233511D01*
X177214366Y-115453302D01*
X177214364Y-115453313D01*
X177194532Y-115679998D01*
X177194532Y-115680001D01*
X177214364Y-115906686D01*
X177214366Y-115906697D01*
X177273258Y-116126488D01*
X177273261Y-116126497D01*
X177369431Y-116332732D01*
X177369432Y-116332734D01*
X177499954Y-116519141D01*
X177660858Y-116680045D01*
X177660861Y-116680047D01*
X177847266Y-116810568D01*
X177862132Y-116817500D01*
X177905275Y-116837618D01*
X177957714Y-116883791D01*
X177976866Y-116950984D01*
X177956650Y-117017865D01*
X177905275Y-117062382D01*
X177847267Y-117089431D01*
X177847265Y-117089432D01*
X177660858Y-117219954D01*
X177499954Y-117380858D01*
X177369432Y-117567265D01*
X177369431Y-117567267D01*
X177273261Y-117773502D01*
X177273258Y-117773511D01*
X177214366Y-117993302D01*
X177214364Y-117993313D01*
X177194532Y-118219998D01*
X177194532Y-118220001D01*
X177214364Y-118446686D01*
X177214366Y-118446697D01*
X177273258Y-118666488D01*
X177273261Y-118666497D01*
X177369431Y-118872732D01*
X177369432Y-118872734D01*
X177499954Y-119059141D01*
X177660858Y-119220045D01*
X177660861Y-119220047D01*
X177847266Y-119350568D01*
X177862132Y-119357500D01*
X177905275Y-119377618D01*
X177957714Y-119423791D01*
X177976866Y-119490984D01*
X177956650Y-119557865D01*
X177905275Y-119602382D01*
X177847267Y-119629431D01*
X177847265Y-119629432D01*
X177660858Y-119759954D01*
X177499954Y-119920858D01*
X177369432Y-120107265D01*
X177369431Y-120107267D01*
X177273261Y-120313502D01*
X177273258Y-120313511D01*
X177214366Y-120533302D01*
X177214364Y-120533313D01*
X177194532Y-120759998D01*
X177194532Y-120760001D01*
X177214364Y-120986686D01*
X177214366Y-120986697D01*
X177273258Y-121206488D01*
X177273261Y-121206497D01*
X177369431Y-121412732D01*
X177369432Y-121412734D01*
X177499954Y-121599141D01*
X177660858Y-121760045D01*
X177660861Y-121760047D01*
X177847266Y-121890568D01*
X178053504Y-121986739D01*
X178273308Y-122045635D01*
X178435230Y-122059801D01*
X178499998Y-122065468D01*
X178500000Y-122065468D01*
X178500002Y-122065468D01*
X178556673Y-122060509D01*
X178726692Y-122045635D01*
X178946496Y-121986739D01*
X179152734Y-121890568D01*
X179339139Y-121760047D01*
X179500047Y-121599139D01*
X179630568Y-121412734D01*
X179726739Y-121206496D01*
X179785635Y-120986692D01*
X179805468Y-120760000D01*
X179785635Y-120533308D01*
X179726739Y-120313504D01*
X179630568Y-120107266D01*
X179500047Y-119920861D01*
X179500045Y-119920858D01*
X179339141Y-119759954D01*
X179152734Y-119629432D01*
X179152728Y-119629429D01*
X179094725Y-119602382D01*
X179042285Y-119556210D01*
X179023133Y-119489017D01*
X179043348Y-119422135D01*
X179094725Y-119377618D01*
X179152734Y-119350568D01*
X179339139Y-119220047D01*
X179500047Y-119059139D01*
X179630568Y-118872734D01*
X179726739Y-118666496D01*
X179785635Y-118446692D01*
X179805468Y-118220000D01*
X179785635Y-117993308D01*
X179759847Y-117897066D01*
X179761510Y-117827217D01*
X179791939Y-117777294D01*
X181680520Y-115888716D01*
X181759577Y-115751784D01*
X181800501Y-115599057D01*
X181800501Y-115440942D01*
X181800501Y-115433347D01*
X181800500Y-115433329D01*
X181800500Y-98949097D01*
X181820185Y-98882058D01*
X181872989Y-98836303D01*
X181942147Y-98826359D01*
X182005703Y-98855384D01*
X182012181Y-98861416D01*
X182702139Y-99551374D01*
X182702149Y-99551385D01*
X182706479Y-99555715D01*
X182706480Y-99555716D01*
X182818284Y-99667520D01*
X182818286Y-99667521D01*
X182818290Y-99667524D01*
X182955209Y-99746573D01*
X182955216Y-99746577D01*
X183067019Y-99776534D01*
X183107942Y-99787500D01*
X183107943Y-99787500D01*
X192414682Y-99787500D01*
X192481721Y-99807185D01*
X192527476Y-99859989D01*
X192537420Y-99929147D01*
X192527063Y-99963906D01*
X192513263Y-99993497D01*
X192513258Y-99993511D01*
X192454366Y-100213302D01*
X192454364Y-100213313D01*
X192434532Y-100439998D01*
X192434532Y-100440001D01*
X192454364Y-100666686D01*
X192454366Y-100666697D01*
X192513258Y-100886488D01*
X192513261Y-100886497D01*
X192609431Y-101092732D01*
X192609432Y-101092734D01*
X192739954Y-101279141D01*
X192900858Y-101440045D01*
X192900861Y-101440047D01*
X193087266Y-101570568D01*
X193145275Y-101597618D01*
X193197714Y-101643791D01*
X193216866Y-101710984D01*
X193196650Y-101777865D01*
X193145275Y-101822382D01*
X193087267Y-101849431D01*
X193087265Y-101849432D01*
X192900858Y-101979954D01*
X192739954Y-102140858D01*
X192609432Y-102327265D01*
X192609431Y-102327267D01*
X192513261Y-102533502D01*
X192513258Y-102533511D01*
X192454366Y-102753302D01*
X192454364Y-102753313D01*
X192434532Y-102979998D01*
X192434532Y-102980001D01*
X192454364Y-103206686D01*
X192454366Y-103206697D01*
X192513258Y-103426488D01*
X192513261Y-103426497D01*
X192609431Y-103632732D01*
X192609432Y-103632734D01*
X192739954Y-103819141D01*
X192900858Y-103980045D01*
X192900861Y-103980047D01*
X193087266Y-104110568D01*
X193145275Y-104137618D01*
X193197714Y-104183791D01*
X193216866Y-104250984D01*
X193196650Y-104317865D01*
X193145275Y-104362382D01*
X193087267Y-104389431D01*
X193087265Y-104389432D01*
X192900858Y-104519954D01*
X192739954Y-104680858D01*
X192609432Y-104867265D01*
X192609431Y-104867267D01*
X192513261Y-105073502D01*
X192513258Y-105073511D01*
X192454366Y-105293302D01*
X192454364Y-105293313D01*
X192434532Y-105519998D01*
X192434532Y-105520001D01*
X192454364Y-105746686D01*
X192454366Y-105746697D01*
X192513258Y-105966488D01*
X192513261Y-105966497D01*
X192609431Y-106172732D01*
X192609432Y-106172734D01*
X192739954Y-106359141D01*
X192900858Y-106520045D01*
X192900861Y-106520047D01*
X193087266Y-106650568D01*
X193145275Y-106677618D01*
X193197714Y-106723791D01*
X193216866Y-106790984D01*
X193196650Y-106857865D01*
X193145275Y-106902382D01*
X193087267Y-106929431D01*
X193087265Y-106929432D01*
X192900858Y-107059954D01*
X192739954Y-107220858D01*
X192609432Y-107407265D01*
X192609431Y-107407267D01*
X192513261Y-107613502D01*
X192513258Y-107613511D01*
X192454366Y-107833302D01*
X192454364Y-107833313D01*
X192434532Y-108059998D01*
X192434532Y-108060001D01*
X192454364Y-108286686D01*
X192454366Y-108286697D01*
X192513258Y-108506488D01*
X192513261Y-108506497D01*
X192609431Y-108712732D01*
X192609432Y-108712734D01*
X192739954Y-108899141D01*
X192900858Y-109060045D01*
X192900861Y-109060047D01*
X193087266Y-109190568D01*
X193142013Y-109216097D01*
X193145275Y-109217618D01*
X193197714Y-109263791D01*
X193216866Y-109330984D01*
X193196650Y-109397865D01*
X193145275Y-109442382D01*
X193087267Y-109469431D01*
X193087265Y-109469432D01*
X192900858Y-109599954D01*
X192739954Y-109760858D01*
X192609432Y-109947265D01*
X192609431Y-109947267D01*
X192513261Y-110153502D01*
X192513258Y-110153511D01*
X192454366Y-110373302D01*
X192454364Y-110373313D01*
X192434532Y-110599998D01*
X192434532Y-110600001D01*
X192454364Y-110826686D01*
X192454366Y-110826697D01*
X192513258Y-111046488D01*
X192513261Y-111046497D01*
X192609431Y-111252732D01*
X192609432Y-111252734D01*
X192739954Y-111439141D01*
X192900858Y-111600045D01*
X192900861Y-111600047D01*
X193087266Y-111730568D01*
X193138908Y-111754649D01*
X193145275Y-111757618D01*
X193197714Y-111803791D01*
X193216866Y-111870984D01*
X193196650Y-111937865D01*
X193145275Y-111982382D01*
X193087267Y-112009431D01*
X193087265Y-112009432D01*
X192900858Y-112139954D01*
X192739954Y-112300858D01*
X192609432Y-112487265D01*
X192609431Y-112487267D01*
X192513261Y-112693502D01*
X192513258Y-112693511D01*
X192454366Y-112913302D01*
X192454364Y-112913313D01*
X192434532Y-113139998D01*
X192434532Y-113140001D01*
X192454364Y-113366686D01*
X192454366Y-113366697D01*
X192513258Y-113586488D01*
X192513261Y-113586497D01*
X192609431Y-113792732D01*
X192609432Y-113792734D01*
X192739954Y-113979141D01*
X192900858Y-114140045D01*
X192900861Y-114140047D01*
X193087266Y-114270568D01*
X193102132Y-114277500D01*
X193145275Y-114297618D01*
X193197714Y-114343791D01*
X193216866Y-114410984D01*
X193196650Y-114477865D01*
X193145275Y-114522382D01*
X193087267Y-114549431D01*
X193087265Y-114549432D01*
X192900858Y-114679954D01*
X192739954Y-114840858D01*
X192609432Y-115027265D01*
X192609431Y-115027267D01*
X192513261Y-115233502D01*
X192513258Y-115233511D01*
X192454366Y-115453302D01*
X192454364Y-115453313D01*
X192434532Y-115679998D01*
X192434532Y-115680001D01*
X192454364Y-115906686D01*
X192454366Y-115906697D01*
X192513258Y-116126488D01*
X192513261Y-116126497D01*
X192609431Y-116332732D01*
X192609432Y-116332734D01*
X192739954Y-116519141D01*
X192900858Y-116680045D01*
X192900861Y-116680047D01*
X193087266Y-116810568D01*
X193102132Y-116817500D01*
X193145275Y-116837618D01*
X193197714Y-116883791D01*
X193216866Y-116950984D01*
X193196650Y-117017865D01*
X193145275Y-117062382D01*
X193087267Y-117089431D01*
X193087265Y-117089432D01*
X192900858Y-117219954D01*
X192739954Y-117380858D01*
X192609432Y-117567265D01*
X192609431Y-117567267D01*
X192513261Y-117773502D01*
X192513258Y-117773511D01*
X192454366Y-117993302D01*
X192454364Y-117993313D01*
X192434532Y-118219998D01*
X192434532Y-118220001D01*
X192454364Y-118446686D01*
X192454366Y-118446697D01*
X192513258Y-118666488D01*
X192513261Y-118666497D01*
X192609431Y-118872732D01*
X192609432Y-118872734D01*
X192739954Y-119059141D01*
X192900858Y-119220045D01*
X192900861Y-119220047D01*
X193087266Y-119350568D01*
X193102132Y-119357500D01*
X193145275Y-119377618D01*
X193197714Y-119423791D01*
X193216866Y-119490984D01*
X193196650Y-119557865D01*
X193145275Y-119602382D01*
X193087267Y-119629431D01*
X193087265Y-119629432D01*
X192900858Y-119759954D01*
X192739954Y-119920858D01*
X192609432Y-120107265D01*
X192609431Y-120107267D01*
X192513261Y-120313502D01*
X192513258Y-120313511D01*
X192454366Y-120533302D01*
X192454364Y-120533313D01*
X192434532Y-120759998D01*
X192434532Y-120760001D01*
X192454364Y-120986686D01*
X192454366Y-120986697D01*
X192513258Y-121206488D01*
X192513261Y-121206497D01*
X192609431Y-121412732D01*
X192609432Y-121412734D01*
X192739954Y-121599141D01*
X192900858Y-121760045D01*
X192900861Y-121760047D01*
X193087266Y-121890568D01*
X193293504Y-121986739D01*
X193513308Y-122045635D01*
X193675230Y-122059801D01*
X193739998Y-122065468D01*
X193740000Y-122065468D01*
X193740002Y-122065468D01*
X193796673Y-122060509D01*
X193966692Y-122045635D01*
X194186496Y-121986739D01*
X194392734Y-121890568D01*
X194579139Y-121760047D01*
X194740047Y-121599139D01*
X194870568Y-121412734D01*
X194966739Y-121206496D01*
X195025635Y-120986692D01*
X195045468Y-120760000D01*
X195025635Y-120533308D01*
X194966739Y-120313504D01*
X194870568Y-120107266D01*
X194740047Y-119920861D01*
X194740045Y-119920858D01*
X194579141Y-119759954D01*
X194392734Y-119629432D01*
X194392728Y-119629429D01*
X194334725Y-119602382D01*
X194282285Y-119556210D01*
X194263133Y-119489017D01*
X194283348Y-119422135D01*
X194334725Y-119377618D01*
X194392734Y-119350568D01*
X194579139Y-119220047D01*
X194740047Y-119059139D01*
X194870568Y-118872734D01*
X194966739Y-118666496D01*
X195025635Y-118446692D01*
X195045468Y-118220000D01*
X195025635Y-117993308D01*
X194966739Y-117773504D01*
X194870568Y-117567266D01*
X194740047Y-117380861D01*
X194740045Y-117380858D01*
X194579141Y-117219954D01*
X194392734Y-117089432D01*
X194392728Y-117089429D01*
X194334725Y-117062382D01*
X194282285Y-117016210D01*
X194263133Y-116949017D01*
X194283348Y-116882135D01*
X194334725Y-116837618D01*
X194392734Y-116810568D01*
X194579139Y-116680047D01*
X194740047Y-116519139D01*
X194870568Y-116332734D01*
X194966739Y-116126496D01*
X195025635Y-115906692D01*
X195045468Y-115680000D01*
X195025635Y-115453308D01*
X194966739Y-115233504D01*
X194870568Y-115027266D01*
X194740047Y-114840861D01*
X194740045Y-114840858D01*
X194579141Y-114679954D01*
X194392734Y-114549432D01*
X194392728Y-114549429D01*
X194360466Y-114534385D01*
X194334724Y-114522381D01*
X194282285Y-114476210D01*
X194263133Y-114409017D01*
X194283348Y-114342135D01*
X194334725Y-114297618D01*
X194392734Y-114270568D01*
X194579139Y-114140047D01*
X194740047Y-113979139D01*
X194870568Y-113792734D01*
X194966739Y-113586496D01*
X195025635Y-113366692D01*
X195045468Y-113140000D01*
X195025635Y-112913308D01*
X194966739Y-112693504D01*
X194870568Y-112487266D01*
X194740047Y-112300861D01*
X194740045Y-112300858D01*
X194579141Y-112139954D01*
X194392734Y-112009432D01*
X194392728Y-112009429D01*
X194334725Y-111982382D01*
X194282285Y-111936210D01*
X194263133Y-111869017D01*
X194283348Y-111802135D01*
X194334725Y-111757618D01*
X194341092Y-111754649D01*
X194392734Y-111730568D01*
X194579139Y-111600047D01*
X194740047Y-111439139D01*
X194870568Y-111252734D01*
X194966739Y-111046496D01*
X195025635Y-110826692D01*
X195045468Y-110600000D01*
X195025635Y-110373308D01*
X194966739Y-110153504D01*
X194870568Y-109947266D01*
X194740047Y-109760861D01*
X194740045Y-109760858D01*
X194579141Y-109599954D01*
X194392734Y-109469432D01*
X194392728Y-109469429D01*
X194334725Y-109442382D01*
X194282285Y-109396210D01*
X194263133Y-109329017D01*
X194283348Y-109262135D01*
X194334725Y-109217618D01*
X194337987Y-109216097D01*
X194392734Y-109190568D01*
X194579139Y-109060047D01*
X194740047Y-108899139D01*
X194870568Y-108712734D01*
X194966739Y-108506496D01*
X195025635Y-108286692D01*
X195036719Y-108159999D01*
X198669341Y-108159999D01*
X198669341Y-108160000D01*
X198689936Y-108395403D01*
X198689938Y-108395413D01*
X198751094Y-108623655D01*
X198751096Y-108623659D01*
X198751097Y-108623663D01*
X198813046Y-108756513D01*
X198850965Y-108837830D01*
X198850967Y-108837834D01*
X198986501Y-109031395D01*
X198986506Y-109031402D01*
X199153597Y-109198493D01*
X199153603Y-109198498D01*
X199339158Y-109328425D01*
X199382783Y-109383002D01*
X199389977Y-109452500D01*
X199358454Y-109514855D01*
X199339158Y-109531575D01*
X199153597Y-109661505D01*
X198986505Y-109828597D01*
X198850965Y-110022169D01*
X198850964Y-110022171D01*
X198751098Y-110236335D01*
X198751094Y-110236344D01*
X198689938Y-110464586D01*
X198689936Y-110464596D01*
X198669341Y-110699999D01*
X198669341Y-110700000D01*
X198689936Y-110935403D01*
X198689938Y-110935413D01*
X198751094Y-111163655D01*
X198751096Y-111163659D01*
X198751097Y-111163663D01*
X198848752Y-111373084D01*
X198850965Y-111377830D01*
X198850967Y-111377834D01*
X198953485Y-111524243D01*
X198986501Y-111571396D01*
X198986506Y-111571402D01*
X199108430Y-111693326D01*
X199141915Y-111754649D01*
X199136931Y-111824341D01*
X199095059Y-111880274D01*
X199064083Y-111897189D01*
X198932669Y-111946203D01*
X198932664Y-111946206D01*
X198817455Y-112032452D01*
X198817452Y-112032455D01*
X198731206Y-112147664D01*
X198731202Y-112147671D01*
X198680908Y-112282517D01*
X198674501Y-112342116D01*
X198674501Y-112342123D01*
X198674500Y-112342135D01*
X198674500Y-114137870D01*
X198674501Y-114137876D01*
X198680908Y-114197483D01*
X198731202Y-114332328D01*
X198731206Y-114332335D01*
X198817452Y-114447544D01*
X198817455Y-114447547D01*
X198932664Y-114533793D01*
X198932671Y-114533797D01*
X199067517Y-114584091D01*
X199067516Y-114584091D01*
X199074444Y-114584835D01*
X199127127Y-114590500D01*
X200922872Y-114590499D01*
X200982483Y-114584091D01*
X201117331Y-114533796D01*
X201232546Y-114447546D01*
X201318796Y-114332331D01*
X201369091Y-114197483D01*
X201375500Y-114137873D01*
X201375499Y-112342128D01*
X201369091Y-112282517D01*
X201356278Y-112248164D01*
X201318797Y-112147671D01*
X201318793Y-112147664D01*
X201232547Y-112032455D01*
X201232544Y-112032452D01*
X201117335Y-111946206D01*
X201117328Y-111946202D01*
X200985917Y-111897189D01*
X200929983Y-111855318D01*
X200905566Y-111789853D01*
X200920418Y-111721580D01*
X200941563Y-111693332D01*
X201063495Y-111571401D01*
X201199035Y-111377830D01*
X201298903Y-111163663D01*
X201360063Y-110935408D01*
X201380659Y-110700000D01*
X201360063Y-110464592D01*
X201304736Y-110258105D01*
X201298905Y-110236344D01*
X201298904Y-110236343D01*
X201298903Y-110236337D01*
X201199035Y-110022171D01*
X201146587Y-109947266D01*
X201063494Y-109828597D01*
X200896402Y-109661506D01*
X200896396Y-109661501D01*
X200710842Y-109531575D01*
X200667217Y-109476998D01*
X200660023Y-109407500D01*
X200691546Y-109345145D01*
X200710842Y-109328425D01*
X200733026Y-109312891D01*
X200896401Y-109198495D01*
X201063495Y-109031401D01*
X201199035Y-108837830D01*
X201298903Y-108623663D01*
X201360063Y-108395408D01*
X201380659Y-108160000D01*
X201360063Y-107924592D01*
X201298903Y-107696337D01*
X201199035Y-107482171D01*
X201146587Y-107407266D01*
X201063494Y-107288597D01*
X200896402Y-107121506D01*
X200896395Y-107121501D01*
X200702834Y-106985967D01*
X200702830Y-106985965D01*
X200702828Y-106985964D01*
X200488663Y-106886097D01*
X200488659Y-106886096D01*
X200488655Y-106886094D01*
X200260413Y-106824938D01*
X200260403Y-106824936D01*
X200025001Y-106804341D01*
X200024999Y-106804341D01*
X199789596Y-106824936D01*
X199789586Y-106824938D01*
X199561344Y-106886094D01*
X199561335Y-106886098D01*
X199347171Y-106985964D01*
X199347169Y-106985965D01*
X199153597Y-107121505D01*
X198986505Y-107288597D01*
X198850965Y-107482169D01*
X198850964Y-107482171D01*
X198751098Y-107696335D01*
X198751094Y-107696344D01*
X198689938Y-107924586D01*
X198689936Y-107924596D01*
X198669341Y-108159999D01*
X195036719Y-108159999D01*
X195045468Y-108060000D01*
X195025635Y-107833308D01*
X194966739Y-107613504D01*
X194870568Y-107407266D01*
X194740047Y-107220861D01*
X194740045Y-107220858D01*
X194579141Y-107059954D01*
X194392734Y-106929432D01*
X194392728Y-106929429D01*
X194334725Y-106902382D01*
X194282285Y-106856210D01*
X194263133Y-106789017D01*
X194283348Y-106722135D01*
X194331977Y-106679999D01*
X206289341Y-106679999D01*
X206289341Y-106680000D01*
X206309936Y-106915403D01*
X206309938Y-106915413D01*
X206371094Y-107143655D01*
X206371096Y-107143659D01*
X206371097Y-107143663D01*
X206454155Y-107321781D01*
X206470965Y-107357830D01*
X206470967Y-107357834D01*
X206579281Y-107512521D01*
X206606501Y-107551396D01*
X206606506Y-107551402D01*
X206773597Y-107718493D01*
X206773603Y-107718498D01*
X206959158Y-107848425D01*
X207002783Y-107903002D01*
X207009977Y-107972500D01*
X206978454Y-108034855D01*
X206959158Y-108051575D01*
X206773597Y-108181505D01*
X206606505Y-108348597D01*
X206470965Y-108542169D01*
X206470964Y-108542171D01*
X206371098Y-108756335D01*
X206371094Y-108756344D01*
X206309938Y-108984586D01*
X206309936Y-108984596D01*
X206289341Y-109219999D01*
X206289341Y-109220000D01*
X206309936Y-109455403D01*
X206309938Y-109455413D01*
X206371094Y-109683655D01*
X206371096Y-109683659D01*
X206371097Y-109683663D01*
X206454155Y-109861781D01*
X206470965Y-109897830D01*
X206470967Y-109897834D01*
X206579281Y-110052521D01*
X206606501Y-110091396D01*
X206606506Y-110091402D01*
X206773597Y-110258493D01*
X206773603Y-110258498D01*
X206959158Y-110388425D01*
X207002783Y-110443002D01*
X207009977Y-110512500D01*
X206978454Y-110574855D01*
X206959158Y-110591575D01*
X206773597Y-110721505D01*
X206606505Y-110888597D01*
X206470965Y-111082169D01*
X206470964Y-111082171D01*
X206371098Y-111296335D01*
X206371094Y-111296344D01*
X206309938Y-111524586D01*
X206309936Y-111524596D01*
X206289341Y-111759999D01*
X206289341Y-111760000D01*
X206309936Y-111995403D01*
X206309938Y-111995413D01*
X206371094Y-112223655D01*
X206371096Y-112223659D01*
X206371097Y-112223663D01*
X206450982Y-112394977D01*
X206470965Y-112437830D01*
X206470967Y-112437834D01*
X206570689Y-112580250D01*
X206606501Y-112631396D01*
X206606506Y-112631402D01*
X206773597Y-112798493D01*
X206773603Y-112798498D01*
X206959158Y-112928425D01*
X207002783Y-112983002D01*
X207009977Y-113052500D01*
X206978454Y-113114855D01*
X206959158Y-113131575D01*
X206773597Y-113261505D01*
X206606505Y-113428597D01*
X206470965Y-113622169D01*
X206470964Y-113622171D01*
X206371098Y-113836335D01*
X206371094Y-113836344D01*
X206309938Y-114064586D01*
X206309936Y-114064596D01*
X206289341Y-114299999D01*
X206289341Y-114300000D01*
X206309936Y-114535403D01*
X206309938Y-114535413D01*
X206371094Y-114763655D01*
X206371096Y-114763659D01*
X206371097Y-114763663D01*
X206450982Y-114934977D01*
X206470965Y-114977830D01*
X206470967Y-114977834D01*
X206579281Y-115132521D01*
X206606501Y-115171396D01*
X206606506Y-115171402D01*
X206728430Y-115293326D01*
X206761915Y-115354649D01*
X206756931Y-115424341D01*
X206715059Y-115480274D01*
X206684083Y-115497189D01*
X206552669Y-115546203D01*
X206552664Y-115546206D01*
X206437455Y-115632452D01*
X206437452Y-115632455D01*
X206351206Y-115747664D01*
X206351202Y-115747671D01*
X206300908Y-115882517D01*
X206294501Y-115942116D01*
X206294500Y-115942135D01*
X206294500Y-117737870D01*
X206294501Y-117737876D01*
X206300908Y-117797483D01*
X206351202Y-117932328D01*
X206351206Y-117932335D01*
X206437452Y-118047544D01*
X206437455Y-118047547D01*
X206552664Y-118133793D01*
X206552671Y-118133797D01*
X206687517Y-118184091D01*
X206687516Y-118184091D01*
X206694444Y-118184835D01*
X206747127Y-118190500D01*
X208542872Y-118190499D01*
X208602483Y-118184091D01*
X208737331Y-118133796D01*
X208852546Y-118047546D01*
X208938796Y-117932331D01*
X208944512Y-117917007D01*
X208988002Y-117800402D01*
X209029872Y-117744468D01*
X209095337Y-117720050D01*
X209163610Y-117734901D01*
X209191865Y-117756053D01*
X209313917Y-117878105D01*
X209507421Y-118013600D01*
X209721507Y-118113429D01*
X209721516Y-118113433D01*
X209935000Y-118170634D01*
X209935000Y-117273012D01*
X209992007Y-117305925D01*
X210119174Y-117340000D01*
X210250826Y-117340000D01*
X210377993Y-117305925D01*
X210435000Y-117273012D01*
X210435000Y-118170633D01*
X210648483Y-118113433D01*
X210648492Y-118113429D01*
X210862578Y-118013600D01*
X211056082Y-117878105D01*
X211223105Y-117711082D01*
X211358600Y-117517578D01*
X211458429Y-117303492D01*
X211458432Y-117303486D01*
X211515636Y-117090000D01*
X210618012Y-117090000D01*
X210650925Y-117032993D01*
X210685000Y-116905826D01*
X210685000Y-116774174D01*
X210650925Y-116647007D01*
X210618012Y-116590000D01*
X211515636Y-116590000D01*
X211515635Y-116589999D01*
X211458432Y-116376513D01*
X211458429Y-116376507D01*
X211358600Y-116162422D01*
X211358599Y-116162420D01*
X211223113Y-115968926D01*
X211223108Y-115968920D01*
X211056082Y-115801894D01*
X210869968Y-115671575D01*
X210826344Y-115616998D01*
X210819151Y-115547499D01*
X210850673Y-115485145D01*
X210869968Y-115468425D01*
X211056082Y-115338105D01*
X211223105Y-115171082D01*
X211358600Y-114977578D01*
X211458429Y-114763492D01*
X211458432Y-114763486D01*
X211515636Y-114550000D01*
X210618012Y-114550000D01*
X210650925Y-114492993D01*
X210685000Y-114365826D01*
X210685000Y-114234174D01*
X210650925Y-114107007D01*
X210618012Y-114050000D01*
X211515636Y-114050000D01*
X211515635Y-114049999D01*
X211458432Y-113836513D01*
X211458429Y-113836507D01*
X211358600Y-113622422D01*
X211358599Y-113622420D01*
X211223113Y-113428926D01*
X211223108Y-113428920D01*
X211056082Y-113261894D01*
X210869968Y-113131575D01*
X210826344Y-113076998D01*
X210819151Y-113007499D01*
X210850673Y-112945145D01*
X210869968Y-112928425D01*
X211056082Y-112798105D01*
X211223105Y-112631082D01*
X211358600Y-112437578D01*
X211458429Y-112223492D01*
X211458432Y-112223486D01*
X211515636Y-112010000D01*
X210618012Y-112010000D01*
X210650925Y-111952993D01*
X210685000Y-111825826D01*
X210685000Y-111694174D01*
X210650925Y-111567007D01*
X210618012Y-111510000D01*
X211515636Y-111510000D01*
X211515635Y-111509999D01*
X211458432Y-111296513D01*
X211458429Y-111296507D01*
X211358600Y-111082422D01*
X211358599Y-111082420D01*
X211223113Y-110888926D01*
X211223108Y-110888920D01*
X211056082Y-110721894D01*
X210869968Y-110591575D01*
X210826344Y-110536998D01*
X210819151Y-110467499D01*
X210850673Y-110405145D01*
X210869968Y-110388425D01*
X211056082Y-110258105D01*
X211223105Y-110091082D01*
X211358600Y-109897578D01*
X211458429Y-109683492D01*
X211458432Y-109683486D01*
X211515636Y-109470000D01*
X210618012Y-109470000D01*
X210650925Y-109412993D01*
X210685000Y-109285826D01*
X210685000Y-109154174D01*
X210650925Y-109027007D01*
X210618012Y-108970000D01*
X211515636Y-108970000D01*
X211515635Y-108969999D01*
X211458432Y-108756513D01*
X211458429Y-108756507D01*
X211358600Y-108542422D01*
X211358599Y-108542420D01*
X211223113Y-108348926D01*
X211223108Y-108348920D01*
X211056082Y-108181894D01*
X210869968Y-108051575D01*
X210826344Y-107996998D01*
X210819151Y-107927499D01*
X210850673Y-107865145D01*
X210869968Y-107848425D01*
X211056082Y-107718105D01*
X211223105Y-107551082D01*
X211358600Y-107357578D01*
X211458429Y-107143492D01*
X211458432Y-107143486D01*
X211515636Y-106930000D01*
X210618012Y-106930000D01*
X210650925Y-106872993D01*
X210685000Y-106745826D01*
X210685000Y-106614174D01*
X210650925Y-106487007D01*
X210618012Y-106430000D01*
X211515636Y-106430000D01*
X211515635Y-106429999D01*
X211458432Y-106216513D01*
X211458429Y-106216507D01*
X211358600Y-106002422D01*
X211358599Y-106002420D01*
X211223113Y-105808926D01*
X211223108Y-105808920D01*
X211056082Y-105641894D01*
X210862578Y-105506399D01*
X210648492Y-105406570D01*
X210648486Y-105406567D01*
X210435000Y-105349364D01*
X210435000Y-106246988D01*
X210377993Y-106214075D01*
X210250826Y-106180000D01*
X210119174Y-106180000D01*
X209992007Y-106214075D01*
X209935000Y-106246988D01*
X209935000Y-105349364D01*
X209934999Y-105349364D01*
X209721513Y-105406567D01*
X209721507Y-105406570D01*
X209507422Y-105506399D01*
X209507420Y-105506400D01*
X209313926Y-105641886D01*
X209313920Y-105641891D01*
X209146891Y-105808920D01*
X209146890Y-105808922D01*
X209016880Y-105994595D01*
X208962303Y-106038219D01*
X208892804Y-106045412D01*
X208830450Y-106013890D01*
X208813730Y-105994594D01*
X208683494Y-105808597D01*
X208516402Y-105641506D01*
X208516395Y-105641501D01*
X208322834Y-105505967D01*
X208322830Y-105505965D01*
X208322828Y-105505964D01*
X208108663Y-105406097D01*
X208108659Y-105406096D01*
X208108655Y-105406094D01*
X207880413Y-105344938D01*
X207880403Y-105344936D01*
X207645001Y-105324341D01*
X207644999Y-105324341D01*
X207409596Y-105344936D01*
X207409586Y-105344938D01*
X207181344Y-105406094D01*
X207181335Y-105406098D01*
X206967171Y-105505964D01*
X206967169Y-105505965D01*
X206773597Y-105641505D01*
X206606505Y-105808597D01*
X206470965Y-106002169D01*
X206470964Y-106002171D01*
X206371098Y-106216335D01*
X206371094Y-106216344D01*
X206309938Y-106444586D01*
X206309936Y-106444596D01*
X206289341Y-106679999D01*
X194331977Y-106679999D01*
X194334725Y-106677618D01*
X194392734Y-106650568D01*
X194579139Y-106520047D01*
X194740047Y-106359139D01*
X194870568Y-106172734D01*
X194966739Y-105966496D01*
X195025635Y-105746692D01*
X195045468Y-105520000D01*
X195025635Y-105293308D01*
X194966739Y-105073504D01*
X194870568Y-104867266D01*
X194740047Y-104680861D01*
X194740045Y-104680858D01*
X194579141Y-104519954D01*
X194392734Y-104389432D01*
X194392728Y-104389429D01*
X194334725Y-104362382D01*
X194282285Y-104316210D01*
X194263133Y-104249017D01*
X194283348Y-104182135D01*
X194334725Y-104137618D01*
X194392734Y-104110568D01*
X194579139Y-103980047D01*
X194740047Y-103819139D01*
X194870568Y-103632734D01*
X194966739Y-103426496D01*
X195025635Y-103206692D01*
X195045468Y-102980000D01*
X195025635Y-102753308D01*
X194966739Y-102533504D01*
X194870568Y-102327266D01*
X194740047Y-102140861D01*
X194740045Y-102140858D01*
X194579141Y-101979954D01*
X194392734Y-101849432D01*
X194392728Y-101849429D01*
X194334725Y-101822382D01*
X194282285Y-101776210D01*
X194263133Y-101709017D01*
X194283348Y-101642135D01*
X194334725Y-101597618D01*
X194392734Y-101570568D01*
X194579139Y-101440047D01*
X194740047Y-101279139D01*
X194870568Y-101092734D01*
X194966739Y-100886496D01*
X195025635Y-100666692D01*
X195045468Y-100440000D01*
X195025635Y-100213308D01*
X194966739Y-99993504D01*
X194952936Y-99963905D01*
X194942444Y-99894829D01*
X194970963Y-99831045D01*
X195029439Y-99792804D01*
X195065318Y-99787500D01*
X205917588Y-99787500D01*
X205984627Y-99807185D01*
X205994903Y-99814555D01*
X205997736Y-99816814D01*
X205997738Y-99816816D01*
X206150478Y-99912789D01*
X206296562Y-99963906D01*
X206320745Y-99972368D01*
X206320750Y-99972369D01*
X206499996Y-99992565D01*
X206500000Y-99992565D01*
X206500004Y-99992565D01*
X206679249Y-99972369D01*
X206679252Y-99972368D01*
X206679255Y-99972368D01*
X206849522Y-99912789D01*
X207002262Y-99816816D01*
X207129816Y-99689262D01*
X207225789Y-99536522D01*
X207285368Y-99366255D01*
X207285369Y-99366249D01*
X207305565Y-99187003D01*
X207305565Y-99186996D01*
X207285369Y-99007750D01*
X207285368Y-99007745D01*
X207234165Y-98861416D01*
X207225789Y-98837478D01*
X207218802Y-98826359D01*
X207129815Y-98684737D01*
X207002262Y-98557184D01*
X206849523Y-98461211D01*
X206679254Y-98401631D01*
X206679249Y-98401630D01*
X206500004Y-98381435D01*
X206499996Y-98381435D01*
X206320750Y-98401630D01*
X206320745Y-98401631D01*
X206150476Y-98461211D01*
X205997736Y-98557185D01*
X205994903Y-98559445D01*
X205992724Y-98560334D01*
X205991842Y-98560889D01*
X205991744Y-98560734D01*
X205930217Y-98585855D01*
X205917588Y-98586500D01*
X195049464Y-98586500D01*
X194982425Y-98566815D01*
X194936670Y-98514011D01*
X194926726Y-98444853D01*
X194937082Y-98410095D01*
X194941029Y-98401630D01*
X194966739Y-98346496D01*
X195025635Y-98126692D01*
X195045468Y-97900000D01*
X195025635Y-97673308D01*
X194966739Y-97453504D01*
X194870568Y-97247266D01*
X194740047Y-97060861D01*
X194740045Y-97060858D01*
X194579141Y-96899954D01*
X194392734Y-96769432D01*
X194392728Y-96769429D01*
X194334725Y-96742382D01*
X194282285Y-96696210D01*
X194263133Y-96629017D01*
X194283348Y-96562135D01*
X194334725Y-96517618D01*
X194392734Y-96490568D01*
X194579139Y-96360047D01*
X194740047Y-96199139D01*
X194870568Y-96012734D01*
X194966739Y-95806496D01*
X195025635Y-95586692D01*
X195045468Y-95360000D01*
X195025635Y-95133308D01*
X194966739Y-94913504D01*
X194870568Y-94707266D01*
X194740047Y-94520861D01*
X194740045Y-94520858D01*
X194579141Y-94359954D01*
X194392734Y-94229432D01*
X194392728Y-94229429D01*
X194334725Y-94202382D01*
X194282285Y-94156210D01*
X194263133Y-94089017D01*
X194283348Y-94022135D01*
X194334725Y-93977618D01*
X194335317Y-93977342D01*
X194392734Y-93950568D01*
X194579139Y-93820047D01*
X194740047Y-93659139D01*
X194870118Y-93473375D01*
X194924693Y-93429752D01*
X194971692Y-93420500D01*
X198093331Y-93420500D01*
X198093347Y-93420501D01*
X198100943Y-93420501D01*
X198259054Y-93420501D01*
X198259057Y-93420501D01*
X198411785Y-93379577D01*
X198461904Y-93350639D01*
X198527267Y-93312902D01*
X198575383Y-93297071D01*
X198679252Y-93285369D01*
X198679255Y-93285368D01*
X198849522Y-93225789D01*
X199002262Y-93129816D01*
X199129816Y-93002262D01*
X199225789Y-92849522D01*
X199285368Y-92679255D01*
X199285369Y-92679249D01*
X199305565Y-92500003D01*
X199305565Y-92499996D01*
X199285369Y-92320750D01*
X199285368Y-92320745D01*
X199248317Y-92214860D01*
X199225789Y-92150478D01*
X199129816Y-91997738D01*
X199002262Y-91870184D01*
X198849523Y-91774211D01*
X198679254Y-91714631D01*
X198679249Y-91714630D01*
X198500004Y-91694435D01*
X198499996Y-91694435D01*
X198320750Y-91714630D01*
X198320745Y-91714631D01*
X198150476Y-91774211D01*
X197997737Y-91870184D01*
X197870184Y-91997737D01*
X197770506Y-92156374D01*
X197769156Y-92155526D01*
X197727956Y-92201161D01*
X197663057Y-92219500D01*
X194971692Y-92219500D01*
X194904653Y-92199815D01*
X194870119Y-92166625D01*
X194740047Y-91980861D01*
X194740045Y-91980858D01*
X194579141Y-91819954D01*
X194392734Y-91689432D01*
X194392728Y-91689429D01*
X194334725Y-91662382D01*
X194282285Y-91616210D01*
X194263133Y-91549017D01*
X194283348Y-91482135D01*
X194334725Y-91437618D01*
X194392734Y-91410568D01*
X194579139Y-91280047D01*
X194740047Y-91119139D01*
X194870568Y-90932734D01*
X194966739Y-90726496D01*
X195025635Y-90506692D01*
X195045468Y-90280000D01*
X195025635Y-90053308D01*
X194966739Y-89833504D01*
X194870568Y-89627266D01*
X194740047Y-89440861D01*
X194740045Y-89440858D01*
X194579141Y-89279954D01*
X194392734Y-89149432D01*
X194392732Y-89149431D01*
X194334725Y-89122382D01*
X194334132Y-89122105D01*
X194281694Y-89075934D01*
X194262542Y-89008740D01*
X194282758Y-88941859D01*
X194334134Y-88897341D01*
X194392484Y-88870132D01*
X194578820Y-88739657D01*
X194739657Y-88578820D01*
X194870134Y-88392482D01*
X194966265Y-88186326D01*
X194966269Y-88186317D01*
X195018872Y-87990000D01*
X194173012Y-87990000D01*
X194205925Y-87932993D01*
X194240000Y-87805826D01*
X194240000Y-87674174D01*
X194205925Y-87547007D01*
X194173012Y-87490000D01*
X195018872Y-87490000D01*
X195018872Y-87489999D01*
X194966269Y-87293682D01*
X194966265Y-87293673D01*
X194870134Y-87087517D01*
X194739657Y-86901179D01*
X194578820Y-86740342D01*
X194392482Y-86609865D01*
X194334133Y-86582657D01*
X194281694Y-86536484D01*
X194262542Y-86469291D01*
X194282758Y-86402410D01*
X194334129Y-86357895D01*
X194392734Y-86330568D01*
X194579139Y-86200047D01*
X194740047Y-86039139D01*
X194870568Y-85852734D01*
X194966739Y-85646496D01*
X195025635Y-85426692D01*
X195045468Y-85200000D01*
X195041968Y-85160000D01*
X195026135Y-84979025D01*
X199149526Y-84979025D01*
X199222513Y-85030132D01*
X199222521Y-85030136D01*
X199428668Y-85126264D01*
X199428682Y-85126269D01*
X199648389Y-85185139D01*
X199648400Y-85185141D01*
X199874998Y-85204966D01*
X199875002Y-85204966D01*
X199931786Y-85199998D01*
X203569532Y-85199998D01*
X203569532Y-85200001D01*
X203589364Y-85426686D01*
X203589366Y-85426697D01*
X203648258Y-85646488D01*
X203648261Y-85646497D01*
X203744431Y-85852732D01*
X203744432Y-85852734D01*
X203874954Y-86039141D01*
X204035858Y-86200045D01*
X204035861Y-86200047D01*
X204222266Y-86330568D01*
X204428504Y-86426739D01*
X204648308Y-86485635D01*
X204788052Y-86497861D01*
X204874998Y-86505468D01*
X204875000Y-86505468D01*
X204875002Y-86505468D01*
X204931796Y-86500499D01*
X205101692Y-86485635D01*
X205321496Y-86426739D01*
X205527734Y-86330568D01*
X205714139Y-86200047D01*
X205875047Y-86039139D01*
X206005568Y-85852734D01*
X206101739Y-85646496D01*
X206160635Y-85426692D01*
X206180468Y-85200000D01*
X206176968Y-85160000D01*
X206160635Y-84973313D01*
X206160635Y-84973308D01*
X206101739Y-84753504D01*
X206005568Y-84547266D01*
X205875047Y-84360861D01*
X205875045Y-84360858D01*
X205714141Y-84199954D01*
X205527734Y-84069432D01*
X205527732Y-84069431D01*
X205321497Y-83973261D01*
X205321488Y-83973258D01*
X205101697Y-83914366D01*
X205101693Y-83914365D01*
X205101692Y-83914365D01*
X205101691Y-83914364D01*
X205101686Y-83914364D01*
X204875002Y-83894532D01*
X204874998Y-83894532D01*
X204648313Y-83914364D01*
X204648302Y-83914366D01*
X204428511Y-83973258D01*
X204428502Y-83973261D01*
X204222267Y-84069431D01*
X204222265Y-84069432D01*
X204035858Y-84199954D01*
X203874954Y-84360858D01*
X203744432Y-84547265D01*
X203744431Y-84547267D01*
X203648261Y-84753502D01*
X203648258Y-84753511D01*
X203589366Y-84973302D01*
X203589364Y-84973313D01*
X203569532Y-85199998D01*
X199931786Y-85199998D01*
X200101599Y-85185141D01*
X200101610Y-85185139D01*
X200321317Y-85126269D01*
X200321331Y-85126264D01*
X200527478Y-85030136D01*
X200600471Y-84979024D01*
X199875000Y-84253553D01*
X199149526Y-84979025D01*
X195026135Y-84979025D01*
X195025635Y-84973313D01*
X195025635Y-84973308D01*
X194966739Y-84753504D01*
X194870568Y-84547266D01*
X194740047Y-84360861D01*
X194740045Y-84360858D01*
X194579141Y-84199954D01*
X194392734Y-84069432D01*
X194392732Y-84069431D01*
X194186497Y-83973261D01*
X194186488Y-83973258D01*
X193966697Y-83914366D01*
X193966693Y-83914365D01*
X193966692Y-83914365D01*
X193966691Y-83914364D01*
X193966686Y-83914364D01*
X193802468Y-83899997D01*
X198570034Y-83899997D01*
X198570034Y-83900002D01*
X198589858Y-84126599D01*
X198589860Y-84126610D01*
X198648730Y-84346317D01*
X198648735Y-84346331D01*
X198744863Y-84552478D01*
X198795974Y-84625472D01*
X199521447Y-83900000D01*
X199521447Y-83899999D01*
X199481952Y-83860504D01*
X199575000Y-83860504D01*
X199575000Y-83939496D01*
X199595444Y-84015796D01*
X199634940Y-84084205D01*
X199690795Y-84140060D01*
X199759204Y-84179556D01*
X199835504Y-84200000D01*
X199914496Y-84200000D01*
X199990796Y-84179556D01*
X200059205Y-84140060D01*
X200115060Y-84084205D01*
X200154556Y-84015796D01*
X200175000Y-83939496D01*
X200175000Y-83899999D01*
X200228553Y-83899999D01*
X200228553Y-83900000D01*
X200954024Y-84625471D01*
X201005136Y-84552478D01*
X201101264Y-84346331D01*
X201101269Y-84346317D01*
X201160139Y-84126610D01*
X201160141Y-84126599D01*
X201179966Y-83900002D01*
X201179966Y-83899997D01*
X201160141Y-83673400D01*
X201160139Y-83673389D01*
X201101269Y-83453682D01*
X201101264Y-83453668D01*
X201005136Y-83247521D01*
X201005132Y-83247513D01*
X200954025Y-83174526D01*
X200228553Y-83899999D01*
X200175000Y-83899999D01*
X200175000Y-83860504D01*
X200154556Y-83784204D01*
X200115060Y-83715795D01*
X200059205Y-83659940D01*
X199990796Y-83620444D01*
X199914496Y-83600000D01*
X199835504Y-83600000D01*
X199759204Y-83620444D01*
X199690795Y-83659940D01*
X199634940Y-83715795D01*
X199595444Y-83784204D01*
X199575000Y-83860504D01*
X199481952Y-83860504D01*
X198795974Y-83174526D01*
X198795973Y-83174526D01*
X198744868Y-83247512D01*
X198744866Y-83247516D01*
X198648734Y-83453673D01*
X198648730Y-83453682D01*
X198589860Y-83673389D01*
X198589858Y-83673400D01*
X198570034Y-83899997D01*
X193802468Y-83899997D01*
X193740002Y-83894532D01*
X193739998Y-83894532D01*
X193513313Y-83914364D01*
X193513302Y-83914366D01*
X193293511Y-83973258D01*
X193293502Y-83973261D01*
X193087267Y-84069431D01*
X193087265Y-84069432D01*
X192900858Y-84199954D01*
X192739954Y-84360858D01*
X192609432Y-84547265D01*
X192609431Y-84547267D01*
X192513261Y-84753502D01*
X192513258Y-84753511D01*
X192454366Y-84973302D01*
X192454364Y-84973313D01*
X192434532Y-85199998D01*
X192434532Y-85200001D01*
X192454364Y-85426686D01*
X192454366Y-85426697D01*
X192513258Y-85646488D01*
X192513261Y-85646497D01*
X192609431Y-85852732D01*
X192609432Y-85852734D01*
X192739954Y-86039141D01*
X192900858Y-86200045D01*
X192900861Y-86200047D01*
X193087266Y-86330568D01*
X193145865Y-86357893D01*
X193198305Y-86404065D01*
X193217457Y-86471258D01*
X193197242Y-86538139D01*
X193145867Y-86582657D01*
X193087515Y-86609867D01*
X192901179Y-86740342D01*
X192740342Y-86901179D01*
X192609865Y-87087517D01*
X192513734Y-87293673D01*
X192513730Y-87293682D01*
X192461127Y-87489999D01*
X192461128Y-87490000D01*
X193306988Y-87490000D01*
X193274075Y-87547007D01*
X193240000Y-87674174D01*
X193240000Y-87805826D01*
X193274075Y-87932993D01*
X193306988Y-87990000D01*
X192461128Y-87990000D01*
X192513730Y-88186317D01*
X192513734Y-88186326D01*
X192609865Y-88392482D01*
X192740342Y-88578820D01*
X192901179Y-88739657D01*
X193087518Y-88870134D01*
X193087520Y-88870135D01*
X193145865Y-88897342D01*
X193198305Y-88943514D01*
X193217457Y-89010707D01*
X193197242Y-89077589D01*
X193145867Y-89122105D01*
X193145275Y-89122382D01*
X193087264Y-89149433D01*
X192900858Y-89279954D01*
X192739954Y-89440858D01*
X192609432Y-89627265D01*
X192609431Y-89627267D01*
X192513261Y-89833502D01*
X192513258Y-89833511D01*
X192454366Y-90053302D01*
X192454364Y-90053313D01*
X192434532Y-90279998D01*
X192434532Y-90280001D01*
X192454364Y-90506686D01*
X192454366Y-90506697D01*
X192513258Y-90726488D01*
X192513261Y-90726497D01*
X192609431Y-90932732D01*
X192609432Y-90932734D01*
X192739954Y-91119141D01*
X192900858Y-91280045D01*
X192900861Y-91280047D01*
X193087266Y-91410568D01*
X193145275Y-91437618D01*
X193197714Y-91483791D01*
X193216866Y-91550984D01*
X193196650Y-91617865D01*
X193145275Y-91662382D01*
X193087267Y-91689431D01*
X193087265Y-91689432D01*
X192900858Y-91819954D01*
X192739954Y-91980858D01*
X192609432Y-92167265D01*
X192609431Y-92167267D01*
X192513261Y-92373502D01*
X192513258Y-92373511D01*
X192454366Y-92593302D01*
X192454364Y-92593313D01*
X192434532Y-92819998D01*
X192434532Y-92820001D01*
X192454364Y-93046686D01*
X192454366Y-93046697D01*
X192513258Y-93266488D01*
X192513261Y-93266497D01*
X192609431Y-93472732D01*
X192609432Y-93472734D01*
X192739954Y-93659141D01*
X192900858Y-93820045D01*
X192900861Y-93820047D01*
X193087266Y-93950568D01*
X193144683Y-93977342D01*
X193145275Y-93977618D01*
X193197714Y-94023791D01*
X193216866Y-94090984D01*
X193196650Y-94157865D01*
X193145275Y-94202382D01*
X193087267Y-94229431D01*
X193087265Y-94229432D01*
X192900858Y-94359954D01*
X192739954Y-94520858D01*
X192609432Y-94707265D01*
X192609431Y-94707267D01*
X192513261Y-94913502D01*
X192513258Y-94913511D01*
X192454366Y-95133302D01*
X192454364Y-95133313D01*
X192434532Y-95359998D01*
X192434532Y-95360001D01*
X192454364Y-95586686D01*
X192454366Y-95586697D01*
X192513258Y-95806488D01*
X192513261Y-95806497D01*
X192609431Y-96012732D01*
X192609432Y-96012734D01*
X192739954Y-96199141D01*
X192900858Y-96360045D01*
X192900861Y-96360047D01*
X193087266Y-96490568D01*
X193145275Y-96517618D01*
X193197714Y-96563791D01*
X193216866Y-96630984D01*
X193196650Y-96697865D01*
X193145275Y-96742382D01*
X193087267Y-96769431D01*
X193087265Y-96769432D01*
X192900858Y-96899954D01*
X192739954Y-97060858D01*
X192609432Y-97247265D01*
X192609431Y-97247267D01*
X192513261Y-97453502D01*
X192513258Y-97453511D01*
X192454366Y-97673302D01*
X192454364Y-97673313D01*
X192434532Y-97899998D01*
X192434532Y-97900001D01*
X192454364Y-98126686D01*
X192454366Y-98126697D01*
X192513258Y-98346488D01*
X192513260Y-98346492D01*
X192513261Y-98346496D01*
X192538971Y-98401630D01*
X192542918Y-98410095D01*
X192553410Y-98479173D01*
X192524890Y-98542957D01*
X192466414Y-98581196D01*
X192430536Y-98586500D01*
X183487097Y-98586500D01*
X183420058Y-98566815D01*
X183399416Y-98550181D01*
X182830700Y-97981465D01*
X182797215Y-97920142D01*
X182795163Y-97907686D01*
X182785368Y-97820745D01*
X182725789Y-97650478D01*
X182629816Y-97497738D01*
X182502262Y-97370184D01*
X182349523Y-97274211D01*
X182179254Y-97214631D01*
X182179249Y-97214630D01*
X182000004Y-97194435D01*
X182000003Y-97194435D01*
X182000001Y-97194435D01*
X182000000Y-97194435D01*
X181978184Y-97196892D01*
X181938382Y-97201377D01*
X181869560Y-97189321D01*
X181818181Y-97141971D01*
X181800500Y-97078156D01*
X181800500Y-82820973D01*
X199149526Y-82820973D01*
X199149526Y-82820974D01*
X199875000Y-83546447D01*
X199875001Y-83546447D01*
X200600472Y-82820974D01*
X200527478Y-82769863D01*
X200321331Y-82673735D01*
X200321317Y-82673730D01*
X200101610Y-82614860D01*
X200101599Y-82614858D01*
X199875002Y-82595034D01*
X199874998Y-82595034D01*
X199648400Y-82614858D01*
X199648389Y-82614860D01*
X199428682Y-82673730D01*
X199428673Y-82673734D01*
X199222516Y-82769866D01*
X199222512Y-82769868D01*
X199149526Y-82820973D01*
X181800500Y-82820973D01*
X181800500Y-78665783D01*
X181820185Y-78598744D01*
X181836819Y-78578102D01*
X182745260Y-77669662D01*
X182806583Y-77636177D01*
X182832941Y-77633343D01*
X205380488Y-77633343D01*
X205380504Y-77633344D01*
X205388100Y-77633344D01*
X205546211Y-77633344D01*
X205546214Y-77633344D01*
X205698942Y-77592420D01*
X205755827Y-77559577D01*
X205835873Y-77513363D01*
X205947677Y-77401559D01*
X205947677Y-77401557D01*
X205957881Y-77391354D01*
X205957884Y-77391349D01*
X208518536Y-74830698D01*
X208579857Y-74797215D01*
X208592310Y-74795163D01*
X208679255Y-74785368D01*
X208849522Y-74725789D01*
X209002262Y-74629816D01*
X209129816Y-74502262D01*
X209225789Y-74349522D01*
X209285368Y-74179255D01*
X209305565Y-74000000D01*
X209303150Y-73978570D01*
X209285369Y-73820750D01*
X209285368Y-73820745D01*
X209249926Y-73719458D01*
X209225789Y-73650478D01*
X209206675Y-73620059D01*
X209129815Y-73497737D01*
X209002262Y-73370184D01*
X208849523Y-73274211D01*
X208679254Y-73214631D01*
X208679249Y-73214630D01*
X208500004Y-73194435D01*
X208499996Y-73194435D01*
X208320750Y-73214630D01*
X208320745Y-73214631D01*
X208150476Y-73274211D01*
X207997737Y-73370184D01*
X207870184Y-73497737D01*
X207774210Y-73650478D01*
X207714630Y-73820750D01*
X207704837Y-73907667D01*
X207677770Y-73972081D01*
X207669298Y-73981464D01*
X205254741Y-76396024D01*
X205193418Y-76429509D01*
X205167060Y-76432343D01*
X194216254Y-76432343D01*
X194149215Y-76412658D01*
X194103460Y-76359854D01*
X194093516Y-76290696D01*
X194122541Y-76227140D01*
X194128573Y-76220662D01*
X194469420Y-75879815D01*
X195518535Y-74830698D01*
X195579856Y-74797215D01*
X195592311Y-74795163D01*
X195679255Y-74785368D01*
X195849522Y-74725789D01*
X196002262Y-74629816D01*
X196129816Y-74502262D01*
X196225789Y-74349522D01*
X196285368Y-74179255D01*
X196305565Y-74000000D01*
X196303150Y-73978570D01*
X196285369Y-73820750D01*
X196285368Y-73820745D01*
X196249926Y-73719458D01*
X196225789Y-73650478D01*
X196206675Y-73620059D01*
X196129815Y-73497737D01*
X196002262Y-73370184D01*
X195849523Y-73274211D01*
X195679254Y-73214631D01*
X195679249Y-73214630D01*
X195500004Y-73194435D01*
X195499996Y-73194435D01*
X195320750Y-73214630D01*
X195320745Y-73214631D01*
X195150476Y-73274211D01*
X194997737Y-73370184D01*
X194870184Y-73497737D01*
X194774210Y-73650478D01*
X194714630Y-73820750D01*
X194704837Y-73907668D01*
X194677770Y-73972082D01*
X194669298Y-73981465D01*
X192787584Y-75863181D01*
X192726261Y-75896666D01*
X192699903Y-75899500D01*
X182749098Y-75899500D01*
X182682059Y-75879815D01*
X182636304Y-75827011D01*
X182626360Y-75757853D01*
X182655385Y-75694297D01*
X182661417Y-75687819D01*
X182796630Y-75552605D01*
X183518536Y-74830698D01*
X183579857Y-74797215D01*
X183592310Y-74795163D01*
X183679255Y-74785368D01*
X183849522Y-74725789D01*
X184002262Y-74629816D01*
X184129816Y-74502262D01*
X184225789Y-74349522D01*
X184285368Y-74179255D01*
X184305565Y-74000000D01*
X184303150Y-73978570D01*
X184285369Y-73820750D01*
X184285368Y-73820745D01*
X184249926Y-73719458D01*
X184225789Y-73650478D01*
X184206675Y-73620059D01*
X184129815Y-73497737D01*
X184002262Y-73370184D01*
X183849523Y-73274211D01*
X183679254Y-73214631D01*
X183679249Y-73214630D01*
X183500004Y-73194435D01*
X183499996Y-73194435D01*
X183320750Y-73214630D01*
X183320745Y-73214631D01*
X183150476Y-73274211D01*
X182997737Y-73370184D01*
X182870184Y-73497737D01*
X182774210Y-73650478D01*
X182714630Y-73820750D01*
X182704837Y-73907667D01*
X182677770Y-73972081D01*
X182669298Y-73981464D01*
X180131284Y-76519480D01*
X179919481Y-76731282D01*
X179919477Y-76731287D01*
X179879196Y-76801058D01*
X179879196Y-76801059D01*
X179840423Y-76868214D01*
X179826781Y-76919124D01*
X179799499Y-77020943D01*
X179799499Y-77020945D01*
X179799499Y-77150902D01*
X179779814Y-77217941D01*
X179727010Y-77263696D01*
X179657852Y-77273640D01*
X179594296Y-77244615D01*
X179587818Y-77238583D01*
X178487590Y-76138355D01*
X178487588Y-76138352D01*
X178368717Y-76019481D01*
X178368716Y-76019480D01*
X178281904Y-75969360D01*
X178281904Y-75969359D01*
X178281900Y-75969358D01*
X178231785Y-75940423D01*
X178079057Y-75899499D01*
X177920943Y-75899499D01*
X177913347Y-75899499D01*
X177913331Y-75899500D01*
X174201465Y-75899500D01*
X174134426Y-75879815D01*
X174113784Y-75863181D01*
X172031384Y-73780781D01*
X171997899Y-73719458D01*
X171995847Y-73707002D01*
X171986052Y-73620061D01*
X171926473Y-73449794D01*
X171830500Y-73297054D01*
X171702946Y-73169500D01*
X171550207Y-73073527D01*
X171379938Y-73013947D01*
X171379933Y-73013946D01*
X171200688Y-72993751D01*
X171200680Y-72993751D01*
X171021434Y-73013946D01*
X171021429Y-73013947D01*
X170851160Y-73073527D01*
X170698421Y-73169500D01*
X170570868Y-73297053D01*
X170474895Y-73449792D01*
X170415315Y-73620061D01*
X170415314Y-73620066D01*
X170395119Y-73799312D01*
X164250500Y-73799312D01*
X164250500Y-70799972D01*
X164257458Y-70759017D01*
X164285368Y-70679254D01*
X164285369Y-70679249D01*
X164305565Y-70500003D01*
X164305565Y-70499996D01*
X164285369Y-70320750D01*
X164285368Y-70320745D01*
X164225788Y-70150476D01*
X164129815Y-69997737D01*
X164002262Y-69870184D01*
X164002259Y-69870182D01*
X163849522Y-69774211D01*
X163849518Y-69774209D01*
X163843244Y-69771188D01*
X163844125Y-69769358D01*
X163808059Y-69746692D01*
X163286819Y-69225451D01*
X163253334Y-69164128D01*
X163250500Y-69137770D01*
X163250500Y-67285288D01*
X163270185Y-67218249D01*
X163309708Y-67179562D01*
X163473140Y-67079412D01*
X163670689Y-66910689D01*
X163839412Y-66713140D01*
X163975154Y-66491628D01*
X164074573Y-66251610D01*
X164135221Y-65998994D01*
X164155604Y-65740000D01*
X164135221Y-65481006D01*
X164090474Y-65294623D01*
X164093965Y-65224845D01*
X164123363Y-65178003D01*
X164374550Y-64926816D01*
X164435872Y-64893334D01*
X164462230Y-64890500D01*
X168345500Y-64890500D01*
X168412539Y-64910185D01*
X168458294Y-64962989D01*
X168469500Y-65014500D01*
X168469500Y-66937870D01*
X168469501Y-66937876D01*
X168475908Y-66997483D01*
X168526202Y-67132328D01*
X168526206Y-67132335D01*
X168612452Y-67247544D01*
X168612455Y-67247547D01*
X168727664Y-67333793D01*
X168727671Y-67333797D01*
X168862517Y-67384091D01*
X168862516Y-67384091D01*
X168869444Y-67384835D01*
X168922127Y-67390500D01*
X171317872Y-67390499D01*
X171377483Y-67384091D01*
X171512331Y-67333796D01*
X171627546Y-67247546D01*
X171713796Y-67132331D01*
X171764091Y-66997483D01*
X171770500Y-66937873D01*
X171770499Y-65014499D01*
X171790184Y-64947461D01*
X171842987Y-64901706D01*
X171894499Y-64890500D01*
X173087770Y-64890500D01*
X173154809Y-64910185D01*
X173175451Y-64926819D01*
X173426631Y-65177999D01*
X173460116Y-65239322D01*
X173459524Y-65294627D01*
X173414778Y-65481008D01*
X173394396Y-65740000D01*
X173414778Y-65998991D01*
X173459524Y-66185372D01*
X173456033Y-66255155D01*
X173426631Y-66302000D01*
X171917045Y-67811586D01*
X171893167Y-67847324D01*
X171883640Y-67861584D01*
X171883637Y-67861589D01*
X171834917Y-67934503D01*
X171834914Y-67934506D01*
X171778343Y-68071082D01*
X171778340Y-68071092D01*
X171749500Y-68216079D01*
X171749500Y-70700028D01*
X171742542Y-70740982D01*
X171714631Y-70820747D01*
X171694435Y-70999996D01*
X171694435Y-71000003D01*
X171714630Y-71179249D01*
X171714631Y-71179254D01*
X171774211Y-71349523D01*
X171870184Y-71502262D01*
X171997738Y-71629816D01*
X172150478Y-71725789D01*
X172320745Y-71785368D01*
X172320750Y-71785369D01*
X172499996Y-71805565D01*
X172500000Y-71805565D01*
X172500004Y-71805565D01*
X172679249Y-71785369D01*
X172679252Y-71785368D01*
X172679255Y-71785368D01*
X172849522Y-71725789D01*
X173002262Y-71629816D01*
X173129816Y-71502262D01*
X173225789Y-71349522D01*
X173285368Y-71179255D01*
X173305565Y-71000000D01*
X173285368Y-70820745D01*
X173257458Y-70740982D01*
X173250500Y-70700028D01*
X173250500Y-68652228D01*
X173270185Y-68585189D01*
X173286814Y-68564552D01*
X174487999Y-67363366D01*
X174549320Y-67329883D01*
X174604625Y-67330475D01*
X174661227Y-67344063D01*
X174791006Y-67375221D01*
X175050000Y-67395604D01*
X175308994Y-67375221D01*
X175561610Y-67314573D01*
X175801628Y-67215154D01*
X176023140Y-67079412D01*
X176220689Y-66910689D01*
X176389412Y-66713140D01*
X176525154Y-66491628D01*
X176624573Y-66251610D01*
X176685221Y-65998994D01*
X176705604Y-65740000D01*
X176685221Y-65481006D01*
X176640474Y-65294623D01*
X176643965Y-65224845D01*
X176673363Y-65178003D01*
X176924550Y-64926816D01*
X176985872Y-64893334D01*
X177012230Y-64890500D01*
X180895500Y-64890500D01*
X180962539Y-64910185D01*
X181008294Y-64962989D01*
X181019500Y-65014500D01*
X181019500Y-66937870D01*
X181019501Y-66937876D01*
X181025908Y-66997483D01*
X181076202Y-67132328D01*
X181076206Y-67132335D01*
X181162452Y-67247544D01*
X181162455Y-67247547D01*
X181277664Y-67333793D01*
X181277671Y-67333797D01*
X181412517Y-67384091D01*
X181412516Y-67384091D01*
X181419444Y-67384835D01*
X181472127Y-67390500D01*
X183867872Y-67390499D01*
X183927483Y-67384091D01*
X184062331Y-67333796D01*
X184177546Y-67247546D01*
X184263796Y-67132331D01*
X184314091Y-66997483D01*
X184320500Y-66937873D01*
X184320499Y-65014499D01*
X184340184Y-64947461D01*
X184392987Y-64901706D01*
X184444499Y-64890500D01*
X185637770Y-64890500D01*
X185704809Y-64910185D01*
X185725451Y-64926819D01*
X185976631Y-65177999D01*
X186010116Y-65239322D01*
X186009524Y-65294627D01*
X185964778Y-65481008D01*
X185944396Y-65740000D01*
X185964778Y-65998991D01*
X186009524Y-66185372D01*
X186006033Y-66255155D01*
X185976631Y-66302000D01*
X184417050Y-67861582D01*
X184417043Y-67861589D01*
X184368326Y-67934503D01*
X184368325Y-67934505D01*
X184351620Y-67959505D01*
X184334916Y-67984504D01*
X184334912Y-67984511D01*
X184278343Y-68121082D01*
X184278340Y-68121092D01*
X184249500Y-68266079D01*
X184249500Y-70700028D01*
X184242542Y-70740982D01*
X184214631Y-70820747D01*
X184194435Y-70999996D01*
X184194435Y-71000003D01*
X184214630Y-71179249D01*
X184214631Y-71179254D01*
X184274211Y-71349523D01*
X184370184Y-71502262D01*
X184497738Y-71629816D01*
X184650478Y-71725789D01*
X184820745Y-71785368D01*
X184820750Y-71785369D01*
X184999996Y-71805565D01*
X185000000Y-71805565D01*
X185000004Y-71805565D01*
X185179249Y-71785369D01*
X185179252Y-71785368D01*
X185179255Y-71785368D01*
X185349522Y-71725789D01*
X185502262Y-71629816D01*
X185629816Y-71502262D01*
X185725789Y-71349522D01*
X185785368Y-71179255D01*
X185805565Y-71000000D01*
X185785368Y-70820745D01*
X185757458Y-70740982D01*
X185750500Y-70700028D01*
X185750500Y-68702228D01*
X185770185Y-68635189D01*
X185786814Y-68614552D01*
X187037999Y-67363366D01*
X187099320Y-67329883D01*
X187154625Y-67330475D01*
X187211227Y-67344063D01*
X187341006Y-67375221D01*
X187600000Y-67395604D01*
X187858994Y-67375221D01*
X188111610Y-67314573D01*
X188351628Y-67215154D01*
X188573140Y-67079412D01*
X188770689Y-66910689D01*
X188939412Y-66713140D01*
X189075154Y-66491628D01*
X189174573Y-66251610D01*
X189235221Y-65998994D01*
X189255604Y-65740000D01*
X189235221Y-65481006D01*
X189190474Y-65294623D01*
X189193965Y-65224845D01*
X189223363Y-65178003D01*
X189474550Y-64926816D01*
X189535872Y-64893334D01*
X189562230Y-64890500D01*
X193445500Y-64890500D01*
X193512539Y-64910185D01*
X193558294Y-64962989D01*
X193569500Y-65014500D01*
X193569500Y-66937870D01*
X193569501Y-66937876D01*
X193575908Y-66997483D01*
X193626202Y-67132328D01*
X193626206Y-67132335D01*
X193712452Y-67247544D01*
X193712455Y-67247547D01*
X193827664Y-67333793D01*
X193827671Y-67333797D01*
X193962517Y-67384091D01*
X193962516Y-67384091D01*
X193969444Y-67384835D01*
X194022127Y-67390500D01*
X196417872Y-67390499D01*
X196477483Y-67384091D01*
X196612331Y-67333796D01*
X196727546Y-67247546D01*
X196813796Y-67132331D01*
X196864091Y-66997483D01*
X196870500Y-66937873D01*
X196870499Y-65014499D01*
X196890184Y-64947461D01*
X196942987Y-64901706D01*
X196994499Y-64890500D01*
X198187770Y-64890500D01*
X198254809Y-64910185D01*
X198275451Y-64926819D01*
X198526631Y-65177999D01*
X198560116Y-65239322D01*
X198559524Y-65294627D01*
X198514778Y-65481008D01*
X198494396Y-65740000D01*
X198514778Y-65998991D01*
X198559524Y-66185372D01*
X198556033Y-66255155D01*
X198526631Y-66302000D01*
X197417050Y-67411580D01*
X197417044Y-67411588D01*
X197367812Y-67485268D01*
X197367813Y-67485269D01*
X197334921Y-67534496D01*
X197334914Y-67534508D01*
X197278342Y-67671086D01*
X197278340Y-67671092D01*
X197249500Y-67816079D01*
X197249500Y-70700028D01*
X197242542Y-70740982D01*
X197214631Y-70820747D01*
X197194435Y-70999996D01*
X197194435Y-71000003D01*
X197214630Y-71179249D01*
X197214631Y-71179254D01*
X197274211Y-71349523D01*
X197370184Y-71502262D01*
X197497738Y-71629816D01*
X197650478Y-71725789D01*
X197820745Y-71785368D01*
X197820750Y-71785369D01*
X197999996Y-71805565D01*
X198000000Y-71805565D01*
X198000004Y-71805565D01*
X198179249Y-71785369D01*
X198179252Y-71785368D01*
X198179255Y-71785368D01*
X198349522Y-71725789D01*
X198502262Y-71629816D01*
X198629816Y-71502262D01*
X198725789Y-71349522D01*
X198785368Y-71179255D01*
X198805565Y-71000000D01*
X198785368Y-70820745D01*
X198757458Y-70740982D01*
X198750500Y-70700028D01*
X198750500Y-68252228D01*
X198770185Y-68185189D01*
X198786815Y-68164551D01*
X199587999Y-67363366D01*
X199649320Y-67329883D01*
X199704625Y-67330475D01*
X199761227Y-67344063D01*
X199891006Y-67375221D01*
X200150000Y-67395604D01*
X200408994Y-67375221D01*
X200661610Y-67314573D01*
X200901628Y-67215154D01*
X201123140Y-67079412D01*
X201320689Y-66910689D01*
X201489412Y-66713140D01*
X201625154Y-66491628D01*
X201724573Y-66251610D01*
X201785221Y-65998994D01*
X201805604Y-65740000D01*
X201785221Y-65481006D01*
X201724573Y-65228390D01*
X201625154Y-64988372D01*
X201489412Y-64766860D01*
X201320689Y-64569311D01*
X201288870Y-64542135D01*
X206119500Y-64542135D01*
X206119500Y-66937870D01*
X206119501Y-66937876D01*
X206125908Y-66997483D01*
X206176202Y-67132328D01*
X206176206Y-67132335D01*
X206262452Y-67247544D01*
X206262455Y-67247547D01*
X206377664Y-67333793D01*
X206377671Y-67333797D01*
X206512517Y-67384091D01*
X206512516Y-67384091D01*
X206519444Y-67384835D01*
X206572127Y-67390500D01*
X208967872Y-67390499D01*
X209027483Y-67384091D01*
X209162331Y-67333796D01*
X209277546Y-67247546D01*
X209363796Y-67132331D01*
X209414091Y-66997483D01*
X209420500Y-66937873D01*
X209420499Y-64542128D01*
X209414091Y-64482517D01*
X209383533Y-64400588D01*
X209363797Y-64347671D01*
X209363793Y-64347664D01*
X209277547Y-64232455D01*
X209277544Y-64232452D01*
X209162335Y-64146206D01*
X209162328Y-64146202D01*
X209027482Y-64095908D01*
X209027483Y-64095908D01*
X208967883Y-64089501D01*
X208967881Y-64089500D01*
X208967873Y-64089500D01*
X208967864Y-64089500D01*
X206572129Y-64089500D01*
X206572123Y-64089501D01*
X206512516Y-64095908D01*
X206377671Y-64146202D01*
X206377664Y-64146206D01*
X206262455Y-64232452D01*
X206262452Y-64232455D01*
X206176206Y-64347664D01*
X206176202Y-64347671D01*
X206125908Y-64482517D01*
X206119501Y-64542116D01*
X206119501Y-64542123D01*
X206119500Y-64542135D01*
X201288870Y-64542135D01*
X201123140Y-64400588D01*
X200901628Y-64264846D01*
X200901627Y-64264845D01*
X200901623Y-64264843D01*
X200735627Y-64196086D01*
X200661610Y-64165427D01*
X200661611Y-64165427D01*
X200523921Y-64132370D01*
X200408994Y-64104779D01*
X200408992Y-64104778D01*
X200408991Y-64104778D01*
X200150000Y-64084396D01*
X199891008Y-64104778D01*
X199704627Y-64149524D01*
X199634844Y-64146033D01*
X199587999Y-64116631D01*
X199028421Y-63557052D01*
X199028414Y-63557046D01*
X198954729Y-63507812D01*
X198954729Y-63507813D01*
X198905491Y-63474913D01*
X198768917Y-63418343D01*
X198768907Y-63418340D01*
X198623920Y-63389500D01*
X198623918Y-63389500D01*
X189126082Y-63389500D01*
X189126076Y-63389500D01*
X189097242Y-63395234D01*
X189097243Y-63395235D01*
X188981093Y-63418339D01*
X188981083Y-63418342D01*
X188901081Y-63451479D01*
X188901082Y-63451480D01*
X188844502Y-63474917D01*
X188795270Y-63507811D01*
X188795271Y-63507812D01*
X188721581Y-63557049D01*
X188161999Y-64116631D01*
X188100676Y-64150116D01*
X188045371Y-64149524D01*
X187858990Y-64104778D01*
X187858991Y-64104778D01*
X187600000Y-64084396D01*
X187341008Y-64104778D01*
X187154627Y-64149524D01*
X187084844Y-64146033D01*
X187037999Y-64116631D01*
X186478421Y-63557052D01*
X186478414Y-63557046D01*
X186404729Y-63507812D01*
X186404729Y-63507813D01*
X186355491Y-63474913D01*
X186218917Y-63418343D01*
X186218907Y-63418340D01*
X186073920Y-63389500D01*
X186073918Y-63389500D01*
X176576082Y-63389500D01*
X176576076Y-63389500D01*
X176547242Y-63395234D01*
X176547243Y-63395235D01*
X176431093Y-63418339D01*
X176431083Y-63418342D01*
X176351081Y-63451479D01*
X176351082Y-63451480D01*
X176294502Y-63474917D01*
X176245270Y-63507811D01*
X176245271Y-63507812D01*
X176171581Y-63557049D01*
X175611999Y-64116631D01*
X175550676Y-64150116D01*
X175495371Y-64149524D01*
X175308990Y-64104778D01*
X175308991Y-64104778D01*
X175050000Y-64084396D01*
X174791008Y-64104778D01*
X174604627Y-64149524D01*
X174534844Y-64146033D01*
X174487999Y-64116631D01*
X173928421Y-63557052D01*
X173928414Y-63557046D01*
X173854729Y-63507812D01*
X173854729Y-63507813D01*
X173805491Y-63474913D01*
X173668917Y-63418343D01*
X173668907Y-63418340D01*
X173523920Y-63389500D01*
X173523918Y-63389500D01*
X164026082Y-63389500D01*
X164026076Y-63389500D01*
X163997242Y-63395234D01*
X163997243Y-63395235D01*
X163881093Y-63418339D01*
X163881083Y-63418342D01*
X163801081Y-63451479D01*
X163801082Y-63451480D01*
X163744502Y-63474917D01*
X163695270Y-63507811D01*
X163695271Y-63507812D01*
X163621581Y-63557049D01*
X163061999Y-64116631D01*
X163000676Y-64150116D01*
X162945371Y-64149524D01*
X162758990Y-64104778D01*
X162758991Y-64104778D01*
X162500000Y-64084396D01*
X162241009Y-64104778D01*
X161988389Y-64165427D01*
X161748376Y-64264843D01*
X161526859Y-64400588D01*
X161329311Y-64569311D01*
X161160588Y-64766859D01*
X161024843Y-64988376D01*
X160925427Y-65228389D01*
X160864778Y-65481009D01*
X160844396Y-65740000D01*
X145500500Y-65740000D01*
X145500500Y-50500000D01*
X160844898Y-50500000D01*
X160865274Y-50758912D01*
X160925901Y-51011445D01*
X160925906Y-51011462D01*
X161025290Y-51251397D01*
X161025292Y-51251400D01*
X161160992Y-51472842D01*
X161160993Y-51472843D01*
X161166801Y-51479644D01*
X161898957Y-50747487D01*
X161923978Y-50807890D01*
X161995112Y-50914351D01*
X162085649Y-51004888D01*
X162192110Y-51076022D01*
X162252511Y-51101041D01*
X161520354Y-51833197D01*
X161527157Y-51839007D01*
X161748599Y-51974707D01*
X161748602Y-51974709D01*
X161988537Y-52074093D01*
X161988554Y-52074098D01*
X162241088Y-52134725D01*
X162241087Y-52134725D01*
X162500000Y-52155101D01*
X162758912Y-52134725D01*
X163011445Y-52074098D01*
X163011462Y-52074093D01*
X163251397Y-51974709D01*
X163251400Y-51974707D01*
X163472844Y-51839005D01*
X163479644Y-51833197D01*
X162747488Y-51101041D01*
X162807890Y-51076022D01*
X162914351Y-51004888D01*
X163004888Y-50914351D01*
X163076022Y-50807890D01*
X163101041Y-50747488D01*
X163833197Y-51479644D01*
X163839005Y-51472844D01*
X163974707Y-51251400D01*
X163974709Y-51251397D01*
X164074093Y-51011462D01*
X164074098Y-51011445D01*
X164134725Y-50758912D01*
X164155101Y-50500000D01*
X164134725Y-50241087D01*
X164074098Y-49988554D01*
X164074093Y-49988537D01*
X163974709Y-49748602D01*
X163974707Y-49748599D01*
X163839007Y-49527157D01*
X163833197Y-49520354D01*
X163101041Y-50252510D01*
X163076022Y-50192110D01*
X163004888Y-50085649D01*
X162914351Y-49995112D01*
X162807890Y-49923978D01*
X162747488Y-49898958D01*
X163479645Y-49166801D01*
X163472843Y-49160993D01*
X163472842Y-49160992D01*
X163251400Y-49025292D01*
X163251397Y-49025290D01*
X163011462Y-48925906D01*
X163011445Y-48925901D01*
X162758911Y-48865274D01*
X162758912Y-48865274D01*
X162500000Y-48844898D01*
X162241087Y-48865274D01*
X161988554Y-48925901D01*
X161988537Y-48925906D01*
X161748602Y-49025290D01*
X161748599Y-49025292D01*
X161527155Y-49160993D01*
X161520353Y-49166800D01*
X162252511Y-49898958D01*
X162192110Y-49923978D01*
X162085649Y-49995112D01*
X161995112Y-50085649D01*
X161923978Y-50192110D01*
X161898958Y-50252511D01*
X161166800Y-49520353D01*
X161160993Y-49527155D01*
X161025292Y-49748599D01*
X161025290Y-49748602D01*
X160925906Y-49988537D01*
X160925901Y-49988554D01*
X160865274Y-50241087D01*
X160844898Y-50500000D01*
X145500500Y-50500000D01*
X145500500Y-47960000D01*
X168464396Y-47960000D01*
X168484778Y-48218990D01*
X168545427Y-48471610D01*
X168644843Y-48711623D01*
X168644845Y-48711627D01*
X168644846Y-48711628D01*
X168780588Y-48933140D01*
X168949311Y-49130689D01*
X169146860Y-49299412D01*
X169368372Y-49435154D01*
X169368374Y-49435154D01*
X169368376Y-49435156D01*
X169423920Y-49458163D01*
X169608390Y-49534573D01*
X169861006Y-49595221D01*
X170120000Y-49615604D01*
X170378994Y-49595221D01*
X170631610Y-49534573D01*
X170798048Y-49465631D01*
X170867516Y-49458163D01*
X170929996Y-49489438D01*
X170965648Y-49549527D01*
X170969500Y-49580193D01*
X170969500Y-52557110D01*
X170949815Y-52624149D01*
X170933181Y-52644791D01*
X169564641Y-54013330D01*
X169524414Y-54040209D01*
X169368374Y-54104844D01*
X169146859Y-54240588D01*
X168949311Y-54409311D01*
X168780588Y-54606859D01*
X168644843Y-54828376D01*
X168545427Y-55068389D01*
X168484778Y-55321009D01*
X168464396Y-55580000D01*
X168484778Y-55838990D01*
X168545427Y-56091610D01*
X168644843Y-56331623D01*
X168644845Y-56331627D01*
X168644846Y-56331628D01*
X168780588Y-56553140D01*
X168949311Y-56750689D01*
X169146860Y-56919412D01*
X169368372Y-57055154D01*
X169368374Y-57055154D01*
X169368376Y-57055156D01*
X169429693Y-57080554D01*
X169608390Y-57154573D01*
X169861006Y-57215221D01*
X170120000Y-57235604D01*
X170378994Y-57215221D01*
X170631610Y-57154573D01*
X170871628Y-57055154D01*
X171093140Y-56919412D01*
X171290689Y-56750689D01*
X171459412Y-56553140D01*
X171595154Y-56331628D01*
X171659788Y-56175584D01*
X171686665Y-56135360D01*
X173614517Y-54207510D01*
X173753343Y-54016433D01*
X173860568Y-53805992D01*
X173933553Y-53581368D01*
X173970500Y-53348097D01*
X173970500Y-51995065D01*
X173990185Y-51928026D01*
X174042989Y-51882271D01*
X174112147Y-51872327D01*
X174159290Y-51889338D01*
X174298599Y-51974707D01*
X174298602Y-51974709D01*
X174538537Y-52074093D01*
X174538554Y-52074098D01*
X174791088Y-52134725D01*
X174791087Y-52134725D01*
X175050000Y-52155101D01*
X175308912Y-52134725D01*
X175561445Y-52074098D01*
X175561462Y-52074093D01*
X175801397Y-51974709D01*
X175801400Y-51974707D01*
X176022844Y-51839005D01*
X176029644Y-51833197D01*
X175297488Y-51101041D01*
X175357890Y-51076022D01*
X175464351Y-51004888D01*
X175554888Y-50914351D01*
X175626022Y-50807890D01*
X175651041Y-50747488D01*
X176383197Y-51479644D01*
X176389006Y-51472843D01*
X176398544Y-51457279D01*
X176450354Y-51410402D01*
X176519283Y-51398977D01*
X176583447Y-51426632D01*
X176622203Y-51483745D01*
X176629431Y-51505992D01*
X176736657Y-51716434D01*
X176875484Y-51907511D01*
X181103330Y-56135357D01*
X181130210Y-56175585D01*
X181194843Y-56331623D01*
X181194845Y-56331627D01*
X181194846Y-56331628D01*
X181330588Y-56553140D01*
X181499311Y-56750689D01*
X181696860Y-56919412D01*
X181918372Y-57055154D01*
X181918374Y-57055154D01*
X181918376Y-57055156D01*
X181979693Y-57080554D01*
X182158390Y-57154573D01*
X182411006Y-57215221D01*
X182670000Y-57235604D01*
X182928994Y-57215221D01*
X183181610Y-57154573D01*
X183421628Y-57055154D01*
X183643140Y-56919412D01*
X183840689Y-56750689D01*
X184009412Y-56553140D01*
X184145154Y-56331628D01*
X184244573Y-56091610D01*
X184305221Y-55838994D01*
X184325604Y-55580000D01*
X184305221Y-55321006D01*
X184244573Y-55068390D01*
X184145154Y-54828372D01*
X184009412Y-54606860D01*
X183840689Y-54409311D01*
X183643140Y-54240588D01*
X183421628Y-54104846D01*
X183421627Y-54104845D01*
X183421623Y-54104843D01*
X183265585Y-54040210D01*
X183225357Y-54013330D01*
X179556819Y-50344792D01*
X179523334Y-50283469D01*
X179520500Y-50257111D01*
X179520500Y-41381902D01*
X179483553Y-41148631D01*
X179462565Y-41084038D01*
X179410568Y-40924008D01*
X179340471Y-40786434D01*
X179303343Y-40713566D01*
X179164517Y-40522490D01*
X178642025Y-39999998D01*
X179594390Y-39999998D01*
X179594390Y-40000001D01*
X179614804Y-40285433D01*
X179675628Y-40565037D01*
X179675630Y-40565043D01*
X179675631Y-40565046D01*
X179717996Y-40678631D01*
X179775635Y-40833166D01*
X179912770Y-41084309D01*
X179912775Y-41084317D01*
X180074767Y-41300713D01*
X180099184Y-41366177D01*
X180099500Y-41375023D01*
X180099500Y-44218097D01*
X180136446Y-44451368D01*
X180209433Y-44675996D01*
X180316657Y-44886434D01*
X180455484Y-45077511D01*
X181772703Y-46394730D01*
X181806188Y-46456053D01*
X181801204Y-46525745D01*
X181759332Y-46581678D01*
X181749812Y-46588138D01*
X181696865Y-46620584D01*
X181696862Y-46620585D01*
X181499311Y-46789311D01*
X181330588Y-46986859D01*
X181194843Y-47208376D01*
X181095427Y-47448389D01*
X181034778Y-47701009D01*
X181014396Y-47960000D01*
X181034778Y-48218990D01*
X181095427Y-48471610D01*
X181194843Y-48711623D01*
X181194845Y-48711627D01*
X181194846Y-48711628D01*
X181330588Y-48933140D01*
X181499311Y-49130689D01*
X181696860Y-49299412D01*
X181918372Y-49435154D01*
X181918374Y-49435154D01*
X181918376Y-49435156D01*
X181973920Y-49458163D01*
X182158390Y-49534573D01*
X182411006Y-49595221D01*
X182670000Y-49615604D01*
X182928994Y-49595221D01*
X183181610Y-49534573D01*
X183421628Y-49435154D01*
X183643140Y-49299412D01*
X183840689Y-49130689D01*
X184009412Y-48933140D01*
X184145154Y-48711628D01*
X184244573Y-48471610D01*
X184305221Y-48218994D01*
X184325604Y-47960000D01*
X184305221Y-47701006D01*
X184244573Y-47448390D01*
X184175631Y-47281951D01*
X184168163Y-47212484D01*
X184199438Y-47150004D01*
X184259527Y-47114352D01*
X184290193Y-47110500D01*
X185360513Y-47110500D01*
X185427552Y-47130185D01*
X185448194Y-47146819D01*
X187055420Y-48754045D01*
X187088905Y-48815368D01*
X187083921Y-48885060D01*
X187042049Y-48940993D01*
X187015192Y-48956287D01*
X186848598Y-49025292D01*
X186627155Y-49160993D01*
X186620353Y-49166800D01*
X187352511Y-49898958D01*
X187292110Y-49923978D01*
X187185649Y-49995112D01*
X187095112Y-50085649D01*
X187023978Y-50192110D01*
X186998958Y-50252511D01*
X186266800Y-49520353D01*
X186260993Y-49527155D01*
X186125292Y-49748599D01*
X186125290Y-49748602D01*
X186025906Y-49988537D01*
X186025901Y-49988554D01*
X185965274Y-50241087D01*
X185944898Y-50500000D01*
X185965274Y-50758912D01*
X186025901Y-51011445D01*
X186025906Y-51011462D01*
X186125290Y-51251397D01*
X186125292Y-51251400D01*
X186260992Y-51472842D01*
X186260993Y-51472843D01*
X186266801Y-51479644D01*
X186998957Y-50747487D01*
X187023978Y-50807890D01*
X187095112Y-50914351D01*
X187185649Y-51004888D01*
X187292110Y-51076022D01*
X187352511Y-51101041D01*
X186620354Y-51833197D01*
X186627157Y-51839007D01*
X186848599Y-51974707D01*
X186848602Y-51974709D01*
X187088537Y-52074093D01*
X187088554Y-52074098D01*
X187341088Y-52134725D01*
X187341087Y-52134725D01*
X187600000Y-52155101D01*
X187858912Y-52134725D01*
X188111445Y-52074098D01*
X188111462Y-52074093D01*
X188351397Y-51974709D01*
X188351400Y-51974707D01*
X188572844Y-51839005D01*
X188579644Y-51833197D01*
X187847488Y-51101041D01*
X187907890Y-51076022D01*
X188014351Y-51004888D01*
X188104888Y-50914351D01*
X188176022Y-50807890D01*
X188201041Y-50747488D01*
X188933197Y-51479644D01*
X188939005Y-51472844D01*
X189074707Y-51251400D01*
X189074709Y-51251397D01*
X189143712Y-51084808D01*
X189187553Y-51030404D01*
X189253847Y-51008339D01*
X189321546Y-51025618D01*
X189345954Y-51044579D01*
X193547100Y-55245725D01*
X193580585Y-55307048D01*
X193583037Y-55343134D01*
X193564396Y-55579999D01*
X193584778Y-55838990D01*
X193645427Y-56091610D01*
X193744843Y-56331623D01*
X193744845Y-56331627D01*
X193744846Y-56331628D01*
X193880588Y-56553140D01*
X194049311Y-56750689D01*
X194246860Y-56919412D01*
X194468372Y-57055154D01*
X194468374Y-57055154D01*
X194468376Y-57055156D01*
X194529693Y-57080554D01*
X194708390Y-57154573D01*
X194961006Y-57215221D01*
X195220000Y-57235604D01*
X195478994Y-57215221D01*
X195731610Y-57154573D01*
X195971628Y-57055154D01*
X196193140Y-56919412D01*
X196390689Y-56750689D01*
X196559412Y-56553140D01*
X196695154Y-56331628D01*
X196794573Y-56091610D01*
X196855221Y-55838994D01*
X196875604Y-55580000D01*
X196855221Y-55321006D01*
X196819997Y-55174288D01*
X196794574Y-55068392D01*
X196729939Y-54912348D01*
X196720500Y-54864896D01*
X196720500Y-54678500D01*
X196683553Y-54445229D01*
X196646823Y-54332187D01*
X196612072Y-54225237D01*
X196611012Y-54221478D01*
X196610568Y-54220606D01*
X196610568Y-54220605D01*
X196503343Y-54010164D01*
X196364517Y-53819088D01*
X188920513Y-46375084D01*
X188887028Y-46313761D01*
X188892012Y-46244069D01*
X188933884Y-46188136D01*
X188999348Y-46163719D01*
X189067621Y-46178571D01*
X189081074Y-46187081D01*
X189213566Y-46283343D01*
X189273265Y-46313761D01*
X189424003Y-46390566D01*
X189424005Y-46390566D01*
X189424008Y-46390568D01*
X189544412Y-46429689D01*
X189648631Y-46463553D01*
X189881903Y-46500500D01*
X189881908Y-46500500D01*
X190118092Y-46500500D01*
X194051349Y-46500500D01*
X194118388Y-46520185D01*
X194164143Y-46572989D01*
X194174087Y-46642147D01*
X194145062Y-46705703D01*
X194131884Y-46718786D01*
X194049311Y-46789311D01*
X193880588Y-46986859D01*
X193744843Y-47208376D01*
X193645427Y-47448389D01*
X193584778Y-47701009D01*
X193564396Y-47960000D01*
X193584778Y-48218990D01*
X193645427Y-48471610D01*
X193744843Y-48711623D01*
X193744845Y-48711627D01*
X193744846Y-48711628D01*
X193880588Y-48933140D01*
X194049311Y-49130689D01*
X194246860Y-49299412D01*
X194468372Y-49435154D01*
X194468374Y-49435154D01*
X194468376Y-49435156D01*
X194523920Y-49458163D01*
X194708390Y-49534573D01*
X194961006Y-49595221D01*
X195220000Y-49615604D01*
X195478994Y-49595221D01*
X195731610Y-49534573D01*
X195971628Y-49435154D01*
X196193140Y-49299412D01*
X196390689Y-49130689D01*
X196559412Y-48933140D01*
X196695154Y-48711628D01*
X196794573Y-48471610D01*
X196855221Y-48218994D01*
X196875604Y-47960000D01*
X196855221Y-47701006D01*
X196794573Y-47448390D01*
X196725632Y-47281953D01*
X196695156Y-47208376D01*
X196637538Y-47114352D01*
X196559412Y-46986860D01*
X196390689Y-46789311D01*
X196308118Y-46718788D01*
X196269926Y-46660283D01*
X196269427Y-46590416D01*
X196306781Y-46531369D01*
X196370128Y-46501891D01*
X196388651Y-46500500D01*
X198143456Y-46500500D01*
X198210495Y-46520185D01*
X198231137Y-46536819D01*
X200334794Y-48640476D01*
X200368279Y-48701799D01*
X200363295Y-48771491D01*
X200321423Y-48827424D01*
X200255959Y-48851841D01*
X200237385Y-48851775D01*
X200150000Y-48844898D01*
X199891087Y-48865274D01*
X199638554Y-48925901D01*
X199638537Y-48925906D01*
X199398602Y-49025290D01*
X199398599Y-49025292D01*
X199177155Y-49160993D01*
X199170353Y-49166800D01*
X199902511Y-49898958D01*
X199842110Y-49923978D01*
X199735649Y-49995112D01*
X199645112Y-50085649D01*
X199573978Y-50192110D01*
X199548958Y-50252510D01*
X198816801Y-49520353D01*
X198810993Y-49527155D01*
X198675292Y-49748599D01*
X198675290Y-49748602D01*
X198575906Y-49988537D01*
X198575901Y-49988554D01*
X198515274Y-50241087D01*
X198494898Y-50500000D01*
X198515274Y-50758912D01*
X198575901Y-51011445D01*
X198575906Y-51011462D01*
X198675290Y-51251397D01*
X198675292Y-51251400D01*
X198810992Y-51472842D01*
X198810993Y-51472843D01*
X198816801Y-51479644D01*
X199548958Y-50747488D01*
X199573978Y-50807890D01*
X199645112Y-50914351D01*
X199735649Y-51004888D01*
X199842110Y-51076022D01*
X199902511Y-51101041D01*
X199170354Y-51833197D01*
X199177157Y-51839007D01*
X199398599Y-51974707D01*
X199398602Y-51974709D01*
X199638537Y-52074093D01*
X199638554Y-52074098D01*
X199891088Y-52134725D01*
X199891087Y-52134725D01*
X200150000Y-52155101D01*
X200408912Y-52134725D01*
X200661445Y-52074098D01*
X200661462Y-52074093D01*
X200901397Y-51974709D01*
X200901400Y-51974707D01*
X201122844Y-51839005D01*
X201129644Y-51833197D01*
X200397488Y-51101041D01*
X200457890Y-51076022D01*
X200564351Y-51004888D01*
X200654888Y-50914351D01*
X200726022Y-50807890D01*
X200751041Y-50747488D01*
X201483197Y-51479644D01*
X201489005Y-51472844D01*
X201624707Y-51251400D01*
X201624709Y-51251397D01*
X201724093Y-51011462D01*
X201724098Y-51011445D01*
X201784725Y-50758912D01*
X201805101Y-50500000D01*
X201798224Y-50412615D01*
X201812588Y-50344238D01*
X201861639Y-50294481D01*
X201929804Y-50279142D01*
X201995441Y-50303091D01*
X202009523Y-50315205D01*
X206233181Y-54538863D01*
X206266666Y-54600186D01*
X206269500Y-54626544D01*
X206269500Y-54864896D01*
X206260061Y-54912348D01*
X206195425Y-55068392D01*
X206134778Y-55321009D01*
X206114396Y-55580000D01*
X206134778Y-55838990D01*
X206195427Y-56091610D01*
X206294843Y-56331623D01*
X206294845Y-56331627D01*
X206294846Y-56331628D01*
X206430588Y-56553140D01*
X206599311Y-56750689D01*
X206796860Y-56919412D01*
X207018372Y-57055154D01*
X207018374Y-57055154D01*
X207018376Y-57055156D01*
X207079693Y-57080554D01*
X207258390Y-57154573D01*
X207511006Y-57215221D01*
X207770000Y-57235604D01*
X208028994Y-57215221D01*
X208281610Y-57154573D01*
X208521628Y-57055154D01*
X208743140Y-56919412D01*
X208940689Y-56750689D01*
X209109412Y-56553140D01*
X209245154Y-56331628D01*
X209344573Y-56091610D01*
X209405221Y-55838994D01*
X209425604Y-55580000D01*
X209405221Y-55321006D01*
X209369997Y-55174288D01*
X209344574Y-55068392D01*
X209279939Y-54912348D01*
X209270500Y-54864896D01*
X209270500Y-53835557D01*
X209233553Y-53602286D01*
X209219605Y-53559360D01*
X209160568Y-53377663D01*
X209119009Y-53296098D01*
X209053343Y-53167221D01*
X208914517Y-52976145D01*
X203898372Y-47960000D01*
X206114396Y-47960000D01*
X206134778Y-48218990D01*
X206195427Y-48471610D01*
X206294843Y-48711623D01*
X206294845Y-48711627D01*
X206294846Y-48711628D01*
X206430588Y-48933140D01*
X206599311Y-49130689D01*
X206796860Y-49299412D01*
X207018372Y-49435154D01*
X207018374Y-49435154D01*
X207018376Y-49435156D01*
X207073920Y-49458163D01*
X207258390Y-49534573D01*
X207511006Y-49595221D01*
X207770000Y-49615604D01*
X208028994Y-49595221D01*
X208281610Y-49534573D01*
X208521628Y-49435154D01*
X208743140Y-49299412D01*
X208940689Y-49130689D01*
X209109412Y-48933140D01*
X209245154Y-48711628D01*
X209344573Y-48471610D01*
X209405221Y-48218994D01*
X209425604Y-47960000D01*
X209405221Y-47701006D01*
X209344573Y-47448390D01*
X209275632Y-47281953D01*
X209245156Y-47208376D01*
X209187538Y-47114352D01*
X209109412Y-46986860D01*
X208940689Y-46789311D01*
X208743140Y-46620588D01*
X208521628Y-46484846D01*
X208521627Y-46484845D01*
X208521623Y-46484843D01*
X208294021Y-46390568D01*
X208281610Y-46385427D01*
X208281611Y-46385427D01*
X208143921Y-46352370D01*
X208028994Y-46324779D01*
X208028992Y-46324778D01*
X208028991Y-46324778D01*
X207770000Y-46304396D01*
X207511009Y-46324778D01*
X207258389Y-46385427D01*
X207018376Y-46484843D01*
X206796859Y-46620588D01*
X206599311Y-46789311D01*
X206430588Y-46986859D01*
X206294843Y-47208376D01*
X206195427Y-47448389D01*
X206134778Y-47701009D01*
X206114396Y-47960000D01*
X203898372Y-47960000D01*
X199793855Y-43855483D01*
X199602779Y-43716657D01*
X199392341Y-43609433D01*
X199167713Y-43536446D01*
X198934442Y-43499500D01*
X198934437Y-43499500D01*
X190672889Y-43499500D01*
X190605850Y-43479815D01*
X190585208Y-43463181D01*
X188374326Y-41252299D01*
X188340841Y-41190976D01*
X188345825Y-41121284D01*
X188362743Y-41090303D01*
X188367226Y-41084315D01*
X188504367Y-40833161D01*
X188604369Y-40565046D01*
X188604402Y-40564895D01*
X188665195Y-40285433D01*
X188665195Y-40285432D01*
X188665196Y-40285428D01*
X188685610Y-40000000D01*
X188685610Y-39999998D01*
X189754390Y-39999998D01*
X189754390Y-40000001D01*
X189774804Y-40285433D01*
X189835628Y-40565037D01*
X189835630Y-40565043D01*
X189835631Y-40565046D01*
X189877996Y-40678631D01*
X189935635Y-40833166D01*
X190072770Y-41084309D01*
X190072775Y-41084317D01*
X190244254Y-41313387D01*
X190244270Y-41313405D01*
X190446594Y-41515729D01*
X190446612Y-41515745D01*
X190675682Y-41687224D01*
X190675690Y-41687229D01*
X190926833Y-41824364D01*
X190926832Y-41824364D01*
X190926836Y-41824365D01*
X190926839Y-41824367D01*
X191194954Y-41924369D01*
X191194960Y-41924370D01*
X191194962Y-41924371D01*
X191474566Y-41985195D01*
X191474568Y-41985195D01*
X191474572Y-41985196D01*
X191728220Y-42003337D01*
X191759999Y-42005610D01*
X191760000Y-42005610D01*
X191760001Y-42005610D01*
X191788595Y-42003564D01*
X192045428Y-41985196D01*
X192045438Y-41985194D01*
X192325037Y-41924371D01*
X192325037Y-41924370D01*
X192325046Y-41924369D01*
X192593161Y-41824367D01*
X192844315Y-41687226D01*
X193073395Y-41515739D01*
X193275739Y-41313395D01*
X193447226Y-41084315D01*
X193584367Y-40833161D01*
X193684369Y-40565046D01*
X193684402Y-40564895D01*
X193745195Y-40285433D01*
X193745195Y-40285432D01*
X193745196Y-40285428D01*
X193765610Y-40000000D01*
X193765610Y-39999998D01*
X194834891Y-39999998D01*
X194834891Y-40000001D01*
X194855300Y-40285362D01*
X194916109Y-40564895D01*
X195016091Y-40832958D01*
X195153191Y-41084038D01*
X195153196Y-41084046D01*
X195259882Y-41226561D01*
X195259883Y-41226562D01*
X196154767Y-40331677D01*
X196166497Y-40359995D01*
X196249670Y-40484472D01*
X196355528Y-40590330D01*
X196480005Y-40673503D01*
X196508320Y-40685231D01*
X195613436Y-41580115D01*
X195755960Y-41686807D01*
X195755961Y-41686808D01*
X196007042Y-41823908D01*
X196007041Y-41823908D01*
X196275104Y-41923890D01*
X196554637Y-41984699D01*
X196839999Y-42005109D01*
X196840001Y-42005109D01*
X197125362Y-41984699D01*
X197404895Y-41923890D01*
X197672958Y-41823908D01*
X197924047Y-41686803D01*
X198066561Y-41580116D01*
X198066562Y-41580115D01*
X197171679Y-40685231D01*
X197199995Y-40673503D01*
X197324472Y-40590330D01*
X197430330Y-40484472D01*
X197513503Y-40359995D01*
X197525231Y-40331678D01*
X198420115Y-41226562D01*
X198420116Y-41226561D01*
X198526803Y-41084047D01*
X198663908Y-40832958D01*
X198763890Y-40564895D01*
X198824699Y-40285362D01*
X198845109Y-40000001D01*
X198845109Y-39999998D01*
X199914390Y-39999998D01*
X199914390Y-40000001D01*
X199934804Y-40285433D01*
X199995628Y-40565037D01*
X199995630Y-40565043D01*
X199995631Y-40565046D01*
X200037996Y-40678631D01*
X200095635Y-40833166D01*
X200232770Y-41084309D01*
X200232775Y-41084317D01*
X200404254Y-41313387D01*
X200404270Y-41313405D01*
X200606594Y-41515729D01*
X200606612Y-41515745D01*
X200835682Y-41687224D01*
X200835690Y-41687229D01*
X201086833Y-41824364D01*
X201086832Y-41824364D01*
X201086836Y-41824365D01*
X201086839Y-41824367D01*
X201354954Y-41924369D01*
X201354960Y-41924370D01*
X201354962Y-41924371D01*
X201634566Y-41985195D01*
X201634568Y-41985195D01*
X201634572Y-41985196D01*
X201888220Y-42003337D01*
X201919999Y-42005610D01*
X201920000Y-42005610D01*
X201920001Y-42005610D01*
X201948595Y-42003564D01*
X202205428Y-41985196D01*
X202205438Y-41985194D01*
X202485037Y-41924371D01*
X202485037Y-41924370D01*
X202485046Y-41924369D01*
X202753161Y-41824367D01*
X203004315Y-41687226D01*
X203233395Y-41515739D01*
X203435739Y-41313395D01*
X203607226Y-41084315D01*
X203744367Y-40833161D01*
X203844369Y-40565046D01*
X203844402Y-40564895D01*
X203905195Y-40285433D01*
X203905195Y-40285432D01*
X203905196Y-40285428D01*
X203925610Y-40000000D01*
X203925610Y-39999998D01*
X204994891Y-39999998D01*
X204994891Y-40000001D01*
X205015300Y-40285362D01*
X205076109Y-40564895D01*
X205176091Y-40832958D01*
X205313191Y-41084038D01*
X205313196Y-41084046D01*
X205419882Y-41226561D01*
X205419883Y-41226562D01*
X206314767Y-40331677D01*
X206326497Y-40359995D01*
X206409670Y-40484472D01*
X206515528Y-40590330D01*
X206640005Y-40673503D01*
X206668320Y-40685231D01*
X205773436Y-41580115D01*
X205915960Y-41686807D01*
X205915961Y-41686808D01*
X206167042Y-41823908D01*
X206167041Y-41823908D01*
X206435104Y-41923890D01*
X206714637Y-41984699D01*
X206999999Y-42005109D01*
X207000001Y-42005109D01*
X207285362Y-41984699D01*
X207564895Y-41923890D01*
X207832958Y-41823908D01*
X208084047Y-41686803D01*
X208226561Y-41580116D01*
X208226562Y-41580115D01*
X207331679Y-40685231D01*
X207359995Y-40673503D01*
X207484472Y-40590330D01*
X207590330Y-40484472D01*
X207673503Y-40359995D01*
X207685231Y-40331678D01*
X208580115Y-41226562D01*
X208580116Y-41226561D01*
X208686803Y-41084047D01*
X208823908Y-40832958D01*
X208923890Y-40564895D01*
X208984699Y-40285362D01*
X209005109Y-40000001D01*
X209005109Y-39999998D01*
X208984699Y-39714637D01*
X208923890Y-39435104D01*
X208823908Y-39167041D01*
X208686808Y-38915961D01*
X208686807Y-38915960D01*
X208580115Y-38773436D01*
X207685231Y-39668320D01*
X207673503Y-39640005D01*
X207590330Y-39515528D01*
X207484472Y-39409670D01*
X207359995Y-39326497D01*
X207331678Y-39314767D01*
X208226562Y-38419883D01*
X208226561Y-38419882D01*
X208084046Y-38313196D01*
X208084038Y-38313191D01*
X207832957Y-38176091D01*
X207832958Y-38176091D01*
X207564895Y-38076109D01*
X207285362Y-38015300D01*
X207000001Y-37994891D01*
X206999999Y-37994891D01*
X206714637Y-38015300D01*
X206435104Y-38076109D01*
X206167041Y-38176091D01*
X205915961Y-38313191D01*
X205915953Y-38313196D01*
X205773437Y-38419882D01*
X205773436Y-38419883D01*
X206668321Y-39314767D01*
X206640005Y-39326497D01*
X206515528Y-39409670D01*
X206409670Y-39515528D01*
X206326497Y-39640005D01*
X206314768Y-39668321D01*
X205419883Y-38773436D01*
X205419882Y-38773437D01*
X205313196Y-38915953D01*
X205313191Y-38915961D01*
X205176091Y-39167041D01*
X205076109Y-39435104D01*
X205015300Y-39714637D01*
X204994891Y-39999998D01*
X203925610Y-39999998D01*
X203905196Y-39714572D01*
X203905194Y-39714564D01*
X203844371Y-39434962D01*
X203844370Y-39434960D01*
X203844369Y-39434954D01*
X203744367Y-39166839D01*
X203643862Y-38982779D01*
X203607229Y-38915690D01*
X203607224Y-38915682D01*
X203435745Y-38686612D01*
X203435729Y-38686594D01*
X203233405Y-38484270D01*
X203233387Y-38484254D01*
X203004317Y-38312775D01*
X203004309Y-38312770D01*
X202753166Y-38175635D01*
X202753167Y-38175635D01*
X202588418Y-38114187D01*
X202485046Y-38075631D01*
X202485043Y-38075630D01*
X202485037Y-38075628D01*
X202205433Y-38014804D01*
X201920001Y-37994390D01*
X201919999Y-37994390D01*
X201634566Y-38014804D01*
X201354962Y-38075628D01*
X201086833Y-38175635D01*
X200835690Y-38312770D01*
X200835682Y-38312775D01*
X200606612Y-38484254D01*
X200606594Y-38484270D01*
X200404270Y-38686594D01*
X200404254Y-38686612D01*
X200232775Y-38915682D01*
X200232770Y-38915690D01*
X200095635Y-39166833D01*
X199995628Y-39434962D01*
X199934804Y-39714566D01*
X199914390Y-39999998D01*
X198845109Y-39999998D01*
X198824699Y-39714637D01*
X198763890Y-39435104D01*
X198663908Y-39167041D01*
X198526808Y-38915961D01*
X198526807Y-38915960D01*
X198420115Y-38773436D01*
X197525231Y-39668320D01*
X197513503Y-39640005D01*
X197430330Y-39515528D01*
X197324472Y-39409670D01*
X197199995Y-39326497D01*
X197171678Y-39314767D01*
X198066562Y-38419883D01*
X198066561Y-38419882D01*
X197924046Y-38313196D01*
X197924038Y-38313191D01*
X197672957Y-38176091D01*
X197672958Y-38176091D01*
X197404895Y-38076109D01*
X197125362Y-38015300D01*
X196840001Y-37994891D01*
X196839999Y-37994891D01*
X196554637Y-38015300D01*
X196275104Y-38076109D01*
X196007041Y-38176091D01*
X195755961Y-38313191D01*
X195755953Y-38313196D01*
X195613437Y-38419882D01*
X195613436Y-38419883D01*
X196508321Y-39314767D01*
X196480005Y-39326497D01*
X196355528Y-39409670D01*
X196249670Y-39515528D01*
X196166497Y-39640005D01*
X196154768Y-39668321D01*
X195259883Y-38773436D01*
X195259882Y-38773437D01*
X195153196Y-38915953D01*
X195153191Y-38915961D01*
X195016091Y-39167041D01*
X194916109Y-39435104D01*
X194855300Y-39714637D01*
X194834891Y-39999998D01*
X193765610Y-39999998D01*
X193745196Y-39714572D01*
X193745194Y-39714564D01*
X193684371Y-39434962D01*
X193684370Y-39434960D01*
X193684369Y-39434954D01*
X193584367Y-39166839D01*
X193483862Y-38982779D01*
X193447229Y-38915690D01*
X193447224Y-38915682D01*
X193275745Y-38686612D01*
X193275729Y-38686594D01*
X193073405Y-38484270D01*
X193073387Y-38484254D01*
X192844317Y-38312775D01*
X192844309Y-38312770D01*
X192593166Y-38175635D01*
X192593167Y-38175635D01*
X192428418Y-38114187D01*
X192325046Y-38075631D01*
X192325043Y-38075630D01*
X192325037Y-38075628D01*
X192045433Y-38014804D01*
X191760001Y-37994390D01*
X191759999Y-37994390D01*
X191474566Y-38014804D01*
X191194962Y-38075628D01*
X190926833Y-38175635D01*
X190675690Y-38312770D01*
X190675682Y-38312775D01*
X190446612Y-38484254D01*
X190446594Y-38484270D01*
X190244270Y-38686594D01*
X190244254Y-38686612D01*
X190072775Y-38915682D01*
X190072770Y-38915690D01*
X189935635Y-39166833D01*
X189835628Y-39434962D01*
X189774804Y-39714566D01*
X189754390Y-39999998D01*
X188685610Y-39999998D01*
X188665196Y-39714572D01*
X188665194Y-39714564D01*
X188604371Y-39434962D01*
X188604370Y-39434960D01*
X188604369Y-39434954D01*
X188504367Y-39166839D01*
X188403862Y-38982779D01*
X188367229Y-38915690D01*
X188367224Y-38915682D01*
X188195745Y-38686612D01*
X188195729Y-38686594D01*
X187993405Y-38484270D01*
X187993387Y-38484254D01*
X187764317Y-38312775D01*
X187764309Y-38312770D01*
X187513166Y-38175635D01*
X187513167Y-38175635D01*
X187348418Y-38114187D01*
X187245046Y-38075631D01*
X187245043Y-38075630D01*
X187245037Y-38075628D01*
X186965433Y-38014804D01*
X186680001Y-37994390D01*
X186679999Y-37994390D01*
X186394566Y-38014804D01*
X186114962Y-38075628D01*
X185846833Y-38175635D01*
X185595690Y-38312770D01*
X185595682Y-38312775D01*
X185366612Y-38484254D01*
X185366594Y-38484270D01*
X185164270Y-38686594D01*
X185164254Y-38686612D01*
X184992775Y-38915682D01*
X184992770Y-38915690D01*
X184855635Y-39166833D01*
X184755628Y-39434962D01*
X184694804Y-39714566D01*
X184674390Y-39999998D01*
X184674390Y-40000001D01*
X184694804Y-40285433D01*
X184755628Y-40565037D01*
X184755630Y-40565043D01*
X184755631Y-40565046D01*
X184797996Y-40678631D01*
X184855635Y-40833166D01*
X184992770Y-41084309D01*
X184992775Y-41084317D01*
X185154767Y-41300713D01*
X185179184Y-41366177D01*
X185179500Y-41375023D01*
X185179500Y-41798097D01*
X185216446Y-42031368D01*
X185289433Y-42255996D01*
X185396657Y-42466434D01*
X185535484Y-42657511D01*
X187112888Y-44234915D01*
X187146373Y-44296238D01*
X187141389Y-44365930D01*
X187099517Y-44421863D01*
X187034053Y-44446280D01*
X186965780Y-44431428D01*
X186952321Y-44422914D01*
X186950874Y-44421863D01*
X186819836Y-44326657D01*
X186609398Y-44219433D01*
X186384770Y-44146446D01*
X186151499Y-44109500D01*
X186151494Y-44109500D01*
X183782889Y-44109500D01*
X183715850Y-44089815D01*
X183695208Y-44073181D01*
X183136819Y-43514792D01*
X183103334Y-43453469D01*
X183100500Y-43427111D01*
X183100500Y-41375023D01*
X183120185Y-41307984D01*
X183125233Y-41300713D01*
X183239079Y-41148632D01*
X183287226Y-41084315D01*
X183424367Y-40833161D01*
X183524369Y-40565046D01*
X183524402Y-40564895D01*
X183585195Y-40285433D01*
X183585195Y-40285432D01*
X183585196Y-40285428D01*
X183605610Y-40000000D01*
X183585196Y-39714572D01*
X183585194Y-39714564D01*
X183524371Y-39434962D01*
X183524370Y-39434960D01*
X183524369Y-39434954D01*
X183424367Y-39166839D01*
X183323862Y-38982779D01*
X183287229Y-38915690D01*
X183287224Y-38915682D01*
X183115745Y-38686612D01*
X183115729Y-38686594D01*
X182913405Y-38484270D01*
X182913387Y-38484254D01*
X182684317Y-38312775D01*
X182684309Y-38312770D01*
X182433166Y-38175635D01*
X182433167Y-38175635D01*
X182268418Y-38114187D01*
X182165046Y-38075631D01*
X182165043Y-38075630D01*
X182165037Y-38075628D01*
X181885433Y-38014804D01*
X181600001Y-37994390D01*
X181599999Y-37994390D01*
X181314566Y-38014804D01*
X181034962Y-38075628D01*
X180766833Y-38175635D01*
X180515690Y-38312770D01*
X180515682Y-38312775D01*
X180286612Y-38484254D01*
X180286594Y-38484270D01*
X180084270Y-38686594D01*
X180084254Y-38686612D01*
X179912775Y-38915682D01*
X179912770Y-38915690D01*
X179775635Y-39166833D01*
X179675628Y-39434962D01*
X179614804Y-39714566D01*
X179594390Y-39999998D01*
X178642025Y-39999998D01*
X178549345Y-39907318D01*
X178515860Y-39845995D01*
X178513343Y-39828490D01*
X178505196Y-39714572D01*
X178444369Y-39434954D01*
X178344367Y-39166839D01*
X178243862Y-38982779D01*
X178207229Y-38915690D01*
X178207224Y-38915682D01*
X178035745Y-38686612D01*
X178035729Y-38686594D01*
X177833405Y-38484270D01*
X177833387Y-38484254D01*
X177604317Y-38312775D01*
X177604309Y-38312770D01*
X177353166Y-38175635D01*
X177353167Y-38175635D01*
X177188418Y-38114187D01*
X177085046Y-38075631D01*
X177085043Y-38075630D01*
X177085037Y-38075628D01*
X176805433Y-38014804D01*
X176520001Y-37994390D01*
X176519999Y-37994390D01*
X176234566Y-38014804D01*
X175954962Y-38075628D01*
X175686833Y-38175635D01*
X175435690Y-38312770D01*
X175435682Y-38312775D01*
X175206612Y-38484254D01*
X175206594Y-38484270D01*
X175004270Y-38686594D01*
X175004254Y-38686612D01*
X174832775Y-38915682D01*
X174832770Y-38915690D01*
X174695635Y-39166833D01*
X174595628Y-39434962D01*
X174534804Y-39714566D01*
X174514390Y-39999998D01*
X174514390Y-40000001D01*
X174534804Y-40285433D01*
X174595628Y-40565037D01*
X174595630Y-40565043D01*
X174595631Y-40565046D01*
X174637996Y-40678631D01*
X174695635Y-40833166D01*
X174832770Y-41084309D01*
X174832775Y-41084317D01*
X175004254Y-41313387D01*
X175004270Y-41313405D01*
X175206594Y-41515729D01*
X175206612Y-41515745D01*
X175435682Y-41687224D01*
X175435690Y-41687229D01*
X175686833Y-41824364D01*
X175686832Y-41824364D01*
X175686836Y-41824365D01*
X175686839Y-41824367D01*
X175954954Y-41924369D01*
X175954960Y-41924370D01*
X175954962Y-41924371D01*
X176044263Y-41943797D01*
X176234572Y-41985196D01*
X176348484Y-41993342D01*
X176413947Y-42017758D01*
X176427318Y-42029345D01*
X176483181Y-42085208D01*
X176516666Y-42146531D01*
X176519500Y-42172889D01*
X176519500Y-49396742D01*
X176499815Y-49463781D01*
X176447011Y-49509536D01*
X176390629Y-49520646D01*
X176383198Y-49520353D01*
X175651041Y-50252510D01*
X175626022Y-50192110D01*
X175554888Y-50085649D01*
X175464351Y-49995112D01*
X175357890Y-49923978D01*
X175297488Y-49898958D01*
X176029645Y-49166801D01*
X176022843Y-49160993D01*
X176022842Y-49160992D01*
X175801400Y-49025292D01*
X175801397Y-49025290D01*
X175561462Y-48925906D01*
X175561445Y-48925901D01*
X175308911Y-48865274D01*
X175308912Y-48865274D01*
X175050000Y-48844898D01*
X174791087Y-48865274D01*
X174538554Y-48925901D01*
X174538537Y-48925906D01*
X174298602Y-49025290D01*
X174298599Y-49025292D01*
X174159290Y-49110661D01*
X174091844Y-49128906D01*
X174025242Y-49107790D01*
X173980628Y-49054018D01*
X173970500Y-49004934D01*
X173970500Y-40911902D01*
X173933553Y-40678631D01*
X173882819Y-40522490D01*
X173860568Y-40454008D01*
X173860566Y-40454005D01*
X173860566Y-40454003D01*
X173810367Y-40355483D01*
X173810366Y-40355482D01*
X173809383Y-40353553D01*
X173774639Y-40285362D01*
X173753344Y-40243567D01*
X173707067Y-40179874D01*
X173614517Y-40052490D01*
X173476818Y-39914791D01*
X173443333Y-39853468D01*
X173440499Y-39827110D01*
X173440499Y-38452129D01*
X173440498Y-38452123D01*
X173440497Y-38452116D01*
X173434091Y-38392517D01*
X173404506Y-38313196D01*
X173383797Y-38257671D01*
X173383793Y-38257664D01*
X173297547Y-38142455D01*
X173297544Y-38142452D01*
X173182335Y-38056206D01*
X173182328Y-38056202D01*
X173047482Y-38005908D01*
X173047483Y-38005908D01*
X172987883Y-37999501D01*
X172987881Y-37999500D01*
X172987873Y-37999500D01*
X172987864Y-37999500D01*
X169892129Y-37999500D01*
X169892123Y-37999501D01*
X169832516Y-38005908D01*
X169697671Y-38056202D01*
X169697664Y-38056206D01*
X169582455Y-38142452D01*
X169582452Y-38142455D01*
X169496206Y-38257664D01*
X169496202Y-38257671D01*
X169445908Y-38392517D01*
X169439501Y-38452116D01*
X169439501Y-38452123D01*
X169439500Y-38452135D01*
X169439500Y-41547870D01*
X169439501Y-41547876D01*
X169445908Y-41607483D01*
X169496202Y-41742328D01*
X169496206Y-41742335D01*
X169582452Y-41857544D01*
X169582455Y-41857547D01*
X169697664Y-41943793D01*
X169697671Y-41943797D01*
X169832517Y-41994091D01*
X169832516Y-41994091D01*
X169839444Y-41994835D01*
X169892127Y-42000500D01*
X170845500Y-42000499D01*
X170912539Y-42020183D01*
X170958294Y-42072987D01*
X170969500Y-42124499D01*
X170969500Y-46339806D01*
X170949815Y-46406845D01*
X170897011Y-46452600D01*
X170827853Y-46462544D01*
X170798048Y-46454367D01*
X170631614Y-46385428D01*
X170631611Y-46385427D01*
X170493921Y-46352370D01*
X170378994Y-46324779D01*
X170378992Y-46324778D01*
X170378991Y-46324778D01*
X170120000Y-46304396D01*
X169861009Y-46324778D01*
X169608389Y-46385427D01*
X169368376Y-46484843D01*
X169146859Y-46620588D01*
X168949311Y-46789311D01*
X168780588Y-46986859D01*
X168644843Y-47208376D01*
X168545427Y-47448389D01*
X168484778Y-47701009D01*
X168464396Y-47960000D01*
X145500500Y-47960000D01*
X145500500Y-37499999D01*
X146294922Y-37499999D01*
X146294922Y-37500000D01*
X146315219Y-37887287D01*
X146375886Y-38270323D01*
X146375887Y-38270330D01*
X146476262Y-38644936D01*
X146615244Y-39006994D01*
X146791310Y-39352543D01*
X147002531Y-39677793D01*
X147211095Y-39935350D01*
X147211096Y-39935350D01*
X148705748Y-38440698D01*
X148779588Y-38542330D01*
X148957670Y-38720412D01*
X149059300Y-38794251D01*
X147564648Y-40288903D01*
X147564649Y-40288904D01*
X147822206Y-40497468D01*
X148147456Y-40708689D01*
X148493005Y-40884755D01*
X148855063Y-41023737D01*
X149229669Y-41124112D01*
X149229676Y-41124113D01*
X149612712Y-41184780D01*
X149999999Y-41205078D01*
X150000001Y-41205078D01*
X150387287Y-41184780D01*
X150770323Y-41124113D01*
X150770330Y-41124112D01*
X151144936Y-41023737D01*
X151506994Y-40884755D01*
X151852543Y-40708689D01*
X152177783Y-40497476D01*
X152177785Y-40497475D01*
X152435349Y-40288902D01*
X152146445Y-39999998D01*
X158014390Y-39999998D01*
X158014390Y-40000001D01*
X158034804Y-40285433D01*
X158095628Y-40565037D01*
X158095630Y-40565043D01*
X158095631Y-40565046D01*
X158137996Y-40678631D01*
X158195635Y-40833166D01*
X158332770Y-41084309D01*
X158332775Y-41084317D01*
X158504254Y-41313387D01*
X158504270Y-41313405D01*
X158706594Y-41515729D01*
X158706612Y-41515745D01*
X158935682Y-41687224D01*
X158935690Y-41687229D01*
X159186833Y-41824364D01*
X159186832Y-41824364D01*
X159186836Y-41824365D01*
X159186839Y-41824367D01*
X159454954Y-41924369D01*
X159454960Y-41924370D01*
X159454962Y-41924371D01*
X159734566Y-41985195D01*
X159734568Y-41985195D01*
X159734572Y-41985196D01*
X159988220Y-42003337D01*
X160019999Y-42005610D01*
X160020000Y-42005610D01*
X160020001Y-42005610D01*
X160048595Y-42003564D01*
X160305428Y-41985196D01*
X160305438Y-41985194D01*
X160585037Y-41924371D01*
X160585037Y-41924370D01*
X160585046Y-41924369D01*
X160853161Y-41824367D01*
X161104315Y-41687226D01*
X161333395Y-41515739D01*
X161535739Y-41313395D01*
X161707226Y-41084315D01*
X161844367Y-40833161D01*
X161944369Y-40565046D01*
X161944402Y-40564895D01*
X162005195Y-40285433D01*
X162005195Y-40285432D01*
X162005196Y-40285428D01*
X162025610Y-40000000D01*
X162005196Y-39714572D01*
X162005194Y-39714564D01*
X161944371Y-39434962D01*
X161944370Y-39434960D01*
X161944369Y-39434954D01*
X161844367Y-39166839D01*
X161743862Y-38982779D01*
X161707229Y-38915690D01*
X161707224Y-38915682D01*
X161535745Y-38686612D01*
X161535729Y-38686594D01*
X161333405Y-38484270D01*
X161333387Y-38484254D01*
X161290508Y-38452155D01*
X163100000Y-38452155D01*
X163100000Y-39750000D01*
X164380936Y-39750000D01*
X164369207Y-39778316D01*
X164340000Y-39925147D01*
X164340000Y-40074853D01*
X164369207Y-40221684D01*
X164380936Y-40250000D01*
X163100000Y-40250000D01*
X163100000Y-41547844D01*
X163106401Y-41607372D01*
X163106403Y-41607379D01*
X163156645Y-41742086D01*
X163156649Y-41742093D01*
X163242809Y-41857187D01*
X163242812Y-41857190D01*
X163357906Y-41943350D01*
X163357913Y-41943354D01*
X163492620Y-41993596D01*
X163492627Y-41993598D01*
X163552155Y-41999999D01*
X163552172Y-42000000D01*
X164850000Y-42000000D01*
X164850000Y-40719064D01*
X164878316Y-40730793D01*
X165025147Y-40760000D01*
X165174853Y-40760000D01*
X165321684Y-40730793D01*
X165350000Y-40719064D01*
X165350000Y-42000000D01*
X166647828Y-42000000D01*
X166647844Y-41999999D01*
X166707372Y-41993598D01*
X166707379Y-41993596D01*
X166842086Y-41943354D01*
X166842093Y-41943350D01*
X166957187Y-41857190D01*
X166957190Y-41857187D01*
X167043350Y-41742093D01*
X167043354Y-41742086D01*
X167093596Y-41607379D01*
X167093598Y-41607372D01*
X167099999Y-41547844D01*
X167100000Y-41547827D01*
X167100000Y-40250000D01*
X165819064Y-40250000D01*
X165830793Y-40221684D01*
X165860000Y-40074853D01*
X165860000Y-39925147D01*
X165830793Y-39778316D01*
X165819064Y-39750000D01*
X167100000Y-39750000D01*
X167100000Y-38452172D01*
X167099999Y-38452155D01*
X167093598Y-38392627D01*
X167093596Y-38392620D01*
X167043354Y-38257913D01*
X167043350Y-38257906D01*
X166957190Y-38142812D01*
X166957187Y-38142809D01*
X166842093Y-38056649D01*
X166842086Y-38056645D01*
X166707379Y-38006403D01*
X166707372Y-38006401D01*
X166647844Y-38000000D01*
X165350000Y-38000000D01*
X165350000Y-39280935D01*
X165321684Y-39269207D01*
X165174853Y-39240000D01*
X165025147Y-39240000D01*
X164878316Y-39269207D01*
X164850000Y-39280935D01*
X164850000Y-38000000D01*
X163552155Y-38000000D01*
X163492627Y-38006401D01*
X163492620Y-38006403D01*
X163357913Y-38056645D01*
X163357906Y-38056649D01*
X163242812Y-38142809D01*
X163242809Y-38142812D01*
X163156649Y-38257906D01*
X163156645Y-38257913D01*
X163106403Y-38392620D01*
X163106401Y-38392627D01*
X163100000Y-38452155D01*
X161290508Y-38452155D01*
X161104317Y-38312775D01*
X161104309Y-38312770D01*
X160853166Y-38175635D01*
X160853167Y-38175635D01*
X160688418Y-38114187D01*
X160585046Y-38075631D01*
X160585043Y-38075630D01*
X160585037Y-38075628D01*
X160305433Y-38014804D01*
X160020001Y-37994390D01*
X160019999Y-37994390D01*
X159734566Y-38014804D01*
X159454962Y-38075628D01*
X159186833Y-38175635D01*
X158935690Y-38312770D01*
X158935682Y-38312775D01*
X158706612Y-38484254D01*
X158706594Y-38484270D01*
X158504270Y-38686594D01*
X158504254Y-38686612D01*
X158332775Y-38915682D01*
X158332770Y-38915690D01*
X158195635Y-39166833D01*
X158095628Y-39434962D01*
X158034804Y-39714566D01*
X158014390Y-39999998D01*
X152146445Y-39999998D01*
X150940698Y-38794251D01*
X151042330Y-38720412D01*
X151220412Y-38542330D01*
X151294251Y-38440698D01*
X152788902Y-39935349D01*
X152997475Y-39677785D01*
X152997476Y-39677783D01*
X153208689Y-39352543D01*
X153384755Y-39006994D01*
X153523737Y-38644936D01*
X153624112Y-38270330D01*
X153624113Y-38270323D01*
X153684780Y-37887287D01*
X153705078Y-37500000D01*
X153705078Y-37499999D01*
X211294922Y-37499999D01*
X211294922Y-37500000D01*
X211315219Y-37887287D01*
X211375886Y-38270323D01*
X211375887Y-38270330D01*
X211476262Y-38644936D01*
X211615244Y-39006994D01*
X211791310Y-39352543D01*
X212002531Y-39677793D01*
X212211095Y-39935350D01*
X212211096Y-39935350D01*
X213705748Y-38440698D01*
X213779588Y-38542330D01*
X213957670Y-38720412D01*
X214059300Y-38794251D01*
X212564648Y-40288903D01*
X212564649Y-40288904D01*
X212822206Y-40497468D01*
X213147456Y-40708689D01*
X213493005Y-40884755D01*
X213855063Y-41023737D01*
X214229669Y-41124112D01*
X214229676Y-41124113D01*
X214612712Y-41184780D01*
X214999999Y-41205078D01*
X215000001Y-41205078D01*
X215387287Y-41184780D01*
X215770323Y-41124113D01*
X215770330Y-41124112D01*
X216144936Y-41023737D01*
X216506994Y-40884755D01*
X216852543Y-40708689D01*
X217177783Y-40497476D01*
X217177785Y-40497475D01*
X217435349Y-40288902D01*
X215940698Y-38794251D01*
X216042330Y-38720412D01*
X216220412Y-38542330D01*
X216294251Y-38440698D01*
X217788902Y-39935349D01*
X217997475Y-39677785D01*
X217997476Y-39677783D01*
X218208689Y-39352543D01*
X218384755Y-39006994D01*
X218523737Y-38644936D01*
X218624112Y-38270330D01*
X218624113Y-38270323D01*
X218684780Y-37887287D01*
X218705078Y-37500000D01*
X218705078Y-37499999D01*
X218684780Y-37112712D01*
X218624113Y-36729676D01*
X218624112Y-36729669D01*
X218523737Y-36355063D01*
X218384755Y-35993005D01*
X218208689Y-35647456D01*
X217997468Y-35322206D01*
X217788904Y-35064649D01*
X217788903Y-35064648D01*
X216294251Y-36559300D01*
X216220412Y-36457670D01*
X216042330Y-36279588D01*
X215940698Y-36205748D01*
X217435350Y-34711096D01*
X217435350Y-34711095D01*
X217177793Y-34502531D01*
X216852543Y-34291310D01*
X216506994Y-34115244D01*
X216144936Y-33976262D01*
X215770330Y-33875887D01*
X215770323Y-33875886D01*
X215387287Y-33815219D01*
X215000001Y-33794922D01*
X214999999Y-33794922D01*
X214612712Y-33815219D01*
X214229676Y-33875886D01*
X214229669Y-33875887D01*
X213855063Y-33976262D01*
X213493005Y-34115244D01*
X213147456Y-34291310D01*
X212822206Y-34502531D01*
X212564648Y-34711095D01*
X212564648Y-34711096D01*
X214059301Y-36205748D01*
X213957670Y-36279588D01*
X213779588Y-36457670D01*
X213705748Y-36559300D01*
X212211096Y-35064648D01*
X212211095Y-35064648D01*
X212002531Y-35322206D01*
X211791310Y-35647456D01*
X211615244Y-35993005D01*
X211476262Y-36355063D01*
X211375887Y-36729669D01*
X211375886Y-36729676D01*
X211315219Y-37112712D01*
X211294922Y-37499999D01*
X153705078Y-37499999D01*
X153684780Y-37112712D01*
X153624113Y-36729676D01*
X153624112Y-36729669D01*
X153523737Y-36355063D01*
X153384755Y-35993005D01*
X153208689Y-35647456D01*
X152997468Y-35322206D01*
X152788904Y-35064649D01*
X152788903Y-35064648D01*
X151294251Y-36559300D01*
X151220412Y-36457670D01*
X151042330Y-36279588D01*
X150940698Y-36205748D01*
X152435350Y-34711096D01*
X152435350Y-34711095D01*
X152177793Y-34502531D01*
X151852543Y-34291310D01*
X151506994Y-34115244D01*
X151144936Y-33976262D01*
X150770330Y-33875887D01*
X150770323Y-33875886D01*
X150387287Y-33815219D01*
X150000001Y-33794922D01*
X149999999Y-33794922D01*
X149612712Y-33815219D01*
X149229676Y-33875886D01*
X149229669Y-33875887D01*
X148855063Y-33976262D01*
X148493005Y-34115244D01*
X148147456Y-34291310D01*
X147822206Y-34502531D01*
X147564648Y-34711095D01*
X147564648Y-34711096D01*
X149059301Y-36205748D01*
X148957670Y-36279588D01*
X148779588Y-36457670D01*
X148705748Y-36559300D01*
X147211096Y-35064648D01*
X147211095Y-35064648D01*
X147002531Y-35322206D01*
X146791310Y-35647456D01*
X146615244Y-35993005D01*
X146476262Y-36355063D01*
X146375887Y-36729669D01*
X146375886Y-36729676D01*
X146315219Y-37112712D01*
X146294922Y-37499999D01*
X145500500Y-37499999D01*
X145500500Y-33619500D01*
X145520185Y-33552461D01*
X145572989Y-33506706D01*
X145624500Y-33495500D01*
X219375500Y-33495500D01*
X219442539Y-33515185D01*
G37*
%TD.AperFunction*%
%TD*%
M02*
