M48
; DRILL file {KiCad 8.0.2-1} date 2024-05-28T09:05:38+0200
; FORMAT={-:-/ absolute / inch / decimal}
; #@! TF.CreationDate,2024-05-28T09:05:38+02:00
; #@! TF.GenerationSoftware,Kicad,Pcbnew,8.0.2-1
; #@! TF.FileFunction,Plated,1,2,PTH
FMAT,2
INCH
; #@! TA.AperFunction,Plated,PTH,ViaDrill
T1C0.0118
; #@! TA.AperFunction,Plated,PTH,ComponentDrill
T2C0.0236
; #@! TA.AperFunction,Plated,PTH,ComponentDrill
T3C0.0394
; #@! TA.AperFunction,Plated,PTH,ComponentDrill
T4C0.0512
; #@! TA.AperFunction,Plated,PTH,ComponentDrill
T5C0.0598
; #@! TA.AperFunction,Plated,PTH,ComponentDrill
T6C0.1260
%
G90
G05
T1
X6.437Y-2.7756
X6.437Y-3.573
X6.5Y-3.11
X6.7402Y-2.9055
X6.7913Y-2.7953
X7.1654Y-3.8583
X7.185Y-3.95
X7.2244Y-2.9134
X7.2835Y-2.7953
X7.6969Y-2.9134
X7.7953Y-2.7953
X7.815Y-3.6417
X8.1299Y-3.905
X8.2087Y-2.9134
T2
X6.5748Y-3.6811
X6.7717Y-3.7323
X7.8691Y-3.3031
X8.0659Y-3.3543
T3
X6.675Y-4.35
X6.675Y-4.45
X6.675Y-4.55
X6.675Y-4.65
X6.675Y-4.75
X6.675Y-4.85
X6.775Y-4.35
X6.775Y-4.45
X6.775Y-4.55
X6.775Y-4.65
X6.775Y-4.75
X6.775Y-4.85
X6.8Y-3.3528
X6.8Y-3.4528
X7.0276Y-3.3543
X7.0276Y-3.4543
X7.0276Y-3.5543
X7.0276Y-3.6543
X7.0276Y-3.7543
X7.0276Y-3.8543
X7.0276Y-3.9543
X7.0276Y-4.0543
X7.0276Y-4.1543
X7.0276Y-4.2543
X7.0276Y-4.3543
X7.0276Y-4.4543
X7.0276Y-4.5543
X7.0276Y-4.6543
X7.0276Y-4.7543
X7.6276Y-3.3543
X7.6276Y-3.4543
X7.6276Y-3.5543
X7.6276Y-3.6543
X7.6276Y-3.7543
X7.6276Y-3.8543
X7.6276Y-3.9543
X7.6276Y-4.0543
X7.6276Y-4.1543
X7.6276Y-4.2543
X7.6276Y-4.3543
X7.6276Y-4.4543
X7.6276Y-4.5543
X7.6276Y-4.6543
X7.6276Y-4.7543
X7.875Y-4.2583
X7.875Y-4.3583
X7.875Y-4.4583
X8.175Y-4.2
X8.175Y-4.3
X8.175Y-4.4
X8.175Y-4.5
X8.175Y-4.6
X8.275Y-4.2
X8.275Y-4.3
X8.275Y-4.4
X8.275Y-4.5
X8.275Y-4.6
T4
X6.2Y-4.4478
X6.2Y-4.6447
X6.3969Y-4.5463
X6.3976Y-1.9882
X6.3976Y-2.5882
X6.6976Y-1.8882
X6.6976Y-2.1882
X6.6976Y-2.5882
X6.8917Y-1.9882
X6.8917Y-2.5882
X7.1917Y-1.8882
X7.1917Y-2.1882
X7.1917Y-2.5882
X7.3858Y-1.9882
X7.3858Y-2.5882
X7.6858Y-1.8882
X7.6858Y-2.1882
X7.6858Y-2.5882
X7.8799Y-1.9882
X7.8799Y-2.5882
X8.1799Y-1.8882
X8.1799Y-2.1882
X8.1799Y-2.5882
T5
X6.3Y-1.5748
X6.5Y-1.5748
X6.7496Y-1.5748
X6.9496Y-1.5748
X7.1496Y-1.5748
X7.3496Y-1.5748
X7.5496Y-1.5748
X7.7496Y-1.5748
X7.9496Y-1.5748
X8.1496Y-1.5748
T6
X5.9055Y-1.4764
X5.9055Y-4.9213
X8.4646Y-1.4764
X8.4646Y-4.9213
M30
