%TF.GenerationSoftware,KiCad,Pcbnew,8.0.2-1*%
%TF.CreationDate,2024-05-28T09:05:20+02:00*%
%TF.ProjectId,Antenna Rotator,416e7465-6e6e-4612-9052-6f7461746f72,rev?*%
%TF.SameCoordinates,Original*%
%TF.FileFunction,Legend,Top*%
%TF.FilePolarity,Positive*%
%FSLAX46Y46*%
G04 Gerber Fmt 4.6, Leading zero omitted, Abs format (unit mm)*
G04 Created by KiCad (PCBNEW 8.0.2-1) date 2024-05-28 09:05:20*
%MOMM*%
%LPD*%
G01*
G04 APERTURE LIST*
%ADD10C,0.100000*%
%ADD11C,0.150000*%
%ADD12C,0.120000*%
G04 APERTURE END LIST*
D10*
X171323000Y-33984000D02*
X171323000Y-35000000D01*
X185166000Y-33984000D02*
X186690000Y-33984000D01*
X176530000Y-33984000D02*
X176530000Y-35000000D01*
X183007000Y-33984000D02*
X181483000Y-33984000D01*
X186690000Y-33984000D02*
X186690000Y-35000000D01*
X172847000Y-33984000D02*
X171323000Y-33984000D01*
X181483000Y-33984000D02*
X181483000Y-35000000D01*
X175006000Y-33984000D02*
X176530000Y-33984000D01*
X165927693Y-120205038D02*
X165832455Y-120157419D01*
X165832455Y-120157419D02*
X165689598Y-120157419D01*
X165689598Y-120157419D02*
X165546741Y-120205038D01*
X165546741Y-120205038D02*
X165451503Y-120300276D01*
X165451503Y-120300276D02*
X165403884Y-120395514D01*
X165403884Y-120395514D02*
X165356265Y-120585990D01*
X165356265Y-120585990D02*
X165356265Y-120728847D01*
X165356265Y-120728847D02*
X165403884Y-120919323D01*
X165403884Y-120919323D02*
X165451503Y-121014561D01*
X165451503Y-121014561D02*
X165546741Y-121109800D01*
X165546741Y-121109800D02*
X165689598Y-121157419D01*
X165689598Y-121157419D02*
X165784836Y-121157419D01*
X165784836Y-121157419D02*
X165927693Y-121109800D01*
X165927693Y-121109800D02*
X165975312Y-121062180D01*
X165975312Y-121062180D02*
X165975312Y-120728847D01*
X165975312Y-120728847D02*
X165784836Y-120728847D01*
X166403884Y-121157419D02*
X166403884Y-120157419D01*
X166403884Y-120157419D02*
X166975312Y-121157419D01*
X166975312Y-121157419D02*
X166975312Y-120157419D01*
X167451503Y-121157419D02*
X167451503Y-120157419D01*
X167451503Y-120157419D02*
X167689598Y-120157419D01*
X167689598Y-120157419D02*
X167832455Y-120205038D01*
X167832455Y-120205038D02*
X167927693Y-120300276D01*
X167927693Y-120300276D02*
X167975312Y-120395514D01*
X167975312Y-120395514D02*
X168022931Y-120585990D01*
X168022931Y-120585990D02*
X168022931Y-120728847D01*
X168022931Y-120728847D02*
X167975312Y-120919323D01*
X167975312Y-120919323D02*
X167927693Y-121014561D01*
X167927693Y-121014561D02*
X167832455Y-121109800D01*
X167832455Y-121109800D02*
X167689598Y-121157419D01*
X167689598Y-121157419D02*
X167451503Y-121157419D01*
X173658884Y-116077419D02*
X173658884Y-115077419D01*
X173658884Y-115077419D02*
X173896979Y-115077419D01*
X173896979Y-115077419D02*
X174039836Y-115125038D01*
X174039836Y-115125038D02*
X174135074Y-115220276D01*
X174135074Y-115220276D02*
X174182693Y-115315514D01*
X174182693Y-115315514D02*
X174230312Y-115505990D01*
X174230312Y-115505990D02*
X174230312Y-115648847D01*
X174230312Y-115648847D02*
X174182693Y-115839323D01*
X174182693Y-115839323D02*
X174135074Y-115934561D01*
X174135074Y-115934561D02*
X174039836Y-116029800D01*
X174039836Y-116029800D02*
X173896979Y-116077419D01*
X173896979Y-116077419D02*
X173658884Y-116077419D01*
X175087455Y-115077419D02*
X174896979Y-115077419D01*
X174896979Y-115077419D02*
X174801741Y-115125038D01*
X174801741Y-115125038D02*
X174754122Y-115172657D01*
X174754122Y-115172657D02*
X174658884Y-115315514D01*
X174658884Y-115315514D02*
X174611265Y-115505990D01*
X174611265Y-115505990D02*
X174611265Y-115886942D01*
X174611265Y-115886942D02*
X174658884Y-115982180D01*
X174658884Y-115982180D02*
X174706503Y-116029800D01*
X174706503Y-116029800D02*
X174801741Y-116077419D01*
X174801741Y-116077419D02*
X174992217Y-116077419D01*
X174992217Y-116077419D02*
X175087455Y-116029800D01*
X175087455Y-116029800D02*
X175135074Y-115982180D01*
X175135074Y-115982180D02*
X175182693Y-115886942D01*
X175182693Y-115886942D02*
X175182693Y-115648847D01*
X175182693Y-115648847D02*
X175135074Y-115553609D01*
X175135074Y-115553609D02*
X175087455Y-115505990D01*
X175087455Y-115505990D02*
X174992217Y-115458371D01*
X174992217Y-115458371D02*
X174801741Y-115458371D01*
X174801741Y-115458371D02*
X174706503Y-115505990D01*
X174706503Y-115505990D02*
X174658884Y-115553609D01*
X174658884Y-115553609D02*
X174611265Y-115648847D01*
X201979884Y-107187419D02*
X201979884Y-106187419D01*
X201979884Y-106187419D02*
X202217979Y-106187419D01*
X202217979Y-106187419D02*
X202360836Y-106235038D01*
X202360836Y-106235038D02*
X202456074Y-106330276D01*
X202456074Y-106330276D02*
X202503693Y-106425514D01*
X202503693Y-106425514D02*
X202551312Y-106615990D01*
X202551312Y-106615990D02*
X202551312Y-106758847D01*
X202551312Y-106758847D02*
X202503693Y-106949323D01*
X202503693Y-106949323D02*
X202456074Y-107044561D01*
X202456074Y-107044561D02*
X202360836Y-107139800D01*
X202360836Y-107139800D02*
X202217979Y-107187419D01*
X202217979Y-107187419D02*
X201979884Y-107187419D01*
X203170360Y-106187419D02*
X203360836Y-106187419D01*
X203360836Y-106187419D02*
X203456074Y-106235038D01*
X203456074Y-106235038D02*
X203551312Y-106330276D01*
X203551312Y-106330276D02*
X203598931Y-106520752D01*
X203598931Y-106520752D02*
X203598931Y-106854085D01*
X203598931Y-106854085D02*
X203551312Y-107044561D01*
X203551312Y-107044561D02*
X203456074Y-107139800D01*
X203456074Y-107139800D02*
X203360836Y-107187419D01*
X203360836Y-107187419D02*
X203170360Y-107187419D01*
X203170360Y-107187419D02*
X203075122Y-107139800D01*
X203075122Y-107139800D02*
X202979884Y-107044561D01*
X202979884Y-107044561D02*
X202932265Y-106854085D01*
X202932265Y-106854085D02*
X202932265Y-106520752D01*
X202932265Y-106520752D02*
X202979884Y-106330276D01*
X202979884Y-106330276D02*
X203075122Y-106235038D01*
X203075122Y-106235038D02*
X203170360Y-106187419D01*
X203932265Y-106187419D02*
X204170360Y-107187419D01*
X204170360Y-107187419D02*
X204360836Y-106473133D01*
X204360836Y-106473133D02*
X204551312Y-107187419D01*
X204551312Y-107187419D02*
X204789408Y-106187419D01*
X205170360Y-107187419D02*
X205170360Y-106187419D01*
X205170360Y-106187419D02*
X205741788Y-107187419D01*
X205741788Y-107187419D02*
X205741788Y-106187419D01*
X196471265Y-108171704D02*
X196947455Y-108171704D01*
X196376027Y-108457419D02*
X196709360Y-107457419D01*
X196709360Y-107457419D02*
X197042693Y-108457419D01*
X197328408Y-107552657D02*
X197376027Y-107505038D01*
X197376027Y-107505038D02*
X197471265Y-107457419D01*
X197471265Y-107457419D02*
X197709360Y-107457419D01*
X197709360Y-107457419D02*
X197804598Y-107505038D01*
X197804598Y-107505038D02*
X197852217Y-107552657D01*
X197852217Y-107552657D02*
X197899836Y-107647895D01*
X197899836Y-107647895D02*
X197899836Y-107743133D01*
X197899836Y-107743133D02*
X197852217Y-107885990D01*
X197852217Y-107885990D02*
X197280789Y-108457419D01*
X197280789Y-108457419D02*
X197899836Y-108457419D01*
X165927693Y-122745038D02*
X165832455Y-122697419D01*
X165832455Y-122697419D02*
X165689598Y-122697419D01*
X165689598Y-122697419D02*
X165546741Y-122745038D01*
X165546741Y-122745038D02*
X165451503Y-122840276D01*
X165451503Y-122840276D02*
X165403884Y-122935514D01*
X165403884Y-122935514D02*
X165356265Y-123125990D01*
X165356265Y-123125990D02*
X165356265Y-123268847D01*
X165356265Y-123268847D02*
X165403884Y-123459323D01*
X165403884Y-123459323D02*
X165451503Y-123554561D01*
X165451503Y-123554561D02*
X165546741Y-123649800D01*
X165546741Y-123649800D02*
X165689598Y-123697419D01*
X165689598Y-123697419D02*
X165784836Y-123697419D01*
X165784836Y-123697419D02*
X165927693Y-123649800D01*
X165927693Y-123649800D02*
X165975312Y-123602180D01*
X165975312Y-123602180D02*
X165975312Y-123268847D01*
X165975312Y-123268847D02*
X165784836Y-123268847D01*
X166403884Y-123697419D02*
X166403884Y-122697419D01*
X166403884Y-122697419D02*
X166975312Y-123697419D01*
X166975312Y-123697419D02*
X166975312Y-122697419D01*
X167451503Y-123697419D02*
X167451503Y-122697419D01*
X167451503Y-122697419D02*
X167689598Y-122697419D01*
X167689598Y-122697419D02*
X167832455Y-122745038D01*
X167832455Y-122745038D02*
X167927693Y-122840276D01*
X167927693Y-122840276D02*
X167975312Y-122935514D01*
X167975312Y-122935514D02*
X168022931Y-123125990D01*
X168022931Y-123125990D02*
X168022931Y-123268847D01*
X168022931Y-123268847D02*
X167975312Y-123459323D01*
X167975312Y-123459323D02*
X167927693Y-123554561D01*
X167927693Y-123554561D02*
X167832455Y-123649800D01*
X167832455Y-123649800D02*
X167689598Y-123697419D01*
X167689598Y-123697419D02*
X167451503Y-123697419D01*
X212917693Y-116395038D02*
X212822455Y-116347419D01*
X212822455Y-116347419D02*
X212679598Y-116347419D01*
X212679598Y-116347419D02*
X212536741Y-116395038D01*
X212536741Y-116395038D02*
X212441503Y-116490276D01*
X212441503Y-116490276D02*
X212393884Y-116585514D01*
X212393884Y-116585514D02*
X212346265Y-116775990D01*
X212346265Y-116775990D02*
X212346265Y-116918847D01*
X212346265Y-116918847D02*
X212393884Y-117109323D01*
X212393884Y-117109323D02*
X212441503Y-117204561D01*
X212441503Y-117204561D02*
X212536741Y-117299800D01*
X212536741Y-117299800D02*
X212679598Y-117347419D01*
X212679598Y-117347419D02*
X212774836Y-117347419D01*
X212774836Y-117347419D02*
X212917693Y-117299800D01*
X212917693Y-117299800D02*
X212965312Y-117252180D01*
X212965312Y-117252180D02*
X212965312Y-116918847D01*
X212965312Y-116918847D02*
X212774836Y-116918847D01*
X213393884Y-117347419D02*
X213393884Y-116347419D01*
X213393884Y-116347419D02*
X213965312Y-117347419D01*
X213965312Y-117347419D02*
X213965312Y-116347419D01*
X214441503Y-117347419D02*
X214441503Y-116347419D01*
X214441503Y-116347419D02*
X214679598Y-116347419D01*
X214679598Y-116347419D02*
X214822455Y-116395038D01*
X214822455Y-116395038D02*
X214917693Y-116490276D01*
X214917693Y-116490276D02*
X214965312Y-116585514D01*
X214965312Y-116585514D02*
X215012931Y-116775990D01*
X215012931Y-116775990D02*
X215012931Y-116918847D01*
X215012931Y-116918847D02*
X214965312Y-117109323D01*
X214965312Y-117109323D02*
X214917693Y-117204561D01*
X214917693Y-117204561D02*
X214822455Y-117299800D01*
X214822455Y-117299800D02*
X214679598Y-117347419D01*
X214679598Y-117347419D02*
X214441503Y-117347419D01*
X174928884Y-88137419D02*
X174928884Y-87137419D01*
X174928884Y-87137419D02*
X175166979Y-87137419D01*
X175166979Y-87137419D02*
X175309836Y-87185038D01*
X175309836Y-87185038D02*
X175405074Y-87280276D01*
X175405074Y-87280276D02*
X175452693Y-87375514D01*
X175452693Y-87375514D02*
X175500312Y-87565990D01*
X175500312Y-87565990D02*
X175500312Y-87708847D01*
X175500312Y-87708847D02*
X175452693Y-87899323D01*
X175452693Y-87899323D02*
X175405074Y-87994561D01*
X175405074Y-87994561D02*
X175309836Y-88089800D01*
X175309836Y-88089800D02*
X175166979Y-88137419D01*
X175166979Y-88137419D02*
X174928884Y-88137419D01*
X176119360Y-87137419D02*
X176214598Y-87137419D01*
X176214598Y-87137419D02*
X176309836Y-87185038D01*
X176309836Y-87185038D02*
X176357455Y-87232657D01*
X176357455Y-87232657D02*
X176405074Y-87327895D01*
X176405074Y-87327895D02*
X176452693Y-87518371D01*
X176452693Y-87518371D02*
X176452693Y-87756466D01*
X176452693Y-87756466D02*
X176405074Y-87946942D01*
X176405074Y-87946942D02*
X176357455Y-88042180D01*
X176357455Y-88042180D02*
X176309836Y-88089800D01*
X176309836Y-88089800D02*
X176214598Y-88137419D01*
X176214598Y-88137419D02*
X176119360Y-88137419D01*
X176119360Y-88137419D02*
X176024122Y-88089800D01*
X176024122Y-88089800D02*
X175976503Y-88042180D01*
X175976503Y-88042180D02*
X175928884Y-87946942D01*
X175928884Y-87946942D02*
X175881265Y-87756466D01*
X175881265Y-87756466D02*
X175881265Y-87518371D01*
X175881265Y-87518371D02*
X175928884Y-87327895D01*
X175928884Y-87327895D02*
X175976503Y-87232657D01*
X175976503Y-87232657D02*
X176024122Y-87185038D01*
X176024122Y-87185038D02*
X176119360Y-87137419D01*
X212917693Y-106235038D02*
X212822455Y-106187419D01*
X212822455Y-106187419D02*
X212679598Y-106187419D01*
X212679598Y-106187419D02*
X212536741Y-106235038D01*
X212536741Y-106235038D02*
X212441503Y-106330276D01*
X212441503Y-106330276D02*
X212393884Y-106425514D01*
X212393884Y-106425514D02*
X212346265Y-106615990D01*
X212346265Y-106615990D02*
X212346265Y-106758847D01*
X212346265Y-106758847D02*
X212393884Y-106949323D01*
X212393884Y-106949323D02*
X212441503Y-107044561D01*
X212441503Y-107044561D02*
X212536741Y-107139800D01*
X212536741Y-107139800D02*
X212679598Y-107187419D01*
X212679598Y-107187419D02*
X212774836Y-107187419D01*
X212774836Y-107187419D02*
X212917693Y-107139800D01*
X212917693Y-107139800D02*
X212965312Y-107092180D01*
X212965312Y-107092180D02*
X212965312Y-106758847D01*
X212965312Y-106758847D02*
X212774836Y-106758847D01*
X213393884Y-107187419D02*
X213393884Y-106187419D01*
X213393884Y-106187419D02*
X213965312Y-107187419D01*
X213965312Y-107187419D02*
X213965312Y-106187419D01*
X214441503Y-107187419D02*
X214441503Y-106187419D01*
X214441503Y-106187419D02*
X214679598Y-106187419D01*
X214679598Y-106187419D02*
X214822455Y-106235038D01*
X214822455Y-106235038D02*
X214917693Y-106330276D01*
X214917693Y-106330276D02*
X214965312Y-106425514D01*
X214965312Y-106425514D02*
X215012931Y-106615990D01*
X215012931Y-106615990D02*
X215012931Y-106758847D01*
X215012931Y-106758847D02*
X214965312Y-106949323D01*
X214965312Y-106949323D02*
X214917693Y-107044561D01*
X214917693Y-107044561D02*
X214822455Y-107139800D01*
X214822455Y-107139800D02*
X214679598Y-107187419D01*
X214679598Y-107187419D02*
X214441503Y-107187419D01*
X164403693Y-33920038D02*
X164308455Y-33872419D01*
X164308455Y-33872419D02*
X164165598Y-33872419D01*
X164165598Y-33872419D02*
X164022741Y-33920038D01*
X164022741Y-33920038D02*
X163927503Y-34015276D01*
X163927503Y-34015276D02*
X163879884Y-34110514D01*
X163879884Y-34110514D02*
X163832265Y-34300990D01*
X163832265Y-34300990D02*
X163832265Y-34443847D01*
X163832265Y-34443847D02*
X163879884Y-34634323D01*
X163879884Y-34634323D02*
X163927503Y-34729561D01*
X163927503Y-34729561D02*
X164022741Y-34824800D01*
X164022741Y-34824800D02*
X164165598Y-34872419D01*
X164165598Y-34872419D02*
X164260836Y-34872419D01*
X164260836Y-34872419D02*
X164403693Y-34824800D01*
X164403693Y-34824800D02*
X164451312Y-34777180D01*
X164451312Y-34777180D02*
X164451312Y-34443847D01*
X164451312Y-34443847D02*
X164260836Y-34443847D01*
X164879884Y-34872419D02*
X164879884Y-33872419D01*
X164879884Y-33872419D02*
X165451312Y-34872419D01*
X165451312Y-34872419D02*
X165451312Y-33872419D01*
X165927503Y-34872419D02*
X165927503Y-33872419D01*
X165927503Y-33872419D02*
X166165598Y-33872419D01*
X166165598Y-33872419D02*
X166308455Y-33920038D01*
X166308455Y-33920038D02*
X166403693Y-34015276D01*
X166403693Y-34015276D02*
X166451312Y-34110514D01*
X166451312Y-34110514D02*
X166498931Y-34300990D01*
X166498931Y-34300990D02*
X166498931Y-34443847D01*
X166498931Y-34443847D02*
X166451312Y-34634323D01*
X166451312Y-34634323D02*
X166403693Y-34729561D01*
X166403693Y-34729561D02*
X166308455Y-34824800D01*
X166308455Y-34824800D02*
X166165598Y-34872419D01*
X166165598Y-34872419D02*
X165927503Y-34872419D01*
X170071074Y-126237419D02*
X169594884Y-126237419D01*
X169594884Y-126237419D02*
X169594884Y-125237419D01*
X170975836Y-126142180D02*
X170928217Y-126189800D01*
X170928217Y-126189800D02*
X170785360Y-126237419D01*
X170785360Y-126237419D02*
X170690122Y-126237419D01*
X170690122Y-126237419D02*
X170547265Y-126189800D01*
X170547265Y-126189800D02*
X170452027Y-126094561D01*
X170452027Y-126094561D02*
X170404408Y-125999323D01*
X170404408Y-125999323D02*
X170356789Y-125808847D01*
X170356789Y-125808847D02*
X170356789Y-125665990D01*
X170356789Y-125665990D02*
X170404408Y-125475514D01*
X170404408Y-125475514D02*
X170452027Y-125380276D01*
X170452027Y-125380276D02*
X170547265Y-125285038D01*
X170547265Y-125285038D02*
X170690122Y-125237419D01*
X170690122Y-125237419D02*
X170785360Y-125237419D01*
X170785360Y-125237419D02*
X170928217Y-125285038D01*
X170928217Y-125285038D02*
X170975836Y-125332657D01*
X171404408Y-126237419D02*
X171404408Y-125237419D01*
X171404408Y-125237419D02*
X171642503Y-125237419D01*
X171642503Y-125237419D02*
X171785360Y-125285038D01*
X171785360Y-125285038D02*
X171880598Y-125380276D01*
X171880598Y-125380276D02*
X171928217Y-125475514D01*
X171928217Y-125475514D02*
X171975836Y-125665990D01*
X171975836Y-125665990D02*
X171975836Y-125808847D01*
X171975836Y-125808847D02*
X171928217Y-125999323D01*
X171928217Y-125999323D02*
X171880598Y-126094561D01*
X171880598Y-126094561D02*
X171785360Y-126189800D01*
X171785360Y-126189800D02*
X171642503Y-126237419D01*
X171642503Y-126237419D02*
X171404408Y-126237419D01*
X183564884Y-33840609D02*
X183898217Y-33840609D01*
X184041074Y-34364419D02*
X183564884Y-34364419D01*
X183564884Y-34364419D02*
X183564884Y-33364419D01*
X183564884Y-33364419D02*
X184041074Y-33364419D01*
X184945836Y-34364419D02*
X184469646Y-34364419D01*
X184469646Y-34364419D02*
X184469646Y-33364419D01*
X173658884Y-118617419D02*
X173658884Y-117617419D01*
X173658884Y-117617419D02*
X173896979Y-117617419D01*
X173896979Y-117617419D02*
X174039836Y-117665038D01*
X174039836Y-117665038D02*
X174135074Y-117760276D01*
X174135074Y-117760276D02*
X174182693Y-117855514D01*
X174182693Y-117855514D02*
X174230312Y-118045990D01*
X174230312Y-118045990D02*
X174230312Y-118188847D01*
X174230312Y-118188847D02*
X174182693Y-118379323D01*
X174182693Y-118379323D02*
X174135074Y-118474561D01*
X174135074Y-118474561D02*
X174039836Y-118569800D01*
X174039836Y-118569800D02*
X173896979Y-118617419D01*
X173896979Y-118617419D02*
X173658884Y-118617419D01*
X174563646Y-117617419D02*
X175230312Y-117617419D01*
X175230312Y-117617419D02*
X174801741Y-118617419D01*
X173230265Y-34078704D02*
X173706455Y-34078704D01*
X173135027Y-34364419D02*
X173468360Y-33364419D01*
X173468360Y-33364419D02*
X173801693Y-34364419D01*
X174039789Y-33364419D02*
X174706455Y-33364419D01*
X174706455Y-33364419D02*
X174039789Y-34364419D01*
X174039789Y-34364419D02*
X174706455Y-34364419D01*
X202440265Y-117299800D02*
X202583122Y-117347419D01*
X202583122Y-117347419D02*
X202821217Y-117347419D01*
X202821217Y-117347419D02*
X202916455Y-117299800D01*
X202916455Y-117299800D02*
X202964074Y-117252180D01*
X202964074Y-117252180D02*
X203011693Y-117156942D01*
X203011693Y-117156942D02*
X203011693Y-117061704D01*
X203011693Y-117061704D02*
X202964074Y-116966466D01*
X202964074Y-116966466D02*
X202916455Y-116918847D01*
X202916455Y-116918847D02*
X202821217Y-116871228D01*
X202821217Y-116871228D02*
X202630741Y-116823609D01*
X202630741Y-116823609D02*
X202535503Y-116775990D01*
X202535503Y-116775990D02*
X202487884Y-116728371D01*
X202487884Y-116728371D02*
X202440265Y-116633133D01*
X202440265Y-116633133D02*
X202440265Y-116537895D01*
X202440265Y-116537895D02*
X202487884Y-116442657D01*
X202487884Y-116442657D02*
X202535503Y-116395038D01*
X202535503Y-116395038D02*
X202630741Y-116347419D01*
X202630741Y-116347419D02*
X202868836Y-116347419D01*
X202868836Y-116347419D02*
X203011693Y-116395038D01*
X203297408Y-116347419D02*
X203868836Y-116347419D01*
X203583122Y-117347419D02*
X203583122Y-116347419D01*
X204392646Y-116347419D02*
X204583122Y-116347419D01*
X204583122Y-116347419D02*
X204678360Y-116395038D01*
X204678360Y-116395038D02*
X204773598Y-116490276D01*
X204773598Y-116490276D02*
X204821217Y-116680752D01*
X204821217Y-116680752D02*
X204821217Y-117014085D01*
X204821217Y-117014085D02*
X204773598Y-117204561D01*
X204773598Y-117204561D02*
X204678360Y-117299800D01*
X204678360Y-117299800D02*
X204583122Y-117347419D01*
X204583122Y-117347419D02*
X204392646Y-117347419D01*
X204392646Y-117347419D02*
X204297408Y-117299800D01*
X204297408Y-117299800D02*
X204202170Y-117204561D01*
X204202170Y-117204561D02*
X204154551Y-117014085D01*
X204154551Y-117014085D02*
X204154551Y-116680752D01*
X204154551Y-116680752D02*
X204202170Y-116490276D01*
X204202170Y-116490276D02*
X204297408Y-116395038D01*
X204297408Y-116395038D02*
X204392646Y-116347419D01*
X205249789Y-117347419D02*
X205249789Y-116347419D01*
X205249789Y-116347419D02*
X205630741Y-116347419D01*
X205630741Y-116347419D02*
X205725979Y-116395038D01*
X205725979Y-116395038D02*
X205773598Y-116442657D01*
X205773598Y-116442657D02*
X205821217Y-116537895D01*
X205821217Y-116537895D02*
X205821217Y-116680752D01*
X205821217Y-116680752D02*
X205773598Y-116775990D01*
X205773598Y-116775990D02*
X205725979Y-116823609D01*
X205725979Y-116823609D02*
X205630741Y-116871228D01*
X205630741Y-116871228D02*
X205249789Y-116871228D01*
X204710312Y-112172180D02*
X204662693Y-112219800D01*
X204662693Y-112219800D02*
X204519836Y-112267419D01*
X204519836Y-112267419D02*
X204424598Y-112267419D01*
X204424598Y-112267419D02*
X204281741Y-112219800D01*
X204281741Y-112219800D02*
X204186503Y-112124561D01*
X204186503Y-112124561D02*
X204138884Y-112029323D01*
X204138884Y-112029323D02*
X204091265Y-111838847D01*
X204091265Y-111838847D02*
X204091265Y-111695990D01*
X204091265Y-111695990D02*
X204138884Y-111505514D01*
X204138884Y-111505514D02*
X204186503Y-111410276D01*
X204186503Y-111410276D02*
X204281741Y-111315038D01*
X204281741Y-111315038D02*
X204424598Y-111267419D01*
X204424598Y-111267419D02*
X204519836Y-111267419D01*
X204519836Y-111267419D02*
X204662693Y-111315038D01*
X204662693Y-111315038D02*
X204710312Y-111362657D01*
X205043646Y-111267419D02*
X205281741Y-112267419D01*
X205281741Y-112267419D02*
X205472217Y-111553133D01*
X205472217Y-111553133D02*
X205662693Y-112267419D01*
X205662693Y-112267419D02*
X205900789Y-111267419D01*
X212917693Y-111315038D02*
X212822455Y-111267419D01*
X212822455Y-111267419D02*
X212679598Y-111267419D01*
X212679598Y-111267419D02*
X212536741Y-111315038D01*
X212536741Y-111315038D02*
X212441503Y-111410276D01*
X212441503Y-111410276D02*
X212393884Y-111505514D01*
X212393884Y-111505514D02*
X212346265Y-111695990D01*
X212346265Y-111695990D02*
X212346265Y-111838847D01*
X212346265Y-111838847D02*
X212393884Y-112029323D01*
X212393884Y-112029323D02*
X212441503Y-112124561D01*
X212441503Y-112124561D02*
X212536741Y-112219800D01*
X212536741Y-112219800D02*
X212679598Y-112267419D01*
X212679598Y-112267419D02*
X212774836Y-112267419D01*
X212774836Y-112267419D02*
X212917693Y-112219800D01*
X212917693Y-112219800D02*
X212965312Y-112172180D01*
X212965312Y-112172180D02*
X212965312Y-111838847D01*
X212965312Y-111838847D02*
X212774836Y-111838847D01*
X213393884Y-112267419D02*
X213393884Y-111267419D01*
X213393884Y-111267419D02*
X213965312Y-112267419D01*
X213965312Y-112267419D02*
X213965312Y-111267419D01*
X214441503Y-112267419D02*
X214441503Y-111267419D01*
X214441503Y-111267419D02*
X214679598Y-111267419D01*
X214679598Y-111267419D02*
X214822455Y-111315038D01*
X214822455Y-111315038D02*
X214917693Y-111410276D01*
X214917693Y-111410276D02*
X214965312Y-111505514D01*
X214965312Y-111505514D02*
X215012931Y-111695990D01*
X215012931Y-111695990D02*
X215012931Y-111838847D01*
X215012931Y-111838847D02*
X214965312Y-112029323D01*
X214965312Y-112029323D02*
X214917693Y-112124561D01*
X214917693Y-112124561D02*
X214822455Y-112219800D01*
X214822455Y-112219800D02*
X214679598Y-112267419D01*
X214679598Y-112267419D02*
X214441503Y-112267419D01*
X212917693Y-108775038D02*
X212822455Y-108727419D01*
X212822455Y-108727419D02*
X212679598Y-108727419D01*
X212679598Y-108727419D02*
X212536741Y-108775038D01*
X212536741Y-108775038D02*
X212441503Y-108870276D01*
X212441503Y-108870276D02*
X212393884Y-108965514D01*
X212393884Y-108965514D02*
X212346265Y-109155990D01*
X212346265Y-109155990D02*
X212346265Y-109298847D01*
X212346265Y-109298847D02*
X212393884Y-109489323D01*
X212393884Y-109489323D02*
X212441503Y-109584561D01*
X212441503Y-109584561D02*
X212536741Y-109679800D01*
X212536741Y-109679800D02*
X212679598Y-109727419D01*
X212679598Y-109727419D02*
X212774836Y-109727419D01*
X212774836Y-109727419D02*
X212917693Y-109679800D01*
X212917693Y-109679800D02*
X212965312Y-109632180D01*
X212965312Y-109632180D02*
X212965312Y-109298847D01*
X212965312Y-109298847D02*
X212774836Y-109298847D01*
X213393884Y-109727419D02*
X213393884Y-108727419D01*
X213393884Y-108727419D02*
X213965312Y-109727419D01*
X213965312Y-109727419D02*
X213965312Y-108727419D01*
X214441503Y-109727419D02*
X214441503Y-108727419D01*
X214441503Y-108727419D02*
X214679598Y-108727419D01*
X214679598Y-108727419D02*
X214822455Y-108775038D01*
X214822455Y-108775038D02*
X214917693Y-108870276D01*
X214917693Y-108870276D02*
X214965312Y-108965514D01*
X214965312Y-108965514D02*
X215012931Y-109155990D01*
X215012931Y-109155990D02*
X215012931Y-109298847D01*
X215012931Y-109298847D02*
X214965312Y-109489323D01*
X214965312Y-109489323D02*
X214917693Y-109584561D01*
X214917693Y-109584561D02*
X214822455Y-109679800D01*
X214822455Y-109679800D02*
X214679598Y-109727419D01*
X214679598Y-109727419D02*
X214441503Y-109727419D01*
X206250217Y-119236609D02*
X206393074Y-119284228D01*
X206393074Y-119284228D02*
X206440693Y-119331847D01*
X206440693Y-119331847D02*
X206488312Y-119427085D01*
X206488312Y-119427085D02*
X206488312Y-119569942D01*
X206488312Y-119569942D02*
X206440693Y-119665180D01*
X206440693Y-119665180D02*
X206393074Y-119712800D01*
X206393074Y-119712800D02*
X206297836Y-119760419D01*
X206297836Y-119760419D02*
X205916884Y-119760419D01*
X205916884Y-119760419D02*
X205916884Y-118760419D01*
X205916884Y-118760419D02*
X206250217Y-118760419D01*
X206250217Y-118760419D02*
X206345455Y-118808038D01*
X206345455Y-118808038D02*
X206393074Y-118855657D01*
X206393074Y-118855657D02*
X206440693Y-118950895D01*
X206440693Y-118950895D02*
X206440693Y-119046133D01*
X206440693Y-119046133D02*
X206393074Y-119141371D01*
X206393074Y-119141371D02*
X206345455Y-119188990D01*
X206345455Y-119188990D02*
X206250217Y-119236609D01*
X206250217Y-119236609D02*
X205916884Y-119236609D01*
X206916884Y-118760419D02*
X206916884Y-119569942D01*
X206916884Y-119569942D02*
X206964503Y-119665180D01*
X206964503Y-119665180D02*
X207012122Y-119712800D01*
X207012122Y-119712800D02*
X207107360Y-119760419D01*
X207107360Y-119760419D02*
X207297836Y-119760419D01*
X207297836Y-119760419D02*
X207393074Y-119712800D01*
X207393074Y-119712800D02*
X207440693Y-119665180D01*
X207440693Y-119665180D02*
X207488312Y-119569942D01*
X207488312Y-119569942D02*
X207488312Y-118760419D01*
X207821646Y-118760419D02*
X208393074Y-118760419D01*
X208107360Y-119760419D02*
X208107360Y-118760419D01*
X208583551Y-118760419D02*
X209154979Y-118760419D01*
X208869265Y-119760419D02*
X208869265Y-118760419D01*
X209678789Y-118760419D02*
X209869265Y-118760419D01*
X209869265Y-118760419D02*
X209964503Y-118808038D01*
X209964503Y-118808038D02*
X210059741Y-118903276D01*
X210059741Y-118903276D02*
X210107360Y-119093752D01*
X210107360Y-119093752D02*
X210107360Y-119427085D01*
X210107360Y-119427085D02*
X210059741Y-119617561D01*
X210059741Y-119617561D02*
X209964503Y-119712800D01*
X209964503Y-119712800D02*
X209869265Y-119760419D01*
X209869265Y-119760419D02*
X209678789Y-119760419D01*
X209678789Y-119760419D02*
X209583551Y-119712800D01*
X209583551Y-119712800D02*
X209488313Y-119617561D01*
X209488313Y-119617561D02*
X209440694Y-119427085D01*
X209440694Y-119427085D02*
X209440694Y-119093752D01*
X209440694Y-119093752D02*
X209488313Y-118903276D01*
X209488313Y-118903276D02*
X209583551Y-118808038D01*
X209583551Y-118808038D02*
X209678789Y-118760419D01*
X210535932Y-119760419D02*
X210535932Y-118760419D01*
X210535932Y-118760419D02*
X211107360Y-119760419D01*
X211107360Y-119760419D02*
X211107360Y-118760419D01*
X211535932Y-119712800D02*
X211678789Y-119760419D01*
X211678789Y-119760419D02*
X211916884Y-119760419D01*
X211916884Y-119760419D02*
X212012122Y-119712800D01*
X212012122Y-119712800D02*
X212059741Y-119665180D01*
X212059741Y-119665180D02*
X212107360Y-119569942D01*
X212107360Y-119569942D02*
X212107360Y-119474704D01*
X212107360Y-119474704D02*
X212059741Y-119379466D01*
X212059741Y-119379466D02*
X212012122Y-119331847D01*
X212012122Y-119331847D02*
X211916884Y-119284228D01*
X211916884Y-119284228D02*
X211726408Y-119236609D01*
X211726408Y-119236609D02*
X211631170Y-119188990D01*
X211631170Y-119188990D02*
X211583551Y-119141371D01*
X211583551Y-119141371D02*
X211535932Y-119046133D01*
X211535932Y-119046133D02*
X211535932Y-118950895D01*
X211535932Y-118950895D02*
X211583551Y-118855657D01*
X211583551Y-118855657D02*
X211631170Y-118808038D01*
X211631170Y-118808038D02*
X211726408Y-118760419D01*
X211726408Y-118760419D02*
X211964503Y-118760419D01*
X211964503Y-118760419D02*
X212107360Y-118808038D01*
X158752265Y-33967657D02*
X158799884Y-33920038D01*
X158799884Y-33920038D02*
X158895122Y-33872419D01*
X158895122Y-33872419D02*
X159133217Y-33872419D01*
X159133217Y-33872419D02*
X159228455Y-33920038D01*
X159228455Y-33920038D02*
X159276074Y-33967657D01*
X159276074Y-33967657D02*
X159323693Y-34062895D01*
X159323693Y-34062895D02*
X159323693Y-34158133D01*
X159323693Y-34158133D02*
X159276074Y-34300990D01*
X159276074Y-34300990D02*
X158704646Y-34872419D01*
X158704646Y-34872419D02*
X159323693Y-34872419D01*
X160180836Y-34205752D02*
X160180836Y-34872419D01*
X159942741Y-33824800D02*
X159704646Y-34539085D01*
X159704646Y-34539085D02*
X160323693Y-34539085D01*
X160561789Y-33872419D02*
X160895122Y-34872419D01*
X160895122Y-34872419D02*
X161228455Y-33872419D01*
X165340312Y-115982180D02*
X165292693Y-116029800D01*
X165292693Y-116029800D02*
X165149836Y-116077419D01*
X165149836Y-116077419D02*
X165054598Y-116077419D01*
X165054598Y-116077419D02*
X164911741Y-116029800D01*
X164911741Y-116029800D02*
X164816503Y-115934561D01*
X164816503Y-115934561D02*
X164768884Y-115839323D01*
X164768884Y-115839323D02*
X164721265Y-115648847D01*
X164721265Y-115648847D02*
X164721265Y-115505990D01*
X164721265Y-115505990D02*
X164768884Y-115315514D01*
X164768884Y-115315514D02*
X164816503Y-115220276D01*
X164816503Y-115220276D02*
X164911741Y-115125038D01*
X164911741Y-115125038D02*
X165054598Y-115077419D01*
X165054598Y-115077419D02*
X165149836Y-115077419D01*
X165149836Y-115077419D02*
X165292693Y-115125038D01*
X165292693Y-115125038D02*
X165340312Y-115172657D01*
X165959360Y-115077419D02*
X166149836Y-115077419D01*
X166149836Y-115077419D02*
X166245074Y-115125038D01*
X166245074Y-115125038D02*
X166340312Y-115220276D01*
X166340312Y-115220276D02*
X166387931Y-115410752D01*
X166387931Y-115410752D02*
X166387931Y-115744085D01*
X166387931Y-115744085D02*
X166340312Y-115934561D01*
X166340312Y-115934561D02*
X166245074Y-116029800D01*
X166245074Y-116029800D02*
X166149836Y-116077419D01*
X166149836Y-116077419D02*
X165959360Y-116077419D01*
X165959360Y-116077419D02*
X165864122Y-116029800D01*
X165864122Y-116029800D02*
X165768884Y-115934561D01*
X165768884Y-115934561D02*
X165721265Y-115744085D01*
X165721265Y-115744085D02*
X165721265Y-115410752D01*
X165721265Y-115410752D02*
X165768884Y-115220276D01*
X165768884Y-115220276D02*
X165864122Y-115125038D01*
X165864122Y-115125038D02*
X165959360Y-115077419D01*
X166816503Y-116077419D02*
X166816503Y-115077419D01*
X166816503Y-115077419D02*
X167387931Y-116077419D01*
X167387931Y-116077419D02*
X167387931Y-115077419D01*
X167721265Y-115077419D02*
X168292693Y-115077419D01*
X168006979Y-116077419D02*
X168006979Y-115077419D01*
X196471265Y-110711704D02*
X196947455Y-110711704D01*
X196376027Y-110997419D02*
X196709360Y-109997419D01*
X196709360Y-109997419D02*
X197042693Y-110997419D01*
X197899836Y-110997419D02*
X197328408Y-110997419D01*
X197614122Y-110997419D02*
X197614122Y-109997419D01*
X197614122Y-109997419D02*
X197518884Y-110140276D01*
X197518884Y-110140276D02*
X197423646Y-110235514D01*
X197423646Y-110235514D02*
X197328408Y-110283133D01*
X196471265Y-113251704D02*
X196947455Y-113251704D01*
X196376027Y-113537419D02*
X196709360Y-112537419D01*
X196709360Y-112537419D02*
X197042693Y-113537419D01*
X197566503Y-112537419D02*
X197661741Y-112537419D01*
X197661741Y-112537419D02*
X197756979Y-112585038D01*
X197756979Y-112585038D02*
X197804598Y-112632657D01*
X197804598Y-112632657D02*
X197852217Y-112727895D01*
X197852217Y-112727895D02*
X197899836Y-112918371D01*
X197899836Y-112918371D02*
X197899836Y-113156466D01*
X197899836Y-113156466D02*
X197852217Y-113346942D01*
X197852217Y-113346942D02*
X197804598Y-113442180D01*
X197804598Y-113442180D02*
X197756979Y-113489800D01*
X197756979Y-113489800D02*
X197661741Y-113537419D01*
X197661741Y-113537419D02*
X197566503Y-113537419D01*
X197566503Y-113537419D02*
X197471265Y-113489800D01*
X197471265Y-113489800D02*
X197423646Y-113442180D01*
X197423646Y-113442180D02*
X197376027Y-113346942D01*
X197376027Y-113346942D02*
X197328408Y-113156466D01*
X197328408Y-113156466D02*
X197328408Y-112918371D01*
X197328408Y-112918371D02*
X197376027Y-112727895D01*
X197376027Y-112727895D02*
X197423646Y-112632657D01*
X197423646Y-112632657D02*
X197471265Y-112585038D01*
X197471265Y-112585038D02*
X197566503Y-112537419D01*
X166896074Y-112537419D02*
X166419884Y-112537419D01*
X166419884Y-112537419D02*
X166372265Y-113013609D01*
X166372265Y-113013609D02*
X166419884Y-112965990D01*
X166419884Y-112965990D02*
X166515122Y-112918371D01*
X166515122Y-112918371D02*
X166753217Y-112918371D01*
X166753217Y-112918371D02*
X166848455Y-112965990D01*
X166848455Y-112965990D02*
X166896074Y-113013609D01*
X166896074Y-113013609D02*
X166943693Y-113108847D01*
X166943693Y-113108847D02*
X166943693Y-113346942D01*
X166943693Y-113346942D02*
X166896074Y-113442180D01*
X166896074Y-113442180D02*
X166848455Y-113489800D01*
X166848455Y-113489800D02*
X166753217Y-113537419D01*
X166753217Y-113537419D02*
X166515122Y-113537419D01*
X166515122Y-113537419D02*
X166419884Y-113489800D01*
X166419884Y-113489800D02*
X166372265Y-113442180D01*
X167229408Y-112537419D02*
X167562741Y-113537419D01*
X167562741Y-113537419D02*
X167896074Y-112537419D01*
X173658884Y-113537419D02*
X173658884Y-112537419D01*
X173658884Y-112537419D02*
X173896979Y-112537419D01*
X173896979Y-112537419D02*
X174039836Y-112585038D01*
X174039836Y-112585038D02*
X174135074Y-112680276D01*
X174135074Y-112680276D02*
X174182693Y-112775514D01*
X174182693Y-112775514D02*
X174230312Y-112965990D01*
X174230312Y-112965990D02*
X174230312Y-113108847D01*
X174230312Y-113108847D02*
X174182693Y-113299323D01*
X174182693Y-113299323D02*
X174135074Y-113394561D01*
X174135074Y-113394561D02*
X174039836Y-113489800D01*
X174039836Y-113489800D02*
X173896979Y-113537419D01*
X173896979Y-113537419D02*
X173658884Y-113537419D01*
X175135074Y-112537419D02*
X174658884Y-112537419D01*
X174658884Y-112537419D02*
X174611265Y-113013609D01*
X174611265Y-113013609D02*
X174658884Y-112965990D01*
X174658884Y-112965990D02*
X174754122Y-112918371D01*
X174754122Y-112918371D02*
X174992217Y-112918371D01*
X174992217Y-112918371D02*
X175087455Y-112965990D01*
X175087455Y-112965990D02*
X175135074Y-113013609D01*
X175135074Y-113013609D02*
X175182693Y-113108847D01*
X175182693Y-113108847D02*
X175182693Y-113346942D01*
X175182693Y-113346942D02*
X175135074Y-113442180D01*
X175135074Y-113442180D02*
X175087455Y-113489800D01*
X175087455Y-113489800D02*
X174992217Y-113537419D01*
X174992217Y-113537419D02*
X174754122Y-113537419D01*
X174754122Y-113537419D02*
X174658884Y-113489800D01*
X174658884Y-113489800D02*
X174611265Y-113442180D01*
X201217884Y-34872419D02*
X201217884Y-33872419D01*
X201217884Y-33872419D02*
X201598836Y-33872419D01*
X201598836Y-33872419D02*
X201694074Y-33920038D01*
X201694074Y-33920038D02*
X201741693Y-33967657D01*
X201741693Y-33967657D02*
X201789312Y-34062895D01*
X201789312Y-34062895D02*
X201789312Y-34205752D01*
X201789312Y-34205752D02*
X201741693Y-34300990D01*
X201741693Y-34300990D02*
X201694074Y-34348609D01*
X201694074Y-34348609D02*
X201598836Y-34396228D01*
X201598836Y-34396228D02*
X201217884Y-34396228D01*
X202217884Y-33872419D02*
X202217884Y-34681942D01*
X202217884Y-34681942D02*
X202265503Y-34777180D01*
X202265503Y-34777180D02*
X202313122Y-34824800D01*
X202313122Y-34824800D02*
X202408360Y-34872419D01*
X202408360Y-34872419D02*
X202598836Y-34872419D01*
X202598836Y-34872419D02*
X202694074Y-34824800D01*
X202694074Y-34824800D02*
X202741693Y-34777180D01*
X202741693Y-34777180D02*
X202789312Y-34681942D01*
X202789312Y-34681942D02*
X202789312Y-33872419D01*
X203741693Y-34872419D02*
X203265503Y-34872419D01*
X203265503Y-34872419D02*
X203265503Y-33872419D01*
X204027408Y-34824800D02*
X204170265Y-34872419D01*
X204170265Y-34872419D02*
X204408360Y-34872419D01*
X204408360Y-34872419D02*
X204503598Y-34824800D01*
X204503598Y-34824800D02*
X204551217Y-34777180D01*
X204551217Y-34777180D02*
X204598836Y-34681942D01*
X204598836Y-34681942D02*
X204598836Y-34586704D01*
X204598836Y-34586704D02*
X204551217Y-34491466D01*
X204551217Y-34491466D02*
X204503598Y-34443847D01*
X204503598Y-34443847D02*
X204408360Y-34396228D01*
X204408360Y-34396228D02*
X204217884Y-34348609D01*
X204217884Y-34348609D02*
X204122646Y-34300990D01*
X204122646Y-34300990D02*
X204075027Y-34253371D01*
X204075027Y-34253371D02*
X204027408Y-34158133D01*
X204027408Y-34158133D02*
X204027408Y-34062895D01*
X204027408Y-34062895D02*
X204075027Y-33967657D01*
X204075027Y-33967657D02*
X204122646Y-33920038D01*
X204122646Y-33920038D02*
X204217884Y-33872419D01*
X204217884Y-33872419D02*
X204455979Y-33872419D01*
X204455979Y-33872419D02*
X204598836Y-33920038D01*
X205027408Y-34348609D02*
X205360741Y-34348609D01*
X205503598Y-34872419D02*
X205027408Y-34872419D01*
X205027408Y-34872419D02*
X205027408Y-33872419D01*
X205027408Y-33872419D02*
X205503598Y-33872419D01*
X205694075Y-34967657D02*
X206455979Y-34967657D01*
X206694075Y-34348609D02*
X207027408Y-34348609D01*
X207170265Y-34872419D02*
X206694075Y-34872419D01*
X206694075Y-34872419D02*
X206694075Y-33872419D01*
X206694075Y-33872419D02*
X207170265Y-33872419D01*
X208075027Y-34872419D02*
X207598837Y-34872419D01*
X207598837Y-34872419D02*
X207598837Y-33872419D01*
X174928884Y-85597419D02*
X174928884Y-84597419D01*
X174928884Y-84597419D02*
X175166979Y-84597419D01*
X175166979Y-84597419D02*
X175309836Y-84645038D01*
X175309836Y-84645038D02*
X175405074Y-84740276D01*
X175405074Y-84740276D02*
X175452693Y-84835514D01*
X175452693Y-84835514D02*
X175500312Y-85025990D01*
X175500312Y-85025990D02*
X175500312Y-85168847D01*
X175500312Y-85168847D02*
X175452693Y-85359323D01*
X175452693Y-85359323D02*
X175405074Y-85454561D01*
X175405074Y-85454561D02*
X175309836Y-85549800D01*
X175309836Y-85549800D02*
X175166979Y-85597419D01*
X175166979Y-85597419D02*
X174928884Y-85597419D01*
X176452693Y-85597419D02*
X175881265Y-85597419D01*
X176166979Y-85597419D02*
X176166979Y-84597419D01*
X176166979Y-84597419D02*
X176071741Y-84740276D01*
X176071741Y-84740276D02*
X175976503Y-84835514D01*
X175976503Y-84835514D02*
X175881265Y-84883133D01*
X165927693Y-117665038D02*
X165832455Y-117617419D01*
X165832455Y-117617419D02*
X165689598Y-117617419D01*
X165689598Y-117617419D02*
X165546741Y-117665038D01*
X165546741Y-117665038D02*
X165451503Y-117760276D01*
X165451503Y-117760276D02*
X165403884Y-117855514D01*
X165403884Y-117855514D02*
X165356265Y-118045990D01*
X165356265Y-118045990D02*
X165356265Y-118188847D01*
X165356265Y-118188847D02*
X165403884Y-118379323D01*
X165403884Y-118379323D02*
X165451503Y-118474561D01*
X165451503Y-118474561D02*
X165546741Y-118569800D01*
X165546741Y-118569800D02*
X165689598Y-118617419D01*
X165689598Y-118617419D02*
X165784836Y-118617419D01*
X165784836Y-118617419D02*
X165927693Y-118569800D01*
X165927693Y-118569800D02*
X165975312Y-118522180D01*
X165975312Y-118522180D02*
X165975312Y-118188847D01*
X165975312Y-118188847D02*
X165784836Y-118188847D01*
X166403884Y-118617419D02*
X166403884Y-117617419D01*
X166403884Y-117617419D02*
X166975312Y-118617419D01*
X166975312Y-118617419D02*
X166975312Y-117617419D01*
X167451503Y-118617419D02*
X167451503Y-117617419D01*
X167451503Y-117617419D02*
X167689598Y-117617419D01*
X167689598Y-117617419D02*
X167832455Y-117665038D01*
X167832455Y-117665038D02*
X167927693Y-117760276D01*
X167927693Y-117760276D02*
X167975312Y-117855514D01*
X167975312Y-117855514D02*
X168022931Y-118045990D01*
X168022931Y-118045990D02*
X168022931Y-118188847D01*
X168022931Y-118188847D02*
X167975312Y-118379323D01*
X167975312Y-118379323D02*
X167927693Y-118474561D01*
X167927693Y-118474561D02*
X167832455Y-118569800D01*
X167832455Y-118569800D02*
X167689598Y-118617419D01*
X167689598Y-118617419D02*
X167451503Y-118617419D01*
X173658884Y-110997419D02*
X173658884Y-109997419D01*
X173658884Y-109997419D02*
X173896979Y-109997419D01*
X173896979Y-109997419D02*
X174039836Y-110045038D01*
X174039836Y-110045038D02*
X174135074Y-110140276D01*
X174135074Y-110140276D02*
X174182693Y-110235514D01*
X174182693Y-110235514D02*
X174230312Y-110425990D01*
X174230312Y-110425990D02*
X174230312Y-110568847D01*
X174230312Y-110568847D02*
X174182693Y-110759323D01*
X174182693Y-110759323D02*
X174135074Y-110854561D01*
X174135074Y-110854561D02*
X174039836Y-110949800D01*
X174039836Y-110949800D02*
X173896979Y-110997419D01*
X173896979Y-110997419D02*
X173658884Y-110997419D01*
X175087455Y-110330752D02*
X175087455Y-110997419D01*
X174849360Y-109949800D02*
X174611265Y-110664085D01*
X174611265Y-110664085D02*
X175230312Y-110664085D01*
X204138884Y-108727419D02*
X204138884Y-109536942D01*
X204138884Y-109536942D02*
X204186503Y-109632180D01*
X204186503Y-109632180D02*
X204234122Y-109679800D01*
X204234122Y-109679800D02*
X204329360Y-109727419D01*
X204329360Y-109727419D02*
X204519836Y-109727419D01*
X204519836Y-109727419D02*
X204615074Y-109679800D01*
X204615074Y-109679800D02*
X204662693Y-109632180D01*
X204662693Y-109632180D02*
X204710312Y-109536942D01*
X204710312Y-109536942D02*
X204710312Y-108727419D01*
X205186503Y-109727419D02*
X205186503Y-108727419D01*
X205186503Y-108727419D02*
X205567455Y-108727419D01*
X205567455Y-108727419D02*
X205662693Y-108775038D01*
X205662693Y-108775038D02*
X205710312Y-108822657D01*
X205710312Y-108822657D02*
X205757931Y-108917895D01*
X205757931Y-108917895D02*
X205757931Y-109060752D01*
X205757931Y-109060752D02*
X205710312Y-109155990D01*
X205710312Y-109155990D02*
X205662693Y-109203609D01*
X205662693Y-109203609D02*
X205567455Y-109251228D01*
X205567455Y-109251228D02*
X205186503Y-109251228D01*
X203694312Y-114712180D02*
X203646693Y-114759800D01*
X203646693Y-114759800D02*
X203503836Y-114807419D01*
X203503836Y-114807419D02*
X203408598Y-114807419D01*
X203408598Y-114807419D02*
X203265741Y-114759800D01*
X203265741Y-114759800D02*
X203170503Y-114664561D01*
X203170503Y-114664561D02*
X203122884Y-114569323D01*
X203122884Y-114569323D02*
X203075265Y-114378847D01*
X203075265Y-114378847D02*
X203075265Y-114235990D01*
X203075265Y-114235990D02*
X203122884Y-114045514D01*
X203122884Y-114045514D02*
X203170503Y-113950276D01*
X203170503Y-113950276D02*
X203265741Y-113855038D01*
X203265741Y-113855038D02*
X203408598Y-113807419D01*
X203408598Y-113807419D02*
X203503836Y-113807419D01*
X203503836Y-113807419D02*
X203646693Y-113855038D01*
X203646693Y-113855038D02*
X203694312Y-113902657D01*
X204694312Y-114712180D02*
X204646693Y-114759800D01*
X204646693Y-114759800D02*
X204503836Y-114807419D01*
X204503836Y-114807419D02*
X204408598Y-114807419D01*
X204408598Y-114807419D02*
X204265741Y-114759800D01*
X204265741Y-114759800D02*
X204170503Y-114664561D01*
X204170503Y-114664561D02*
X204122884Y-114569323D01*
X204122884Y-114569323D02*
X204075265Y-114378847D01*
X204075265Y-114378847D02*
X204075265Y-114235990D01*
X204075265Y-114235990D02*
X204122884Y-114045514D01*
X204122884Y-114045514D02*
X204170503Y-113950276D01*
X204170503Y-113950276D02*
X204265741Y-113855038D01*
X204265741Y-113855038D02*
X204408598Y-113807419D01*
X204408598Y-113807419D02*
X204503836Y-113807419D01*
X204503836Y-113807419D02*
X204646693Y-113855038D01*
X204646693Y-113855038D02*
X204694312Y-113902657D01*
X205027646Y-113807419D02*
X205265741Y-114807419D01*
X205265741Y-114807419D02*
X205456217Y-114093133D01*
X205456217Y-114093133D02*
X205646693Y-114807419D01*
X205646693Y-114807419D02*
X205884789Y-113807419D01*
X173658884Y-123173609D02*
X173992217Y-123173609D01*
X174135074Y-123697419D02*
X173658884Y-123697419D01*
X173658884Y-123697419D02*
X173658884Y-122697419D01*
X173658884Y-122697419D02*
X174135074Y-122697419D01*
X174563646Y-123697419D02*
X174563646Y-122697419D01*
X174563646Y-122697419D02*
X175135074Y-123697419D01*
X175135074Y-123697419D02*
X175135074Y-122697419D01*
X213098856Y-98803734D02*
X213146475Y-98660877D01*
X213146475Y-98660877D02*
X213146475Y-98422782D01*
X213146475Y-98422782D02*
X213098856Y-98327544D01*
X213098856Y-98327544D02*
X213051236Y-98279925D01*
X213051236Y-98279925D02*
X212955998Y-98232306D01*
X212955998Y-98232306D02*
X212860760Y-98232306D01*
X212860760Y-98232306D02*
X212765522Y-98279925D01*
X212765522Y-98279925D02*
X212717903Y-98327544D01*
X212717903Y-98327544D02*
X212670284Y-98422782D01*
X212670284Y-98422782D02*
X212622665Y-98613258D01*
X212622665Y-98613258D02*
X212575046Y-98708496D01*
X212575046Y-98708496D02*
X212527427Y-98756115D01*
X212527427Y-98756115D02*
X212432189Y-98803734D01*
X212432189Y-98803734D02*
X212336951Y-98803734D01*
X212336951Y-98803734D02*
X212241713Y-98756115D01*
X212241713Y-98756115D02*
X212194094Y-98708496D01*
X212194094Y-98708496D02*
X212146475Y-98613258D01*
X212146475Y-98613258D02*
X212146475Y-98375163D01*
X212146475Y-98375163D02*
X212194094Y-98232306D01*
X213146475Y-97803734D02*
X212146475Y-97803734D01*
X212146475Y-97803734D02*
X212146475Y-97422782D01*
X212146475Y-97422782D02*
X212194094Y-97327544D01*
X212194094Y-97327544D02*
X212241713Y-97279925D01*
X212241713Y-97279925D02*
X212336951Y-97232306D01*
X212336951Y-97232306D02*
X212479808Y-97232306D01*
X212479808Y-97232306D02*
X212575046Y-97279925D01*
X212575046Y-97279925D02*
X212622665Y-97327544D01*
X212622665Y-97327544D02*
X212670284Y-97422782D01*
X212670284Y-97422782D02*
X212670284Y-97803734D01*
X212146475Y-96375163D02*
X212146475Y-96565639D01*
X212146475Y-96565639D02*
X212194094Y-96660877D01*
X212194094Y-96660877D02*
X212241713Y-96708496D01*
X212241713Y-96708496D02*
X212384570Y-96803734D01*
X212384570Y-96803734D02*
X212575046Y-96851353D01*
X212575046Y-96851353D02*
X212955998Y-96851353D01*
X212955998Y-96851353D02*
X213051236Y-96803734D01*
X213051236Y-96803734D02*
X213098856Y-96756115D01*
X213098856Y-96756115D02*
X213146475Y-96660877D01*
X213146475Y-96660877D02*
X213146475Y-96470401D01*
X213146475Y-96470401D02*
X213098856Y-96375163D01*
X213098856Y-96375163D02*
X213051236Y-96327544D01*
X213051236Y-96327544D02*
X212955998Y-96279925D01*
X212955998Y-96279925D02*
X212717903Y-96279925D01*
X212717903Y-96279925D02*
X212622665Y-96327544D01*
X212622665Y-96327544D02*
X212575046Y-96375163D01*
X212575046Y-96375163D02*
X212527427Y-96470401D01*
X212527427Y-96470401D02*
X212527427Y-96660877D01*
X212527427Y-96660877D02*
X212575046Y-96756115D01*
X212575046Y-96756115D02*
X212622665Y-96803734D01*
X212622665Y-96803734D02*
X212717903Y-96851353D01*
X212146475Y-95660877D02*
X212146475Y-95470401D01*
X212146475Y-95470401D02*
X212194094Y-95375163D01*
X212194094Y-95375163D02*
X212289332Y-95279925D01*
X212289332Y-95279925D02*
X212479808Y-95232306D01*
X212479808Y-95232306D02*
X212813141Y-95232306D01*
X212813141Y-95232306D02*
X213003617Y-95279925D01*
X213003617Y-95279925D02*
X213098856Y-95375163D01*
X213098856Y-95375163D02*
X213146475Y-95470401D01*
X213146475Y-95470401D02*
X213146475Y-95660877D01*
X213146475Y-95660877D02*
X213098856Y-95756115D01*
X213098856Y-95756115D02*
X213003617Y-95851353D01*
X213003617Y-95851353D02*
X212813141Y-95898972D01*
X212813141Y-95898972D02*
X212479808Y-95898972D01*
X212479808Y-95898972D02*
X212289332Y-95851353D01*
X212289332Y-95851353D02*
X212194094Y-95756115D01*
X212194094Y-95756115D02*
X212146475Y-95660877D01*
X213146475Y-94803734D02*
X212146475Y-94803734D01*
X212146475Y-94803734D02*
X212860760Y-94470401D01*
X212860760Y-94470401D02*
X212146475Y-94137068D01*
X212146475Y-94137068D02*
X213146475Y-94137068D01*
X213479808Y-92660877D02*
X212051236Y-92660877D01*
X212241713Y-91232305D02*
X212194094Y-91184686D01*
X212194094Y-91184686D02*
X212146475Y-91089448D01*
X212146475Y-91089448D02*
X212146475Y-90851353D01*
X212146475Y-90851353D02*
X212194094Y-90756115D01*
X212194094Y-90756115D02*
X212241713Y-90708496D01*
X212241713Y-90708496D02*
X212336951Y-90660877D01*
X212336951Y-90660877D02*
X212432189Y-90660877D01*
X212432189Y-90660877D02*
X212575046Y-90708496D01*
X212575046Y-90708496D02*
X213146475Y-91279924D01*
X213146475Y-91279924D02*
X213146475Y-90660877D01*
X212146475Y-90041829D02*
X212146475Y-89946591D01*
X212146475Y-89946591D02*
X212194094Y-89851353D01*
X212194094Y-89851353D02*
X212241713Y-89803734D01*
X212241713Y-89803734D02*
X212336951Y-89756115D01*
X212336951Y-89756115D02*
X212527427Y-89708496D01*
X212527427Y-89708496D02*
X212765522Y-89708496D01*
X212765522Y-89708496D02*
X212955998Y-89756115D01*
X212955998Y-89756115D02*
X213051236Y-89803734D01*
X213051236Y-89803734D02*
X213098856Y-89851353D01*
X213098856Y-89851353D02*
X213146475Y-89946591D01*
X213146475Y-89946591D02*
X213146475Y-90041829D01*
X213146475Y-90041829D02*
X213098856Y-90137067D01*
X213098856Y-90137067D02*
X213051236Y-90184686D01*
X213051236Y-90184686D02*
X212955998Y-90232305D01*
X212955998Y-90232305D02*
X212765522Y-90279924D01*
X212765522Y-90279924D02*
X212527427Y-90279924D01*
X212527427Y-90279924D02*
X212336951Y-90232305D01*
X212336951Y-90232305D02*
X212241713Y-90184686D01*
X212241713Y-90184686D02*
X212194094Y-90137067D01*
X212194094Y-90137067D02*
X212146475Y-90041829D01*
X212241713Y-89327543D02*
X212194094Y-89279924D01*
X212194094Y-89279924D02*
X212146475Y-89184686D01*
X212146475Y-89184686D02*
X212146475Y-88946591D01*
X212146475Y-88946591D02*
X212194094Y-88851353D01*
X212194094Y-88851353D02*
X212241713Y-88803734D01*
X212241713Y-88803734D02*
X212336951Y-88756115D01*
X212336951Y-88756115D02*
X212432189Y-88756115D01*
X212432189Y-88756115D02*
X212575046Y-88803734D01*
X212575046Y-88803734D02*
X213146475Y-89375162D01*
X213146475Y-89375162D02*
X213146475Y-88756115D01*
X212479808Y-87898972D02*
X213146475Y-87898972D01*
X212098856Y-88137067D02*
X212813141Y-88375162D01*
X212813141Y-88375162D02*
X212813141Y-87756115D01*
X214756419Y-98184687D02*
X214280228Y-98518020D01*
X214756419Y-98756115D02*
X213756419Y-98756115D01*
X213756419Y-98756115D02*
X213756419Y-98375163D01*
X213756419Y-98375163D02*
X213804038Y-98279925D01*
X213804038Y-98279925D02*
X213851657Y-98232306D01*
X213851657Y-98232306D02*
X213946895Y-98184687D01*
X213946895Y-98184687D02*
X214089752Y-98184687D01*
X214089752Y-98184687D02*
X214184990Y-98232306D01*
X214184990Y-98232306D02*
X214232609Y-98279925D01*
X214232609Y-98279925D02*
X214280228Y-98375163D01*
X214280228Y-98375163D02*
X214280228Y-98756115D01*
X213756419Y-97565639D02*
X213756419Y-97375163D01*
X213756419Y-97375163D02*
X213804038Y-97279925D01*
X213804038Y-97279925D02*
X213899276Y-97184687D01*
X213899276Y-97184687D02*
X214089752Y-97137068D01*
X214089752Y-97137068D02*
X214423085Y-97137068D01*
X214423085Y-97137068D02*
X214613561Y-97184687D01*
X214613561Y-97184687D02*
X214708800Y-97279925D01*
X214708800Y-97279925D02*
X214756419Y-97375163D01*
X214756419Y-97375163D02*
X214756419Y-97565639D01*
X214756419Y-97565639D02*
X214708800Y-97660877D01*
X214708800Y-97660877D02*
X214613561Y-97756115D01*
X214613561Y-97756115D02*
X214423085Y-97803734D01*
X214423085Y-97803734D02*
X214089752Y-97803734D01*
X214089752Y-97803734D02*
X213899276Y-97756115D01*
X213899276Y-97756115D02*
X213804038Y-97660877D01*
X213804038Y-97660877D02*
X213756419Y-97565639D01*
X213756419Y-96851353D02*
X213756419Y-96279925D01*
X214756419Y-96565639D02*
X213756419Y-96565639D01*
X214470704Y-95994210D02*
X214470704Y-95518020D01*
X214756419Y-96089448D02*
X213756419Y-95756115D01*
X213756419Y-95756115D02*
X214756419Y-95422782D01*
X213756419Y-95232305D02*
X213756419Y-94660877D01*
X214756419Y-94946591D02*
X213756419Y-94946591D01*
X213756419Y-94137067D02*
X213756419Y-93946591D01*
X213756419Y-93946591D02*
X213804038Y-93851353D01*
X213804038Y-93851353D02*
X213899276Y-93756115D01*
X213899276Y-93756115D02*
X214089752Y-93708496D01*
X214089752Y-93708496D02*
X214423085Y-93708496D01*
X214423085Y-93708496D02*
X214613561Y-93756115D01*
X214613561Y-93756115D02*
X214708800Y-93851353D01*
X214708800Y-93851353D02*
X214756419Y-93946591D01*
X214756419Y-93946591D02*
X214756419Y-94137067D01*
X214756419Y-94137067D02*
X214708800Y-94232305D01*
X214708800Y-94232305D02*
X214613561Y-94327543D01*
X214613561Y-94327543D02*
X214423085Y-94375162D01*
X214423085Y-94375162D02*
X214089752Y-94375162D01*
X214089752Y-94375162D02*
X213899276Y-94327543D01*
X213899276Y-94327543D02*
X213804038Y-94232305D01*
X213804038Y-94232305D02*
X213756419Y-94137067D01*
X214756419Y-92708496D02*
X214280228Y-93041829D01*
X214756419Y-93279924D02*
X213756419Y-93279924D01*
X213756419Y-93279924D02*
X213756419Y-92898972D01*
X213756419Y-92898972D02*
X213804038Y-92803734D01*
X213804038Y-92803734D02*
X213851657Y-92756115D01*
X213851657Y-92756115D02*
X213946895Y-92708496D01*
X213946895Y-92708496D02*
X214089752Y-92708496D01*
X214089752Y-92708496D02*
X214184990Y-92756115D01*
X214184990Y-92756115D02*
X214232609Y-92803734D01*
X214232609Y-92803734D02*
X214280228Y-92898972D01*
X214280228Y-92898972D02*
X214280228Y-93279924D01*
X214661180Y-90946591D02*
X214708800Y-90994210D01*
X214708800Y-90994210D02*
X214756419Y-91137067D01*
X214756419Y-91137067D02*
X214756419Y-91232305D01*
X214756419Y-91232305D02*
X214708800Y-91375162D01*
X214708800Y-91375162D02*
X214613561Y-91470400D01*
X214613561Y-91470400D02*
X214518323Y-91518019D01*
X214518323Y-91518019D02*
X214327847Y-91565638D01*
X214327847Y-91565638D02*
X214184990Y-91565638D01*
X214184990Y-91565638D02*
X213994514Y-91518019D01*
X213994514Y-91518019D02*
X213899276Y-91470400D01*
X213899276Y-91470400D02*
X213804038Y-91375162D01*
X213804038Y-91375162D02*
X213756419Y-91232305D01*
X213756419Y-91232305D02*
X213756419Y-91137067D01*
X213756419Y-91137067D02*
X213804038Y-90994210D01*
X213804038Y-90994210D02*
X213851657Y-90946591D01*
X213756419Y-90327543D02*
X213756419Y-90137067D01*
X213756419Y-90137067D02*
X213804038Y-90041829D01*
X213804038Y-90041829D02*
X213899276Y-89946591D01*
X213899276Y-89946591D02*
X214089752Y-89898972D01*
X214089752Y-89898972D02*
X214423085Y-89898972D01*
X214423085Y-89898972D02*
X214613561Y-89946591D01*
X214613561Y-89946591D02*
X214708800Y-90041829D01*
X214708800Y-90041829D02*
X214756419Y-90137067D01*
X214756419Y-90137067D02*
X214756419Y-90327543D01*
X214756419Y-90327543D02*
X214708800Y-90422781D01*
X214708800Y-90422781D02*
X214613561Y-90518019D01*
X214613561Y-90518019D02*
X214423085Y-90565638D01*
X214423085Y-90565638D02*
X214089752Y-90565638D01*
X214089752Y-90565638D02*
X213899276Y-90518019D01*
X213899276Y-90518019D02*
X213804038Y-90422781D01*
X213804038Y-90422781D02*
X213756419Y-90327543D01*
X214756419Y-89470400D02*
X213756419Y-89470400D01*
X213756419Y-89470400D02*
X214756419Y-88898972D01*
X214756419Y-88898972D02*
X213756419Y-88898972D01*
X213756419Y-88565638D02*
X213756419Y-87994210D01*
X214756419Y-88279924D02*
X213756419Y-88279924D01*
X214756419Y-87089448D02*
X214280228Y-87422781D01*
X214756419Y-87660876D02*
X213756419Y-87660876D01*
X213756419Y-87660876D02*
X213756419Y-87279924D01*
X213756419Y-87279924D02*
X213804038Y-87184686D01*
X213804038Y-87184686D02*
X213851657Y-87137067D01*
X213851657Y-87137067D02*
X213946895Y-87089448D01*
X213946895Y-87089448D02*
X214089752Y-87089448D01*
X214089752Y-87089448D02*
X214184990Y-87137067D01*
X214184990Y-87137067D02*
X214232609Y-87184686D01*
X214232609Y-87184686D02*
X214280228Y-87279924D01*
X214280228Y-87279924D02*
X214280228Y-87660876D01*
X213756419Y-86470400D02*
X213756419Y-86279924D01*
X213756419Y-86279924D02*
X213804038Y-86184686D01*
X213804038Y-86184686D02*
X213899276Y-86089448D01*
X213899276Y-86089448D02*
X214089752Y-86041829D01*
X214089752Y-86041829D02*
X214423085Y-86041829D01*
X214423085Y-86041829D02*
X214613561Y-86089448D01*
X214613561Y-86089448D02*
X214708800Y-86184686D01*
X214708800Y-86184686D02*
X214756419Y-86279924D01*
X214756419Y-86279924D02*
X214756419Y-86470400D01*
X214756419Y-86470400D02*
X214708800Y-86565638D01*
X214708800Y-86565638D02*
X214613561Y-86660876D01*
X214613561Y-86660876D02*
X214423085Y-86708495D01*
X214423085Y-86708495D02*
X214089752Y-86708495D01*
X214089752Y-86708495D02*
X213899276Y-86660876D01*
X213899276Y-86660876D02*
X213804038Y-86565638D01*
X213804038Y-86565638D02*
X213756419Y-86470400D01*
X214756419Y-85137067D02*
X214756419Y-85613257D01*
X214756419Y-85613257D02*
X213756419Y-85613257D01*
X214756419Y-84327543D02*
X214756419Y-84803733D01*
X214756419Y-84803733D02*
X213756419Y-84803733D01*
X214232609Y-83994209D02*
X214232609Y-83660876D01*
X214756419Y-83518019D02*
X214756419Y-83994209D01*
X214756419Y-83994209D02*
X213756419Y-83994209D01*
X213756419Y-83994209D02*
X213756419Y-83518019D01*
X214756419Y-82518019D02*
X214280228Y-82851352D01*
X214756419Y-83089447D02*
X213756419Y-83089447D01*
X213756419Y-83089447D02*
X213756419Y-82708495D01*
X213756419Y-82708495D02*
X213804038Y-82613257D01*
X213804038Y-82613257D02*
X213851657Y-82565638D01*
X213851657Y-82565638D02*
X213946895Y-82518019D01*
X213946895Y-82518019D02*
X214089752Y-82518019D01*
X214089752Y-82518019D02*
X214184990Y-82565638D01*
X214184990Y-82565638D02*
X214232609Y-82613257D01*
X214232609Y-82613257D02*
X214280228Y-82708495D01*
X214280228Y-82708495D02*
X214280228Y-83089447D01*
X212917693Y-113855038D02*
X212822455Y-113807419D01*
X212822455Y-113807419D02*
X212679598Y-113807419D01*
X212679598Y-113807419D02*
X212536741Y-113855038D01*
X212536741Y-113855038D02*
X212441503Y-113950276D01*
X212441503Y-113950276D02*
X212393884Y-114045514D01*
X212393884Y-114045514D02*
X212346265Y-114235990D01*
X212346265Y-114235990D02*
X212346265Y-114378847D01*
X212346265Y-114378847D02*
X212393884Y-114569323D01*
X212393884Y-114569323D02*
X212441503Y-114664561D01*
X212441503Y-114664561D02*
X212536741Y-114759800D01*
X212536741Y-114759800D02*
X212679598Y-114807419D01*
X212679598Y-114807419D02*
X212774836Y-114807419D01*
X212774836Y-114807419D02*
X212917693Y-114759800D01*
X212917693Y-114759800D02*
X212965312Y-114712180D01*
X212965312Y-114712180D02*
X212965312Y-114378847D01*
X212965312Y-114378847D02*
X212774836Y-114378847D01*
X213393884Y-114807419D02*
X213393884Y-113807419D01*
X213393884Y-113807419D02*
X213965312Y-114807419D01*
X213965312Y-114807419D02*
X213965312Y-113807419D01*
X214441503Y-114807419D02*
X214441503Y-113807419D01*
X214441503Y-113807419D02*
X214679598Y-113807419D01*
X214679598Y-113807419D02*
X214822455Y-113855038D01*
X214822455Y-113855038D02*
X214917693Y-113950276D01*
X214917693Y-113950276D02*
X214965312Y-114045514D01*
X214965312Y-114045514D02*
X215012931Y-114235990D01*
X215012931Y-114235990D02*
X215012931Y-114378847D01*
X215012931Y-114378847D02*
X214965312Y-114569323D01*
X214965312Y-114569323D02*
X214917693Y-114664561D01*
X214917693Y-114664561D02*
X214822455Y-114759800D01*
X214822455Y-114759800D02*
X214679598Y-114807419D01*
X214679598Y-114807419D02*
X214441503Y-114807419D01*
X166896074Y-109997419D02*
X166419884Y-109997419D01*
X166419884Y-109997419D02*
X166372265Y-110473609D01*
X166372265Y-110473609D02*
X166419884Y-110425990D01*
X166419884Y-110425990D02*
X166515122Y-110378371D01*
X166515122Y-110378371D02*
X166753217Y-110378371D01*
X166753217Y-110378371D02*
X166848455Y-110425990D01*
X166848455Y-110425990D02*
X166896074Y-110473609D01*
X166896074Y-110473609D02*
X166943693Y-110568847D01*
X166943693Y-110568847D02*
X166943693Y-110806942D01*
X166943693Y-110806942D02*
X166896074Y-110902180D01*
X166896074Y-110902180D02*
X166848455Y-110949800D01*
X166848455Y-110949800D02*
X166753217Y-110997419D01*
X166753217Y-110997419D02*
X166515122Y-110997419D01*
X166515122Y-110997419D02*
X166419884Y-110949800D01*
X166419884Y-110949800D02*
X166372265Y-110902180D01*
X167229408Y-109997419D02*
X167562741Y-110997419D01*
X167562741Y-110997419D02*
X167896074Y-109997419D01*
X174230312Y-121157419D02*
X173896979Y-120681228D01*
X173658884Y-121157419D02*
X173658884Y-120157419D01*
X173658884Y-120157419D02*
X174039836Y-120157419D01*
X174039836Y-120157419D02*
X174135074Y-120205038D01*
X174135074Y-120205038D02*
X174182693Y-120252657D01*
X174182693Y-120252657D02*
X174230312Y-120347895D01*
X174230312Y-120347895D02*
X174230312Y-120490752D01*
X174230312Y-120490752D02*
X174182693Y-120585990D01*
X174182693Y-120585990D02*
X174135074Y-120633609D01*
X174135074Y-120633609D02*
X174039836Y-120681228D01*
X174039836Y-120681228D02*
X173658884Y-120681228D01*
X174611265Y-121109800D02*
X174754122Y-121157419D01*
X174754122Y-121157419D02*
X174992217Y-121157419D01*
X174992217Y-121157419D02*
X175087455Y-121109800D01*
X175087455Y-121109800D02*
X175135074Y-121062180D01*
X175135074Y-121062180D02*
X175182693Y-120966942D01*
X175182693Y-120966942D02*
X175182693Y-120871704D01*
X175182693Y-120871704D02*
X175135074Y-120776466D01*
X175135074Y-120776466D02*
X175087455Y-120728847D01*
X175087455Y-120728847D02*
X174992217Y-120681228D01*
X174992217Y-120681228D02*
X174801741Y-120633609D01*
X174801741Y-120633609D02*
X174706503Y-120585990D01*
X174706503Y-120585990D02*
X174658884Y-120538371D01*
X174658884Y-120538371D02*
X174611265Y-120443133D01*
X174611265Y-120443133D02*
X174611265Y-120347895D01*
X174611265Y-120347895D02*
X174658884Y-120252657D01*
X174658884Y-120252657D02*
X174706503Y-120205038D01*
X174706503Y-120205038D02*
X174801741Y-120157419D01*
X174801741Y-120157419D02*
X175039836Y-120157419D01*
X175039836Y-120157419D02*
X175182693Y-120205038D01*
X190803884Y-34872419D02*
X190803884Y-33872419D01*
X190803884Y-33872419D02*
X191184836Y-33872419D01*
X191184836Y-33872419D02*
X191280074Y-33920038D01*
X191280074Y-33920038D02*
X191327693Y-33967657D01*
X191327693Y-33967657D02*
X191375312Y-34062895D01*
X191375312Y-34062895D02*
X191375312Y-34205752D01*
X191375312Y-34205752D02*
X191327693Y-34300990D01*
X191327693Y-34300990D02*
X191280074Y-34348609D01*
X191280074Y-34348609D02*
X191184836Y-34396228D01*
X191184836Y-34396228D02*
X190803884Y-34396228D01*
X191803884Y-33872419D02*
X191803884Y-34681942D01*
X191803884Y-34681942D02*
X191851503Y-34777180D01*
X191851503Y-34777180D02*
X191899122Y-34824800D01*
X191899122Y-34824800D02*
X191994360Y-34872419D01*
X191994360Y-34872419D02*
X192184836Y-34872419D01*
X192184836Y-34872419D02*
X192280074Y-34824800D01*
X192280074Y-34824800D02*
X192327693Y-34777180D01*
X192327693Y-34777180D02*
X192375312Y-34681942D01*
X192375312Y-34681942D02*
X192375312Y-33872419D01*
X193327693Y-34872419D02*
X192851503Y-34872419D01*
X192851503Y-34872419D02*
X192851503Y-33872419D01*
X193613408Y-34824800D02*
X193756265Y-34872419D01*
X193756265Y-34872419D02*
X193994360Y-34872419D01*
X193994360Y-34872419D02*
X194089598Y-34824800D01*
X194089598Y-34824800D02*
X194137217Y-34777180D01*
X194137217Y-34777180D02*
X194184836Y-34681942D01*
X194184836Y-34681942D02*
X194184836Y-34586704D01*
X194184836Y-34586704D02*
X194137217Y-34491466D01*
X194137217Y-34491466D02*
X194089598Y-34443847D01*
X194089598Y-34443847D02*
X193994360Y-34396228D01*
X193994360Y-34396228D02*
X193803884Y-34348609D01*
X193803884Y-34348609D02*
X193708646Y-34300990D01*
X193708646Y-34300990D02*
X193661027Y-34253371D01*
X193661027Y-34253371D02*
X193613408Y-34158133D01*
X193613408Y-34158133D02*
X193613408Y-34062895D01*
X193613408Y-34062895D02*
X193661027Y-33967657D01*
X193661027Y-33967657D02*
X193708646Y-33920038D01*
X193708646Y-33920038D02*
X193803884Y-33872419D01*
X193803884Y-33872419D02*
X194041979Y-33872419D01*
X194041979Y-33872419D02*
X194184836Y-33920038D01*
X194613408Y-34348609D02*
X194946741Y-34348609D01*
X195089598Y-34872419D02*
X194613408Y-34872419D01*
X194613408Y-34872419D02*
X194613408Y-33872419D01*
X194613408Y-33872419D02*
X195089598Y-33872419D01*
X195280075Y-34967657D02*
X196041979Y-34967657D01*
X196232456Y-34586704D02*
X196708646Y-34586704D01*
X196137218Y-34872419D02*
X196470551Y-33872419D01*
X196470551Y-33872419D02*
X196803884Y-34872419D01*
X197041980Y-33872419D02*
X197708646Y-33872419D01*
X197708646Y-33872419D02*
X197041980Y-34872419D01*
X197041980Y-34872419D02*
X197708646Y-34872419D01*
D11*
X172386666Y-89924819D02*
X172386666Y-90639104D01*
X172386666Y-90639104D02*
X172339047Y-90781961D01*
X172339047Y-90781961D02*
X172243809Y-90877200D01*
X172243809Y-90877200D02*
X172100952Y-90924819D01*
X172100952Y-90924819D02*
X172005714Y-90924819D01*
X173291428Y-90258152D02*
X173291428Y-90924819D01*
X173053333Y-89877200D02*
X172815238Y-90591485D01*
X172815238Y-90591485D02*
X173434285Y-90591485D01*
X175699405Y-68653819D02*
X175699405Y-67653819D01*
X175699405Y-67653819D02*
X175937500Y-67653819D01*
X175937500Y-67653819D02*
X176080357Y-67701438D01*
X176080357Y-67701438D02*
X176175595Y-67796676D01*
X176175595Y-67796676D02*
X176223214Y-67891914D01*
X176223214Y-67891914D02*
X176270833Y-68082390D01*
X176270833Y-68082390D02*
X176270833Y-68225247D01*
X176270833Y-68225247D02*
X176223214Y-68415723D01*
X176223214Y-68415723D02*
X176175595Y-68510961D01*
X176175595Y-68510961D02*
X176080357Y-68606200D01*
X176080357Y-68606200D02*
X175937500Y-68653819D01*
X175937500Y-68653819D02*
X175699405Y-68653819D01*
X176842262Y-68082390D02*
X176747024Y-68034771D01*
X176747024Y-68034771D02*
X176699405Y-67987152D01*
X176699405Y-67987152D02*
X176651786Y-67891914D01*
X176651786Y-67891914D02*
X176651786Y-67844295D01*
X176651786Y-67844295D02*
X176699405Y-67749057D01*
X176699405Y-67749057D02*
X176747024Y-67701438D01*
X176747024Y-67701438D02*
X176842262Y-67653819D01*
X176842262Y-67653819D02*
X177032738Y-67653819D01*
X177032738Y-67653819D02*
X177127976Y-67701438D01*
X177127976Y-67701438D02*
X177175595Y-67749057D01*
X177175595Y-67749057D02*
X177223214Y-67844295D01*
X177223214Y-67844295D02*
X177223214Y-67891914D01*
X177223214Y-67891914D02*
X177175595Y-67987152D01*
X177175595Y-67987152D02*
X177127976Y-68034771D01*
X177127976Y-68034771D02*
X177032738Y-68082390D01*
X177032738Y-68082390D02*
X176842262Y-68082390D01*
X176842262Y-68082390D02*
X176747024Y-68130009D01*
X176747024Y-68130009D02*
X176699405Y-68177628D01*
X176699405Y-68177628D02*
X176651786Y-68272866D01*
X176651786Y-68272866D02*
X176651786Y-68463342D01*
X176651786Y-68463342D02*
X176699405Y-68558580D01*
X176699405Y-68558580D02*
X176747024Y-68606200D01*
X176747024Y-68606200D02*
X176842262Y-68653819D01*
X176842262Y-68653819D02*
X177032738Y-68653819D01*
X177032738Y-68653819D02*
X177127976Y-68606200D01*
X177127976Y-68606200D02*
X177175595Y-68558580D01*
X177175595Y-68558580D02*
X177223214Y-68463342D01*
X177223214Y-68463342D02*
X177223214Y-68272866D01*
X177223214Y-68272866D02*
X177175595Y-68177628D01*
X177175595Y-68177628D02*
X177127976Y-68130009D01*
X177127976Y-68130009D02*
X177032738Y-68082390D01*
X156156819Y-89574666D02*
X156156819Y-90050856D01*
X156156819Y-90050856D02*
X155156819Y-90050856D01*
X156156819Y-88717523D02*
X156156819Y-89288951D01*
X156156819Y-89003237D02*
X155156819Y-89003237D01*
X155156819Y-89003237D02*
X155299676Y-89098475D01*
X155299676Y-89098475D02*
X155394914Y-89193713D01*
X155394914Y-89193713D02*
X155442533Y-89288951D01*
X166116095Y-75781819D02*
X166116095Y-76591342D01*
X166116095Y-76591342D02*
X166163714Y-76686580D01*
X166163714Y-76686580D02*
X166211333Y-76734200D01*
X166211333Y-76734200D02*
X166306571Y-76781819D01*
X166306571Y-76781819D02*
X166497047Y-76781819D01*
X166497047Y-76781819D02*
X166592285Y-76734200D01*
X166592285Y-76734200D02*
X166639904Y-76686580D01*
X166639904Y-76686580D02*
X166687523Y-76591342D01*
X166687523Y-76591342D02*
X166687523Y-75781819D01*
X167687523Y-76781819D02*
X167116095Y-76781819D01*
X167401809Y-76781819D02*
X167401809Y-75781819D01*
X167401809Y-75781819D02*
X167306571Y-75924676D01*
X167306571Y-75924676D02*
X167211333Y-76019914D01*
X167211333Y-76019914D02*
X167116095Y-76067533D01*
X160488333Y-79039580D02*
X160440714Y-79087200D01*
X160440714Y-79087200D02*
X160297857Y-79134819D01*
X160297857Y-79134819D02*
X160202619Y-79134819D01*
X160202619Y-79134819D02*
X160059762Y-79087200D01*
X160059762Y-79087200D02*
X159964524Y-78991961D01*
X159964524Y-78991961D02*
X159916905Y-78896723D01*
X159916905Y-78896723D02*
X159869286Y-78706247D01*
X159869286Y-78706247D02*
X159869286Y-78563390D01*
X159869286Y-78563390D02*
X159916905Y-78372914D01*
X159916905Y-78372914D02*
X159964524Y-78277676D01*
X159964524Y-78277676D02*
X160059762Y-78182438D01*
X160059762Y-78182438D02*
X160202619Y-78134819D01*
X160202619Y-78134819D02*
X160297857Y-78134819D01*
X160297857Y-78134819D02*
X160440714Y-78182438D01*
X160440714Y-78182438D02*
X160488333Y-78230057D01*
X161440714Y-79134819D02*
X160869286Y-79134819D01*
X161155000Y-79134819D02*
X161155000Y-78134819D01*
X161155000Y-78134819D02*
X161059762Y-78277676D01*
X161059762Y-78277676D02*
X160964524Y-78372914D01*
X160964524Y-78372914D02*
X160869286Y-78420533D01*
X200794642Y-76104819D02*
X200461309Y-75628628D01*
X200223214Y-76104819D02*
X200223214Y-75104819D01*
X200223214Y-75104819D02*
X200604166Y-75104819D01*
X200604166Y-75104819D02*
X200699404Y-75152438D01*
X200699404Y-75152438D02*
X200747023Y-75200057D01*
X200747023Y-75200057D02*
X200794642Y-75295295D01*
X200794642Y-75295295D02*
X200794642Y-75438152D01*
X200794642Y-75438152D02*
X200747023Y-75533390D01*
X200747023Y-75533390D02*
X200699404Y-75581009D01*
X200699404Y-75581009D02*
X200604166Y-75628628D01*
X200604166Y-75628628D02*
X200223214Y-75628628D01*
X201747023Y-76104819D02*
X201175595Y-76104819D01*
X201461309Y-76104819D02*
X201461309Y-75104819D01*
X201461309Y-75104819D02*
X201366071Y-75247676D01*
X201366071Y-75247676D02*
X201270833Y-75342914D01*
X201270833Y-75342914D02*
X201175595Y-75390533D01*
X202080357Y-75104819D02*
X202747023Y-75104819D01*
X202747023Y-75104819D02*
X202318452Y-76104819D01*
X163187142Y-75979819D02*
X162853809Y-75503628D01*
X162615714Y-75979819D02*
X162615714Y-74979819D01*
X162615714Y-74979819D02*
X162996666Y-74979819D01*
X162996666Y-74979819D02*
X163091904Y-75027438D01*
X163091904Y-75027438D02*
X163139523Y-75075057D01*
X163139523Y-75075057D02*
X163187142Y-75170295D01*
X163187142Y-75170295D02*
X163187142Y-75313152D01*
X163187142Y-75313152D02*
X163139523Y-75408390D01*
X163139523Y-75408390D02*
X163091904Y-75456009D01*
X163091904Y-75456009D02*
X162996666Y-75503628D01*
X162996666Y-75503628D02*
X162615714Y-75503628D01*
X164139523Y-75979819D02*
X163568095Y-75979819D01*
X163853809Y-75979819D02*
X163853809Y-74979819D01*
X163853809Y-74979819D02*
X163758571Y-75122676D01*
X163758571Y-75122676D02*
X163663333Y-75217914D01*
X163663333Y-75217914D02*
X163568095Y-75265533D01*
X164996666Y-75313152D02*
X164996666Y-75979819D01*
X164758571Y-74932200D02*
X164520476Y-75646485D01*
X164520476Y-75646485D02*
X165139523Y-75646485D01*
X208208333Y-93004819D02*
X207875000Y-92528628D01*
X207636905Y-93004819D02*
X207636905Y-92004819D01*
X207636905Y-92004819D02*
X208017857Y-92004819D01*
X208017857Y-92004819D02*
X208113095Y-92052438D01*
X208113095Y-92052438D02*
X208160714Y-92100057D01*
X208160714Y-92100057D02*
X208208333Y-92195295D01*
X208208333Y-92195295D02*
X208208333Y-92338152D01*
X208208333Y-92338152D02*
X208160714Y-92433390D01*
X208160714Y-92433390D02*
X208113095Y-92481009D01*
X208113095Y-92481009D02*
X208017857Y-92528628D01*
X208017857Y-92528628D02*
X207636905Y-92528628D01*
X208541667Y-92004819D02*
X209208333Y-92004819D01*
X209208333Y-92004819D02*
X208779762Y-93004819D01*
X169029142Y-75979819D02*
X168695809Y-75503628D01*
X168457714Y-75979819D02*
X168457714Y-74979819D01*
X168457714Y-74979819D02*
X168838666Y-74979819D01*
X168838666Y-74979819D02*
X168933904Y-75027438D01*
X168933904Y-75027438D02*
X168981523Y-75075057D01*
X168981523Y-75075057D02*
X169029142Y-75170295D01*
X169029142Y-75170295D02*
X169029142Y-75313152D01*
X169029142Y-75313152D02*
X168981523Y-75408390D01*
X168981523Y-75408390D02*
X168933904Y-75456009D01*
X168933904Y-75456009D02*
X168838666Y-75503628D01*
X168838666Y-75503628D02*
X168457714Y-75503628D01*
X169981523Y-75979819D02*
X169410095Y-75979819D01*
X169695809Y-75979819D02*
X169695809Y-74979819D01*
X169695809Y-74979819D02*
X169600571Y-75122676D01*
X169600571Y-75122676D02*
X169505333Y-75217914D01*
X169505333Y-75217914D02*
X169410095Y-75265533D01*
X170600571Y-74979819D02*
X170695809Y-74979819D01*
X170695809Y-74979819D02*
X170791047Y-75027438D01*
X170791047Y-75027438D02*
X170838666Y-75075057D01*
X170838666Y-75075057D02*
X170886285Y-75170295D01*
X170886285Y-75170295D02*
X170933904Y-75360771D01*
X170933904Y-75360771D02*
X170933904Y-75598866D01*
X170933904Y-75598866D02*
X170886285Y-75789342D01*
X170886285Y-75789342D02*
X170838666Y-75884580D01*
X170838666Y-75884580D02*
X170791047Y-75932200D01*
X170791047Y-75932200D02*
X170695809Y-75979819D01*
X170695809Y-75979819D02*
X170600571Y-75979819D01*
X170600571Y-75979819D02*
X170505333Y-75932200D01*
X170505333Y-75932200D02*
X170457714Y-75884580D01*
X170457714Y-75884580D02*
X170410095Y-75789342D01*
X170410095Y-75789342D02*
X170362476Y-75598866D01*
X170362476Y-75598866D02*
X170362476Y-75360771D01*
X170362476Y-75360771D02*
X170410095Y-75170295D01*
X170410095Y-75170295D02*
X170457714Y-75075057D01*
X170457714Y-75075057D02*
X170505333Y-75027438D01*
X170505333Y-75027438D02*
X170600571Y-74979819D01*
X203231905Y-57319819D02*
X203231905Y-56319819D01*
X203803333Y-57319819D02*
X203374762Y-56748390D01*
X203803333Y-56319819D02*
X203231905Y-56891247D01*
X204660476Y-56653152D02*
X204660476Y-57319819D01*
X204422381Y-56272200D02*
X204184286Y-56986485D01*
X204184286Y-56986485D02*
X204803333Y-56986485D01*
X162901333Y-102454819D02*
X162568000Y-101978628D01*
X162329905Y-102454819D02*
X162329905Y-101454819D01*
X162329905Y-101454819D02*
X162710857Y-101454819D01*
X162710857Y-101454819D02*
X162806095Y-101502438D01*
X162806095Y-101502438D02*
X162853714Y-101550057D01*
X162853714Y-101550057D02*
X162901333Y-101645295D01*
X162901333Y-101645295D02*
X162901333Y-101788152D01*
X162901333Y-101788152D02*
X162853714Y-101883390D01*
X162853714Y-101883390D02*
X162806095Y-101931009D01*
X162806095Y-101931009D02*
X162710857Y-101978628D01*
X162710857Y-101978628D02*
X162329905Y-101978628D01*
X163758476Y-101788152D02*
X163758476Y-102454819D01*
X163520381Y-101407200D02*
X163282286Y-102121485D01*
X163282286Y-102121485D02*
X163901333Y-102121485D01*
X173333333Y-104954819D02*
X173000000Y-104478628D01*
X172761905Y-104954819D02*
X172761905Y-103954819D01*
X172761905Y-103954819D02*
X173142857Y-103954819D01*
X173142857Y-103954819D02*
X173238095Y-104002438D01*
X173238095Y-104002438D02*
X173285714Y-104050057D01*
X173285714Y-104050057D02*
X173333333Y-104145295D01*
X173333333Y-104145295D02*
X173333333Y-104288152D01*
X173333333Y-104288152D02*
X173285714Y-104383390D01*
X173285714Y-104383390D02*
X173238095Y-104431009D01*
X173238095Y-104431009D02*
X173142857Y-104478628D01*
X173142857Y-104478628D02*
X172761905Y-104478628D01*
X173904762Y-104383390D02*
X173809524Y-104335771D01*
X173809524Y-104335771D02*
X173761905Y-104288152D01*
X173761905Y-104288152D02*
X173714286Y-104192914D01*
X173714286Y-104192914D02*
X173714286Y-104145295D01*
X173714286Y-104145295D02*
X173761905Y-104050057D01*
X173761905Y-104050057D02*
X173809524Y-104002438D01*
X173809524Y-104002438D02*
X173904762Y-103954819D01*
X173904762Y-103954819D02*
X174095238Y-103954819D01*
X174095238Y-103954819D02*
X174190476Y-104002438D01*
X174190476Y-104002438D02*
X174238095Y-104050057D01*
X174238095Y-104050057D02*
X174285714Y-104145295D01*
X174285714Y-104145295D02*
X174285714Y-104192914D01*
X174285714Y-104192914D02*
X174238095Y-104288152D01*
X174238095Y-104288152D02*
X174190476Y-104335771D01*
X174190476Y-104335771D02*
X174095238Y-104383390D01*
X174095238Y-104383390D02*
X173904762Y-104383390D01*
X173904762Y-104383390D02*
X173809524Y-104431009D01*
X173809524Y-104431009D02*
X173761905Y-104478628D01*
X173761905Y-104478628D02*
X173714286Y-104573866D01*
X173714286Y-104573866D02*
X173714286Y-104764342D01*
X173714286Y-104764342D02*
X173761905Y-104859580D01*
X173761905Y-104859580D02*
X173809524Y-104907200D01*
X173809524Y-104907200D02*
X173904762Y-104954819D01*
X173904762Y-104954819D02*
X174095238Y-104954819D01*
X174095238Y-104954819D02*
X174190476Y-104907200D01*
X174190476Y-104907200D02*
X174238095Y-104859580D01*
X174238095Y-104859580D02*
X174285714Y-104764342D01*
X174285714Y-104764342D02*
X174285714Y-104573866D01*
X174285714Y-104573866D02*
X174238095Y-104478628D01*
X174238095Y-104478628D02*
X174190476Y-104431009D01*
X174190476Y-104431009D02*
X174095238Y-104383390D01*
X175794642Y-76104819D02*
X175461309Y-75628628D01*
X175223214Y-76104819D02*
X175223214Y-75104819D01*
X175223214Y-75104819D02*
X175604166Y-75104819D01*
X175604166Y-75104819D02*
X175699404Y-75152438D01*
X175699404Y-75152438D02*
X175747023Y-75200057D01*
X175747023Y-75200057D02*
X175794642Y-75295295D01*
X175794642Y-75295295D02*
X175794642Y-75438152D01*
X175794642Y-75438152D02*
X175747023Y-75533390D01*
X175747023Y-75533390D02*
X175699404Y-75581009D01*
X175699404Y-75581009D02*
X175604166Y-75628628D01*
X175604166Y-75628628D02*
X175223214Y-75628628D01*
X176747023Y-76104819D02*
X176175595Y-76104819D01*
X176461309Y-76104819D02*
X176461309Y-75104819D01*
X176461309Y-75104819D02*
X176366071Y-75247676D01*
X176366071Y-75247676D02*
X176270833Y-75342914D01*
X176270833Y-75342914D02*
X176175595Y-75390533D01*
X177651785Y-75104819D02*
X177175595Y-75104819D01*
X177175595Y-75104819D02*
X177127976Y-75581009D01*
X177127976Y-75581009D02*
X177175595Y-75533390D01*
X177175595Y-75533390D02*
X177270833Y-75485771D01*
X177270833Y-75485771D02*
X177508928Y-75485771D01*
X177508928Y-75485771D02*
X177604166Y-75533390D01*
X177604166Y-75533390D02*
X177651785Y-75581009D01*
X177651785Y-75581009D02*
X177699404Y-75676247D01*
X177699404Y-75676247D02*
X177699404Y-75914342D01*
X177699404Y-75914342D02*
X177651785Y-76009580D01*
X177651785Y-76009580D02*
X177604166Y-76057200D01*
X177604166Y-76057200D02*
X177508928Y-76104819D01*
X177508928Y-76104819D02*
X177270833Y-76104819D01*
X177270833Y-76104819D02*
X177175595Y-76057200D01*
X177175595Y-76057200D02*
X177127976Y-76009580D01*
X163726905Y-68653819D02*
X163726905Y-67653819D01*
X163726905Y-67653819D02*
X163965000Y-67653819D01*
X163965000Y-67653819D02*
X164107857Y-67701438D01*
X164107857Y-67701438D02*
X164203095Y-67796676D01*
X164203095Y-67796676D02*
X164250714Y-67891914D01*
X164250714Y-67891914D02*
X164298333Y-68082390D01*
X164298333Y-68082390D02*
X164298333Y-68225247D01*
X164298333Y-68225247D02*
X164250714Y-68415723D01*
X164250714Y-68415723D02*
X164203095Y-68510961D01*
X164203095Y-68510961D02*
X164107857Y-68606200D01*
X164107857Y-68606200D02*
X163965000Y-68653819D01*
X163965000Y-68653819D02*
X163726905Y-68653819D01*
X164631667Y-67653819D02*
X165298333Y-67653819D01*
X165298333Y-67653819D02*
X164869762Y-68653819D01*
X165581905Y-57319819D02*
X165581905Y-56319819D01*
X166153333Y-57319819D02*
X165724762Y-56748390D01*
X166153333Y-56319819D02*
X165581905Y-56891247D01*
X167105714Y-57319819D02*
X166534286Y-57319819D01*
X166820000Y-57319819D02*
X166820000Y-56319819D01*
X166820000Y-56319819D02*
X166724762Y-56462676D01*
X166724762Y-56462676D02*
X166629524Y-56557914D01*
X166629524Y-56557914D02*
X166534286Y-56605533D01*
X208208333Y-97909580D02*
X208160714Y-97957200D01*
X208160714Y-97957200D02*
X208017857Y-98004819D01*
X208017857Y-98004819D02*
X207922619Y-98004819D01*
X207922619Y-98004819D02*
X207779762Y-97957200D01*
X207779762Y-97957200D02*
X207684524Y-97861961D01*
X207684524Y-97861961D02*
X207636905Y-97766723D01*
X207636905Y-97766723D02*
X207589286Y-97576247D01*
X207589286Y-97576247D02*
X207589286Y-97433390D01*
X207589286Y-97433390D02*
X207636905Y-97242914D01*
X207636905Y-97242914D02*
X207684524Y-97147676D01*
X207684524Y-97147676D02*
X207779762Y-97052438D01*
X207779762Y-97052438D02*
X207922619Y-97004819D01*
X207922619Y-97004819D02*
X208017857Y-97004819D01*
X208017857Y-97004819D02*
X208160714Y-97052438D01*
X208160714Y-97052438D02*
X208208333Y-97100057D01*
X208779762Y-97433390D02*
X208684524Y-97385771D01*
X208684524Y-97385771D02*
X208636905Y-97338152D01*
X208636905Y-97338152D02*
X208589286Y-97242914D01*
X208589286Y-97242914D02*
X208589286Y-97195295D01*
X208589286Y-97195295D02*
X208636905Y-97100057D01*
X208636905Y-97100057D02*
X208684524Y-97052438D01*
X208684524Y-97052438D02*
X208779762Y-97004819D01*
X208779762Y-97004819D02*
X208970238Y-97004819D01*
X208970238Y-97004819D02*
X209065476Y-97052438D01*
X209065476Y-97052438D02*
X209113095Y-97100057D01*
X209113095Y-97100057D02*
X209160714Y-97195295D01*
X209160714Y-97195295D02*
X209160714Y-97242914D01*
X209160714Y-97242914D02*
X209113095Y-97338152D01*
X209113095Y-97338152D02*
X209065476Y-97385771D01*
X209065476Y-97385771D02*
X208970238Y-97433390D01*
X208970238Y-97433390D02*
X208779762Y-97433390D01*
X208779762Y-97433390D02*
X208684524Y-97481009D01*
X208684524Y-97481009D02*
X208636905Y-97528628D01*
X208636905Y-97528628D02*
X208589286Y-97623866D01*
X208589286Y-97623866D02*
X208589286Y-97814342D01*
X208589286Y-97814342D02*
X208636905Y-97909580D01*
X208636905Y-97909580D02*
X208684524Y-97957200D01*
X208684524Y-97957200D02*
X208779762Y-98004819D01*
X208779762Y-98004819D02*
X208970238Y-98004819D01*
X208970238Y-98004819D02*
X209065476Y-97957200D01*
X209065476Y-97957200D02*
X209113095Y-97909580D01*
X209113095Y-97909580D02*
X209160714Y-97814342D01*
X209160714Y-97814342D02*
X209160714Y-97623866D01*
X209160714Y-97623866D02*
X209113095Y-97528628D01*
X209113095Y-97528628D02*
X209065476Y-97481009D01*
X209065476Y-97481009D02*
X208970238Y-97433390D01*
X175553333Y-80618819D02*
X175220000Y-80142628D01*
X174981905Y-80618819D02*
X174981905Y-79618819D01*
X174981905Y-79618819D02*
X175362857Y-79618819D01*
X175362857Y-79618819D02*
X175458095Y-79666438D01*
X175458095Y-79666438D02*
X175505714Y-79714057D01*
X175505714Y-79714057D02*
X175553333Y-79809295D01*
X175553333Y-79809295D02*
X175553333Y-79952152D01*
X175553333Y-79952152D02*
X175505714Y-80047390D01*
X175505714Y-80047390D02*
X175458095Y-80095009D01*
X175458095Y-80095009D02*
X175362857Y-80142628D01*
X175362857Y-80142628D02*
X174981905Y-80142628D01*
X176505714Y-80618819D02*
X175934286Y-80618819D01*
X176220000Y-80618819D02*
X176220000Y-79618819D01*
X176220000Y-79618819D02*
X176124762Y-79761676D01*
X176124762Y-79761676D02*
X176029524Y-79856914D01*
X176029524Y-79856914D02*
X175934286Y-79904533D01*
X151569009Y-53673333D02*
X151569009Y-54006666D01*
X152092819Y-54006666D02*
X151092819Y-54006666D01*
X151092819Y-54006666D02*
X151092819Y-53530476D01*
X152092819Y-52625714D02*
X152092819Y-53197142D01*
X152092819Y-52911428D02*
X151092819Y-52911428D01*
X151092819Y-52911428D02*
X151235676Y-53006666D01*
X151235676Y-53006666D02*
X151330914Y-53101904D01*
X151330914Y-53101904D02*
X151378533Y-53197142D01*
X156381905Y-73019819D02*
X156381905Y-72019819D01*
X156381905Y-72019819D02*
X156620000Y-72019819D01*
X156620000Y-72019819D02*
X156762857Y-72067438D01*
X156762857Y-72067438D02*
X156858095Y-72162676D01*
X156858095Y-72162676D02*
X156905714Y-72257914D01*
X156905714Y-72257914D02*
X156953333Y-72448390D01*
X156953333Y-72448390D02*
X156953333Y-72591247D01*
X156953333Y-72591247D02*
X156905714Y-72781723D01*
X156905714Y-72781723D02*
X156858095Y-72876961D01*
X156858095Y-72876961D02*
X156762857Y-72972200D01*
X156762857Y-72972200D02*
X156620000Y-73019819D01*
X156620000Y-73019819D02*
X156381905Y-73019819D01*
X157905714Y-73019819D02*
X157334286Y-73019819D01*
X157620000Y-73019819D02*
X157620000Y-72019819D01*
X157620000Y-72019819D02*
X157524762Y-72162676D01*
X157524762Y-72162676D02*
X157429524Y-72257914D01*
X157429524Y-72257914D02*
X157334286Y-72305533D01*
X189333333Y-93559580D02*
X189285714Y-93607200D01*
X189285714Y-93607200D02*
X189142857Y-93654819D01*
X189142857Y-93654819D02*
X189047619Y-93654819D01*
X189047619Y-93654819D02*
X188904762Y-93607200D01*
X188904762Y-93607200D02*
X188809524Y-93511961D01*
X188809524Y-93511961D02*
X188761905Y-93416723D01*
X188761905Y-93416723D02*
X188714286Y-93226247D01*
X188714286Y-93226247D02*
X188714286Y-93083390D01*
X188714286Y-93083390D02*
X188761905Y-92892914D01*
X188761905Y-92892914D02*
X188809524Y-92797676D01*
X188809524Y-92797676D02*
X188904762Y-92702438D01*
X188904762Y-92702438D02*
X189047619Y-92654819D01*
X189047619Y-92654819D02*
X189142857Y-92654819D01*
X189142857Y-92654819D02*
X189285714Y-92702438D01*
X189285714Y-92702438D02*
X189333333Y-92750057D01*
X190190476Y-92654819D02*
X190000000Y-92654819D01*
X190000000Y-92654819D02*
X189904762Y-92702438D01*
X189904762Y-92702438D02*
X189857143Y-92750057D01*
X189857143Y-92750057D02*
X189761905Y-92892914D01*
X189761905Y-92892914D02*
X189714286Y-93083390D01*
X189714286Y-93083390D02*
X189714286Y-93464342D01*
X189714286Y-93464342D02*
X189761905Y-93559580D01*
X189761905Y-93559580D02*
X189809524Y-93607200D01*
X189809524Y-93607200D02*
X189904762Y-93654819D01*
X189904762Y-93654819D02*
X190095238Y-93654819D01*
X190095238Y-93654819D02*
X190190476Y-93607200D01*
X190190476Y-93607200D02*
X190238095Y-93559580D01*
X190238095Y-93559580D02*
X190285714Y-93464342D01*
X190285714Y-93464342D02*
X190285714Y-93226247D01*
X190285714Y-93226247D02*
X190238095Y-93131009D01*
X190238095Y-93131009D02*
X190190476Y-93083390D01*
X190190476Y-93083390D02*
X190095238Y-93035771D01*
X190095238Y-93035771D02*
X189904762Y-93035771D01*
X189904762Y-93035771D02*
X189809524Y-93083390D01*
X189809524Y-93083390D02*
X189761905Y-93131009D01*
X189761905Y-93131009D02*
X189714286Y-93226247D01*
X197136905Y-96504819D02*
X197136905Y-95504819D01*
X197136905Y-95504819D02*
X197375000Y-95504819D01*
X197375000Y-95504819D02*
X197517857Y-95552438D01*
X197517857Y-95552438D02*
X197613095Y-95647676D01*
X197613095Y-95647676D02*
X197660714Y-95742914D01*
X197660714Y-95742914D02*
X197708333Y-95933390D01*
X197708333Y-95933390D02*
X197708333Y-96076247D01*
X197708333Y-96076247D02*
X197660714Y-96266723D01*
X197660714Y-96266723D02*
X197613095Y-96361961D01*
X197613095Y-96361961D02*
X197517857Y-96457200D01*
X197517857Y-96457200D02*
X197375000Y-96504819D01*
X197375000Y-96504819D02*
X197136905Y-96504819D01*
X198565476Y-95504819D02*
X198375000Y-95504819D01*
X198375000Y-95504819D02*
X198279762Y-95552438D01*
X198279762Y-95552438D02*
X198232143Y-95600057D01*
X198232143Y-95600057D02*
X198136905Y-95742914D01*
X198136905Y-95742914D02*
X198089286Y-95933390D01*
X198089286Y-95933390D02*
X198089286Y-96314342D01*
X198089286Y-96314342D02*
X198136905Y-96409580D01*
X198136905Y-96409580D02*
X198184524Y-96457200D01*
X198184524Y-96457200D02*
X198279762Y-96504819D01*
X198279762Y-96504819D02*
X198470238Y-96504819D01*
X198470238Y-96504819D02*
X198565476Y-96457200D01*
X198565476Y-96457200D02*
X198613095Y-96409580D01*
X198613095Y-96409580D02*
X198660714Y-96314342D01*
X198660714Y-96314342D02*
X198660714Y-96076247D01*
X198660714Y-96076247D02*
X198613095Y-95981009D01*
X198613095Y-95981009D02*
X198565476Y-95933390D01*
X198565476Y-95933390D02*
X198470238Y-95885771D01*
X198470238Y-95885771D02*
X198279762Y-95885771D01*
X198279762Y-95885771D02*
X198184524Y-95933390D01*
X198184524Y-95933390D02*
X198136905Y-95981009D01*
X198136905Y-95981009D02*
X198089286Y-96076247D01*
X189333333Y-96059580D02*
X189285714Y-96107200D01*
X189285714Y-96107200D02*
X189142857Y-96154819D01*
X189142857Y-96154819D02*
X189047619Y-96154819D01*
X189047619Y-96154819D02*
X188904762Y-96107200D01*
X188904762Y-96107200D02*
X188809524Y-96011961D01*
X188809524Y-96011961D02*
X188761905Y-95916723D01*
X188761905Y-95916723D02*
X188714286Y-95726247D01*
X188714286Y-95726247D02*
X188714286Y-95583390D01*
X188714286Y-95583390D02*
X188761905Y-95392914D01*
X188761905Y-95392914D02*
X188809524Y-95297676D01*
X188809524Y-95297676D02*
X188904762Y-95202438D01*
X188904762Y-95202438D02*
X189047619Y-95154819D01*
X189047619Y-95154819D02*
X189142857Y-95154819D01*
X189142857Y-95154819D02*
X189285714Y-95202438D01*
X189285714Y-95202438D02*
X189333333Y-95250057D01*
X190238095Y-95154819D02*
X189761905Y-95154819D01*
X189761905Y-95154819D02*
X189714286Y-95631009D01*
X189714286Y-95631009D02*
X189761905Y-95583390D01*
X189761905Y-95583390D02*
X189857143Y-95535771D01*
X189857143Y-95535771D02*
X190095238Y-95535771D01*
X190095238Y-95535771D02*
X190190476Y-95583390D01*
X190190476Y-95583390D02*
X190238095Y-95631009D01*
X190238095Y-95631009D02*
X190285714Y-95726247D01*
X190285714Y-95726247D02*
X190285714Y-95964342D01*
X190285714Y-95964342D02*
X190238095Y-96059580D01*
X190238095Y-96059580D02*
X190190476Y-96107200D01*
X190190476Y-96107200D02*
X190095238Y-96154819D01*
X190095238Y-96154819D02*
X189857143Y-96154819D01*
X189857143Y-96154819D02*
X189761905Y-96107200D01*
X189761905Y-96107200D02*
X189714286Y-96059580D01*
X169520905Y-86754819D02*
X169520905Y-85754819D01*
X169520905Y-85754819D02*
X169759000Y-85754819D01*
X169759000Y-85754819D02*
X169901857Y-85802438D01*
X169901857Y-85802438D02*
X169997095Y-85897676D01*
X169997095Y-85897676D02*
X170044714Y-85992914D01*
X170044714Y-85992914D02*
X170092333Y-86183390D01*
X170092333Y-86183390D02*
X170092333Y-86326247D01*
X170092333Y-86326247D02*
X170044714Y-86516723D01*
X170044714Y-86516723D02*
X169997095Y-86611961D01*
X169997095Y-86611961D02*
X169901857Y-86707200D01*
X169901857Y-86707200D02*
X169759000Y-86754819D01*
X169759000Y-86754819D02*
X169520905Y-86754819D01*
X170473286Y-85850057D02*
X170520905Y-85802438D01*
X170520905Y-85802438D02*
X170616143Y-85754819D01*
X170616143Y-85754819D02*
X170854238Y-85754819D01*
X170854238Y-85754819D02*
X170949476Y-85802438D01*
X170949476Y-85802438D02*
X170997095Y-85850057D01*
X170997095Y-85850057D02*
X171044714Y-85945295D01*
X171044714Y-85945295D02*
X171044714Y-86040533D01*
X171044714Y-86040533D02*
X170997095Y-86183390D01*
X170997095Y-86183390D02*
X170425667Y-86754819D01*
X170425667Y-86754819D02*
X171044714Y-86754819D01*
X192732142Y-76004819D02*
X192398809Y-75528628D01*
X192160714Y-76004819D02*
X192160714Y-75004819D01*
X192160714Y-75004819D02*
X192541666Y-75004819D01*
X192541666Y-75004819D02*
X192636904Y-75052438D01*
X192636904Y-75052438D02*
X192684523Y-75100057D01*
X192684523Y-75100057D02*
X192732142Y-75195295D01*
X192732142Y-75195295D02*
X192732142Y-75338152D01*
X192732142Y-75338152D02*
X192684523Y-75433390D01*
X192684523Y-75433390D02*
X192636904Y-75481009D01*
X192636904Y-75481009D02*
X192541666Y-75528628D01*
X192541666Y-75528628D02*
X192160714Y-75528628D01*
X193684523Y-76004819D02*
X193113095Y-76004819D01*
X193398809Y-76004819D02*
X193398809Y-75004819D01*
X193398809Y-75004819D02*
X193303571Y-75147676D01*
X193303571Y-75147676D02*
X193208333Y-75242914D01*
X193208333Y-75242914D02*
X193113095Y-75290533D01*
X194065476Y-75100057D02*
X194113095Y-75052438D01*
X194113095Y-75052438D02*
X194208333Y-75004819D01*
X194208333Y-75004819D02*
X194446428Y-75004819D01*
X194446428Y-75004819D02*
X194541666Y-75052438D01*
X194541666Y-75052438D02*
X194589285Y-75100057D01*
X194589285Y-75100057D02*
X194636904Y-75195295D01*
X194636904Y-75195295D02*
X194636904Y-75290533D01*
X194636904Y-75290533D02*
X194589285Y-75433390D01*
X194589285Y-75433390D02*
X194017857Y-76004819D01*
X194017857Y-76004819D02*
X194636904Y-76004819D01*
X168904761Y-91904819D02*
X168571428Y-91428628D01*
X168333333Y-91904819D02*
X168333333Y-90904819D01*
X168333333Y-90904819D02*
X168714285Y-90904819D01*
X168714285Y-90904819D02*
X168809523Y-90952438D01*
X168809523Y-90952438D02*
X168857142Y-91000057D01*
X168857142Y-91000057D02*
X168904761Y-91095295D01*
X168904761Y-91095295D02*
X168904761Y-91238152D01*
X168904761Y-91238152D02*
X168857142Y-91333390D01*
X168857142Y-91333390D02*
X168809523Y-91381009D01*
X168809523Y-91381009D02*
X168714285Y-91428628D01*
X168714285Y-91428628D02*
X168333333Y-91428628D01*
X169190476Y-90904819D02*
X169523809Y-91904819D01*
X169523809Y-91904819D02*
X169857142Y-90904819D01*
X170142857Y-91000057D02*
X170190476Y-90952438D01*
X170190476Y-90952438D02*
X170285714Y-90904819D01*
X170285714Y-90904819D02*
X170523809Y-90904819D01*
X170523809Y-90904819D02*
X170619047Y-90952438D01*
X170619047Y-90952438D02*
X170666666Y-91000057D01*
X170666666Y-91000057D02*
X170714285Y-91095295D01*
X170714285Y-91095295D02*
X170714285Y-91190533D01*
X170714285Y-91190533D02*
X170666666Y-91333390D01*
X170666666Y-91333390D02*
X170095238Y-91904819D01*
X170095238Y-91904819D02*
X170714285Y-91904819D01*
X170140333Y-84359580D02*
X170092714Y-84407200D01*
X170092714Y-84407200D02*
X169949857Y-84454819D01*
X169949857Y-84454819D02*
X169854619Y-84454819D01*
X169854619Y-84454819D02*
X169711762Y-84407200D01*
X169711762Y-84407200D02*
X169616524Y-84311961D01*
X169616524Y-84311961D02*
X169568905Y-84216723D01*
X169568905Y-84216723D02*
X169521286Y-84026247D01*
X169521286Y-84026247D02*
X169521286Y-83883390D01*
X169521286Y-83883390D02*
X169568905Y-83692914D01*
X169568905Y-83692914D02*
X169616524Y-83597676D01*
X169616524Y-83597676D02*
X169711762Y-83502438D01*
X169711762Y-83502438D02*
X169854619Y-83454819D01*
X169854619Y-83454819D02*
X169949857Y-83454819D01*
X169949857Y-83454819D02*
X170092714Y-83502438D01*
X170092714Y-83502438D02*
X170140333Y-83550057D01*
X170473667Y-83454819D02*
X171092714Y-83454819D01*
X171092714Y-83454819D02*
X170759381Y-83835771D01*
X170759381Y-83835771D02*
X170902238Y-83835771D01*
X170902238Y-83835771D02*
X170997476Y-83883390D01*
X170997476Y-83883390D02*
X171045095Y-83931009D01*
X171045095Y-83931009D02*
X171092714Y-84026247D01*
X171092714Y-84026247D02*
X171092714Y-84264342D01*
X171092714Y-84264342D02*
X171045095Y-84359580D01*
X171045095Y-84359580D02*
X170997476Y-84407200D01*
X170997476Y-84407200D02*
X170902238Y-84454819D01*
X170902238Y-84454819D02*
X170616524Y-84454819D01*
X170616524Y-84454819D02*
X170521286Y-84407200D01*
X170521286Y-84407200D02*
X170473667Y-84359580D01*
X167261905Y-100454819D02*
X167261905Y-99454819D01*
X167261905Y-99454819D02*
X167500000Y-99454819D01*
X167500000Y-99454819D02*
X167642857Y-99502438D01*
X167642857Y-99502438D02*
X167738095Y-99597676D01*
X167738095Y-99597676D02*
X167785714Y-99692914D01*
X167785714Y-99692914D02*
X167833333Y-99883390D01*
X167833333Y-99883390D02*
X167833333Y-100026247D01*
X167833333Y-100026247D02*
X167785714Y-100216723D01*
X167785714Y-100216723D02*
X167738095Y-100311961D01*
X167738095Y-100311961D02*
X167642857Y-100407200D01*
X167642857Y-100407200D02*
X167500000Y-100454819D01*
X167500000Y-100454819D02*
X167261905Y-100454819D01*
X168166667Y-99454819D02*
X168785714Y-99454819D01*
X168785714Y-99454819D02*
X168452381Y-99835771D01*
X168452381Y-99835771D02*
X168595238Y-99835771D01*
X168595238Y-99835771D02*
X168690476Y-99883390D01*
X168690476Y-99883390D02*
X168738095Y-99931009D01*
X168738095Y-99931009D02*
X168785714Y-100026247D01*
X168785714Y-100026247D02*
X168785714Y-100264342D01*
X168785714Y-100264342D02*
X168738095Y-100359580D01*
X168738095Y-100359580D02*
X168690476Y-100407200D01*
X168690476Y-100407200D02*
X168595238Y-100454819D01*
X168595238Y-100454819D02*
X168309524Y-100454819D01*
X168309524Y-100454819D02*
X168214286Y-100407200D01*
X168214286Y-100407200D02*
X168166667Y-100359580D01*
X205294642Y-76104819D02*
X204961309Y-75628628D01*
X204723214Y-76104819D02*
X204723214Y-75104819D01*
X204723214Y-75104819D02*
X205104166Y-75104819D01*
X205104166Y-75104819D02*
X205199404Y-75152438D01*
X205199404Y-75152438D02*
X205247023Y-75200057D01*
X205247023Y-75200057D02*
X205294642Y-75295295D01*
X205294642Y-75295295D02*
X205294642Y-75438152D01*
X205294642Y-75438152D02*
X205247023Y-75533390D01*
X205247023Y-75533390D02*
X205199404Y-75581009D01*
X205199404Y-75581009D02*
X205104166Y-75628628D01*
X205104166Y-75628628D02*
X204723214Y-75628628D01*
X206247023Y-76104819D02*
X205675595Y-76104819D01*
X205961309Y-76104819D02*
X205961309Y-75104819D01*
X205961309Y-75104819D02*
X205866071Y-75247676D01*
X205866071Y-75247676D02*
X205770833Y-75342914D01*
X205770833Y-75342914D02*
X205675595Y-75390533D01*
X206580357Y-75104819D02*
X207199404Y-75104819D01*
X207199404Y-75104819D02*
X206866071Y-75485771D01*
X206866071Y-75485771D02*
X207008928Y-75485771D01*
X207008928Y-75485771D02*
X207104166Y-75533390D01*
X207104166Y-75533390D02*
X207151785Y-75581009D01*
X207151785Y-75581009D02*
X207199404Y-75676247D01*
X207199404Y-75676247D02*
X207199404Y-75914342D01*
X207199404Y-75914342D02*
X207151785Y-76009580D01*
X207151785Y-76009580D02*
X207104166Y-76057200D01*
X207104166Y-76057200D02*
X207008928Y-76104819D01*
X207008928Y-76104819D02*
X206723214Y-76104819D01*
X206723214Y-76104819D02*
X206627976Y-76057200D01*
X206627976Y-76057200D02*
X206580357Y-76009580D01*
X207930761Y-69384057D02*
X207835523Y-69336438D01*
X207835523Y-69336438D02*
X207740285Y-69241200D01*
X207740285Y-69241200D02*
X207597428Y-69098342D01*
X207597428Y-69098342D02*
X207502190Y-69050723D01*
X207502190Y-69050723D02*
X207406952Y-69050723D01*
X207454571Y-69288819D02*
X207359333Y-69241200D01*
X207359333Y-69241200D02*
X207264095Y-69145961D01*
X207264095Y-69145961D02*
X207216476Y-68955485D01*
X207216476Y-68955485D02*
X207216476Y-68622152D01*
X207216476Y-68622152D02*
X207264095Y-68431676D01*
X207264095Y-68431676D02*
X207359333Y-68336438D01*
X207359333Y-68336438D02*
X207454571Y-68288819D01*
X207454571Y-68288819D02*
X207645047Y-68288819D01*
X207645047Y-68288819D02*
X207740285Y-68336438D01*
X207740285Y-68336438D02*
X207835523Y-68431676D01*
X207835523Y-68431676D02*
X207883142Y-68622152D01*
X207883142Y-68622152D02*
X207883142Y-68955485D01*
X207883142Y-68955485D02*
X207835523Y-69145961D01*
X207835523Y-69145961D02*
X207740285Y-69241200D01*
X207740285Y-69241200D02*
X207645047Y-69288819D01*
X207645047Y-69288819D02*
X207454571Y-69288819D01*
X208740285Y-68622152D02*
X208740285Y-69288819D01*
X208502190Y-68241200D02*
X208264095Y-68955485D01*
X208264095Y-68955485D02*
X208883142Y-68955485D01*
X199691666Y-115464819D02*
X199691666Y-116179104D01*
X199691666Y-116179104D02*
X199644047Y-116321961D01*
X199644047Y-116321961D02*
X199548809Y-116417200D01*
X199548809Y-116417200D02*
X199405952Y-116464819D01*
X199405952Y-116464819D02*
X199310714Y-116464819D01*
X200072619Y-115464819D02*
X200691666Y-115464819D01*
X200691666Y-115464819D02*
X200358333Y-115845771D01*
X200358333Y-115845771D02*
X200501190Y-115845771D01*
X200501190Y-115845771D02*
X200596428Y-115893390D01*
X200596428Y-115893390D02*
X200644047Y-115941009D01*
X200644047Y-115941009D02*
X200691666Y-116036247D01*
X200691666Y-116036247D02*
X200691666Y-116274342D01*
X200691666Y-116274342D02*
X200644047Y-116369580D01*
X200644047Y-116369580D02*
X200596428Y-116417200D01*
X200596428Y-116417200D02*
X200501190Y-116464819D01*
X200501190Y-116464819D02*
X200215476Y-116464819D01*
X200215476Y-116464819D02*
X200120238Y-116417200D01*
X200120238Y-116417200D02*
X200072619Y-116369580D01*
X190681905Y-57319819D02*
X190681905Y-56319819D01*
X191253333Y-57319819D02*
X190824762Y-56748390D01*
X191253333Y-56319819D02*
X190681905Y-56891247D01*
X191586667Y-56319819D02*
X192205714Y-56319819D01*
X192205714Y-56319819D02*
X191872381Y-56700771D01*
X191872381Y-56700771D02*
X192015238Y-56700771D01*
X192015238Y-56700771D02*
X192110476Y-56748390D01*
X192110476Y-56748390D02*
X192158095Y-56796009D01*
X192158095Y-56796009D02*
X192205714Y-56891247D01*
X192205714Y-56891247D02*
X192205714Y-57129342D01*
X192205714Y-57129342D02*
X192158095Y-57224580D01*
X192158095Y-57224580D02*
X192110476Y-57272200D01*
X192110476Y-57272200D02*
X192015238Y-57319819D01*
X192015238Y-57319819D02*
X191729524Y-57319819D01*
X191729524Y-57319819D02*
X191634286Y-57272200D01*
X191634286Y-57272200D02*
X191586667Y-57224580D01*
X175553333Y-78354819D02*
X175220000Y-77878628D01*
X174981905Y-78354819D02*
X174981905Y-77354819D01*
X174981905Y-77354819D02*
X175362857Y-77354819D01*
X175362857Y-77354819D02*
X175458095Y-77402438D01*
X175458095Y-77402438D02*
X175505714Y-77450057D01*
X175505714Y-77450057D02*
X175553333Y-77545295D01*
X175553333Y-77545295D02*
X175553333Y-77688152D01*
X175553333Y-77688152D02*
X175505714Y-77783390D01*
X175505714Y-77783390D02*
X175458095Y-77831009D01*
X175458095Y-77831009D02*
X175362857Y-77878628D01*
X175362857Y-77878628D02*
X174981905Y-77878628D01*
X175934286Y-77450057D02*
X175981905Y-77402438D01*
X175981905Y-77402438D02*
X176077143Y-77354819D01*
X176077143Y-77354819D02*
X176315238Y-77354819D01*
X176315238Y-77354819D02*
X176410476Y-77402438D01*
X176410476Y-77402438D02*
X176458095Y-77450057D01*
X176458095Y-77450057D02*
X176505714Y-77545295D01*
X176505714Y-77545295D02*
X176505714Y-77640533D01*
X176505714Y-77640533D02*
X176458095Y-77783390D01*
X176458095Y-77783390D02*
X175886667Y-78354819D01*
X175886667Y-78354819D02*
X176505714Y-78354819D01*
X208208333Y-95504819D02*
X207875000Y-95028628D01*
X207636905Y-95504819D02*
X207636905Y-94504819D01*
X207636905Y-94504819D02*
X208017857Y-94504819D01*
X208017857Y-94504819D02*
X208113095Y-94552438D01*
X208113095Y-94552438D02*
X208160714Y-94600057D01*
X208160714Y-94600057D02*
X208208333Y-94695295D01*
X208208333Y-94695295D02*
X208208333Y-94838152D01*
X208208333Y-94838152D02*
X208160714Y-94933390D01*
X208160714Y-94933390D02*
X208113095Y-94981009D01*
X208113095Y-94981009D02*
X208017857Y-95028628D01*
X208017857Y-95028628D02*
X207636905Y-95028628D01*
X208684524Y-95504819D02*
X208875000Y-95504819D01*
X208875000Y-95504819D02*
X208970238Y-95457200D01*
X208970238Y-95457200D02*
X209017857Y-95409580D01*
X209017857Y-95409580D02*
X209113095Y-95266723D01*
X209113095Y-95266723D02*
X209160714Y-95076247D01*
X209160714Y-95076247D02*
X209160714Y-94695295D01*
X209160714Y-94695295D02*
X209113095Y-94600057D01*
X209113095Y-94600057D02*
X209065476Y-94552438D01*
X209065476Y-94552438D02*
X208970238Y-94504819D01*
X208970238Y-94504819D02*
X208779762Y-94504819D01*
X208779762Y-94504819D02*
X208684524Y-94552438D01*
X208684524Y-94552438D02*
X208636905Y-94600057D01*
X208636905Y-94600057D02*
X208589286Y-94695295D01*
X208589286Y-94695295D02*
X208589286Y-94933390D01*
X208589286Y-94933390D02*
X208636905Y-95028628D01*
X208636905Y-95028628D02*
X208684524Y-95076247D01*
X208684524Y-95076247D02*
X208779762Y-95123866D01*
X208779762Y-95123866D02*
X208970238Y-95123866D01*
X208970238Y-95123866D02*
X209065476Y-95076247D01*
X209065476Y-95076247D02*
X209113095Y-95028628D01*
X209113095Y-95028628D02*
X209160714Y-94933390D01*
X157988333Y-79039580D02*
X157940714Y-79087200D01*
X157940714Y-79087200D02*
X157797857Y-79134819D01*
X157797857Y-79134819D02*
X157702619Y-79134819D01*
X157702619Y-79134819D02*
X157559762Y-79087200D01*
X157559762Y-79087200D02*
X157464524Y-78991961D01*
X157464524Y-78991961D02*
X157416905Y-78896723D01*
X157416905Y-78896723D02*
X157369286Y-78706247D01*
X157369286Y-78706247D02*
X157369286Y-78563390D01*
X157369286Y-78563390D02*
X157416905Y-78372914D01*
X157416905Y-78372914D02*
X157464524Y-78277676D01*
X157464524Y-78277676D02*
X157559762Y-78182438D01*
X157559762Y-78182438D02*
X157702619Y-78134819D01*
X157702619Y-78134819D02*
X157797857Y-78134819D01*
X157797857Y-78134819D02*
X157940714Y-78182438D01*
X157940714Y-78182438D02*
X157988333Y-78230057D01*
X158369286Y-78230057D02*
X158416905Y-78182438D01*
X158416905Y-78182438D02*
X158512143Y-78134819D01*
X158512143Y-78134819D02*
X158750238Y-78134819D01*
X158750238Y-78134819D02*
X158845476Y-78182438D01*
X158845476Y-78182438D02*
X158893095Y-78230057D01*
X158893095Y-78230057D02*
X158940714Y-78325295D01*
X158940714Y-78325295D02*
X158940714Y-78420533D01*
X158940714Y-78420533D02*
X158893095Y-78563390D01*
X158893095Y-78563390D02*
X158321667Y-79134819D01*
X158321667Y-79134819D02*
X158940714Y-79134819D01*
X201536905Y-91004819D02*
X201536905Y-90004819D01*
X201536905Y-90004819D02*
X201775000Y-90004819D01*
X201775000Y-90004819D02*
X201917857Y-90052438D01*
X201917857Y-90052438D02*
X202013095Y-90147676D01*
X202013095Y-90147676D02*
X202060714Y-90242914D01*
X202060714Y-90242914D02*
X202108333Y-90433390D01*
X202108333Y-90433390D02*
X202108333Y-90576247D01*
X202108333Y-90576247D02*
X202060714Y-90766723D01*
X202060714Y-90766723D02*
X202013095Y-90861961D01*
X202013095Y-90861961D02*
X201917857Y-90957200D01*
X201917857Y-90957200D02*
X201775000Y-91004819D01*
X201775000Y-91004819D02*
X201536905Y-91004819D01*
X202965476Y-90338152D02*
X202965476Y-91004819D01*
X202727381Y-89957200D02*
X202489286Y-90671485D01*
X202489286Y-90671485D02*
X203108333Y-90671485D01*
X170592761Y-69130057D02*
X170497523Y-69082438D01*
X170497523Y-69082438D02*
X170402285Y-68987200D01*
X170402285Y-68987200D02*
X170259428Y-68844342D01*
X170259428Y-68844342D02*
X170164190Y-68796723D01*
X170164190Y-68796723D02*
X170068952Y-68796723D01*
X170116571Y-69034819D02*
X170021333Y-68987200D01*
X170021333Y-68987200D02*
X169926095Y-68891961D01*
X169926095Y-68891961D02*
X169878476Y-68701485D01*
X169878476Y-68701485D02*
X169878476Y-68368152D01*
X169878476Y-68368152D02*
X169926095Y-68177676D01*
X169926095Y-68177676D02*
X170021333Y-68082438D01*
X170021333Y-68082438D02*
X170116571Y-68034819D01*
X170116571Y-68034819D02*
X170307047Y-68034819D01*
X170307047Y-68034819D02*
X170402285Y-68082438D01*
X170402285Y-68082438D02*
X170497523Y-68177676D01*
X170497523Y-68177676D02*
X170545142Y-68368152D01*
X170545142Y-68368152D02*
X170545142Y-68701485D01*
X170545142Y-68701485D02*
X170497523Y-68891961D01*
X170497523Y-68891961D02*
X170402285Y-68987200D01*
X170402285Y-68987200D02*
X170307047Y-69034819D01*
X170307047Y-69034819D02*
X170116571Y-69034819D01*
X171497523Y-69034819D02*
X170926095Y-69034819D01*
X171211809Y-69034819D02*
X171211809Y-68034819D01*
X171211809Y-68034819D02*
X171116571Y-68177676D01*
X171116571Y-68177676D02*
X171021333Y-68272914D01*
X171021333Y-68272914D02*
X170926095Y-68320533D01*
X189286666Y-36681819D02*
X189286666Y-37396104D01*
X189286666Y-37396104D02*
X189239047Y-37538961D01*
X189239047Y-37538961D02*
X189143809Y-37634200D01*
X189143809Y-37634200D02*
X189000952Y-37681819D01*
X189000952Y-37681819D02*
X188905714Y-37681819D01*
X189715238Y-36777057D02*
X189762857Y-36729438D01*
X189762857Y-36729438D02*
X189858095Y-36681819D01*
X189858095Y-36681819D02*
X190096190Y-36681819D01*
X190096190Y-36681819D02*
X190191428Y-36729438D01*
X190191428Y-36729438D02*
X190239047Y-36777057D01*
X190239047Y-36777057D02*
X190286666Y-36872295D01*
X190286666Y-36872295D02*
X190286666Y-36967533D01*
X190286666Y-36967533D02*
X190239047Y-37110390D01*
X190239047Y-37110390D02*
X189667619Y-37681819D01*
X189667619Y-37681819D02*
X190286666Y-37681819D01*
X173333333Y-102454819D02*
X173000000Y-101978628D01*
X172761905Y-102454819D02*
X172761905Y-101454819D01*
X172761905Y-101454819D02*
X173142857Y-101454819D01*
X173142857Y-101454819D02*
X173238095Y-101502438D01*
X173238095Y-101502438D02*
X173285714Y-101550057D01*
X173285714Y-101550057D02*
X173333333Y-101645295D01*
X173333333Y-101645295D02*
X173333333Y-101788152D01*
X173333333Y-101788152D02*
X173285714Y-101883390D01*
X173285714Y-101883390D02*
X173238095Y-101931009D01*
X173238095Y-101931009D02*
X173142857Y-101978628D01*
X173142857Y-101978628D02*
X172761905Y-101978628D01*
X174190476Y-101454819D02*
X174000000Y-101454819D01*
X174000000Y-101454819D02*
X173904762Y-101502438D01*
X173904762Y-101502438D02*
X173857143Y-101550057D01*
X173857143Y-101550057D02*
X173761905Y-101692914D01*
X173761905Y-101692914D02*
X173714286Y-101883390D01*
X173714286Y-101883390D02*
X173714286Y-102264342D01*
X173714286Y-102264342D02*
X173761905Y-102359580D01*
X173761905Y-102359580D02*
X173809524Y-102407200D01*
X173809524Y-102407200D02*
X173904762Y-102454819D01*
X173904762Y-102454819D02*
X174095238Y-102454819D01*
X174095238Y-102454819D02*
X174190476Y-102407200D01*
X174190476Y-102407200D02*
X174238095Y-102359580D01*
X174238095Y-102359580D02*
X174285714Y-102264342D01*
X174285714Y-102264342D02*
X174285714Y-102026247D01*
X174285714Y-102026247D02*
X174238095Y-101931009D01*
X174238095Y-101931009D02*
X174190476Y-101883390D01*
X174190476Y-101883390D02*
X174095238Y-101835771D01*
X174095238Y-101835771D02*
X173904762Y-101835771D01*
X173904762Y-101835771D02*
X173809524Y-101883390D01*
X173809524Y-101883390D02*
X173761905Y-101931009D01*
X173761905Y-101931009D02*
X173714286Y-102026247D01*
X162136905Y-105954819D02*
X162136905Y-104954819D01*
X162136905Y-104954819D02*
X162375000Y-104954819D01*
X162375000Y-104954819D02*
X162517857Y-105002438D01*
X162517857Y-105002438D02*
X162613095Y-105097676D01*
X162613095Y-105097676D02*
X162660714Y-105192914D01*
X162660714Y-105192914D02*
X162708333Y-105383390D01*
X162708333Y-105383390D02*
X162708333Y-105526247D01*
X162708333Y-105526247D02*
X162660714Y-105716723D01*
X162660714Y-105716723D02*
X162613095Y-105811961D01*
X162613095Y-105811961D02*
X162517857Y-105907200D01*
X162517857Y-105907200D02*
X162375000Y-105954819D01*
X162375000Y-105954819D02*
X162136905Y-105954819D01*
X163613095Y-104954819D02*
X163136905Y-104954819D01*
X163136905Y-104954819D02*
X163089286Y-105431009D01*
X163089286Y-105431009D02*
X163136905Y-105383390D01*
X163136905Y-105383390D02*
X163232143Y-105335771D01*
X163232143Y-105335771D02*
X163470238Y-105335771D01*
X163470238Y-105335771D02*
X163565476Y-105383390D01*
X163565476Y-105383390D02*
X163613095Y-105431009D01*
X163613095Y-105431009D02*
X163660714Y-105526247D01*
X163660714Y-105526247D02*
X163660714Y-105764342D01*
X163660714Y-105764342D02*
X163613095Y-105859580D01*
X163613095Y-105859580D02*
X163565476Y-105907200D01*
X163565476Y-105907200D02*
X163470238Y-105954819D01*
X163470238Y-105954819D02*
X163232143Y-105954819D01*
X163232143Y-105954819D02*
X163136905Y-105907200D01*
X163136905Y-105907200D02*
X163089286Y-105859580D01*
X195484761Y-69130057D02*
X195389523Y-69082438D01*
X195389523Y-69082438D02*
X195294285Y-68987200D01*
X195294285Y-68987200D02*
X195151428Y-68844342D01*
X195151428Y-68844342D02*
X195056190Y-68796723D01*
X195056190Y-68796723D02*
X194960952Y-68796723D01*
X195008571Y-69034819D02*
X194913333Y-68987200D01*
X194913333Y-68987200D02*
X194818095Y-68891961D01*
X194818095Y-68891961D02*
X194770476Y-68701485D01*
X194770476Y-68701485D02*
X194770476Y-68368152D01*
X194770476Y-68368152D02*
X194818095Y-68177676D01*
X194818095Y-68177676D02*
X194913333Y-68082438D01*
X194913333Y-68082438D02*
X195008571Y-68034819D01*
X195008571Y-68034819D02*
X195199047Y-68034819D01*
X195199047Y-68034819D02*
X195294285Y-68082438D01*
X195294285Y-68082438D02*
X195389523Y-68177676D01*
X195389523Y-68177676D02*
X195437142Y-68368152D01*
X195437142Y-68368152D02*
X195437142Y-68701485D01*
X195437142Y-68701485D02*
X195389523Y-68891961D01*
X195389523Y-68891961D02*
X195294285Y-68987200D01*
X195294285Y-68987200D02*
X195199047Y-69034819D01*
X195199047Y-69034819D02*
X195008571Y-69034819D01*
X195770476Y-68034819D02*
X196389523Y-68034819D01*
X196389523Y-68034819D02*
X196056190Y-68415771D01*
X196056190Y-68415771D02*
X196199047Y-68415771D01*
X196199047Y-68415771D02*
X196294285Y-68463390D01*
X196294285Y-68463390D02*
X196341904Y-68511009D01*
X196341904Y-68511009D02*
X196389523Y-68606247D01*
X196389523Y-68606247D02*
X196389523Y-68844342D01*
X196389523Y-68844342D02*
X196341904Y-68939580D01*
X196341904Y-68939580D02*
X196294285Y-68987200D01*
X196294285Y-68987200D02*
X196199047Y-69034819D01*
X196199047Y-69034819D02*
X195913333Y-69034819D01*
X195913333Y-69034819D02*
X195818095Y-68987200D01*
X195818095Y-68987200D02*
X195770476Y-68939580D01*
X197708333Y-93004819D02*
X197375000Y-92528628D01*
X197136905Y-93004819D02*
X197136905Y-92004819D01*
X197136905Y-92004819D02*
X197517857Y-92004819D01*
X197517857Y-92004819D02*
X197613095Y-92052438D01*
X197613095Y-92052438D02*
X197660714Y-92100057D01*
X197660714Y-92100057D02*
X197708333Y-92195295D01*
X197708333Y-92195295D02*
X197708333Y-92338152D01*
X197708333Y-92338152D02*
X197660714Y-92433390D01*
X197660714Y-92433390D02*
X197613095Y-92481009D01*
X197613095Y-92481009D02*
X197517857Y-92528628D01*
X197517857Y-92528628D02*
X197136905Y-92528628D01*
X198613095Y-92004819D02*
X198136905Y-92004819D01*
X198136905Y-92004819D02*
X198089286Y-92481009D01*
X198089286Y-92481009D02*
X198136905Y-92433390D01*
X198136905Y-92433390D02*
X198232143Y-92385771D01*
X198232143Y-92385771D02*
X198470238Y-92385771D01*
X198470238Y-92385771D02*
X198565476Y-92433390D01*
X198565476Y-92433390D02*
X198613095Y-92481009D01*
X198613095Y-92481009D02*
X198660714Y-92576247D01*
X198660714Y-92576247D02*
X198660714Y-92814342D01*
X198660714Y-92814342D02*
X198613095Y-92909580D01*
X198613095Y-92909580D02*
X198565476Y-92957200D01*
X198565476Y-92957200D02*
X198470238Y-93004819D01*
X198470238Y-93004819D02*
X198232143Y-93004819D01*
X198232143Y-93004819D02*
X198136905Y-92957200D01*
X198136905Y-92957200D02*
X198089286Y-92909580D01*
X180294642Y-76104819D02*
X179961309Y-75628628D01*
X179723214Y-76104819D02*
X179723214Y-75104819D01*
X179723214Y-75104819D02*
X180104166Y-75104819D01*
X180104166Y-75104819D02*
X180199404Y-75152438D01*
X180199404Y-75152438D02*
X180247023Y-75200057D01*
X180247023Y-75200057D02*
X180294642Y-75295295D01*
X180294642Y-75295295D02*
X180294642Y-75438152D01*
X180294642Y-75438152D02*
X180247023Y-75533390D01*
X180247023Y-75533390D02*
X180199404Y-75581009D01*
X180199404Y-75581009D02*
X180104166Y-75628628D01*
X180104166Y-75628628D02*
X179723214Y-75628628D01*
X181247023Y-76104819D02*
X180675595Y-76104819D01*
X180961309Y-76104819D02*
X180961309Y-75104819D01*
X180961309Y-75104819D02*
X180866071Y-75247676D01*
X180866071Y-75247676D02*
X180770833Y-75342914D01*
X180770833Y-75342914D02*
X180675595Y-75390533D01*
X182199404Y-76104819D02*
X181627976Y-76104819D01*
X181913690Y-76104819D02*
X181913690Y-75104819D01*
X181913690Y-75104819D02*
X181818452Y-75247676D01*
X181818452Y-75247676D02*
X181723214Y-75342914D01*
X181723214Y-75342914D02*
X181627976Y-75390533D01*
X200223214Y-68653819D02*
X200223214Y-67653819D01*
X200223214Y-67653819D02*
X200461309Y-67653819D01*
X200461309Y-67653819D02*
X200604166Y-67701438D01*
X200604166Y-67701438D02*
X200699404Y-67796676D01*
X200699404Y-67796676D02*
X200747023Y-67891914D01*
X200747023Y-67891914D02*
X200794642Y-68082390D01*
X200794642Y-68082390D02*
X200794642Y-68225247D01*
X200794642Y-68225247D02*
X200747023Y-68415723D01*
X200747023Y-68415723D02*
X200699404Y-68510961D01*
X200699404Y-68510961D02*
X200604166Y-68606200D01*
X200604166Y-68606200D02*
X200461309Y-68653819D01*
X200461309Y-68653819D02*
X200223214Y-68653819D01*
X201747023Y-68653819D02*
X201175595Y-68653819D01*
X201461309Y-68653819D02*
X201461309Y-67653819D01*
X201461309Y-67653819D02*
X201366071Y-67796676D01*
X201366071Y-67796676D02*
X201270833Y-67891914D01*
X201270833Y-67891914D02*
X201175595Y-67939533D01*
X202366071Y-67653819D02*
X202461309Y-67653819D01*
X202461309Y-67653819D02*
X202556547Y-67701438D01*
X202556547Y-67701438D02*
X202604166Y-67749057D01*
X202604166Y-67749057D02*
X202651785Y-67844295D01*
X202651785Y-67844295D02*
X202699404Y-68034771D01*
X202699404Y-68034771D02*
X202699404Y-68272866D01*
X202699404Y-68272866D02*
X202651785Y-68463342D01*
X202651785Y-68463342D02*
X202604166Y-68558580D01*
X202604166Y-68558580D02*
X202556547Y-68606200D01*
X202556547Y-68606200D02*
X202461309Y-68653819D01*
X202461309Y-68653819D02*
X202366071Y-68653819D01*
X202366071Y-68653819D02*
X202270833Y-68606200D01*
X202270833Y-68606200D02*
X202223214Y-68558580D01*
X202223214Y-68558580D02*
X202175595Y-68463342D01*
X202175595Y-68463342D02*
X202127976Y-68272866D01*
X202127976Y-68272866D02*
X202127976Y-68034771D01*
X202127976Y-68034771D02*
X202175595Y-67844295D01*
X202175595Y-67844295D02*
X202223214Y-67749057D01*
X202223214Y-67749057D02*
X202270833Y-67701438D01*
X202270833Y-67701438D02*
X202366071Y-67653819D01*
X170133333Y-89254819D02*
X169800000Y-88778628D01*
X169561905Y-89254819D02*
X169561905Y-88254819D01*
X169561905Y-88254819D02*
X169942857Y-88254819D01*
X169942857Y-88254819D02*
X170038095Y-88302438D01*
X170038095Y-88302438D02*
X170085714Y-88350057D01*
X170085714Y-88350057D02*
X170133333Y-88445295D01*
X170133333Y-88445295D02*
X170133333Y-88588152D01*
X170133333Y-88588152D02*
X170085714Y-88683390D01*
X170085714Y-88683390D02*
X170038095Y-88731009D01*
X170038095Y-88731009D02*
X169942857Y-88778628D01*
X169942857Y-88778628D02*
X169561905Y-88778628D01*
X170466667Y-88254819D02*
X171085714Y-88254819D01*
X171085714Y-88254819D02*
X170752381Y-88635771D01*
X170752381Y-88635771D02*
X170895238Y-88635771D01*
X170895238Y-88635771D02*
X170990476Y-88683390D01*
X170990476Y-88683390D02*
X171038095Y-88731009D01*
X171038095Y-88731009D02*
X171085714Y-88826247D01*
X171085714Y-88826247D02*
X171085714Y-89064342D01*
X171085714Y-89064342D02*
X171038095Y-89159580D01*
X171038095Y-89159580D02*
X170990476Y-89207200D01*
X170990476Y-89207200D02*
X170895238Y-89254819D01*
X170895238Y-89254819D02*
X170609524Y-89254819D01*
X170609524Y-89254819D02*
X170514286Y-89207200D01*
X170514286Y-89207200D02*
X170466667Y-89159580D01*
X159384761Y-109529819D02*
X159051428Y-109053628D01*
X158813333Y-109529819D02*
X158813333Y-108529819D01*
X158813333Y-108529819D02*
X159194285Y-108529819D01*
X159194285Y-108529819D02*
X159289523Y-108577438D01*
X159289523Y-108577438D02*
X159337142Y-108625057D01*
X159337142Y-108625057D02*
X159384761Y-108720295D01*
X159384761Y-108720295D02*
X159384761Y-108863152D01*
X159384761Y-108863152D02*
X159337142Y-108958390D01*
X159337142Y-108958390D02*
X159289523Y-109006009D01*
X159289523Y-109006009D02*
X159194285Y-109053628D01*
X159194285Y-109053628D02*
X158813333Y-109053628D01*
X159670476Y-108529819D02*
X160003809Y-109529819D01*
X160003809Y-109529819D02*
X160337142Y-108529819D01*
X161194285Y-109529819D02*
X160622857Y-109529819D01*
X160908571Y-109529819D02*
X160908571Y-108529819D01*
X160908571Y-108529819D02*
X160813333Y-108672676D01*
X160813333Y-108672676D02*
X160718095Y-108767914D01*
X160718095Y-108767914D02*
X160622857Y-108815533D01*
X185405714Y-85005104D02*
X185881904Y-85005104D01*
X185310476Y-85290819D02*
X185643809Y-84290819D01*
X185643809Y-84290819D02*
X185977142Y-85290819D01*
X186834285Y-85290819D02*
X186262857Y-85290819D01*
X186548571Y-85290819D02*
X186548571Y-84290819D01*
X186548571Y-84290819D02*
X186453333Y-84433676D01*
X186453333Y-84433676D02*
X186358095Y-84528914D01*
X186358095Y-84528914D02*
X186262857Y-84576533D01*
X184858095Y-120214819D02*
X184858095Y-121024342D01*
X184858095Y-121024342D02*
X184905714Y-121119580D01*
X184905714Y-121119580D02*
X184953333Y-121167200D01*
X184953333Y-121167200D02*
X185048571Y-121214819D01*
X185048571Y-121214819D02*
X185239047Y-121214819D01*
X185239047Y-121214819D02*
X185334285Y-121167200D01*
X185334285Y-121167200D02*
X185381904Y-121119580D01*
X185381904Y-121119580D02*
X185429523Y-121024342D01*
X185429523Y-121024342D02*
X185429523Y-120214819D01*
X185858095Y-121167200D02*
X186000952Y-121214819D01*
X186000952Y-121214819D02*
X186239047Y-121214819D01*
X186239047Y-121214819D02*
X186334285Y-121167200D01*
X186334285Y-121167200D02*
X186381904Y-121119580D01*
X186381904Y-121119580D02*
X186429523Y-121024342D01*
X186429523Y-121024342D02*
X186429523Y-120929104D01*
X186429523Y-120929104D02*
X186381904Y-120833866D01*
X186381904Y-120833866D02*
X186334285Y-120786247D01*
X186334285Y-120786247D02*
X186239047Y-120738628D01*
X186239047Y-120738628D02*
X186048571Y-120691009D01*
X186048571Y-120691009D02*
X185953333Y-120643390D01*
X185953333Y-120643390D02*
X185905714Y-120595771D01*
X185905714Y-120595771D02*
X185858095Y-120500533D01*
X185858095Y-120500533D02*
X185858095Y-120405295D01*
X185858095Y-120405295D02*
X185905714Y-120310057D01*
X185905714Y-120310057D02*
X185953333Y-120262438D01*
X185953333Y-120262438D02*
X186048571Y-120214819D01*
X186048571Y-120214819D02*
X186286666Y-120214819D01*
X186286666Y-120214819D02*
X186429523Y-120262438D01*
X187191428Y-120691009D02*
X187334285Y-120738628D01*
X187334285Y-120738628D02*
X187381904Y-120786247D01*
X187381904Y-120786247D02*
X187429523Y-120881485D01*
X187429523Y-120881485D02*
X187429523Y-121024342D01*
X187429523Y-121024342D02*
X187381904Y-121119580D01*
X187381904Y-121119580D02*
X187334285Y-121167200D01*
X187334285Y-121167200D02*
X187239047Y-121214819D01*
X187239047Y-121214819D02*
X186858095Y-121214819D01*
X186858095Y-121214819D02*
X186858095Y-120214819D01*
X186858095Y-120214819D02*
X187191428Y-120214819D01*
X187191428Y-120214819D02*
X187286666Y-120262438D01*
X187286666Y-120262438D02*
X187334285Y-120310057D01*
X187334285Y-120310057D02*
X187381904Y-120405295D01*
X187381904Y-120405295D02*
X187381904Y-120500533D01*
X187381904Y-120500533D02*
X187334285Y-120595771D01*
X187334285Y-120595771D02*
X187286666Y-120643390D01*
X187286666Y-120643390D02*
X187191428Y-120691009D01*
X187191428Y-120691009D02*
X186858095Y-120691009D01*
X188199405Y-68653819D02*
X188199405Y-67653819D01*
X188199405Y-67653819D02*
X188437500Y-67653819D01*
X188437500Y-67653819D02*
X188580357Y-67701438D01*
X188580357Y-67701438D02*
X188675595Y-67796676D01*
X188675595Y-67796676D02*
X188723214Y-67891914D01*
X188723214Y-67891914D02*
X188770833Y-68082390D01*
X188770833Y-68082390D02*
X188770833Y-68225247D01*
X188770833Y-68225247D02*
X188723214Y-68415723D01*
X188723214Y-68415723D02*
X188675595Y-68510961D01*
X188675595Y-68510961D02*
X188580357Y-68606200D01*
X188580357Y-68606200D02*
X188437500Y-68653819D01*
X188437500Y-68653819D02*
X188199405Y-68653819D01*
X189247024Y-68653819D02*
X189437500Y-68653819D01*
X189437500Y-68653819D02*
X189532738Y-68606200D01*
X189532738Y-68606200D02*
X189580357Y-68558580D01*
X189580357Y-68558580D02*
X189675595Y-68415723D01*
X189675595Y-68415723D02*
X189723214Y-68225247D01*
X189723214Y-68225247D02*
X189723214Y-67844295D01*
X189723214Y-67844295D02*
X189675595Y-67749057D01*
X189675595Y-67749057D02*
X189627976Y-67701438D01*
X189627976Y-67701438D02*
X189532738Y-67653819D01*
X189532738Y-67653819D02*
X189342262Y-67653819D01*
X189342262Y-67653819D02*
X189247024Y-67701438D01*
X189247024Y-67701438D02*
X189199405Y-67749057D01*
X189199405Y-67749057D02*
X189151786Y-67844295D01*
X189151786Y-67844295D02*
X189151786Y-68082390D01*
X189151786Y-68082390D02*
X189199405Y-68177628D01*
X189199405Y-68177628D02*
X189247024Y-68225247D01*
X189247024Y-68225247D02*
X189342262Y-68272866D01*
X189342262Y-68272866D02*
X189532738Y-68272866D01*
X189532738Y-68272866D02*
X189627976Y-68225247D01*
X189627976Y-68225247D02*
X189675595Y-68177628D01*
X189675595Y-68177628D02*
X189723214Y-68082390D01*
X178131905Y-57319819D02*
X178131905Y-56319819D01*
X178703333Y-57319819D02*
X178274762Y-56748390D01*
X178703333Y-56319819D02*
X178131905Y-56891247D01*
X179084286Y-56415057D02*
X179131905Y-56367438D01*
X179131905Y-56367438D02*
X179227143Y-56319819D01*
X179227143Y-56319819D02*
X179465238Y-56319819D01*
X179465238Y-56319819D02*
X179560476Y-56367438D01*
X179560476Y-56367438D02*
X179608095Y-56415057D01*
X179608095Y-56415057D02*
X179655714Y-56510295D01*
X179655714Y-56510295D02*
X179655714Y-56605533D01*
X179655714Y-56605533D02*
X179608095Y-56748390D01*
X179608095Y-56748390D02*
X179036667Y-57319819D01*
X179036667Y-57319819D02*
X179655714Y-57319819D01*
X173333333Y-107359580D02*
X173285714Y-107407200D01*
X173285714Y-107407200D02*
X173142857Y-107454819D01*
X173142857Y-107454819D02*
X173047619Y-107454819D01*
X173047619Y-107454819D02*
X172904762Y-107407200D01*
X172904762Y-107407200D02*
X172809524Y-107311961D01*
X172809524Y-107311961D02*
X172761905Y-107216723D01*
X172761905Y-107216723D02*
X172714286Y-107026247D01*
X172714286Y-107026247D02*
X172714286Y-106883390D01*
X172714286Y-106883390D02*
X172761905Y-106692914D01*
X172761905Y-106692914D02*
X172809524Y-106597676D01*
X172809524Y-106597676D02*
X172904762Y-106502438D01*
X172904762Y-106502438D02*
X173047619Y-106454819D01*
X173047619Y-106454819D02*
X173142857Y-106454819D01*
X173142857Y-106454819D02*
X173285714Y-106502438D01*
X173285714Y-106502438D02*
X173333333Y-106550057D01*
X173666667Y-106454819D02*
X174333333Y-106454819D01*
X174333333Y-106454819D02*
X173904762Y-107454819D01*
X201779761Y-82304819D02*
X201446428Y-81828628D01*
X201208333Y-82304819D02*
X201208333Y-81304819D01*
X201208333Y-81304819D02*
X201589285Y-81304819D01*
X201589285Y-81304819D02*
X201684523Y-81352438D01*
X201684523Y-81352438D02*
X201732142Y-81400057D01*
X201732142Y-81400057D02*
X201779761Y-81495295D01*
X201779761Y-81495295D02*
X201779761Y-81638152D01*
X201779761Y-81638152D02*
X201732142Y-81733390D01*
X201732142Y-81733390D02*
X201684523Y-81781009D01*
X201684523Y-81781009D02*
X201589285Y-81828628D01*
X201589285Y-81828628D02*
X201208333Y-81828628D01*
X202065476Y-81304819D02*
X202398809Y-82304819D01*
X202398809Y-82304819D02*
X202732142Y-81304819D01*
X202970238Y-81304819D02*
X203589285Y-81304819D01*
X203589285Y-81304819D02*
X203255952Y-81685771D01*
X203255952Y-81685771D02*
X203398809Y-81685771D01*
X203398809Y-81685771D02*
X203494047Y-81733390D01*
X203494047Y-81733390D02*
X203541666Y-81781009D01*
X203541666Y-81781009D02*
X203589285Y-81876247D01*
X203589285Y-81876247D02*
X203589285Y-82114342D01*
X203589285Y-82114342D02*
X203541666Y-82209580D01*
X203541666Y-82209580D02*
X203494047Y-82257200D01*
X203494047Y-82257200D02*
X203398809Y-82304819D01*
X203398809Y-82304819D02*
X203113095Y-82304819D01*
X203113095Y-82304819D02*
X203017857Y-82257200D01*
X203017857Y-82257200D02*
X202970238Y-82209580D01*
X188232142Y-76004819D02*
X187898809Y-75528628D01*
X187660714Y-76004819D02*
X187660714Y-75004819D01*
X187660714Y-75004819D02*
X188041666Y-75004819D01*
X188041666Y-75004819D02*
X188136904Y-75052438D01*
X188136904Y-75052438D02*
X188184523Y-75100057D01*
X188184523Y-75100057D02*
X188232142Y-75195295D01*
X188232142Y-75195295D02*
X188232142Y-75338152D01*
X188232142Y-75338152D02*
X188184523Y-75433390D01*
X188184523Y-75433390D02*
X188136904Y-75481009D01*
X188136904Y-75481009D02*
X188041666Y-75528628D01*
X188041666Y-75528628D02*
X187660714Y-75528628D01*
X189184523Y-76004819D02*
X188613095Y-76004819D01*
X188898809Y-76004819D02*
X188898809Y-75004819D01*
X188898809Y-75004819D02*
X188803571Y-75147676D01*
X188803571Y-75147676D02*
X188708333Y-75242914D01*
X188708333Y-75242914D02*
X188613095Y-75290533D01*
X190041666Y-75004819D02*
X189851190Y-75004819D01*
X189851190Y-75004819D02*
X189755952Y-75052438D01*
X189755952Y-75052438D02*
X189708333Y-75100057D01*
X189708333Y-75100057D02*
X189613095Y-75242914D01*
X189613095Y-75242914D02*
X189565476Y-75433390D01*
X189565476Y-75433390D02*
X189565476Y-75814342D01*
X189565476Y-75814342D02*
X189613095Y-75909580D01*
X189613095Y-75909580D02*
X189660714Y-75957200D01*
X189660714Y-75957200D02*
X189755952Y-76004819D01*
X189755952Y-76004819D02*
X189946428Y-76004819D01*
X189946428Y-76004819D02*
X190041666Y-75957200D01*
X190041666Y-75957200D02*
X190089285Y-75909580D01*
X190089285Y-75909580D02*
X190136904Y-75814342D01*
X190136904Y-75814342D02*
X190136904Y-75576247D01*
X190136904Y-75576247D02*
X190089285Y-75481009D01*
X190089285Y-75481009D02*
X190041666Y-75433390D01*
X190041666Y-75433390D02*
X189946428Y-75385771D01*
X189946428Y-75385771D02*
X189755952Y-75385771D01*
X189755952Y-75385771D02*
X189660714Y-75433390D01*
X189660714Y-75433390D02*
X189613095Y-75481009D01*
X189613095Y-75481009D02*
X189565476Y-75576247D01*
X182784761Y-69130057D02*
X182689523Y-69082438D01*
X182689523Y-69082438D02*
X182594285Y-68987200D01*
X182594285Y-68987200D02*
X182451428Y-68844342D01*
X182451428Y-68844342D02*
X182356190Y-68796723D01*
X182356190Y-68796723D02*
X182260952Y-68796723D01*
X182308571Y-69034819D02*
X182213333Y-68987200D01*
X182213333Y-68987200D02*
X182118095Y-68891961D01*
X182118095Y-68891961D02*
X182070476Y-68701485D01*
X182070476Y-68701485D02*
X182070476Y-68368152D01*
X182070476Y-68368152D02*
X182118095Y-68177676D01*
X182118095Y-68177676D02*
X182213333Y-68082438D01*
X182213333Y-68082438D02*
X182308571Y-68034819D01*
X182308571Y-68034819D02*
X182499047Y-68034819D01*
X182499047Y-68034819D02*
X182594285Y-68082438D01*
X182594285Y-68082438D02*
X182689523Y-68177676D01*
X182689523Y-68177676D02*
X182737142Y-68368152D01*
X182737142Y-68368152D02*
X182737142Y-68701485D01*
X182737142Y-68701485D02*
X182689523Y-68891961D01*
X182689523Y-68891961D02*
X182594285Y-68987200D01*
X182594285Y-68987200D02*
X182499047Y-69034819D01*
X182499047Y-69034819D02*
X182308571Y-69034819D01*
X183118095Y-68130057D02*
X183165714Y-68082438D01*
X183165714Y-68082438D02*
X183260952Y-68034819D01*
X183260952Y-68034819D02*
X183499047Y-68034819D01*
X183499047Y-68034819D02*
X183594285Y-68082438D01*
X183594285Y-68082438D02*
X183641904Y-68130057D01*
X183641904Y-68130057D02*
X183689523Y-68225295D01*
X183689523Y-68225295D02*
X183689523Y-68320533D01*
X183689523Y-68320533D02*
X183641904Y-68463390D01*
X183641904Y-68463390D02*
X183070476Y-69034819D01*
X183070476Y-69034819D02*
X183689523Y-69034819D01*
D12*
%TO.C,J4*%
X171390000Y-86430000D02*
X171390000Y-83830000D01*
X171390000Y-89030000D02*
X171390000Y-87700000D01*
X172720000Y-89030000D02*
X171390000Y-89030000D01*
X174050000Y-83830000D02*
X171390000Y-83830000D01*
X174050000Y-86430000D02*
X171390000Y-86430000D01*
X174050000Y-86430000D02*
X174050000Y-83830000D01*
%TO.C,D8*%
X176437500Y-68890000D02*
X175787500Y-68890000D01*
X176437500Y-68890000D02*
X177087500Y-68890000D01*
X176437500Y-72010000D02*
X175787500Y-72010000D01*
X176437500Y-72010000D02*
X177087500Y-72010000D01*
X175275000Y-68940000D02*
X175035000Y-68610000D01*
X175515000Y-68610000D01*
X175275000Y-68940000D01*
G36*
X175275000Y-68940000D02*
G01*
X175035000Y-68610000D01*
X175515000Y-68610000D01*
X175275000Y-68940000D01*
G37*
%TO.C,L1*%
X156955000Y-85835000D02*
X159255000Y-85835000D01*
X156955000Y-93235000D02*
X156955000Y-85835000D01*
X159255000Y-93235000D02*
X156955000Y-93235000D01*
X162055000Y-85835000D02*
X164355000Y-85835000D01*
X164355000Y-85835000D02*
X164355000Y-93235000D01*
X164355000Y-93235000D02*
X162055000Y-93235000D01*
%TO.C,U1*%
X166000000Y-77040000D02*
X164050000Y-77040000D01*
X166000000Y-77040000D02*
X167950000Y-77040000D01*
X166000000Y-82160000D02*
X164050000Y-82160000D01*
X166000000Y-82160000D02*
X167950000Y-82160000D01*
X168940000Y-82395000D02*
X168460000Y-82395000D01*
X168700000Y-82065000D01*
X168940000Y-82395000D01*
G36*
X168940000Y-82395000D02*
G01*
X168460000Y-82395000D01*
X168700000Y-82065000D01*
X168940000Y-82395000D01*
G37*
%TO.C,C1*%
X159920000Y-81541252D02*
X159920000Y-81018748D01*
X161390000Y-81541252D02*
X161390000Y-81018748D01*
%TO.C,R17*%
X201664564Y-73265000D02*
X201210436Y-73265000D01*
X201664564Y-74735000D02*
X201210436Y-74735000D01*
%TO.C,C4*%
X155340000Y-96714437D02*
X155340000Y-102470000D01*
X155340000Y-102470000D02*
X157690000Y-102470000D01*
X156404437Y-95650000D02*
X155340000Y-96714437D01*
X156404437Y-95650000D02*
X157690000Y-95650000D01*
X160597500Y-94622500D02*
X160597500Y-95410000D01*
X160991250Y-95016250D02*
X160203750Y-95016250D01*
X161095563Y-95650000D02*
X159810000Y-95650000D01*
X161095563Y-95650000D02*
X162160000Y-96714437D01*
X162160000Y-96714437D02*
X162160000Y-102470000D01*
X162160000Y-102470000D02*
X159810000Y-102470000D01*
%TO.C,R14*%
X164677064Y-73140000D02*
X164222936Y-73140000D01*
X164677064Y-74610000D02*
X164222936Y-74610000D01*
%TO.C,R7*%
X205602064Y-91815000D02*
X205147936Y-91815000D01*
X205602064Y-93285000D02*
X205147936Y-93285000D01*
%TO.C,J5*%
X206315000Y-115570000D02*
X206315000Y-105350000D01*
X206315000Y-118170000D02*
X206315000Y-116840000D01*
X207645000Y-118170000D02*
X206315000Y-118170000D01*
X208915000Y-115570000D02*
X206315000Y-115570000D01*
X208915000Y-118170000D02*
X208915000Y-115570000D01*
X211515000Y-105350000D02*
X206315000Y-105350000D01*
X211515000Y-118170000D02*
X208915000Y-118170000D01*
X211515000Y-118170000D02*
X211515000Y-105350000D01*
%TO.C,R10*%
X169177064Y-73140000D02*
X168722936Y-73140000D01*
X169177064Y-74610000D02*
X168722936Y-74610000D01*
%TO.C,K4*%
X198460000Y-67420000D02*
X198460000Y-46280000D01*
X200150000Y-63200000D02*
X200150000Y-64470000D01*
X201420000Y-50500000D02*
X202690000Y-50500000D01*
X202940000Y-62690000D02*
X205480000Y-62690000D01*
X202940000Y-63200000D02*
X200150000Y-63200000D01*
X202940000Y-63200000D02*
X202940000Y-62690000D01*
X202940000Y-63710000D02*
X202940000Y-63200000D01*
X203960000Y-52405000D02*
X201420000Y-48595000D01*
X203960000Y-55580000D02*
X203960000Y-52405000D01*
X204720000Y-63710000D02*
X203710000Y-62690000D01*
X205480000Y-62690000D02*
X205480000Y-63200000D01*
X205480000Y-63200000D02*
X205480000Y-63710000D01*
X205480000Y-63710000D02*
X202940000Y-63710000D01*
X206500000Y-47960000D02*
X203960000Y-47960000D01*
X206500000Y-55580000D02*
X203960000Y-55580000D01*
X207770000Y-63200000D02*
X205480000Y-63200000D01*
X207770000Y-64470000D02*
X207770000Y-63200000D01*
X209460000Y-46280000D02*
X198460000Y-46280000D01*
X209460000Y-67420000D02*
X198460000Y-67420000D01*
X209460000Y-67420000D02*
X209460000Y-46280000D01*
X204087000Y-52405000D02*
G75*
G02*
X203833000Y-52405000I-127000J0D01*
G01*
X203833000Y-52405000D02*
G75*
G02*
X204087000Y-52405000I127000J0D01*
G01*
%TO.C,R4*%
X165772936Y-101265000D02*
X166227064Y-101265000D01*
X165772936Y-102735000D02*
X166227064Y-102735000D01*
%TO.C,R8*%
X170727064Y-103765000D02*
X170272936Y-103765000D01*
X170727064Y-105235000D02*
X170272936Y-105235000D01*
%TO.C,R15*%
X176664564Y-73265000D02*
X176210436Y-73265000D01*
X176664564Y-74735000D02*
X176210436Y-74735000D01*
%TO.C,D7*%
X164450000Y-68815000D02*
X163800000Y-68815000D01*
X164450000Y-68815000D02*
X165100000Y-68815000D01*
X164450000Y-71935000D02*
X163800000Y-71935000D01*
X164450000Y-71935000D02*
X165100000Y-71935000D01*
X163287500Y-68865000D02*
X163047500Y-68535000D01*
X163527500Y-68535000D01*
X163287500Y-68865000D01*
G36*
X163287500Y-68865000D02*
G01*
X163047500Y-68535000D01*
X163527500Y-68535000D01*
X163287500Y-68865000D01*
G37*
%TO.C,K1*%
X160810000Y-67420000D02*
X160810000Y-46280000D01*
X162500000Y-63200000D02*
X162500000Y-64470000D01*
X163770000Y-50500000D02*
X165040000Y-50500000D01*
X165290000Y-62690000D02*
X167830000Y-62690000D01*
X165290000Y-63200000D02*
X162500000Y-63200000D01*
X165290000Y-63200000D02*
X165290000Y-62690000D01*
X165290000Y-63710000D02*
X165290000Y-63200000D01*
X166310000Y-52405000D02*
X163770000Y-48595000D01*
X166310000Y-55580000D02*
X166310000Y-52405000D01*
X167070000Y-63710000D02*
X166060000Y-62690000D01*
X167830000Y-62690000D02*
X167830000Y-63200000D01*
X167830000Y-63200000D02*
X167830000Y-63710000D01*
X167830000Y-63710000D02*
X165290000Y-63710000D01*
X168850000Y-47960000D02*
X166310000Y-47960000D01*
X168850000Y-55580000D02*
X166310000Y-55580000D01*
X170120000Y-63200000D02*
X167830000Y-63200000D01*
X170120000Y-64470000D02*
X170120000Y-63200000D01*
X171810000Y-46280000D02*
X160810000Y-46280000D01*
X171810000Y-67420000D02*
X160810000Y-67420000D01*
X171810000Y-67420000D02*
X171810000Y-46280000D01*
X166437000Y-52405000D02*
G75*
G02*
X166183000Y-52405000I-127000J0D01*
G01*
X166183000Y-52405000D02*
G75*
G02*
X166437000Y-52405000I127000J0D01*
G01*
%TO.C,C8*%
X205636252Y-96815000D02*
X205113748Y-96815000D01*
X205636252Y-98285000D02*
X205113748Y-98285000D01*
%TO.C,R1*%
X172947064Y-79529000D02*
X172492936Y-79529000D01*
X172947064Y-80999000D02*
X172492936Y-80999000D01*
%TO.C,F1*%
X152905000Y-51136248D02*
X152905000Y-55543752D01*
X158245000Y-51136248D02*
X158245000Y-55543752D01*
%TO.C,D1*%
X152160000Y-73415000D02*
X152160000Y-77715000D01*
X152160000Y-73415000D02*
X159820000Y-73415000D01*
X152160000Y-77715000D02*
X159820000Y-77715000D01*
%TO.C,C6*%
X186761252Y-92465000D02*
X186238748Y-92465000D01*
X186761252Y-93935000D02*
X186238748Y-93935000D01*
%TO.C,D6*%
X200937500Y-94440000D02*
X200287500Y-94440000D01*
X200937500Y-94440000D02*
X201587500Y-94440000D01*
X200937500Y-97560000D02*
X200287500Y-97560000D01*
X200937500Y-97560000D02*
X201587500Y-97560000D01*
X202340000Y-97840000D02*
X201860000Y-97840000D01*
X202100000Y-97510000D01*
X202340000Y-97840000D01*
G36*
X202340000Y-97840000D02*
G01*
X201860000Y-97840000D01*
X202100000Y-97510000D01*
X202340000Y-97840000D01*
G37*
%TO.C,C5*%
X186201248Y-94965000D02*
X186723752Y-94965000D01*
X186201248Y-96435000D02*
X186723752Y-96435000D01*
%TO.C,D2*%
X165399000Y-85440000D02*
X165399000Y-87360000D01*
X165399000Y-87360000D02*
X168259000Y-87360000D01*
X168259000Y-85440000D02*
X165399000Y-85440000D01*
%TO.C,R12*%
X193602064Y-73165000D02*
X193147936Y-73165000D01*
X193602064Y-74635000D02*
X193147936Y-74635000D01*
D11*
%TO.C,RV2*%
X166000000Y-95850000D02*
X166000000Y-92450000D01*
X173000000Y-92450000D02*
X166000000Y-92450000D01*
X173000000Y-95850000D02*
X166000000Y-95850000D01*
X173000000Y-95850000D02*
X173000000Y-92450000D01*
D12*
%TO.C,C3*%
X167647252Y-83365000D02*
X167124748Y-83365000D01*
X167647252Y-84835000D02*
X167124748Y-84835000D01*
%TO.C,D3*%
X172960000Y-96350000D02*
X165300000Y-96350000D01*
X172960000Y-100650000D02*
X165300000Y-100650000D01*
X172960000Y-100650000D02*
X172960000Y-96350000D01*
%TO.C,R13*%
X206164564Y-73265000D02*
X205710436Y-73265000D01*
X206164564Y-74735000D02*
X205710436Y-74735000D01*
%TO.C,Q4*%
X204827500Y-70562500D02*
X204827500Y-69912500D01*
X204827500Y-70562500D02*
X204827500Y-71212500D01*
X207947500Y-70562500D02*
X207947500Y-69912500D01*
X207947500Y-70562500D02*
X207947500Y-71212500D01*
X204877500Y-71725000D02*
X204547500Y-71965000D01*
X204547500Y-71485000D01*
X204877500Y-71725000D01*
G36*
X204877500Y-71725000D02*
G01*
X204547500Y-71965000D01*
X204547500Y-71485000D01*
X204877500Y-71725000D01*
G37*
%TO.C,J3*%
X198695000Y-111970000D02*
X198695000Y-106830000D01*
X198695000Y-114570000D02*
X198695000Y-113240000D01*
X200025000Y-114570000D02*
X198695000Y-114570000D01*
X201355000Y-106830000D02*
X198695000Y-106830000D01*
X201355000Y-111970000D02*
X198695000Y-111970000D01*
X201355000Y-111970000D02*
X201355000Y-106830000D01*
%TO.C,K3*%
X185910000Y-67420000D02*
X185910000Y-46280000D01*
X187600000Y-63200000D02*
X187600000Y-64470000D01*
X188870000Y-50500000D02*
X190140000Y-50500000D01*
X190390000Y-62690000D02*
X192930000Y-62690000D01*
X190390000Y-63200000D02*
X187600000Y-63200000D01*
X190390000Y-63200000D02*
X190390000Y-62690000D01*
X190390000Y-63710000D02*
X190390000Y-63200000D01*
X191410000Y-52405000D02*
X188870000Y-48595000D01*
X191410000Y-55580000D02*
X191410000Y-52405000D01*
X192170000Y-63710000D02*
X191160000Y-62690000D01*
X192930000Y-62690000D02*
X192930000Y-63200000D01*
X192930000Y-63200000D02*
X192930000Y-63710000D01*
X192930000Y-63710000D02*
X190390000Y-63710000D01*
X193950000Y-47960000D02*
X191410000Y-47960000D01*
X193950000Y-55580000D02*
X191410000Y-55580000D01*
X195220000Y-63200000D02*
X192930000Y-63200000D01*
X195220000Y-64470000D02*
X195220000Y-63200000D01*
X196910000Y-46280000D02*
X185910000Y-46280000D01*
X196910000Y-67420000D02*
X185910000Y-67420000D01*
X196910000Y-67420000D02*
X196910000Y-46280000D01*
X191537000Y-52405000D02*
G75*
G02*
X191283000Y-52405000I-127000J0D01*
G01*
X191283000Y-52405000D02*
G75*
G02*
X191537000Y-52405000I127000J0D01*
G01*
%TO.C,J1*%
X157480000Y-36190000D02*
X157480000Y-43810000D01*
X157480000Y-37460000D02*
X167640000Y-37460000D01*
X157480000Y-43810000D02*
X167640000Y-43810000D01*
X167640000Y-36190000D02*
X157480000Y-36190000D01*
X167640000Y-43810000D02*
X167640000Y-36190000D01*
%TO.C,R2*%
X172492936Y-77265000D02*
X172947064Y-77265000D01*
X172492936Y-78735000D02*
X172947064Y-78735000D01*
%TO.C,R9*%
X205602064Y-94315000D02*
X205147936Y-94315000D01*
X205602064Y-95785000D02*
X205147936Y-95785000D01*
%TO.C,C2*%
X157420000Y-81503752D02*
X157420000Y-80981248D01*
X158890000Y-81503752D02*
X158890000Y-80981248D01*
%TO.C,D4*%
X207235000Y-86900000D02*
X199575000Y-86900000D01*
X207235000Y-91200000D02*
X199575000Y-91200000D01*
X207235000Y-91200000D02*
X207235000Y-86900000D01*
%TO.C,Q1*%
X167440000Y-70437500D02*
X167440000Y-69787500D01*
X167440000Y-70437500D02*
X167440000Y-71087500D01*
X170560000Y-70437500D02*
X170560000Y-69787500D01*
X170560000Y-70437500D02*
X170560000Y-71087500D01*
X167490000Y-71600000D02*
X167160000Y-71840000D01*
X167160000Y-71360000D01*
X167490000Y-71600000D01*
G36*
X167490000Y-71600000D02*
G01*
X167160000Y-71840000D01*
X167160000Y-71360000D01*
X167490000Y-71600000D01*
G37*
%TO.C,J2*%
X168800000Y-36110000D02*
X209640000Y-36110000D01*
X209640000Y-43890000D01*
X168800000Y-43890000D01*
X168800000Y-36110000D01*
%TO.C,R6*%
X170727064Y-101265000D02*
X170272936Y-101265000D01*
X170727064Y-102735000D02*
X170272936Y-102735000D01*
%TO.C,D5*%
X165937500Y-103940000D02*
X165287500Y-103940000D01*
X165937500Y-103940000D02*
X166587500Y-103940000D01*
X165937500Y-107060000D02*
X165287500Y-107060000D01*
X165937500Y-107060000D02*
X166587500Y-107060000D01*
X167340000Y-107340000D02*
X166860000Y-107340000D01*
X167100000Y-107010000D01*
X167340000Y-107340000D01*
G36*
X167340000Y-107340000D02*
G01*
X166860000Y-107340000D01*
X167100000Y-107010000D01*
X167340000Y-107340000D01*
G37*
%TO.C,Q3*%
X192365000Y-70462500D02*
X192365000Y-69812500D01*
X192365000Y-70462500D02*
X192365000Y-71112500D01*
X195485000Y-70462500D02*
X195485000Y-69812500D01*
X195485000Y-70462500D02*
X195485000Y-71112500D01*
X192415000Y-71625000D02*
X192085000Y-71865000D01*
X192085000Y-71385000D01*
X192415000Y-71625000D01*
G36*
X192415000Y-71625000D02*
G01*
X192085000Y-71865000D01*
X192085000Y-71385000D01*
X192415000Y-71625000D01*
G37*
%TO.C,R5*%
X200647936Y-91815000D02*
X201102064Y-91815000D01*
X200647936Y-93285000D02*
X201102064Y-93285000D01*
%TO.C,R11*%
X181164564Y-73265000D02*
X180710436Y-73265000D01*
X181164564Y-74735000D02*
X180710436Y-74735000D01*
%TO.C,D10*%
X201437500Y-68890000D02*
X200787500Y-68890000D01*
X201437500Y-68890000D02*
X202087500Y-68890000D01*
X201437500Y-72010000D02*
X200787500Y-72010000D01*
X201437500Y-72010000D02*
X202087500Y-72010000D01*
X200275000Y-68940000D02*
X200035000Y-68610000D01*
X200515000Y-68610000D01*
X200275000Y-68940000D01*
G36*
X200275000Y-68940000D02*
G01*
X200035000Y-68610000D01*
X200515000Y-68610000D01*
X200275000Y-68940000D01*
G37*
%TO.C,R3*%
X167502064Y-88165000D02*
X167047936Y-88165000D01*
X167502064Y-89635000D02*
X167047936Y-89635000D01*
%TO.C,RV1*%
X165251000Y-115475000D02*
G75*
G02*
X154711000Y-115475000I-5270000J0D01*
G01*
X154711000Y-115475000D02*
G75*
G02*
X165251000Y-115475000I5270000J0D01*
G01*
%TO.C,A1*%
X177100000Y-81260000D02*
X177100000Y-83930000D01*
X177100000Y-86470000D02*
X177100000Y-124700000D01*
X177100000Y-124700000D02*
X182180000Y-124700000D01*
X179770000Y-83930000D02*
X177100000Y-83930000D01*
X179770000Y-86470000D02*
X177100000Y-86470000D01*
X179770000Y-86470000D02*
X179770000Y-83930000D01*
X179770000Y-86470000D02*
X179770000Y-122030000D01*
X179770000Y-122030000D02*
X177100000Y-122030000D01*
X182180000Y-116820000D02*
X190060000Y-116820000D01*
X182180000Y-127240000D02*
X182180000Y-116820000D01*
X190060000Y-116820000D02*
X190060000Y-127240000D01*
X190060000Y-127240000D02*
X182180000Y-127240000D01*
X192470000Y-83930000D02*
X192470000Y-122030000D01*
X192470000Y-83930000D02*
X195140000Y-83930000D01*
X192470000Y-122030000D02*
X195140000Y-122030000D01*
X195140000Y-81260000D02*
X177100000Y-81260000D01*
X195140000Y-124700000D02*
X190060000Y-124700000D01*
X195140000Y-124700000D02*
X195140000Y-81260000D01*
%TO.C,D9*%
X188937500Y-68890000D02*
X188287500Y-68890000D01*
X188937500Y-68890000D02*
X189587500Y-68890000D01*
X188937500Y-72010000D02*
X188287500Y-72010000D01*
X188937500Y-72010000D02*
X189587500Y-72010000D01*
X187775000Y-68940000D02*
X187535000Y-68610000D01*
X188015000Y-68610000D01*
X187775000Y-68940000D01*
G36*
X187775000Y-68940000D02*
G01*
X187535000Y-68610000D01*
X188015000Y-68610000D01*
X187775000Y-68940000D01*
G37*
%TO.C,K2*%
X173360000Y-67420000D02*
X173360000Y-46280000D01*
X175050000Y-63200000D02*
X175050000Y-64470000D01*
X176320000Y-50500000D02*
X177590000Y-50500000D01*
X177840000Y-62690000D02*
X180380000Y-62690000D01*
X177840000Y-63200000D02*
X175050000Y-63200000D01*
X177840000Y-63200000D02*
X177840000Y-62690000D01*
X177840000Y-63710000D02*
X177840000Y-63200000D01*
X178860000Y-52405000D02*
X176320000Y-48595000D01*
X178860000Y-55580000D02*
X178860000Y-52405000D01*
X179620000Y-63710000D02*
X178610000Y-62690000D01*
X180380000Y-62690000D02*
X180380000Y-63200000D01*
X180380000Y-63200000D02*
X180380000Y-63710000D01*
X180380000Y-63710000D02*
X177840000Y-63710000D01*
X181400000Y-47960000D02*
X178860000Y-47960000D01*
X181400000Y-55580000D02*
X178860000Y-55580000D01*
X182670000Y-63200000D02*
X180380000Y-63200000D01*
X182670000Y-64470000D02*
X182670000Y-63200000D01*
X184360000Y-46280000D02*
X173360000Y-46280000D01*
X184360000Y-67420000D02*
X173360000Y-67420000D01*
X184360000Y-67420000D02*
X184360000Y-46280000D01*
X178987000Y-52405000D02*
G75*
G02*
X178733000Y-52405000I-127000J0D01*
G01*
X178733000Y-52405000D02*
G75*
G02*
X178987000Y-52405000I127000J0D01*
G01*
%TO.C,C7*%
X170798752Y-106265000D02*
X170276248Y-106265000D01*
X170798752Y-107735000D02*
X170276248Y-107735000D01*
D11*
%TO.C,RV3*%
X198875000Y-86250000D02*
X198875000Y-82850000D01*
X205875000Y-82850000D02*
X198875000Y-82850000D01*
X205875000Y-86250000D02*
X198875000Y-86250000D01*
X205875000Y-86250000D02*
X205875000Y-82850000D01*
D12*
%TO.C,R16*%
X189102064Y-73165000D02*
X188647936Y-73165000D01*
X189102064Y-74635000D02*
X188647936Y-74635000D01*
%TO.C,J7*%
X168215000Y-109160000D02*
X168215000Y-124520000D01*
X168215000Y-109160000D02*
X170815000Y-109160000D01*
X168215000Y-124520000D02*
X173415000Y-124520000D01*
X170815000Y-109160000D02*
X170815000Y-111760000D01*
X170815000Y-111760000D02*
X173415000Y-111760000D01*
X172085000Y-109160000D02*
X173415000Y-109160000D01*
X173415000Y-109160000D02*
X173415000Y-110490000D01*
X173415000Y-111760000D02*
X173415000Y-124520000D01*
%TO.C,Q2*%
X179815000Y-70450000D02*
X179815000Y-69800000D01*
X179815000Y-70450000D02*
X179815000Y-71100000D01*
X182935000Y-70450000D02*
X182935000Y-69800000D01*
X182935000Y-70450000D02*
X182935000Y-71100000D01*
X179865000Y-71612500D02*
X179535000Y-71852500D01*
X179535000Y-71372500D01*
X179865000Y-71612500D01*
G36*
X179865000Y-71612500D02*
G01*
X179535000Y-71852500D01*
X179535000Y-71372500D01*
X179865000Y-71612500D01*
G37*
%TD*%
M02*
