%TF.GenerationSoftware,KiCad,Pcbnew,8.0.2-1*%
%TF.CreationDate,2024-05-28T09:05:20+02:00*%
%TF.ProjectId,Antenna Rotator,416e7465-6e6e-4612-9052-6f7461746f72,rev?*%
%TF.SameCoordinates,Original*%
%TF.FileFunction,Paste,Top*%
%TF.FilePolarity,Positive*%
%FSLAX46Y46*%
G04 Gerber Fmt 4.6, Leading zero omitted, Abs format (unit mm)*
G04 Created by KiCad (PCBNEW 8.0.2-1) date 2024-05-28 09:05:20*
%MOMM*%
%LPD*%
G01*
G04 APERTURE LIST*
G04 Aperture macros list*
%AMRoundRect*
0 Rectangle with rounded corners*
0 $1 Rounding radius*
0 $2 $3 $4 $5 $6 $7 $8 $9 X,Y pos of 4 corners*
0 Add a 4 corners polygon primitive as box body*
4,1,4,$2,$3,$4,$5,$6,$7,$8,$9,$2,$3,0*
0 Add four circle primitives for the rounded corners*
1,1,$1+$1,$2,$3*
1,1,$1+$1,$4,$5*
1,1,$1+$1,$6,$7*
1,1,$1+$1,$8,$9*
0 Add four rect primitives between the rounded corners*
20,1,$1+$1,$2,$3,$4,$5,0*
20,1,$1+$1,$4,$5,$6,$7,0*
20,1,$1+$1,$6,$7,$8,$9,0*
20,1,$1+$1,$8,$9,$2,$3,0*%
%AMOutline4P*
0 Free polygon, 4 corners , with rotation*
0 The origin of the aperture is its center*
0 number of corners: always 4*
0 $1 to $8 corner X, Y*
0 $9 Rotation angle, in degrees counterclockwise*
0 create outline with 4 corners*
4,1,4,$1,$2,$3,$4,$5,$6,$7,$8,$1,$2,$9*%
G04 Aperture macros list end*
%ADD10RoundRect,0.150000X-0.587500X-0.150000X0.587500X-0.150000X0.587500X0.150000X-0.587500X0.150000X0*%
%ADD11R,2.200000X1.500000*%
%ADD12RoundRect,0.150000X0.825000X0.150000X-0.825000X0.150000X-0.825000X-0.150000X0.825000X-0.150000X0*%
%ADD13RoundRect,0.250000X0.475000X-0.337500X0.475000X0.337500X-0.475000X0.337500X-0.475000X-0.337500X0*%
%ADD14RoundRect,0.250000X0.350000X0.450000X-0.350000X0.450000X-0.350000X-0.450000X0.350000X-0.450000X0*%
%ADD15RoundRect,0.250000X-0.550000X1.500000X-0.550000X-1.500000X0.550000X-1.500000X0.550000X1.500000X0*%
%ADD16RoundRect,0.250000X-0.350000X-0.450000X0.350000X-0.450000X0.350000X0.450000X-0.350000X0.450000X0*%
%ADD17RoundRect,0.250000X0.337500X0.475000X-0.337500X0.475000X-0.337500X-0.475000X0.337500X-0.475000X0*%
%ADD18RoundRect,0.250001X-2.474999X0.799999X-2.474999X-0.799999X2.474999X-0.799999X2.474999X0.799999X0*%
%ADD19Outline4P,-1.800000X-1.150000X1.800000X-0.550000X1.800000X0.550000X-1.800000X1.150000X0.000000*%
%ADD20Outline4P,-1.800000X-1.150000X1.800000X-0.550000X1.800000X0.550000X-1.800000X1.150000X180.000000*%
%ADD21RoundRect,0.150000X0.587500X0.150000X-0.587500X0.150000X-0.587500X-0.150000X0.587500X-0.150000X0*%
%ADD22RoundRect,0.250000X-0.337500X-0.475000X0.337500X-0.475000X0.337500X0.475000X-0.337500X0.475000X0*%
%ADD23RoundRect,0.250000X-0.325000X-0.450000X0.325000X-0.450000X0.325000X0.450000X-0.325000X0.450000X0*%
%ADD24RoundRect,0.150000X0.150000X-0.587500X0.150000X0.587500X-0.150000X0.587500X-0.150000X-0.587500X0*%
G04 APERTURE END LIST*
D10*
%TO.C,D8*%
X175500000Y-69500000D03*
X175500000Y-71400000D03*
X177375000Y-70450000D03*
%TD*%
D11*
%TO.C,L1*%
X160655000Y-86335000D03*
X160655000Y-92735000D03*
%TD*%
D12*
%TO.C,U1*%
X168475000Y-81505000D03*
X168475000Y-80235000D03*
X168475000Y-78965000D03*
X168475000Y-77695000D03*
X163525000Y-77695000D03*
X163525000Y-78965000D03*
X163525000Y-80235000D03*
X163525000Y-81505000D03*
%TD*%
D13*
%TO.C,C1*%
X160655000Y-82317500D03*
X160655000Y-80242500D03*
%TD*%
D14*
%TO.C,R17*%
X202437500Y-74000000D03*
X200437500Y-74000000D03*
%TD*%
D15*
%TO.C,C4*%
X158750000Y-96260000D03*
X158750000Y-101860000D03*
%TD*%
D14*
%TO.C,R14*%
X165450000Y-73875000D03*
X163450000Y-73875000D03*
%TD*%
%TO.C,R7*%
X206375000Y-92550000D03*
X204375000Y-92550000D03*
%TD*%
%TO.C,R10*%
X169950000Y-73875000D03*
X167950000Y-73875000D03*
%TD*%
D16*
%TO.C,R4*%
X165000000Y-102000000D03*
X167000000Y-102000000D03*
%TD*%
D14*
%TO.C,R8*%
X171500000Y-104500000D03*
X169500000Y-104500000D03*
%TD*%
%TO.C,R15*%
X177437500Y-74000000D03*
X175437500Y-74000000D03*
%TD*%
D10*
%TO.C,D7*%
X163512500Y-69425000D03*
X163512500Y-71325000D03*
X165387500Y-70375000D03*
%TD*%
D17*
%TO.C,C8*%
X206412500Y-97550000D03*
X204337500Y-97550000D03*
%TD*%
D14*
%TO.C,R1*%
X173720000Y-80264000D03*
X171720000Y-80264000D03*
%TD*%
D18*
%TO.C,F1*%
X155575000Y-49865000D03*
X155575000Y-56815000D03*
%TD*%
D19*
%TO.C,D1*%
X154220000Y-75565000D03*
D20*
X160020000Y-75565000D03*
%TD*%
D17*
%TO.C,C6*%
X187537500Y-93200000D03*
X185462500Y-93200000D03*
%TD*%
D21*
%TO.C,D6*%
X201875000Y-96950000D03*
X201875000Y-95050000D03*
X200000000Y-96000000D03*
%TD*%
D22*
%TO.C,C5*%
X185425000Y-95700000D03*
X187500000Y-95700000D03*
%TD*%
D23*
%TO.C,D2*%
X166234000Y-86400000D03*
X168284000Y-86400000D03*
%TD*%
D14*
%TO.C,R12*%
X194375000Y-73900000D03*
X192375000Y-73900000D03*
%TD*%
D17*
%TO.C,C3*%
X168423500Y-84100000D03*
X166348500Y-84100000D03*
%TD*%
D20*
%TO.C,D3*%
X170900000Y-98500000D03*
D19*
X165100000Y-98500000D03*
%TD*%
D14*
%TO.C,R13*%
X206937500Y-74000000D03*
X204937500Y-74000000D03*
%TD*%
D24*
%TO.C,Q4*%
X205437500Y-71500000D03*
X207337500Y-71500000D03*
X206387500Y-69625000D03*
%TD*%
D16*
%TO.C,R2*%
X171720000Y-78000000D03*
X173720000Y-78000000D03*
%TD*%
D14*
%TO.C,R9*%
X206375000Y-95050000D03*
X204375000Y-95050000D03*
%TD*%
D13*
%TO.C,C2*%
X158155000Y-82280000D03*
X158155000Y-80205000D03*
%TD*%
D20*
%TO.C,D4*%
X205175000Y-89050000D03*
D19*
X199375000Y-89050000D03*
%TD*%
D24*
%TO.C,Q1*%
X168050000Y-71375000D03*
X169950000Y-71375000D03*
X169000000Y-69500000D03*
%TD*%
D14*
%TO.C,R6*%
X171500000Y-102000000D03*
X169500000Y-102000000D03*
%TD*%
D21*
%TO.C,D5*%
X166875000Y-106450000D03*
X166875000Y-104550000D03*
X165000000Y-105500000D03*
%TD*%
D24*
%TO.C,Q3*%
X192975000Y-71400000D03*
X194875000Y-71400000D03*
X193925000Y-69525000D03*
%TD*%
D16*
%TO.C,R5*%
X199875000Y-92550000D03*
X201875000Y-92550000D03*
%TD*%
D14*
%TO.C,R11*%
X181937500Y-74000000D03*
X179937500Y-74000000D03*
%TD*%
D10*
%TO.C,D10*%
X200500000Y-69500000D03*
X200500000Y-71400000D03*
X202375000Y-70450000D03*
%TD*%
D14*
%TO.C,R3*%
X168275000Y-88900000D03*
X166275000Y-88900000D03*
%TD*%
D10*
%TO.C,D9*%
X188000000Y-69500000D03*
X188000000Y-71400000D03*
X189875000Y-70450000D03*
%TD*%
D17*
%TO.C,C7*%
X171575000Y-107000000D03*
X169500000Y-107000000D03*
%TD*%
D14*
%TO.C,R16*%
X189875000Y-73900000D03*
X187875000Y-73900000D03*
%TD*%
D24*
%TO.C,Q2*%
X180425000Y-71387500D03*
X182325000Y-71387500D03*
X181375000Y-69512500D03*
%TD*%
M02*
