%TF.GenerationSoftware,KiCad,Pcbnew,8.0.2-1*%
%TF.CreationDate,2024-05-28T09:05:20+02:00*%
%TF.ProjectId,Antenna Rotator,416e7465-6e6e-4612-9052-6f7461746f72,rev?*%
%TF.SameCoordinates,Original*%
%TF.FileFunction,Soldermask,Bot*%
%TF.FilePolarity,Negative*%
%FSLAX46Y46*%
G04 Gerber Fmt 4.6, Leading zero omitted, Abs format (unit mm)*
G04 Created by KiCad (PCBNEW 8.0.2-1) date 2024-05-28 09:05:20*
%MOMM*%
%LPD*%
G01*
G04 APERTURE LIST*
%ADD10R,1.700000X1.700000*%
%ADD11O,1.700000X1.700000*%
%ADD12R,2.300000X2.300000*%
%ADD13C,2.300000*%
%ADD14C,6.400000*%
%ADD15C,1.600000*%
%ADD16R,3.000000X3.000000*%
%ADD17C,3.000000*%
%ADD18C,2.340000*%
%ADD19R,1.600000X1.600000*%
%ADD20O,1.600000X1.600000*%
G04 APERTURE END LIST*
D10*
%TO.C,J4*%
X172720000Y-87700000D03*
D11*
X172720000Y-85160000D03*
%TD*%
D10*
%TO.C,J5*%
X207645000Y-116840000D03*
D11*
X210185000Y-116840000D03*
X207645000Y-114300000D03*
X210185000Y-114300000D03*
X207645000Y-111760000D03*
X210185000Y-111760000D03*
X207645000Y-109220000D03*
X210185000Y-109220000D03*
X207645000Y-106680000D03*
X210185000Y-106680000D03*
%TD*%
D12*
%TO.C,K4*%
X207770000Y-65740000D03*
D13*
X207770000Y-55580000D03*
X207770000Y-47960000D03*
X200150000Y-50500000D03*
X200150000Y-65740000D03*
%TD*%
D14*
%TO.C,H2*%
X215000000Y-37500000D03*
%TD*%
D12*
%TO.C,K1*%
X170120000Y-65740000D03*
D13*
X170120000Y-55580000D03*
X170120000Y-47960000D03*
X162500000Y-50500000D03*
X162500000Y-65740000D03*
%TD*%
D14*
%TO.C,H3*%
X150000000Y-125000000D03*
%TD*%
D15*
%TO.C,RV2*%
X172000000Y-94800000D03*
X167000000Y-93500000D03*
%TD*%
D10*
%TO.C,J3*%
X200025000Y-113240000D03*
D11*
X200025000Y-110700000D03*
X200025000Y-108160000D03*
%TD*%
D12*
%TO.C,K3*%
X195220000Y-65740000D03*
D13*
X195220000Y-55580000D03*
X195220000Y-47960000D03*
X187600000Y-50500000D03*
X187600000Y-65740000D03*
%TD*%
D16*
%TO.C,J1*%
X165100000Y-40000000D03*
D17*
X160020000Y-40000000D03*
%TD*%
D14*
%TO.C,H4*%
X215000000Y-125000000D03*
%TD*%
D16*
%TO.C,J2*%
X171440000Y-40000000D03*
D17*
X176520000Y-40000000D03*
X181600000Y-40000000D03*
X186680000Y-40000000D03*
X191760000Y-40000000D03*
X196840000Y-40000000D03*
X201920000Y-40000000D03*
X207000000Y-40000000D03*
%TD*%
D14*
%TO.C,H1*%
X150000000Y-37500000D03*
%TD*%
D18*
%TO.C,RV1*%
X157480000Y-117975000D03*
X162480000Y-115475000D03*
X157480000Y-112975000D03*
%TD*%
D19*
%TO.C,A1*%
X178500000Y-85200000D03*
D20*
X178500000Y-87740000D03*
X178500000Y-90280000D03*
X178500000Y-92820000D03*
X178500000Y-95360000D03*
X178500000Y-97900000D03*
X178500000Y-100440000D03*
X178500000Y-102980000D03*
X178500000Y-105520000D03*
X178500000Y-108060000D03*
X178500000Y-110600000D03*
X178500000Y-113140000D03*
X178500000Y-115680000D03*
X178500000Y-118220000D03*
X178500000Y-120760000D03*
X193740000Y-120760000D03*
X193740000Y-118220000D03*
X193740000Y-115680000D03*
X193740000Y-113140000D03*
X193740000Y-110600000D03*
X193740000Y-108060000D03*
X193740000Y-105520000D03*
X193740000Y-102980000D03*
X193740000Y-100440000D03*
X193740000Y-97900000D03*
X193740000Y-95360000D03*
X193740000Y-92820000D03*
X193740000Y-90280000D03*
X193740000Y-87740000D03*
X193740000Y-85200000D03*
%TD*%
D12*
%TO.C,K2*%
X182670000Y-65740000D03*
D13*
X182670000Y-55580000D03*
X182670000Y-47960000D03*
X175050000Y-50500000D03*
X175050000Y-65740000D03*
%TD*%
D15*
%TO.C,RV3*%
X204875000Y-85200000D03*
X199875000Y-83900000D03*
%TD*%
D10*
%TO.C,J7*%
X172085000Y-110490000D03*
D11*
X169545000Y-110490000D03*
X172085000Y-113030000D03*
X169545000Y-113030000D03*
X172085000Y-115570000D03*
X169545000Y-115570000D03*
X172085000Y-118110000D03*
X169545000Y-118110000D03*
X172085000Y-120650000D03*
X169545000Y-120650000D03*
X172085000Y-123190000D03*
X169545000Y-123190000D03*
%TD*%
M02*
